<svg xmlns="http://www.w3.org/2000/svg" width="47.234" height="37.082" viewBox="0 0 47.234 37.082"><g transform="translate(-257.332 102.351)"><path d="M1.373,36.082a.588.588,0,1,1,0-1.176H11.5a4.069,4.069,0,0,1,1.472-2.754c-.068-1.031-.312-4.751-.356-5.312a10.454,10.454,0,0,0-.442-2.2.591.591,0,0,1-.015-.059,3.957,3.957,0,0,1-.959-1.8,2.57,2.57,0,0,1-1.345-1.173A3.044,3.044,0,0,1,9.53,19.8a2.537,2.537,0,0,1-1.419-1.037,3.158,3.158,0,0,1-.394-2.093,2.332,2.332,0,0,1-.923-1.317,3.853,3.853,0,0,1,.714-3.025,1.276,1.276,0,0,0,.16-1.313c-.033-.041-.071-.088-.229-.037-.466.156-1.269.39-2.12.638-1.018.3-2.411.7-2.643.819a1.57,1.57,0,0,1-1.53-.122A2.37,2.37,0,0,1,0,10.433c-.059-2.391,2.14-5.141,2.915-5.915.114-.115.233-.24.356-.37.159-.168.325-.344.5-.518L3.758,3.6A3.049,3.049,0,0,1,4.209.244.59.59,0,0,1,4.784.008L5,.043a.588.588,0,0,1-.015,1.162A1.869,1.869,0,0,0,4.71,2.852a2.76,2.76,0,0,1,1.13-.446A4,4,0,0,1,7.712.226a.587.587,0,0,1,.829.3,7.621,7.621,0,0,1,.516,2.309,12.877,12.877,0,0,1,4.712,2.832,2.748,2.748,0,0,1,2.705.779,4.083,4.083,0,0,1,3.538,1.019,3.543,3.543,0,0,1,3.712.675A3.842,3.842,0,0,1,25.811,7.7a3.3,3.3,0,0,1,1.9.736,4.156,4.156,0,0,1,2.3-1,2.914,2.914,0,0,1,1.735.329,3.571,3.571,0,0,1,3.926-.192,3.768,3.768,0,0,1,2.96.681A2.421,2.421,0,0,1,39.35,9.3a2.218,2.218,0,0,1,1.656.515,3.075,3.075,0,0,1,1.13,2.507,4.2,4.2,0,0,1,2.18,4.05.587.587,0,1,1-1.174,0,3.071,3.071,0,0,0-1.909-3.2.588.588,0,0,1-.308-.668,1.86,1.86,0,0,0-.654-1.777,1,1,0,0,0-1.119-.162.586.586,0,0,1-.85-.525,1.169,1.169,0,0,0-.437-.9,2.749,2.749,0,0,0-2.228-.385.6.6,0,0,1-.423-.09c-.868-.58-2.358-.615-2.907.209a.587.587,0,0,1-.9.089A1.564,1.564,0,0,0,30.12,8.6a2.768,2.768,0,0,0-1.908,1.022.589.589,0,0,1-.472.263.554.554,0,0,1-.487-.236,2.03,2.03,0,0,0-1.525-.781,2.357,2.357,0,0,0-1.684.472.587.587,0,0,1-.9-.09,2.3,2.3,0,0,0-2.907-.581.59.59,0,0,1-.756-.088C18.509,7.55,17.7,7.46,16.261,7.651a.592.592,0,0,1-.6-.32,1.569,1.569,0,0,0-1.877-.456.585.585,0,0,1-.18.036h-.011a.589.589,0,0,1-.469-.218A8.418,8.418,0,0,0,11.19,5.128a1.483,1.483,0,0,1-.208.66,2.965,2.965,0,0,1,.706,1.839,1.907,1.907,0,0,1-.82,1.7.588.588,0,1,1-.639-.986.763.763,0,0,0,.283-.686,1.646,1.646,0,0,0-.647-1.291.587.587,0,0,1-.087-.95c.169-.148.249-.284.238-.4-.027-.293-.476-.671-.711-.81a.592.592,0,0,1-.06-.04c-.143-.058-.268-.105-.37-.143a.589.589,0,0,1-.507.291.606.606,0,0,1-.186-.03.59.59,0,0,1-.372-.744,3.69,3.69,0,0,0-.126-1.854,3.224,3.224,0,0,0-.966,2.109.588.588,0,0,1-1.171-.063A6.162,6.162,0,0,0,4.127,4.955c-.132.139-.258.273-.379.393a10.447,10.447,0,0,0-2.476,4.2,2.59,2.59,0,0,0,.983-.277.224.224,0,0,1,.206.378,3.516,3.516,0,0,1-1.21,1.067,1.291,1.291,0,0,0,.5.583c.059.036.261.148.4.077a29.616,29.616,0,0,1,2.84-.9c.839-.246,1.631-.476,2.075-.626A1.325,1.325,0,0,1,8.6,10.3a2.4,2.4,0,0,1-.116,2.678,2.751,2.751,0,0,0-.556,2.071,1.236,1.236,0,0,0,.7.8.587.587,0,0,1,.3.687A2.243,2.243,0,0,0,9.1,18.124a1.615,1.615,0,0,0,1.211.644.588.588,0,0,1,.474.768,1.947,1.947,0,0,0,.1,1.507,1.453,1.453,0,0,0,.97.715.588.588,0,0,1,.441.5,2.333,2.333,0,0,0,2.4,2.118,14.382,14.382,0,0,0-.54-1.428.588.588,0,1,1,1.068-.49A14.5,14.5,0,0,1,16.4,26.751c.05.656.36,5.388.373,5.589a.591.591,0,0,1-.171.454,3.385,3.385,0,0,0-1.316,2.111h1.432a4.712,4.712,0,0,1,1.505-2.469c.072-1.033.321-4.763.352-6.767a.588.588,0,0,1,1.173-.05.584.584,0,0,1,.174.208,1.381,1.381,0,0,0,.9.59,1.986,1.986,0,0,0,1.692-.407.588.588,0,0,1,.766.052,2.707,2.707,0,0,0,3.375.3.587.587,0,0,1,.741.074,1.353,1.353,0,0,0,1.3.337,1.5,1.5,0,0,0,1.078-.851.588.588,0,0,1,.81-.345,1.163,1.163,0,0,0,1.61-.536.588.588,0,0,1,1.052.527,2.267,2.267,0,0,1-2.624,1.254,2.814,2.814,0,0,1-1.657,1.1,2.532,2.532,0,0,1-2.038-.349,3.661,3.661,0,0,1-1.739.446,4.065,4.065,0,0,1-2.366-.8,3.1,3.1,0,0,1-2.27.35,2.905,2.905,0,0,1-.848-.346c-.1,2.431-.324,5.537-.326,5.576a.588.588,0,0,1-.273.455,3.859,3.859,0,0,0-1.191,1.658H34.628a3.445,3.445,0,0,1,1.27-2.56,45.118,45.118,0,0,0,.469-5.982.588.588,0,0,1,1.17-.113,50.02,50.02,0,0,1-.507,6.5.592.592,0,0,1-.266.418,2.209,2.209,0,0,0-.96,1.733h1.43a3.445,3.445,0,0,1,1.246-2.542c.054-1.107.239-5.144.12-6.371a5.71,5.71,0,0,0-1.366-.608,9.35,9.35,0,0,1-4.651-3.018,3,3,0,0,1-2.06-.024,2.619,2.619,0,0,1-2.009.853,2.96,2.96,0,0,1-1.495-.388,3.255,3.255,0,0,1-2.475.8,1.968,1.968,0,0,1-.92-.343A2.357,2.357,0,0,1,22.1,23.8a2.642,2.642,0,0,1-.374-.026,2.449,2.449,0,0,1-1.606-.867,2.088,2.088,0,0,1-1.837.22,2.18,2.18,0,0,1-1.547-1.933.588.588,0,0,1,1.175,0,1.034,1.034,0,0,0,.744.818.987.987,0,0,0,1.175-.427.588.588,0,0,1,1.048.241,1.127,1.127,0,0,0,1.007.784,1.139,1.139,0,0,0,1.22-.543.588.588,0,0,1,1.084.076c.068.2.311.275.5.3a1.986,1.986,0,0,0,1.794-.8.6.6,0,0,1,.526-.268.583.583,0,0,1,.493.324,1.4,1.4,0,0,0,1.008.326h.033a1.365,1.365,0,0,0,1.258-.7.585.585,0,0,1,.851-.226,1.786,1.786,0,0,0,1.711.092,1.151,1.151,0,0,0,.729-.794.594.594,0,0,1,.263-.419.587.587,0,0,1,.489-.071,1.6,1.6,0,0,0,1.066-.067.816.816,0,0,0,.368-.551.588.588,0,0,1,1.141.286,1.979,1.979,0,0,1-.93,1.286,2.444,2.444,0,0,1-1.411.273,2.218,2.218,0,0,1-.48.633,8.55,8.55,0,0,0,4.041,2.518c1.143.423,2.046.757,2.127,1.6.146,1.508-.118,6.612-.13,6.828a.592.592,0,0,1-.27.465,2.206,2.206,0,0,0-.961,1.733h1.813a3.643,3.643,0,0,1,.919-2.495c.092-1.2.513-6.738.684-7.963a3.945,3.945,0,0,0-.842-.665c-1.331-.9-3.56-2.407-2.365-5.89a.587.587,0,0,1,1.112.381,3.259,3.259,0,0,0,.124,2.923,1.4,1.4,0,0,0,.754-.667,1.532,1.532,0,0,0,.008-1.363.587.587,0,0,1,.253-.757,1.543,1.543,0,0,0,.658-1.331.7.7,0,0,0-.407-.677.587.587,0,1,1,.467-1.077,1.86,1.86,0,0,1,1.114,1.7,2.808,2.808,0,0,1-.85,2.112,2.626,2.626,0,0,1-1.178,2.969,11.96,11.96,0,0,0,.969.7c.754.509,1.466.991,1.352,1.778-.18,1.235-.691,8.064-.7,8.132a.6.6,0,0,1-.191.391,2.429,2.429,0,0,0-.709,1.8h4.249a.588.588,0,0,1,0,1.176Zm12.736-1.176a4.068,4.068,0,0,1,1.471-2.754c-.068-1.031-.311-4.751-.355-5.312a9.094,9.094,0,0,0-.205-1.309,4.537,4.537,0,0,1-.459.023,3.661,3.661,0,0,1-.965-.123,9.929,9.929,0,0,1,.2,1.32c.049.656.359,5.388.372,5.589a.591.591,0,0,1-.171.454,3.385,3.385,0,0,0-1.314,2.111Zm7.629-16.192a2.461,2.461,0,0,1-1.686-.985,2.139,2.139,0,0,1-2.015.173,2.179,2.179,0,0,1-1.189-2,.588.588,0,1,1,1.175,0,1.031,1.031,0,0,0,.512.933c.353.165.846.006,1.385-.445a.588.588,0,0,1,.954.339,1.149,1.149,0,0,0,1.022.817,1.133,1.133,0,0,0,1.205-.576.588.588,0,0,1,1.084.076c.068.2.311.274.5.3a1.99,1.99,0,0,0,1.794-.8.606.606,0,0,1,.526-.269.589.589,0,0,1,.493.324,1.435,1.435,0,0,0,1.041.328,1.369,1.369,0,0,0,1.258-.7A.587.587,0,0,1,30.655,16a1.786,1.786,0,0,0,1.711.093,1.153,1.153,0,0,0,.729-.794.594.594,0,0,1,.225-.392.581.581,0,0,1,.437-.117,1.331,1.331,0,0,0,1.525-.989.588.588,0,0,1,1.141.283,2.42,2.42,0,0,1-2.308,1.885,2.481,2.481,0,0,1-1.259,1.193,3.013,3.013,0,0,1-2.332.086,2.622,2.622,0,0,1-2.009.852,2.969,2.969,0,0,1-1.495-.387,3.248,3.248,0,0,1-2.475.8,1.992,1.992,0,0,1-.909-.336,2.269,2.269,0,0,1-1.527.56A2.705,2.705,0,0,1,21.739,18.714ZM4.12,6.959a.588.588,0,0,1,.263-.789L5.127,5.8a.588.588,0,1,1,.526,1.051l-.743.372a.581.581,0,0,1-.264.062A.588.588,0,0,1,4.12,6.959Z" transform="translate(257.832 -101.851)" fill="#004480"/><path d="M45.647,36.582H1.373a1.088,1.088,0,1,1,0-2.176H11.05a4.675,4.675,0,0,1,1.412-2.444l-.042-.636c-.1-1.5-.264-4-.3-4.447a9.887,9.887,0,0,0-.408-2.05,4.459,4.459,0,0,1-.929-1.686,3.066,3.066,0,0,1-1.363-1.294,3.484,3.484,0,0,1-.414-1.716,2.945,2.945,0,0,1-1.316-1.1,3.55,3.55,0,0,1-.5-2.142,2.817,2.817,0,0,1-.883-1.411,4.343,4.343,0,0,1,.781-3.43,1.121,1.121,0,0,0,.187-.5c-.463.145-1.1.33-1.761.524l-.058.017c-.82.239-2.347.685-2.562.787a1.87,1.87,0,0,1-.846.2,2.272,2.272,0,0,1-1.162-.339A2.887,2.887,0,0,1-.5,10.445C-.562,7.864,1.69,5.036,2.563,4.164c.1-.1.215-.221.332-.344L2.91,3.8c.086-.091.173-.183.264-.277A3.579,3.579,0,0,1,3.8-.048,1.09,1.09,0,0,1,4.688-.5a1.105,1.105,0,0,1,.177.014l.214.035a1.088,1.088,0,0,1,.239,2.078,1.873,1.873,0,0,0-.168.44,2.956,2.956,0,0,1,.328-.1A4.474,4.474,0,0,1,7.471-.212a1.1,1.1,0,0,1,.891-.072,1.086,1.086,0,0,1,.645.622,8.422,8.422,0,0,1,.528,2.133,13.329,13.329,0,0,1,4.4,2.654,3.822,3.822,0,0,1,.531-.037,3.124,3.124,0,0,1,2.206.835c.2-.015.394-.023.576-.023a4.253,4.253,0,0,1,2.863.988A3.842,3.842,0,0,1,21.3,6.7a4.073,4.073,0,0,1,2.5.839,4.387,4.387,0,0,1,1.735-.352c.1,0,.21,0,.312.011a3.857,3.857,0,0,1,1.845.6,4.738,4.738,0,0,1,2.262-.868c.132-.013.264-.019.392-.019a3.421,3.421,0,0,1,1.334.261,3.664,3.664,0,0,1,2.074-.6,4.465,4.465,0,0,1,2.009.478,5.9,5.9,0,0,1,.6-.032,3.928,3.928,0,0,1,2.582.846,2.963,2.963,0,0,1,.726.917,2.777,2.777,0,0,1,1.644.637,3.576,3.576,0,0,1,1.32,2.615,4.777,4.777,0,0,1,2.178,4.333,1.087,1.087,0,0,1-1.617.95,3.336,3.336,0,0,1-.8,1.967,3.085,3.085,0,0,1-.307,2.018,3.118,3.118,0,0,1-.6.8c.141.1.284.2.425.292.809.546,1.726,1.166,1.567,2.264-.175,1.2-.687,8.03-.692,8.094v.005a1.1,1.1,0,0,1-.349.719l0,0a1.69,1.69,0,0,0-.5.925h3.7a1.088,1.088,0,0,1,0,2.176ZM1.373,35.406a.088.088,0,1,0,0,.176H45.647a.088.088,0,0,0,0-.176H40.9l0-.5a2.934,2.934,0,0,1,.87-2.167.1.1,0,0,0,.031-.062c.016-.226.517-6.913.7-8.166.066-.453-.389-.786-1.137-1.291a12.338,12.338,0,0,1-1.009-.734l-.545-.454.611-.36a2.091,2.091,0,0,0,.787-.833,2.123,2.123,0,0,0,.163-1.574l-.079-.291.22-.206a2.306,2.306,0,0,0,.692-1.724,1.36,1.36,0,0,0-.813-1.264.088.088,0,0,0-.037-.009.086.086,0,0,0-.079.052.088.088,0,0,0,.045.116,1.2,1.2,0,0,1,.708,1.113,2.026,2.026,0,0,1-.918,1.792.087.087,0,0,0-.038.111,2.022,2.022,0,0,1-.021,1.8,1.9,1.9,0,0,1-1.031.907l-.38.134-.211-.343a3.763,3.763,0,0,1-.171-3.347.087.087,0,1,0-.166-.056,3.9,3.9,0,0,0,.186,3.485,6.433,6.433,0,0,0,1.984,1.826,3.182,3.182,0,0,1,1,.842l.079.145-.023.163c-.075.534-.251,2.32-.671,7.8l-.023.306-.121.129a3.12,3.12,0,0,0-.783,2.149l0,.5H37.882l.027-.526A2.716,2.716,0,0,1,39.1,32.752a.091.091,0,0,0,.04-.072c0-.051.275-5.263.131-6.752-.049-.5-.684-.762-1.8-1.176l-.007,0a8.969,8.969,0,0,1-4.257-2.679l-.278-.361.334-.31a1.715,1.715,0,0,0,.373-.49l.151-.3.338.028c.072.006.144.009.214.009a1.8,1.8,0,0,0,.907-.217,1.493,1.493,0,0,0,.694-.974.086.086,0,0,0-.01-.067.087.087,0,0,0-.055-.041l-.021,0a.089.089,0,0,0-.086.067,1.3,1.3,0,0,1-.6.862,1.636,1.636,0,0,1-.826.2,2.465,2.465,0,0,1-.627-.081l-.008,0a.087.087,0,0,0-.072.011.094.094,0,0,0-.04.065,1.618,1.618,0,0,1-1.017,1.183,2.445,2.445,0,0,1-1.011.22,2.129,2.129,0,0,1-1.185-.35.085.085,0,0,0-.126.031,1.837,1.837,0,0,1-1.7.976h-.04a1.75,1.75,0,0,1-1.445-.583l-.011-.021a.084.084,0,0,0-.066-.046.1.1,0,0,0-.085.039,2.481,2.481,0,0,1-2.022,1.045,2,2,0,0,1-.257-.016.987.987,0,0,1-.915-.637.087.087,0,0,0-.078-.058h-.009a.09.09,0,0,0-.075.05,1.553,1.553,0,0,1-1.457.832,2.061,2.061,0,0,1-.277-.019,1.621,1.621,0,0,1-1.43-1.184.086.086,0,0,0-.065-.069.089.089,0,0,0-.092.032,1.554,1.554,0,0,1-2.82-.691.088.088,0,1,0-.175,0,1.693,1.693,0,0,0,1.2,1.459,1.736,1.736,0,0,0,.55.093,1.555,1.555,0,0,0,.857-.258l.381-.246.282.355a1.948,1.948,0,0,0,1.282.683,2.161,2.161,0,0,0,.306.022,1.869,1.869,0,0,0,1.206-.416l.3-.251.316.229a1.468,1.468,0,0,0,.688.252,2.15,2.15,0,0,0,.263.016,2.8,2.8,0,0,0,1.814-.69l.278-.252.32.2a2.458,2.458,0,0,0,1.233.314,2.119,2.119,0,0,0,1.632-.682l.231-.264.327.128a2.381,2.381,0,0,0,.87.16,2.576,2.576,0,0,0,.845-.143l.349-.121.218.3a8.948,8.948,0,0,0,4.42,2.844c1.154.426,1.454.574,1.605.794l.073.107.012.129c.121,1.252-.06,5.248-.118,6.444l-.011.228-.179.141a2.947,2.947,0,0,0-1.056,2.166l-.017.482h-2.44l.028-.527a2.721,2.721,0,0,1,1.19-2.127.091.091,0,0,0,.04-.065,46.811,46.811,0,0,0,.5-6.388.091.091,0,0,0-.093-.079.088.088,0,0,0-.063.032.082.082,0,0,0-.019.062,48.272,48.272,0,0,1-.47,6.1l-.026.206-.164.127a2.946,2.946,0,0,0-1.076,2.182l-.018.482H17.222l.216-.656a4.315,4.315,0,0,1,1.4-1.925.088.088,0,0,0,.04-.068l0-.065c.068-.982.236-3.484.321-5.5l.036-.848.724.443a2.421,2.421,0,0,0,.7.286,2.523,2.523,0,0,0,.578.067,2.67,2.67,0,0,0,1.331-.365l.283-.161.262.193a3.608,3.608,0,0,0,2.069.7,3.177,3.177,0,0,0,1.5-.387l.267-.142.25.171a2.052,2.052,0,0,0,1.641.275,2.332,2.332,0,0,0,1.36-.893l.19-.275.327.071a2.158,2.158,0,0,0,.456.049A1.725,1.725,0,0,0,32.8,25.346a.089.089,0,0,0-.04-.119.087.087,0,0,0-.038-.008.088.088,0,0,0-.08.048,1.579,1.579,0,0,1-1.449.947,2.048,2.048,0,0,1-.816-.18l-.006,0a.086.086,0,0,0-.07,0,.088.088,0,0,0-.051.053,1.993,1.993,0,0,1-1.437,1.181,2.153,2.153,0,0,1-.486.057,1.775,1.775,0,0,1-1.282-.526.085.085,0,0,0-.062-.026.089.089,0,0,0-.05.015,3.123,3.123,0,0,1-1.749.557,3.486,3.486,0,0,1-2.247-.914l-.006-.005a.089.089,0,0,0-.063-.026.084.084,0,0,0-.051.017,2.589,2.589,0,0,1-1.57.557,2.335,2.335,0,0,1-.539-.063,1.863,1.863,0,0,1-1.231-.853.085.085,0,0,0-.026-.031l-.176-.132-.022-.219a.091.091,0,0,0-.091-.079.088.088,0,0,0-.085.087c-.032,2.105-.3,6.028-.353,6.793l-.015.215-.167.137a4.309,4.309,0,0,0-1.324,2.129l-.043.452H14.763l.022-.521a3.781,3.781,0,0,1,1.46-2.442.092.092,0,0,0,.028-.071l-.03-.453c-.082-1.255-.3-4.588-.343-5.129a13.915,13.915,0,0,0-1.124-4.124.087.087,0,0,0-.08-.051.091.091,0,0,0-.038.009.088.088,0,0,0-.042.116h0a14.844,14.844,0,0,1,.562,1.483l.2.628-.659.025-.136,0a2.8,2.8,0,0,1-2.779-2.555v0a.088.088,0,0,0-.067-.074,1.957,1.957,0,0,1-1.287-.96,2.428,2.428,0,0,1-.139-1.9.092.092,0,0,0-.01-.076.089.089,0,0,0-.062-.039A2.1,2.1,0,0,1,8.682,18.4a2.723,2.723,0,0,1-.233-1.989l0-.011a.087.087,0,0,0-.044-.1,1.729,1.729,0,0,1-.962-1.12A3.193,3.193,0,0,1,8.069,12.7,1.917,1.917,0,0,0,8.2,10.6a.786.786,0,0,0-.644-.326,1.069,1.069,0,0,0-.337.058c-.421.141-1.146.354-1.913.578l-.179.053c-1.155.336-2.464.717-2.757.862a.718.718,0,0,1-.327.076,1.114,1.114,0,0,1-.555-.173,1.781,1.781,0,0,1-.7-.815L.616,10.5l.389-.219a3.919,3.919,0,0,0,.373-.238l-.083.005-.656.03.146-.641A10.862,10.862,0,0,1,3.394,5c.09-.09.186-.191.286-.3l.084-.089A6.457,6.457,0,0,1,5.317,3.28L6.04,2.9l.008.814a.087.087,0,0,0,.076.086h.007a.083.083,0,0,0,.091-.079A3.712,3.712,0,0,1,7.346,1.309L7.953.752l.214.8a4.128,4.128,0,0,1,.118,2.141A.089.089,0,0,0,8.34,3.8a.1.1,0,0,0,.028,0,.089.089,0,0,0,.075-.043L8.655,3.4l.393.145c.125.046.254.1.385.149L9.5,3.72l.054.042.009.006c.009.005.894.535.955,1.195a.983.983,0,0,1-.408.826.084.084,0,0,0-.031.072.09.09,0,0,0,.044.07,2.124,2.124,0,0,1,.893,1.711A1.227,1.227,0,0,1,10.5,8.758a.087.087,0,0,0,.048.16A.086.086,0,0,0,10.6,8.9a1.418,1.418,0,0,0,.591-1.266,2.454,2.454,0,0,0-.582-1.521l-.238-.272.183-.311a.991.991,0,0,0,.14-.439l.055-.823.7.429A8.85,8.85,0,0,1,13.5,6.363l.013.016a.089.089,0,0,0,.068.033.092.092,0,0,0,.03-.005l.02-.007a2.722,2.722,0,0,1,.838-.136,1.793,1.793,0,0,1,1.64.843.093.093,0,0,0,.091.048,8.2,8.2,0,0,1,1.072-.084,3.225,3.225,0,0,1,2.573,1.174.09.09,0,0,0,.066.028.085.085,0,0,0,.048-.015,2.39,2.39,0,0,1,1.335-.374,2.746,2.746,0,0,1,2.265,1.093.086.086,0,0,0,.064.039.089.089,0,0,0,.071-.025,2.753,2.753,0,0,1,1.837-.626c.079,0,.159,0,.238.009a2.513,2.513,0,0,1,1.887.98.109.109,0,0,0,.046.039l.024,0a.089.089,0,0,0,.072-.039,3.256,3.256,0,0,1,2.276-1.244c.1-.01.192-.014.285-.014a1.924,1.924,0,0,1,1.4.527.092.092,0,0,0,.073.026.091.091,0,0,0,.061-.039,2.152,2.152,0,0,1,1.853-.855,3.217,3.217,0,0,1,1.748.508.1.1,0,0,0,.067.012,5.016,5.016,0,0,1,.819-.071,2.76,2.76,0,0,1,1.811.568,1.662,1.662,0,0,1,.614,1.278.089.089,0,0,0,.042.075.1.1,0,0,0,.084,0,1.456,1.456,0,0,1,.655-.159,1.6,1.6,0,0,1,1,.379,2.355,2.355,0,0,1,.826,2.288.088.088,0,0,0,.046.1,3.546,3.546,0,0,1,2.185,3.643.087.087,0,1,0,.174,0,3.7,3.7,0,0,0-1.924-3.614l-.273-.153.018-.312a2.579,2.579,0,0,0-.944-2.089A1.73,1.73,0,0,0,39.408,9.8l-.4.047-.131-.38a1.922,1.922,0,0,0-.576-.83,2.95,2.95,0,0,0-1.935-.609,5,5,0,0,0-.637.042l-.166.021-.145-.082a3.421,3.421,0,0,0-1.664-.427,2.553,2.553,0,0,0-1.687.561l-.268.233L31.492,8.2a2.285,2.285,0,0,0-1.145-.281c-.1,0-.2,0-.294.014a3.651,3.651,0,0,0-2.012.876l-.322.289-.332-.277A2.8,2.8,0,0,0,25.776,8.2a3.349,3.349,0,0,0-1.808.374l-.323.18L23.378,8.5A3.054,3.054,0,0,0,21.3,7.7a2.75,2.75,0,0,0-1.09.217l-.3.13-.24-.22a3.305,3.305,0,0,0-2.423-.93c-.22,0-.458.013-.727.04l-.266.027-.17-.207a2.089,2.089,0,0,0-1.618-.672,2.861,2.861,0,0,0-.6.064L13.6,6.21l-.193-.2A12.277,12.277,0,0,0,8.9,3.3l-.327-.112-.011-.345A7.168,7.168,0,0,0,8.078.71.088.088,0,0,0,8.025.658.092.092,0,0,0,7.995.653a.08.08,0,0,0-.039.01A3.518,3.518,0,0,0,6.31,2.579l-.1.282-.3.04a2.25,2.25,0,0,0-.925.37l-.529.343L4.24,3.021A2.36,2.36,0,0,1,4.554.947l.123-.2L4.911.71a.088.088,0,0,0,0-.174L4.7.5H4.688a.088.088,0,0,0-.072.035A2.59,2.59,0,0,0,4.2,3.371l0,.006.2.336-.277.274c-.17.168-.333.34-.489.505l-.017.018c-.121.127-.235.247-.348.361C2.344,5.8.451,8.368.5,10.421a1.878,1.878,0,0,0,.9,1.461,1.089,1.089,0,0,0,1.048.1c.235-.117,1.066-.368,2.728-.852l.058-.017c.821-.24,1.6-.466,2.043-.615a.883.883,0,0,1,.275-.048.62.62,0,0,1,.5.246l.008.01A1.723,1.723,0,0,1,7.923,12.6a3.365,3.365,0,0,0-.646,2.619,1.828,1.828,0,0,0,.731,1.038l.244.174-.039.3a2.684,2.684,0,0,0,.318,1.756,2.027,2.027,0,0,0,1.149.831l.4.124-.049.412a2.538,2.538,0,0,0,.271,1.513,2.063,2.063,0,0,0,1.088.948l.244.1.061.255a3.464,3.464,0,0,0,.833,1.567l.1.107.028.145,0,.009a10.955,10.955,0,0,1,.462,2.31c.035.454.2,2.96.3,4.457l.072,1.083-.158.16A3.593,3.593,0,0,0,12,34.918l-.012.487Zm37.64-1h.733a4.013,4.013,0,0,1,.908-2.2c.308-4.024.524-6.571.644-7.583-.169-.137-.465-.336-.6-.424-1.357-.919-3.877-2.624-2.559-6.466a1.087,1.087,0,0,1,2.082.623,1.08,1.08,0,0,1,.4-.382,1.064,1.064,0,0,0,.4-.869c-.009-.2-.071-.226-.109-.242a1.088,1.088,0,0,1,.433-2.085,1.077,1.077,0,0,1,.437.092,2.289,2.289,0,0,1,.751.521,2.438,2.438,0,0,0-1.53-1.763,1.1,1.1,0,0,1-.571-1.237,1.371,1.371,0,0,0-.482-1.265.637.637,0,0,0-.374-.159.46.46,0,0,0-.208.054,1.086,1.086,0,0,1-1.573-.972.678.678,0,0,0-.261-.515A1.8,1.8,0,0,0,36.377,9.2a4.032,4.032,0,0,0-.659.058,1.132,1.132,0,0,1-.178.014,1.091,1.091,0,0,1-.6-.18,2.227,2.227,0,0,0-1.195-.341,1.19,1.19,0,0,0-1.021.41,1.087,1.087,0,0,1-.8.479c-.038,0-.073.005-.106.005a1.1,1.1,0,0,1-.773-.32.942.942,0,0,0-.69-.232c-.06,0-.123,0-.187.01a2.3,2.3,0,0,0-1.542.8,1.09,1.09,0,0,1-.856.484,1.06,1.06,0,0,1-.919-.434,1.543,1.543,0,0,0-1.16-.583A1.928,1.928,0,0,0,24.4,9.7a1.1,1.1,0,0,1-.876.314,1.079,1.079,0,0,1-.8-.482,1.781,1.781,0,0,0-1.432-.645,1.42,1.42,0,0,0-.78.206,1.084,1.084,0,0,1-.6.183,1.1,1.1,0,0,1-.8-.344,2.242,2.242,0,0,0-1.843-.858,7.273,7.273,0,0,0-.942.076,1.09,1.09,0,0,1-1.115-.592.874.874,0,0,0-.746-.291,1.721,1.721,0,0,0-.523.085,1.083,1.083,0,0,1-.322.062h-.044a1.083,1.083,0,0,1-.837-.393,6.722,6.722,0,0,0-.913-.846,3.494,3.494,0,0,1,.359,1.444A2.394,2.394,0,0,1,11.14,9.743,1.088,1.088,0,1,1,9.957,7.918c.024-.015.059-.1.055-.254a1.179,1.179,0,0,0-.4-.872A1.087,1.087,0,0,1,9.45,5.034l.029-.027a1.723,1.723,0,0,0-.428-.378L9,4.6H9a1.09,1.09,0,0,1-.636.206,1.1,1.1,0,0,1-.34-.054,1.092,1.092,0,0,1-.693-1.377,1.171,1.171,0,0,0,.049-.321,3.935,3.935,0,0,0-.169.791,1.087,1.087,0,0,1-1.871.62A10.1,10.1,0,0,0,4.49,5.3L4.4,5.388C4.3,5.5,4.2,5.6,4.1,5.7c-.044.044-.093.1-.145.151a1.085,1.085,0,0,1,.2-.132L4.9,5.35a1.1,1.1,0,0,1,.486-.114A1.087,1.087,0,0,1,5.875,7.3l-.742.371a1.072,1.072,0,0,1-.487.115,1.087,1.087,0,0,1-.92-1.667,11.009,11.009,0,0,0-1.7,2.713l.009,0L2.09,8.8l.055-.012a.74.74,0,0,1,.162-.018.724.724,0,0,1,.546,1.2,3.725,3.725,0,0,1-.88.885l.036.024,0,0,.015.009C2.42,10.719,3.27,10.465,4.85,10l.179-.052c.758-.222,1.474-.431,1.877-.567a2.068,2.068,0,0,1,.654-.109A1.775,1.775,0,0,1,9,10a2.865,2.865,0,0,1-.1,3.258,2.311,2.311,0,0,0-.489,1.666.728.728,0,0,0,.442.481,1.087,1.087,0,0,1,.561,1.264,1.72,1.72,0,0,0,.1,1.185,1.16,1.16,0,0,0,.863.423,1.088,1.088,0,0,1,.879,1.421,1.455,1.455,0,0,0,.067,1.108.959.959,0,0,0,.653.471,1.082,1.082,0,0,1,.816.919,2.484,2.484,0,0,0,.353.938,1.544,1.544,0,0,0,.814.653c-.14-.369-.246-.6-.255-.624l0,0a1.088,1.088,0,0,1,1.977-.908A15.031,15.031,0,0,1,16.9,26.713c.042.547.261,3.883.344,5.14l.03.453a1.094,1.094,0,0,1-.092.514,4.9,4.9,0,0,1,.559-.624c.075-1.1.307-4.6.337-6.534a1.093,1.093,0,0,1,1.088-1.071h.007a1.1,1.1,0,0,1,1.035.771,1.092,1.092,0,0,1,.166.243.961.961,0,0,0,.566.327,1.337,1.337,0,0,0,.309.036,1.612,1.612,0,0,0,.969-.357,1.087,1.087,0,0,1,1.413.093,2.466,2.466,0,0,0,1.554.634,2.144,2.144,0,0,0,1.2-.391,1.087,1.087,0,0,1,1.372.136.775.775,0,0,0,.575.233,1.145,1.145,0,0,0,.258-.03,1.03,1.03,0,0,0,.717-.522,1.087,1.087,0,0,1,.6-.657,1.067,1.067,0,0,1,.426-.088,1.1,1.1,0,0,1,.464.1,1.046,1.046,0,0,0,.4.089.579.579,0,0,0,.554-.394,1.083,1.083,0,0,1,.974-.6,1.087,1.087,0,0,1,.973,1.574,2.727,2.727,0,0,1-2.509,1.591,3.123,3.123,0,0,1-.35-.02,3.366,3.366,0,0,1-1.753,1.041,3.3,3.3,0,0,1-.757.09,2.975,2.975,0,0,1-1.421-.356,4.121,4.121,0,0,1-1.714.376,4.5,4.5,0,0,1-2.4-.721,3.6,3.6,0,0,1-1.542.349,3.524,3.524,0,0,1-.806-.094q-.136-.032-.268-.074c-.09,1.861-.229,3.916-.289,4.785l0,.068a1.091,1.091,0,0,1-.505.843,2.5,2.5,0,0,0-.646.734H34.178a3.892,3.892,0,0,1,1.248-2.32,42.911,42.911,0,0,0,.442-5.674,1.075,1.075,0,0,1,.242-.795,1.108,1.108,0,0,1,.085-.092,8.977,8.977,0,0,1-3.8-2.583,3.56,3.56,0,0,1-.821.1,3.415,3.415,0,0,1-.914-.123,3.157,3.157,0,0,1-2.146.781A3.6,3.6,0,0,1,27.08,23.4a3.819,3.819,0,0,1-2.211.725,3.154,3.154,0,0,1-.386-.023,2.6,2.6,0,0,1-.831-.242A2.923,2.923,0,0,1,22.1,24.3a3.151,3.151,0,0,1-.444-.031,3.02,3.02,0,0,1-1.636-.741,2.618,2.618,0,0,1-1.894.073,2.689,2.689,0,0,1-1.889-2.407,1.088,1.088,0,0,1,2.175,0,.641.641,0,0,0,.4.343.547.547,0,0,0,.175.032c.057,0,.231,0,.443-.283a1.088,1.088,0,0,1,1.939.446c.039.2.33.348.584.383a1.054,1.054,0,0,0,.142.01.591.591,0,0,0,.564-.281,1.1,1.1,0,0,1,.969-.6c.028,0,.057,0,.085,0a1.084,1.084,0,0,1,.927.676.579.579,0,0,0,.114.024,1.013,1.013,0,0,0,.132.008,1.507,1.507,0,0,0,1.181-.587,1.1,1.1,0,0,1,.963-.5h.008a1.085,1.085,0,0,1,.865.511,1.271,1.271,0,0,0,.61.138h.03a.869.869,0,0,0,.815-.421,1.085,1.085,0,0,1,1.578-.417,1.115,1.115,0,0,0,.629.181,1.458,1.458,0,0,0,.595-.129c.3-.138.431-.319.441-.4a1.09,1.09,0,0,1,1.08-.952,1.081,1.081,0,0,1,.306.044,1.5,1.5,0,0,0,.352.042.706.706,0,0,0,.326-.061c.021-.012.086-.049.132-.238a1.088,1.088,0,0,1,1.056-.825,1.1,1.1,0,0,1,.263.032,1.088,1.088,0,0,1,.793,1.321,2.468,2.468,0,0,1-1.167,1.6,2.774,2.774,0,0,1-1.378.349q-.046.068-.1.134a8.837,8.837,0,0,0,3.545,2.035l.006,0c1.2.445,2.339.866,2.451,2.017.153,1.586-.125,6.851-.128,6.9a1.1,1.1,0,0,1-.5.859A1.553,1.553,0,0,0,39.014,34.406Zm-2.605,0h.374a4.313,4.313,0,0,1,.2-.781A1.559,1.559,0,0,0,36.409,34.406Zm-20.492,0h.4a5.35,5.35,0,0,1,.611-1.235A4.911,4.911,0,0,0,15.917,34.406Zm22.12-8.17a47.1,47.1,0,0,1-.482,6.353,3.566,3.566,0,0,1,.435-.467c.1-2.206.186-4.758.128-5.849ZM40.065,18.9a2.817,2.817,0,0,0-.006,1.555.955.955,0,0,0,.107-.16,1.029,1.029,0,0,0-.006-.924A1.068,1.068,0,0,1,40.065,18.9ZM5.39,6.236a.092.092,0,0,0-.041.01l-.742.371a.088.088,0,0,0,.039.166.081.081,0,0,0,.038-.008L5.429,6.4a.087.087,0,0,0,.04-.118A.089.089,0,0,0,5.39,6.236ZM14.6,35.406H12.158l.022-.521a3.782,3.782,0,0,1,1.458-2.442.091.091,0,0,0,.028-.071c-.015-.241-.324-4.95-.371-5.584a9.459,9.459,0,0,0-.187-1.253l-.172-.8.792.216a3.18,3.18,0,0,0,.834.106,4.067,4.067,0,0,0,.408-.02l.44-.045.1.432a9.581,9.581,0,0,1,.216,1.382c.043.559.283,4.211.355,5.317l.015.224-.158.16a3.591,3.591,0,0,0-1.327,2.415Zm-1.285-1h.344a3.46,3.46,0,0,1,.231-.786A3.188,3.188,0,0,0,13.312,34.406Zm.9-8.365c.034.231.06.456.076.672.047.636.357,5.355.372,5.6q0,.047,0,.095c.131-.154.266-.3.4-.441-.085-1.3-.3-4.562-.34-5.084a7.875,7.875,0,0,0-.11-.825C14.482,26.055,14.348,26.051,14.216,26.041Zm7.892-6.8a3.217,3.217,0,0,1-.437-.03,3.026,3.026,0,0,1-1.749-.86,2.807,2.807,0,0,1-1.083.227,2.378,2.378,0,0,1-1.011-.221A2.681,2.681,0,0,1,16.349,15.9a1.088,1.088,0,1,1,2.175,0,.556.556,0,0,0,.224.48.206.206,0,0,0,.088.016,1.313,1.313,0,0,0,.765-.392,1.088,1.088,0,0,1,1.766.628c.043.225.335.38.6.417a.879.879,0,0,0,.123.008.559.559,0,0,0,.566-.313,1.077,1.077,0,0,1,.968-.6c.028,0,.057,0,.085,0a1.084,1.084,0,0,1,.928.677.591.591,0,0,0,.116.025,1,1,0,0,0,.128.008,1.511,1.511,0,0,0,1.183-.587,1.1,1.1,0,0,1,.956-.5h.019a1.093,1.093,0,0,1,.861.51,1.3,1.3,0,0,0,.621.14h.017A.877.877,0,0,0,29.356,16a1.087,1.087,0,0,1,1.578-.417,1.113,1.113,0,0,0,.629.182,1.466,1.466,0,0,0,.6-.129c.285-.13.429-.313.44-.4a1.1,1.1,0,0,1,.417-.727,1.091,1.091,0,0,1,.8-.217,1.225,1.225,0,0,0,.128.006.762.762,0,0,0,.849-.619,1.088,1.088,0,1,1,2.112.524,2.878,2.878,0,0,1-2.477,2.233,3.068,3.068,0,0,1-1.368,1.179,3.612,3.612,0,0,1-1.489.325,3.412,3.412,0,0,1-.914-.123,3.16,3.16,0,0,1-2.146.78,3.609,3.609,0,0,1-1.434-.293,3.812,3.812,0,0,1-2.209.725,3.149,3.149,0,0,1-.389-.024,2.629,2.629,0,0,1-.809-.232A2.83,2.83,0,0,1,22.108,19.239ZM20.2,17.073l.26.368a1.963,1.963,0,0,0,1.346.778,2.214,2.214,0,0,0,.3.021,1.764,1.764,0,0,0,1.2-.433l.3-.264.324.23a1.492,1.492,0,0,0,.683.248,2.142,2.142,0,0,0,.264.016,2.8,2.8,0,0,0,1.811-.69l.277-.252.32.2a2.465,2.465,0,0,0,1.234.314,2.121,2.121,0,0,0,1.633-.682l.231-.264.327.128a2.38,2.38,0,0,0,.869.16,2.6,2.6,0,0,0,1.073-.235,1.983,1.983,0,0,0,1.011-.944l.124-.274.3-.019a1.915,1.915,0,0,0,1.855-1.506.086.086,0,0,0-.01-.067.085.085,0,0,0-.053-.039.1.1,0,0,0-.024,0,.088.088,0,0,0-.084.068A1.762,1.762,0,0,1,33.946,15.3a2.21,2.21,0,0,1-.247-.013l-.015,0a.082.082,0,0,0-.06.019.1.1,0,0,0-.034.062,1.618,1.618,0,0,1-1.017,1.182,2.453,2.453,0,0,1-1.011.22,2.126,2.126,0,0,1-1.185-.351.084.084,0,0,0-.048-.015.092.092,0,0,0-.024,0,.084.084,0,0,0-.054.043,1.844,1.844,0,0,1-1.7.978h-.032a1.754,1.754,0,0,1-1.458-.589l-.008-.016a.088.088,0,0,0-.066-.047.107.107,0,0,0-.084.039,2.485,2.485,0,0,1-2.024,1.046,2,2,0,0,1-.254-.016.992.992,0,0,1-.916-.637.087.087,0,0,0-.078-.059h-.01a.085.085,0,0,0-.074.049,1.568,1.568,0,0,1-1.461.866,1.878,1.878,0,0,1-.263-.018,1.643,1.643,0,0,1-1.442-1.217.087.087,0,0,0-.056-.065.08.08,0,0,0-.085.014,2.266,2.266,0,0,1-1.408.626,1.2,1.2,0,0,1-.511-.11,1.522,1.522,0,0,1-.8-1.386.087.087,0,0,0-.087-.088.088.088,0,0,0-.089.088,1.679,1.679,0,0,0,.9,1.545,1.384,1.384,0,0,0,.588.127,1.994,1.994,0,0,0,.97-.283Z" transform="translate(257.832 -101.851)" fill="rgba(0,0,0,0)"/></g></svg>