<svg xmlns="http://www.w3.org/2000/svg" width="49.167" height="42.211" viewBox="0 0 49.167 42.211"><g transform="translate(-337.554 107.481)"><path d="M40.455,41.207H2.131a.588.588,0,1,1,0-1.175h9.241a6.971,6.971,0,0,1,1.4-2.643,3.027,3.027,0,0,1,.638-.292c.352-.131.669-.259.669-.4,0-1.626-.645-8.668-.763-9.937a7.582,7.582,0,0,1-1.585-4.11,7.693,7.693,0,0,0-1.567-3.674c-.954.33-3.059.974-4.2.678a4.194,4.194,0,0,0-.37.33,2.289,2.289,0,0,1-1.51.844,1.909,1.909,0,0,1-1.476-.763,1.438,1.438,0,0,1-1.842-.66c-.423-.8-1.413-2.673-.156-3.562.381-.269.713-.474,1.033-.673a9.05,9.05,0,0,0,2.392-1.979c.267-.3.5-.573.714-.818a7.765,7.765,0,0,1,2.206-2.062,6.522,6.522,0,0,1,.62-.262,25.859,25.859,0,0,1-1.97-3.118c-.469-1.123-.852-4.241-.176-5.065a.79.79,0,0,1,.777-.29A5.294,5.294,0,0,1,8.084,3.074a.587.587,0,1,1-.869.79,9.241,9.241,0,0,0-.948-.917A9.108,9.108,0,0,0,6.7,6.482,29.355,29.355,0,0,0,8.752,9.673c.205-.059.381-.107.5-.14A29.72,29.72,0,0,1,8.6,5.348C8.614,3.992,9.592.639,10.638.1a.811.811,0,0,1,.857.045c.864.6,2.81,5.862,1.886,9.332a36.655,36.655,0,0,0,5.054,3.961A37.832,37.832,0,0,0,28.841,14.72c1.3-.068,2.671-.248,4.126-.439a44.042,44.042,0,0,1,5.6-.5c3.234,0,6.826,2.247,7.245,6.008a.512.512,0,0,1,0,.065v6.66c.009.041.093.251.161.42a7.11,7.11,0,0,1,.623,2.714,8.01,8.01,0,0,1-1.7,4.286.584.584,0,0,1-.459.22.588.588,0,0,1-.46-.954,6.91,6.91,0,0,0,1.439-3.551,5.986,5.986,0,0,0-.538-2.278,2.437,2.437,0,0,1-.245-.857V19.886c-.362-3.088-3.367-4.931-6.073-4.931a43.256,43.256,0,0,0-5.448.49c-1.413.187-2.874.379-4.221.447-3.273.164-9.409-.693-10.945-1.38a32.646,32.646,0,0,1-4.974-3.818c-.308.915-.493,1.494-.5,1.5a.588.588,0,1,1-1.12-.357c0-.008.308-.965.788-2.362.921-2.683-.5-6.926-1.162-8.105a10.3,10.3,0,0,0-1.22,3.993,36.456,36.456,0,0,0,.769,4.569.585.585,0,0,1-.448.7.577.577,0,0,1-.323-.018l-.05.015a15,15,0,0,0-2.232.739,7.114,7.114,0,0,0-1.844,1.779c-.214.247-.451.521-.721.826a10.116,10.116,0,0,1-2.655,2.2c-.306.19-.622.386-.973.635a.268.268,0,0,0-.1.157l.022.01a.925.925,0,0,0,.508.1.582.582,0,0,1,.826,0,.591.591,0,0,1,0,.834,1.213,1.213,0,0,1-.889.347c-.049,0-.1,0-.144-.006.081.178.179.378.3.6a.272.272,0,0,0,.363.119l1.654-.828A.588.588,0,1,1,4.353,19.2l-.635.317a.613.613,0,0,0,.371.136c.165,0,.482-.309.692-.513.383-.37.858-.83,1.453-.633.674.224,2.7-.318,3.918-.776a.584.584,0,0,1,.366-.015l.007,0,.009,0,.018.006h0a.581.581,0,0,1,.185.107l0,0,.009.008a.584.584,0,0,1,.043.044A8.975,8.975,0,0,1,12.9,22.537a6.417,6.417,0,0,0,1.354,3.52.6.6,0,0,1,.136.16,6.116,6.116,0,0,0,1.588,1.26c.068.041.128.076.175.105a.584.584,0,0,1,.2.212l0,.009h0a.588.588,0,0,1,.062.186c.048.312,1.182,7.642,1.182,9.494,0,.964-.9,1.3-1.435,1.5a2.74,2.74,0,0,0-.394.167,4.155,4.155,0,0,0-.692.883H17.7a3.436,3.436,0,0,1,1.084-1.4,3.574,3.574,0,0,0,.388-.378c-.028-1.056.59-8.639.787-11.006a.587.587,0,1,1,1.171.1c-.037.45-.077.933-.117,1.436a18.821,18.821,0,0,0,8.046.288c3.864-.7,5.364-2.7,5.486-2.871a4.286,4.286,0,0,1-.091-.861.588.588,0,0,1,1.175,0c0,1.359,1.052,3.16,2.962,5.071,1.57,1.57,1.74,5.471,1.74,7.076,0,.611-.668.905-1.441,1.247a4.87,4.87,0,0,0-.682.335c-.134.152-.457.585-.734.966H40.09a6.118,6.118,0,0,1,1.4-1.606l.132-.123a51.923,51.923,0,0,0,.5-6.6,31.133,31.133,0,0,1-1.942-4.328c-.151-.571.225-1.147.747-1.946a9.087,9.087,0,0,0,1.765-4.437.578.578,0,0,1,.606-.547.587.587,0,0,1,.568.588v5.485a.6.6,0,0,1-.03.186,7.2,7.2,0,0,0-.362,1.773.588.588,0,0,1-1.175,0,8.089,8.089,0,0,1,.392-2.051V24.8c-.269.483-.545.9-.78,1.265a4.987,4.987,0,0,0-.587,1.031,32.131,32.131,0,0,0,1.911,4.189.6.6,0,0,1,.068.294c-.229,6.936-.618,7.325-.786,7.493-.05.051-.131.126-.231.217-.337.307-.581.549-.755.739H47.58a.588.588,0,1,1,0,1.175H40.6a.6.6,0,0,1-.074,0A.581.581,0,0,1,40.455,41.207Zm-4.4-1.175a.588.588,0,0,1,.076-.145c.092-.129.905-1.27,1.215-1.617a3.134,3.134,0,0,1,1.071-.615,7.774,7.774,0,0,0,.739-.357c-.019-2.308-.393-5.057-1.4-6.058a13.755,13.755,0,0,1-2.785-3.754,10.586,10.586,0,0,1-5.706,2.741,20.269,20.269,0,0,1-3.614.324,19.11,19.11,0,0,1-4.739-.575c-.291,3.65-.6,7.8-.571,8.229.068.55-.363.934-.778,1.305a4.891,4.891,0,0,0-.53.521H33.313a.6.6,0,0,1,.037-.084,17.916,17.916,0,0,1,1.253-2.07,3.169,3.169,0,0,1,1.072-.616,7.447,7.447,0,0,0,.738-.356c-.019-2.308-.393-5.057-1.394-6.058-.376-.376-.729-.757-1.05-1.134a.588.588,0,0,1,.9-.762c.3.353.632.711.986,1.065,1.57,1.57,1.74,5.471,1.74,7.077,0,.61-.668.9-1.442,1.246a4.8,4.8,0,0,0-.681.335,14.6,14.6,0,0,0-.821,1.358Zm-22.333,0a.6.6,0,0,1,.045-.1,6.63,6.63,0,0,1,1.359-1.764,2.984,2.984,0,0,1,.638-.291c.352-.131.668-.259.668-.4,0-1.57-.918-7.67-1.127-9.04-.181-.107-.422-.254-.695-.453.226,2.512.645,7.341.645,8.709,0,.965-.9,1.3-1.435,1.5a2.629,2.629,0,0,0-.394.168,7.653,7.653,0,0,0-.8,1.666ZM7.045,13.811a.589.589,0,0,1,.419-.718l.759-.2a.588.588,0,0,1,.3,1.137l-.758.2a.578.578,0,0,1-.15.019A.587.587,0,0,1,7.045,13.811Z" transform="translate(338.054 -106.981)" fill="#004480"/><path d="M40.527,41.711c-.033,0-.066,0-.1,0H2.131a1.088,1.088,0,1,1,0-2.175h8.891a5.686,5.686,0,0,1,1.475-2.56,3.435,3.435,0,0,1,.74-.344c.066-.025.227-.085.341-.137-.046-1.894-.626-8.256-.744-9.534a8.167,8.167,0,0,1-1.6-4.253A7.007,7.007,0,0,0,9.978,19.57a11.974,11.974,0,0,1-3.318.663,3.721,3.721,0,0,1-.552-.038l-.129.122-.033.031a2.715,2.715,0,0,1-1.857.984,2.318,2.318,0,0,1-1.632-.691,1.937,1.937,0,0,1-2.129-1c-.442-.837-1.618-3.061,0-4.2.382-.27.712-.475,1.032-.673l.027-.017a8.526,8.526,0,0,0,2.281-1.885c.267-.3.5-.57.71-.814a8.171,8.171,0,0,1,2.36-2.182l.079-.039a20.554,20.554,0,0,1-1.666-2.7c-.455-1.089-.989-4.493-.1-5.575A1.284,1.284,0,0,1,6.31,1.09,4.988,4.988,0,0,1,8.454,2.737a1.088,1.088,0,0,1,.1.134C8.966,1.493,9.616.064,10.409-.344A1.369,1.369,0,0,1,11.038-.5a1.294,1.294,0,0,1,.742.235c.668.464,1.407,2.333,1.812,3.874A13.1,13.1,0,0,1,13.937,9.3a33.086,33.086,0,0,0,4.7,3.679A38.024,38.024,0,0,0,28,14.239c.293,0,.568-.006.816-.019,1.268-.066,2.62-.243,4.051-.431l.046-.006a44.313,44.313,0,0,1,5.656-.5,8.39,8.39,0,0,1,4.981,1.7,6.929,6.929,0,0,1,2.76,4.753,1,1,0,0,1,.007.124v6.578c.019.05.055.142.125.315l0,.007a7.538,7.538,0,0,1,.656,2.894,8.432,8.432,0,0,1-1.8,4.6,1.08,1.08,0,0,1-.851.409,1.075,1.075,0,0,1-.765-.315c-.238,4.511-.567,4.84-.817,5.091-.028.029-.063.062-.106.1H47.58a1.088,1.088,0,1,1,0,2.175H40.626C40.593,41.709,40.56,41.711,40.527,41.711Zm-38.4-1.18a.088.088,0,0,0-.089.087.089.089,0,0,0,.089.089H40.486l.031,0a.09.09,0,0,0,.023,0l.03,0h7.01a.088.088,0,0,0,.088-.089.087.087,0,0,0-.088-.087H36.491l.579-.795c.262-.36.608-.826.763-1l.025-.028.029-.024a3.691,3.691,0,0,1,.8-.409c.587-.259,1.141-.5,1.141-.788,0-1.2-.115-5.244-1.593-6.722-2.034-2.034-3.108-3.91-3.108-5.424a.088.088,0,0,0-.175,0,3.8,3.8,0,0,0,.081.761l.044.213-.126.177c-.169.237-1.769,2.339-5.8,3.073a19.4,19.4,0,0,1-3.458.308,18.648,18.648,0,0,1-4.811-.607l-.4-.11.033-.412c.041-.5.08-.987.117-1.437a.088.088,0,0,0-.076-.095.088.088,0,0,0-.1.08c-.394,4.751-.807,10.124-.785,10.951l0,.17-.1.137a3.492,3.492,0,0,1-.46.458l0,0a3.024,3.024,0,0,0-.938,1.18l-.06.179.534-.653a5.333,5.333,0,0,1,.584-.578c.4-.361.648-.6.615-.87l0-.026c-.038-.518.342-5.426.572-8.3l.047-.595.577.151a18.623,18.623,0,0,0,4.612.558,19.8,19.8,0,0,0,3.525-.316,10.112,10.112,0,0,0,5.441-2.6l.51-.51.3.656a13.111,13.111,0,0,0,2.683,3.608c1.393,1.392,1.532,5.256,1.541,6.407l0,.282-.24.148a7.564,7.564,0,0,1-.794.387l-.005,0a3.033,3.033,0,0,0-.9.489c-.215.241-.751.971-1.181,1.574a.1.1,0,0,0-.013.024l-.118.333H33.793l.416-.744a14.937,14.937,0,0,1,.881-1.444l.025-.028.029-.024a3.631,3.631,0,0,1,.8-.411c.587-.259,1.142-.5,1.142-.787,0-1.2-.115-5.245-1.593-6.723-.361-.361-.7-.729-1.013-1.094a.088.088,0,0,0-.067-.031.084.084,0,0,0-.056.021.088.088,0,0,0-.01.125c.31.364.655.736,1.022,1.1,1.392,1.392,1.531,5.256,1.541,6.407l0,.28-.238.148a7.241,7.241,0,0,1-.8.387l-.005,0a3.1,3.1,0,0,0-.9.491,16.946,16.946,0,0,0-1.186,1.974l-.006.014-.118.332h-19.5l.5-.772a3.967,3.967,0,0,1,.834-1.027,2.448,2.448,0,0,1,.466-.208L16,38.513c.609-.226,1.111-.458,1.111-1.029,0-1.675-.974-8.1-1.169-9.374l-.007-.045a.084.084,0,0,0-.009-.026h0a.086.086,0,0,0-.031-.033l-.092-.056-.074-.044a6.6,6.6,0,0,1-1.707-1.359l-.033-.037-.025-.042a.1.1,0,0,0-.022-.026l-.038-.031-.031-.038A6.959,6.959,0,0,1,12.4,22.587a8.5,8.5,0,0,0-1.979-4.358l-.008-.009a.086.086,0,0,0-.029-.018l-.007,0a.085.085,0,0,0-.053,0,12.937,12.937,0,0,1-3.673.86,1.834,1.834,0,0,1-.578-.078.4.4,0,0,0-.128-.022c-.261,0-.556.285-.817.537-.4.385-.7.656-1.043.656a1.111,1.111,0,0,1-.674-.239l-.639-.486,1.353-.676a.089.089,0,0,0,.039-.12.087.087,0,0,0-.078-.047.1.1,0,0,0-.042.01L2.4,19.426a.772.772,0,0,1-1.028-.33c-.119-.226-.224-.437-.311-.631l-.35-.774.847.07a.756.756,0,0,0,.638-.2.1.1,0,0,0,.029-.069.081.081,0,0,0-.023-.058.089.089,0,0,0-.064-.028.077.077,0,0,0-.056.024l-.061.061-.079.037a.64.64,0,0,1-.279.058A1.682,1.682,0,0,1,1,17.425l-.005,0L.6,17.248l.108-.414a.766.766,0,0,1,.3-.436c.364-.258.686-.457,1-.65a9.683,9.683,0,0,0,2.544-2.106c.215-.243.412-.471.587-.672l.132-.152a7.306,7.306,0,0,1,2-1.9A14.736,14.736,0,0,1,9.6,10.144h0l.008,0,.166-.058.166.059a.077.077,0,0,0,.044,0l.007,0a.085.085,0,0,0,.065-.1,38.4,38.4,0,0,1-.781-4.685,10.766,10.766,0,0,1,1.3-4.258l.379-.586a.443.443,0,0,0-.085.033C10.142.919,9.115,3.933,9.1,5.354a26.671,26.671,0,0,0,.648,4.077l.1.464-.458.122c-.111.03-.287.077-.492.137l-.341.1-.206-.289A30.871,30.871,0,0,1,6.235,6.675a9.542,9.542,0,0,1-.463-3.789l.091-.743a.4.4,0,0,0-.041.043,3.653,3.653,0,0,0-.23,2.07,9.2,9.2,0,0,0,.48,2.486A23.471,23.471,0,0,0,7.99,9.765l.373.53-.608.226a6.008,6.008,0,0,0-.571.241A7.5,7.5,0,0,0,5.133,12.7c-.213.246-.447.517-.717.822a9.574,9.574,0,0,1-2.5,2.073l-.026.016c-.307.19-.624.387-.982.64-.792.56-.288,1.79.309,2.92a.943.943,0,0,0,.833.509.952.952,0,0,0,.372-.076l.349-.147.236.3a1.424,1.424,0,0,0,1.086.575,1.9,1.9,0,0,0,1.162-.7l.037-.036a3.708,3.708,0,0,1,.4-.347l.188-.13.222.058a2.3,2.3,0,0,0,.565.06A12.221,12.221,0,0,0,10,18.507l.341-.118.219.287A8.112,8.112,0,0,1,12.231,22.6a7.138,7.138,0,0,0,1.477,3.846l.095.117.014.15c.128,1.377.765,8.327.765,9.983,0,.492-.528.69-.994.864a2.656,2.656,0,0,0-.535.239,6.182,6.182,0,0,0-1.207,2.391l0,.01-.12.328ZM43.254,20.94a.082.082,0,0,0-.071.081,9.5,9.5,0,0,1-1.842,4.673l0,0c-.451.69-.777,1.188-.682,1.545a31.274,31.274,0,0,0,1.9,4.224l.061.117,0,.132a53.6,53.6,0,0,1-.519,6.736l-.039.123-.093.089-.064.06-.069.064-.007.007a5.836,5.836,0,0,0-1.283,1.454l-.118.245.733-.8c.2-.217.463-.476.786-.771.084-.077.168-.153.211-.2l.015-.016c.1-.132.425-1.042.627-7.143a.1.1,0,0,0-.011-.045,34.486,34.486,0,0,1-1.95-4.289l-.029-.1.017-.107a3.971,3.971,0,0,1,.662-1.226l.03-.045c.226-.348.483-.742.732-1.189l.937-1.683V26.5l-.023.073a7.653,7.653,0,0,0-.369,1.9.088.088,0,1,0,.175,0,7.929,7.929,0,0,1,.387-1.931.1.1,0,0,0,0-.028V21.029a.088.088,0,0,0-.085-.088h-.018ZM38.473,39.531H39.8a7.884,7.884,0,0,1,1.348-1.473l.025-.023a60.435,60.435,0,0,0,.439-6.221A29.864,29.864,0,0,1,39.689,27.5c-.208-.787.242-1.475.812-2.347l0,0a8.658,8.658,0,0,0,1.682-4.193,1.089,1.089,0,0,1,1.956-.579v-.459c-.344-2.793-3.1-4.461-5.573-4.461a42.756,42.756,0,0,0-5.365.483l-.017,0c-1.345.178-2.871.38-4.261.451-.279.014-.585.021-.911.021-3.352,0-8.724-.755-10.263-1.444a27.859,27.859,0,0,1-4.533-3.4c-.122.368-.2.621-.239.731l-.017.052h0a1.088,1.088,0,1,1-2.072-.662l0-.01c.078-.243.365-1.131.788-2.363.69-2.01-.05-5.061-.706-6.768a9.353,9.353,0,0,0-.7,2.825,35.588,35.588,0,0,0,.758,4.456,1.092,1.092,0,0,1-1.255,1.3,13.828,13.828,0,0,0-2.064.685,6.994,6.994,0,0,0-1.69,1.66l-.132.152c-.176.2-.375.432-.593.678a10.5,10.5,0,0,1-2.66,2.228,1.1,1.1,0,0,1,.267.2,1.074,1.074,0,0,1,.317.766,1.094,1.094,0,0,1-.095.447L3.6,17.7a1.105,1.105,0,0,1,.487-.114,1.082,1.082,0,0,1,.973.6q.012.024.022.048a1.59,1.59,0,0,1,.863-.274,1.409,1.409,0,0,1,.443.073.892.892,0,0,0,.263.027,12.262,12.262,0,0,0,3.322-.8,1.089,1.089,0,0,1,.679-.028l.03.009.032.011.005,0a1.077,1.077,0,0,1,.341.2l.025.022a1.08,1.08,0,0,1,.08.08,9.4,9.4,0,0,1,2.23,4.926,6,6,0,0,0,1.218,3.222,1.091,1.091,0,0,1,.176.207,5.631,5.631,0,0,0,1.439,1.129l.006,0,.071.042.113.068a1.084,1.084,0,0,1,.371.39l.012.023a1.079,1.079,0,0,1,.113.339l.007.047c.277,1.8,1.181,7.821,1.181,9.525,0,1.314-1.189,1.754-1.761,1.966l-.027.01c-.052.02-.125.047-.185.071H17.37a4.436,4.436,0,0,1,1.078-1.268l0,0c.048-.042.145-.129.222-.2.032-1.629.605-8.647.788-10.851a1.086,1.086,0,0,1,1.163-1h.01a1.088,1.088,0,0,1,.994,1.174c-.027.323-.055.663-.083,1.015a18.144,18.144,0,0,0,4.146.468,18.4,18.4,0,0,0,3.279-.292,8.567,8.567,0,0,0,5.042-2.513,4.682,4.682,0,0,1-.059-.727,1.088,1.088,0,1,1,2.175,0c0,1.208,1.026,2.927,2.816,4.717a7.048,7.048,0,0,1,1.6,3.793,21.922,21.922,0,0,1,.289,3.637c0,.937-.883,1.326-1.738,1.7-.285.125-.469.21-.55.256Zm-2.964,0h.262c.129-.181.317-.442.512-.706-.236.1-.393.177-.471.22C35.757,39.124,35.653,39.289,35.509,39.531Zm-15.232,0h12.73a15.363,15.363,0,0,1,1.222-1.986,3.447,3.447,0,0,1,1.244-.741l0,0c.112-.049.282-.124.43-.2-.055-2.594-.535-4.7-1.243-5.406-.386-.386-.749-.778-1.077-1.163a1.088,1.088,0,0,1-.259-.709,12.667,12.667,0,0,1-3.969,1.389,20.8,20.8,0,0,1-3.7.332A20.179,20.179,0,0,1,21.37,30.6c-.338,4.272-.542,7.206-.525,7.562A1.652,1.652,0,0,1,20.277,39.531Zm17.007-8.063a11.189,11.189,0,0,1,.517,1.988,21.938,21.938,0,0,1,.288,3.637,1.389,1.389,0,0,1-.01.164l.136-.06,0,0c.112-.05.283-.125.432-.2-.055-2.594-.535-4.7-1.244-5.405Zm7.094,2.042h0a.09.09,0,0,0,.014.126.088.088,0,0,0,.054.018.085.085,0,0,0,.068-.031A7.538,7.538,0,0,0,46.1,29.648a6.667,6.667,0,0,0-.585-2.524l0-.005a3.563,3.563,0,0,1-.185-.5l-.011-.052V19.844a6.637,6.637,0,0,0-6.748-5.564,43.589,43.589,0,0,0-5.525.495L33,14.781c-1.451.19-2.822.37-4.129.438-.266.014-.558.02-.868.02-3.355,0-8.512-.782-9.769-1.344a38.326,38.326,0,0,1-5.182-4.043l-.23-.2.079-.3a11.681,11.681,0,0,0-.273-5.487A8.391,8.391,0,0,0,11.21.556.3.3,0,0,0,11.081.5l.347.623c.75,1.346,2.16,5.707,1.2,8.511-.42,1.223-.7,2.1-.781,2.343l0,.009h0a.086.086,0,0,0,.006.067.085.085,0,0,0,.051.043.09.09,0,0,0,.027,0,.088.088,0,0,0,.084-.062l.018-.055c.055-.172.224-.693.48-1.453l.24-.712.564.5a29.2,29.2,0,0,0,4.848,3.737c1.3.58,6.407,1.356,9.855,1.356.309,0,.6-.007.861-.02,1.349-.068,2.853-.268,4.18-.444l.018,0a43.472,43.472,0,0,1,5.5-.492c2.92,0,6.176,2.01,6.57,5.373l0,.029v6.656a2.24,2.24,0,0,0,.209.671,6.487,6.487,0,0,1,.574,2.464A7.333,7.333,0,0,1,44.378,33.509Zm-1.467-3.95c.271.555.543,1.088.758,1.495a1.1,1.1,0,0,1,.126.542q-.019.565-.039,1.074a6.03,6.03,0,0,0,1.168-3.022,5.547,5.547,0,0,0-.5-2.092c-.073-.182-.136-.341-.184-.491a6.177,6.177,0,0,0-.272,1.408A1.089,1.089,0,0,1,42.911,29.56Zm-1.067-2.444c.023.072.051.15.082.234.046-.226.1-.44.149-.625C41.983,26.869,41.895,27.016,41.843,27.116ZM6.755,4.1a7.655,7.655,0,0,0,.4,2.186,19.645,19.645,0,0,0,1.377,2.2A20.842,20.842,0,0,1,8.1,5.341a6.36,6.36,0,0,1,.1-.932A1.087,1.087,0,0,1,6.845,4.2ZM5.986,2.074l.6.485a9.609,9.609,0,0,1,1,.968.087.087,0,0,0,.066.031.084.084,0,0,0,.058-.022.086.086,0,0,0,.03-.061.083.083,0,0,0-.022-.061,4.642,4.642,0,0,0-1.6-1.341A.275.275,0,0,0,5.986,2.074Zm8.09,38.457H11.9l.262-.68A8.068,8.068,0,0,1,13.085,38l.03-.028.035-.023a2.423,2.423,0,0,1,.467-.21l.028-.011c.609-.226,1.111-.458,1.111-1.029,0-1.327-.4-6-.643-8.664l-.1-1.1.892.651c.25.183.471.318.654.426l.2.121.036.234c.266,1.74,1.133,7.541,1.133,9.115,0,.493-.528.69-.993.864a2.587,2.587,0,0,0-.536.238,5.773,5.773,0,0,0-1.2,1.6.1.1,0,0,0-.007.014Zm-.7-1h.052c.151-.254.346-.565.563-.862l-.017.006c-.062.023-.153.058-.215.084A7.044,7.044,0,0,0,13.372,39.531ZM15.641,34.4c.07,1.006.115,1.839.115,2.3a1.8,1.8,0,0,1-.132.7c.074-.028.205-.078.3-.123C15.9,36.658,15.789,35.59,15.641,34.4ZM7.613,14.749a1.087,1.087,0,0,1-.276-2.139l.76-.2a1.086,1.086,0,0,1,1.327.778,1.085,1.085,0,0,1-.776,1.326l-.757.2A1.077,1.077,0,0,1,7.613,14.749Zm.76-1.374a.093.093,0,0,0-.023,0l-.758.2a.089.089,0,0,0-.062.108.087.087,0,0,0,.084.064.086.086,0,0,0,.021,0l.76-.2a.085.085,0,0,0,.054-.04.082.082,0,0,0,.009-.063A.086.086,0,0,0,8.373,13.375Z" transform="translate(338.054 -106.981)" fill="rgba(0,0,0,0)"/></g></svg>