<svg xmlns="http://www.w3.org/2000/svg" width="49.584" height="40.181" viewBox="0 0 49.584 40.181"><g transform="translate(-174.763 105.45)"><path d="M32.716,39.181H.588A.588.588,0,0,1,.588,38h10.4a2.261,2.261,0,0,1,.242-.654,1.829,1.829,0,0,0,.13-.3,3.366,3.366,0,0,0-.609-.784.592.592,0,0,1-.156-.28L9.027,29.324a.586.586,0,0,1,.068-.437,8.832,8.832,0,0,0,1.092-4.007,6.618,6.618,0,0,0-.725-2.516,8.244,8.244,0,0,1-.828-5.448.588.588,0,0,1,1.148.255,7.172,7.172,0,0,0,.761,4.731,7.57,7.57,0,0,1,.819,2.978,9.882,9.882,0,0,1-1.138,4.4L11.7,35.556a2.647,2.647,0,0,1,.837,1.469,1.905,1.905,0,0,1-.258.851c-.018.037-.041.083-.062.129h2.152a2.162,2.162,0,0,0-.513-1.376L12.71,35.482a.585.585,0,0,1-.149-.251c-.04-.136-.962-3.351-.394-5.414a6.845,6.845,0,0,1,1.46-2.236,11.48,11.48,0,0,0,2.84-5.167.588.588,0,0,1,1.153.23q-.062.308-.141.6a21.056,21.056,0,0,0,10.73,1.074v-1.79a.588.588,0,1,1,1.175,0V25.27c0,1.092-.507,4.306-.878,6.651-.124.8-.254,1.615-.289,1.9.067.118.222.339.351.522.649.922,1.537,2.183,1.178,3.262a1.944,1.944,0,0,0-.072.267.6.6,0,0,1,.068.134h2.324c-.09-.487-.294-1.065-.713-1.205-.655-.219-1.136-1.072-1.559-2.766-.408-1.627,1.539-8.613,1.956-10.072a.589.589,0,0,1,.43-.436c.172-.044,4.288-1.193,4.648-7.69.069-1.235.25-3.5.4-4.377a5.98,5.98,0,0,1,1.286-2.977A2.864,2.864,0,0,1,37.631,7a.588.588,0,0,1,1.14-.285,1.6,1.6,0,0,0,.891,1.123,1.279,1.279,0,0,0,1.019.061.59.59,0,0,1,.4-.044l1.567.392a.586.586,0,0,1,.445.57c0,.005.073.587.98.587h.392a.908.908,0,0,0,.567-.49.891.891,0,0,0-.242-.905c-.494-.617-.866-1.148-1.226-1.66a14.708,14.708,0,0,0-3-3.35.585.585,0,0,1-.11-.122,3.344,3.344,0,0,1-.332-.786c-.03-.087-.062-.178-.095-.274a4.207,4.207,0,0,0-.458,1.905.588.588,0,1,1-1.175,0,5.361,5.361,0,0,1,.169-1.34A6.623,6.623,0,0,0,34.7,4.137c-.145.15-.986,1.285-1.8,2.383-1.375,1.855-3.26,4.4-4.433,5.805a.588.588,0,0,1-.9-.752c1.154-1.383,3.026-3.91,4.392-5.755,1.251-1.686,1.741-2.34,1.913-2.513a7.846,7.846,0,0,1,5.117-2.132l.051,0a4.543,4.543,0,0,1,.708-1,.588.588,0,0,1,.942.153A11.766,11.766,0,0,1,41.235,1.7c.057.164.125.36.168.461q.121.1.235.2c.028-.18.06-.368.094-.552L41.7,1.787a.587.587,0,0,1,0-.831l.392-.392a.588.588,0,0,1,.985.566,15.343,15.343,0,0,0-.373,2.2q0,.023,0,.045a17.644,17.644,0,0,1,1.826,2.3c.35.5.711,1.012,1.181,1.6a1.964,1.964,0,0,1,.372,2.175,2,2,0,0,1-1.614,1.13h-.392A2.057,2.057,0,0,1,42.01,9.3l-1.022-.255a2.378,2.378,0,0,1-1.33.034l-.038.02a3.9,3.9,0,0,0-1.232,2.561c-.136.8-.316,3.01-.383,4.243-.242,4.355-2.045,6.6-3.531,7.724a.585.585,0,0,1,0,.161c-.449,3.137-1.061,8.51-.8,9.571.429,1.715.8,1.938.8,1.941,1.3.432,1.521,2.123,1.558,2.706H48a.588.588,0,0,1,0,1.176ZM34.861,38c-.039-.5-.222-1.416-.763-1.6-.655-.219-1.137-1.072-1.561-2.766-.348-1.393.37-7.079.665-9.251-.153.07-.287.125-.4.166-.888,3.153-2.118,8.193-1.869,9.191.429,1.716.8,1.94.8,1.941A2.685,2.685,0,0,1,33.255,38Zm-6.367,0a2.242,2.242,0,0,1,.138-.774c.172-.515-.606-1.619-1.023-2.213-.382-.542-.574-.814-.574-1.127,0-.158.063-.576.311-2.152.3-1.9.789-4.994.856-6.222a18.43,18.43,0,0,1-3.259.283A22.908,22.908,0,0,1,17.1,24.362a14.874,14.874,0,0,1-2.573,3.969,6.368,6.368,0,0,0-1.231,1.8,10.89,10.89,0,0,0,.349,4.631l1.066,1.067a.4.4,0,0,1,.051.058A3.359,3.359,0,0,1,15.545,38H16.72a2.162,2.162,0,0,0-.513-1.376l-1.147-1.147a.594.594,0,0,1-.148-.251c-.041-.136-.963-3.351-.394-5.414a6.825,6.825,0,0,1,1.46-2.236A20.268,20.268,0,0,0,17.486,25.6a.588.588,0,0,1,.987.638,21.425,21.425,0,0,1-1.591,2.093,6.329,6.329,0,0,0-1.231,1.8A10.89,10.89,0,0,0,16,34.76l1.066,1.067a.459.459,0,0,1,.051.058A3.364,3.364,0,0,1,17.9,38Zm.822-.378-.03-.005ZM5.538,32.109a.585.585,0,0,1-.427-.712c.58-2.322.378-3.7-.026-6.453-.116-.79-.248-1.685-.379-2.735-.266-2.12-.031-5.287,1.5-7.228A4.22,4.22,0,0,1,9,13.343a9.531,9.531,0,0,1,4.073-1.587,9.031,9.031,0,0,1,4.858.854,12.3,12.3,0,0,0,5.382,1.1c4.081,0,5.588-1.164,7.046-2.29q.22-.171.438-.336a19.977,19.977,0,0,0,2.131-2.77A44.6,44.6,0,0,1,35.8,4.5a.588.588,0,0,1,.877.785,43.418,43.418,0,0,0-2.792,3.7A16.991,16.991,0,0,1,31.5,12.029c-.141.106-.282.214-.425.324-1.539,1.188-3.283,2.536-7.764,2.536A13.467,13.467,0,0,1,17.484,13.7a7.935,7.935,0,0,0-4.307-.77A8.565,8.565,0,0,0,9.533,14.4a.573.573,0,0,1-.261.1A3.091,3.091,0,0,0,7.13,15.709c-1.224,1.551-1.513,4.309-1.258,6.355.13,1.038.26,1.926.376,2.71.412,2.813.64,4.361,0,6.909a.587.587,0,0,1-.571.445A.567.567,0,0,1,5.538,32.109Zm2.187-3.119a.588.588,0,0,1-.468-.686c.3-1.595.458-4.585-.342-6.293a.588.588,0,0,1,1.065-.5c.988,2.108.736,5.4.432,7.009A.588.588,0,0,1,7.835,29,.569.569,0,0,1,7.725,28.991Zm33.023-23.7a.588.588,0,1,1,.588.588A.587.587,0,0,1,40.748,5.289Z" transform="translate(175.263 -104.95)" fill="#004480"/><path d="M48,39.681H.588a1.088,1.088,0,0,1,0-2.176H10.609a4.122,4.122,0,0,1,.173-.379l.019-.037a4.224,4.224,0,0,0-.4-.471,1.1,1.1,0,0,1-.289-.518L8.54,29.438a1.1,1.1,0,0,1-.027-.176,1.084,1.084,0,0,1-.678.238,1.085,1.085,0,0,1-.7-.253,13.02,13.02,0,0,1-.4,2.556,1.086,1.086,0,0,1-1.056.823,1.086,1.086,0,0,1-1.055-1.352c.556-2.228.358-3.575-.036-6.258l-.012-.08c-.113-.771-.242-1.646-.369-2.666-.277-2.216-.024-5.537,1.6-7.6a4.708,4.708,0,0,1,3-1.807,9.982,9.982,0,0,1,4.209-1.607c.354-.032.7-.048,1.027-.048a9.766,9.766,0,0,1,4.066.938,11.874,11.874,0,0,0,5.192,1.065,12.106,12.106,0,0,0,3.9-.528,1.088,1.088,0,0,1-.035-1.431c1.156-1.386,3.093-4,4.374-5.732,1.4-1.881,1.772-2.38,1.962-2.569A8.353,8.353,0,0,1,38.741.684a4.78,4.78,0,0,1,.649-.865A1.088,1.088,0,0,1,41.133.1c.081.163.156.33.225.5L41.741.21a1.088,1.088,0,0,1,1.822,1.047,17.09,17.09,0,0,0-.346,1.931,18.886,18.886,0,0,1,1.724,2.2c.345.491.7,1,1.162,1.576a2.467,2.467,0,0,1,.431,2.7,2.5,2.5,0,0,1-2.064,1.413h-.392A2.586,2.586,0,0,1,41.65,9.721L41,9.559a2.88,2.88,0,0,1-1.248.047,4.222,4.222,0,0,0-.873,2.135c-.133.783-.312,3-.377,4.186-.243,4.371-2.016,6.723-3.539,7.948-.551,3.851-1.014,8.519-.8,9.36a5.155,5.155,0,0,0,.6,1.633A2.627,2.627,0,0,1,36.2,36.407a4.895,4.895,0,0,1,.29,1.1H48a1.088,1.088,0,0,1,0,2.176ZM.588,38.5a.088.088,0,0,0,0,.176H48a.088.088,0,0,0,0-.176H35.569l-.03-.469c-.028-.445-.2-1.925-1.216-2.263l-.112-.037-.062-.062a4.634,4.634,0,0,1-.956-2.195c-.385-1.537.774-9.681.786-9.763a.085.085,0,0,0,0-.024l-.039-.29.233-.176c1.393-1.052,3.1-3.182,3.333-7.353.068-1.236.249-3.47.39-4.3.2-1.184.746-2.546,1.5-2.925l.008,0,.176-.1.2.049a2.115,2.115,0,0,0,.507.063,1.654,1.654,0,0,0,.54-.085l.14-.048,1.427.356.09.254a1.537,1.537,0,0,0,1.6.95h.392a1.507,1.507,0,0,0,1.163-.847,1.477,1.477,0,0,0-.311-1.646c-.48-.6-.846-1.123-1.2-1.626a17.18,17.18,0,0,0-1.777-2.238L42.19,3.56l.017-.223s0,0,0-.007A15.4,15.4,0,0,1,42.6,1a.088.088,0,0,0-.148-.084l-.391.392a.085.085,0,0,0-.026.062.088.088,0,0,0,.023.06l.219.205-.049.268c-.033.182-.064.363-.092.538l-.14.893-.682-.593q-.112-.1-.229-.2l-.092-.077-.047-.11c-.045-.107-.106-.282-.165-.45l-.016-.046A11.344,11.344,0,0,0,40.239.548.092.092,0,0,0,40.173.5h-.012A.09.09,0,0,0,40.1.525a4.117,4.117,0,0,0-.621.887l-.156.291-.328-.028h-.008A7.3,7.3,0,0,0,34.221,3.66c-.155.155-.778.992-1.865,2.457-1.288,1.739-3.235,4.369-4.41,5.777a.084.084,0,0,0-.019.063.086.086,0,0,0,.031.059.085.085,0,0,0,.122-.01c1.162-1.394,3.037-3.922,4.405-5.768l.036-.049c1.122-1.514,1.667-2.244,1.816-2.4l.006-.007a7.061,7.061,0,0,1,4.166-1.9l.721-.081-.181.7A4.879,4.879,0,0,0,38.9,3.722a.088.088,0,1,0,.175,0,4.674,4.674,0,0,1,.512-2.131L40.121.53,40.5,1.655l.049.142.046.132a3.426,3.426,0,0,0,.265.657l.007.01a.084.084,0,0,0,.016.018,15.109,15.109,0,0,1,3.092,3.447L44,6.1c.348.5.708,1.007,1.18,1.6A1.337,1.337,0,0,1,45.5,9.109a1.377,1.377,0,0,1-.985.792l-.042,0h-.392c-1.229,0-1.48-.857-1.48-1.087a.087.087,0,0,0-.066-.084l-1.568-.393a.089.089,0,0,0-.062.008,1.409,1.409,0,0,1-.62.13,2,2,0,0,1-.828-.185,2.121,2.121,0,0,1-1.168-1.457.089.089,0,0,0-.085-.065l-.022,0a.085.085,0,0,0-.054.04.084.084,0,0,0-.01.065A2.377,2.377,0,0,0,38.845,8.1l.4.345-.363.378a5.417,5.417,0,0,0-1.153,2.715c-.145.842-.325,3.089-.394,4.32-.382,6.877-4.834,8.1-5.023,8.146a.09.09,0,0,0-.067.067l-.006.023c-1.17,4.092-2.227,8.714-1.952,9.813.362,1.449.776,2.261,1.232,2.413.525.175.887.725,1.046,1.589l.109.591H29.392l-.119-.331a.1.1,0,0,0-.012-.022l-.032-.047,0,.015-.03-.005.008-.045-.058-.085.036-.2a2.447,2.447,0,0,1,.09-.338c.279-.839-.525-1.981-1.113-2.816-.18-.256-.306-.439-.376-.561l-.083-.145.02-.165c.031-.252.132-.9.239-1.581l.052-.332c.348-2.193.872-5.5.872-6.574V22.529a.088.088,0,1,0-.175,0v2.2l-.4.079a17.456,17.456,0,0,1-3.318.308A22.712,22.712,0,0,1,17.3,23.712l-.421-.161L17,23.115c.05-.188.1-.379.133-.569a.087.087,0,0,0-.069-.1l-.019,0a.089.089,0,0,0-.084.071A11.9,11.9,0,0,1,14.011,27.9L14,27.909a6.551,6.551,0,0,0-1.355,2.04,11.594,11.594,0,0,0,.391,5.139.089.089,0,0,0,.023.04L14.235,36.3l.021.028a2.636,2.636,0,0,1,.613,1.694l-.017.483h-3.42l.332-.711c.023-.049.046-.1.066-.136l.007-.014a1.453,1.453,0,0,0,.2-.618,2.148,2.148,0,0,0-.7-1.124l-.093-.1-1.552-6.6.088-.166a9.47,9.47,0,0,0,1.08-4.161,7.2,7.2,0,0,0-.778-2.78,7.677,7.677,0,0,1-.791-5.038A.085.085,0,0,0,9.281,17a.084.084,0,0,0-.054-.038l-.023,0a.085.085,0,0,0-.083.068,7.722,7.722,0,0,0,.8,5.143,7.065,7.065,0,0,1,.766,2.713,9.225,9.225,0,0,1-1.159,4.258l0,.007a.087.087,0,0,0-.01.065l1.567,6.661a.092.092,0,0,0,.025.043,3.742,3.742,0,0,1,.721.957l.054.141-.034.148a1.822,1.822,0,0,1-.173.418,1.838,1.838,0,0,0-.194.507l-.068.421Zm29.7-1h1.1a.459.459,0,0,0-.195-.231,1.868,1.868,0,0,1-.915-.7A2.4,2.4,0,0,1,30.289,37.5Zm-17.318,0h.814a2.272,2.272,0,0,0-.308-.548l-.594-.594a1.653,1.653,0,0,1,.155.663A1.8,1.8,0,0,1,12.971,37.5Zm15.766-3.8c.078.118.181.263.24.347.162.23.338.48.508.745q-.09-.3-.175-.643c-.071-.285-.289-1.154.666-5.331.5-2.185,1.111-4.36,1.291-4.99a1.085,1.085,0,0,1,.791-.793,4.947,4.947,0,0,0,2.02-1.292,8.976,8.976,0,0,0,2.251-5.94c.072-1.288.254-3.545.407-4.434a7.218,7.218,0,0,1,1.106-2.866,3.445,3.445,0,0,1-.7-1.388A1.086,1.086,0,0,1,37.938,5.8a1.088,1.088,0,0,1,1.318.789,1.112,1.112,0,0,0,.616.792.989.989,0,0,0,.41.093.474.474,0,0,0,.177-.026,1.1,1.1,0,0,1,.749-.081l1.566.392a1.084,1.084,0,0,1,.822.983c.032.065.162.159.482.159h.313a.463.463,0,0,0,.186-.187c.03-.071-.036-.224-.173-.4-.491-.613-.86-1.138-1.217-1.646l-.027-.038c-.257-.366-.5-.715-.773-1.067a1.088,1.088,0,1,1-1.211-1.355c-.271-.263-.576-.538-.929-.831a1.087,1.087,0,0,1-.143-.144,3.7,3.7,0,0,0-.031.483,1.088,1.088,0,1,1-2.175,0,5.914,5.914,0,0,1,.045-.73,6.211,6.211,0,0,0-2.326,1.016,1.088,1.088,0,0,1,1.438,1.615A43.066,43.066,0,0,0,34.3,9.278a16.555,16.555,0,0,1-2.5,3.151c-.126.095-.251.191-.378.288l-.042.032c-1.6,1.238-3.419,2.64-8.069,2.64A13.9,13.9,0,0,1,17.3,14.161l-.006,0a7.744,7.744,0,0,0-3.245-.774c-.26,0-.538.013-.824.04A8.061,8.061,0,0,0,9.81,14.813a1.075,1.075,0,0,1-.486.177,2.605,2.605,0,0,0-1.8,1.029,6.168,6.168,0,0,0-1.083,2.766A11.37,11.37,0,0,0,6.368,22c.13,1.033.261,1.934.375,2.7v.007c.088.6.168,1.143.233,1.652a9.537,9.537,0,0,0-.514-4.134,1.088,1.088,0,0,1,.984-1.549,1.094,1.094,0,0,1,.985.624c.912,1.945.83,4.808.584,6.613a7.953,7.953,0,0,0,.671-3.033A6.288,6.288,0,0,0,9,22.56a8.771,8.771,0,0,1-.856-5.753A1.079,1.079,0,0,1,9.2,15.956a1.1,1.1,0,0,1,.238.026,1.087,1.087,0,0,1,.826,1.3A6.671,6.671,0,0,0,11,21.7a7.948,7.948,0,0,1,.859,3.175,10.3,10.3,0,0,1-1.109,4.461l.828,3.52a8.645,8.645,0,0,1,.1-3.177,7.106,7.106,0,0,1,1.549-2.413l.008-.01a11.065,11.065,0,0,0,2.735-4.946,1.09,1.09,0,0,1,1.065-.874,1.088,1.088,0,0,1,1.069,1.3q-.019.094-.039.188a21.775,21.775,0,0,0,6.916,1.189A16.7,16.7,0,0,0,27.71,23.9V22.529a1.088,1.088,0,1,1,2.175,0V25.27A67.611,67.611,0,0,1,29,32l-.052.332C28.863,32.879,28.781,33.4,28.738,33.706ZM14.053,12.21c-.3,0-.612.015-.937.044a9.047,9.047,0,0,0-3.846,1.508l-.093.06-.109.016A3.739,3.739,0,0,0,6.6,15.291a9.6,9.6,0,0,0-1.4,6.856c.125,1.01.253,1.878.366,2.645l.012.08c.4,2.725.621,4.226.017,6.647a.086.086,0,0,0,.009.067.082.082,0,0,0,.051.038l.006,0,.018,0a.088.088,0,0,0,.085-.065c.612-2.451.39-3.964-.012-6.71v-.006c-.114-.768-.246-1.676-.378-2.72-.268-2.151.05-5.064,1.362-6.727A3.574,3.574,0,0,1,9.217,14a.077.077,0,0,0,.037-.013,9.082,9.082,0,0,1,3.879-1.554c.316-.029.624-.044.915-.044a8.667,8.667,0,0,1,3.624.849l-.184.465.189-.463a13.029,13.029,0,0,0,5.634,1.153c4.308,0,5.981-1.291,7.456-2.43l.046-.035c.13-.1.258-.2.387-.295a18.225,18.225,0,0,0,2.279-2.923,43.721,43.721,0,0,1,2.829-3.75.087.087,0,0,0-.008-.123.084.084,0,0,0-.058-.023.088.088,0,0,0-.066.03A44.16,44.16,0,0,0,33.337,8.6l-.008.012A17.51,17.51,0,0,1,31.1,11.487c-.145.109-.29.22-.431.33-1.455,1.123-3.1,2.4-7.353,2.4a12.729,12.729,0,0,1-5.571-1.14A8.815,8.815,0,0,0,14.053,12.21ZM7.446,21.676a.08.08,0,0,0-.035.008.087.087,0,0,0-.047.05.084.084,0,0,0,0,.065c.918,1.959.651,5.173.381,6.6a.085.085,0,0,0,.014.065.086.086,0,0,0,.056.037h.018a.088.088,0,0,0,.085-.071c.293-1.553.54-4.713-.393-6.7A.09.09,0,0,0,7.446,21.676Zm27.61-17.19c-.141.152-1.06,1.393-1.731,2.3l-.036.049c-.9,1.218-2.026,2.732-3.024,4.029l.231-.175A22.527,22.527,0,0,0,32.51,8.041l.008-.011a44.8,44.8,0,0,1,2.913-3.858,1.091,1.091,0,0,1,.138-.129A4.863,4.863,0,0,0,35.056,4.486ZM35.4,38.5H32.821l-.061-.43c-.085-.6-.35-1.636-1.18-1.912l-.034-.011-.032-.016c-.259-.13-.654-.628-1.064-2.267-.36-1.441,1.643-8.632,1.873-9.448l.069-.245.239-.088c.117-.043.239-.094.363-.151l.827-.381-.122.9c-.638,4.7-.9,8.176-.676,9.063.363,1.449.778,2.26,1.234,2.413.874.291,1.063,1.518,1.1,2.032Zm-1.73-1h.6c-.089-.348-.223-.585-.335-.622a1.7,1.7,0,0,1-.61-.361A4.21,4.21,0,0,1,33.672,37.5Zm-1.654-2.246a2.287,2.287,0,0,1,.717.455,8.973,8.973,0,0,1-.683-1.95,19.323,19.323,0,0,1,.089-4.627,18.586,18.586,0,0,0-.721,4.49A5.184,5.184,0,0,0,32.018,35.259Zm-3,3.246H17.386l.01-.51a2.882,2.882,0,0,0-.675-1.806l0,0,0,0-1.161-1.161-.035-.129c-.086-.318-.828-3.154-.349-4.895a6.337,6.337,0,0,1,1.32-1.974l.008-.01a20.965,20.965,0,0,0,1.556-2.046.09.09,0,0,0-.027-.122.085.085,0,0,0-.047-.014.086.086,0,0,0-.074.039,20.62,20.62,0,0,1-1.545,2.03A6.568,6.568,0,0,0,15,29.949a11.588,11.588,0,0,0,.391,5.139.1.1,0,0,0,.025.043L16.586,36.3l.021.028a2.636,2.636,0,0,1,.613,1.694L17.2,38.5H15.034l.011-.51a2.877,2.877,0,0,0-.675-1.805l-.008-.009L13.2,35.019l-.035-.129c-.086-.318-.828-3.154-.349-4.895a6.344,6.344,0,0,1,1.315-1.968l.013-.016a14.39,14.39,0,0,0,2.494-3.837l.184-.456.459.177a22.511,22.511,0,0,0,7.658,1.4,17.974,17.974,0,0,0,3.171-.275l.622-.112-.035.631c-.069,1.253-.545,4.27-.861,6.266v.007c-.195,1.237-.305,1.943-.305,2.074,0,.155.182.412.483.838l0,0c.7,1,1.318,1.959,1.086,2.655a1.8,1.8,0,0,0-.113.594Zm-10.649-1H28.04a3.65,3.65,0,0,1,.116-.427c0-.023.012-.207-.278-.73a12.116,12.116,0,0,0-.675-1.039l0,0a2.514,2.514,0,0,1-.665-1.414c0-.2.052-.546.317-2.23v-.007c.251-1.591.648-4.1.8-5.543a19.255,19.255,0,0,1-2.708.188,23.382,23.382,0,0,1-5.966-.814,1.088,1.088,0,0,1-.083,1.023,21.777,21.777,0,0,1-1.627,2.142l-.008.01a6.387,6.387,0,0,0-1.125,1.6,10.288,10.288,0,0,0,.316,4.241l.971.971a.963.963,0,0,1,.1.114A4.064,4.064,0,0,1,18.367,37.5Zm-2.351,0h.121a2.04,2.04,0,0,0-.2-.384A3.41,3.41,0,0,1,16.015,37.5Zm-1.917-3,.15.15A11.825,11.825,0,0,1,14,29.831a1.682,1.682,0,0,0-.216.431A10.289,10.289,0,0,0,14.1,34.5Z" transform="translate(175.263 -104.95)" fill="rgba(0,0,0,0)"/></g></svg>