<svg xmlns="http://www.w3.org/2000/svg" width="48.526" height="41.88" viewBox="0 0 48.526 41.88"><g transform="translate(-93.249 107.149)"><path d="M1.1,40.88a.588.588,0,0,1,0-1.176H13.653c.049-.627.243-1.746,1-2.126a4.125,4.125,0,0,0,1.2-1.467c.191-.409-.088-2.118-.828-5.08a.588.588,0,1,1,1.14-.285c.778,3.111,1.147,5.073.739,5.89a5.238,5.238,0,0,1-1.72,1.994,1.82,1.82,0,0,0-.347,1.074H16.4c.048-.627.242-1.746,1-2.126a3.5,3.5,0,0,0,1.121-1.212c-.023-.123-.053-.312-.094-.553-1.036-6.318-1.726-7.729-2.045-8.008a.587.587,0,1,1,.773-.885c.822.719,1.549,3.321,2.432,8.7.053.323.089.544.107.627.144.669-1.031,2.01-1.77,2.38a1.829,1.829,0,0,0-.347,1.074h2.536a5.11,5.11,0,0,1,1.15-2.375,36.918,36.918,0,0,1,.389-8.38c-.068-.261-.224-.876-.363-1.45a6.507,6.507,0,0,1,0-2.618.588.588,0,0,1,1.147.26,5.318,5.318,0,0,0,0,2.084c.178.743.389,1.555.39,1.557a.6.6,0,0,1,.008.26,35.985,35.985,0,0,0-.382,8.479.584.584,0,0,1-.172.444,4.071,4.071,0,0,0-.97,1.739H35.784a4.416,4.416,0,0,1,1.309-2.544c.307-.582.486-4.526-.771-5.87a.587.587,0,1,1,.857-.8c1.637,1.745,1.589,6.66.77,7.478A3.339,3.339,0,0,0,36.97,39.7h1.166a4.41,4.41,0,0,1,1.309-2.544c.306-.582.486-4.526-.773-5.87-.168-.18-.345-.364-.525-.553-1.481-1.555-3.161-3.317-3.541-5.219a.588.588,0,0,1,1.153-.23c.313,1.569,1.868,3.2,3.239,4.639.182.191.36.378.531.561,1.636,1.745,1.589,6.66.771,7.478a3.338,3.338,0,0,0-.98,1.739h1.954a5.428,5.428,0,0,1,1.144-1.962l-.368-6.255a4.114,4.114,0,0,1-.322-4.422,15.677,15.677,0,0,0-1.084-1.246.587.587,0,1,1,.831-.831c.1.1,2.482,2.5,2.9,4.61a.586.586,0,0,1-.461.691.566.566,0,0,1-.116.013.587.587,0,0,1-.575-.473,5.323,5.323,0,0,0-.72-1.655,3.248,3.248,0,0,0,.578,2.74.574.574,0,0,1,.128.333l.392,6.662a.588.588,0,0,1-.141.417A7.65,7.65,0,0,0,42.5,39.7h4.435a.588.588,0,0,1,0,1.176ZM31.168,30.823c-.857-1.286-.557-4.79-.487-5.478a.587.587,0,1,1,1.169.117c-.143,1.434-.189,3.981.3,4.709a.589.589,0,0,1-.164.815.591.591,0,0,1-.815-.163Zm-2.427-.166a13.315,13.315,0,0,1-.406-5.351.588.588,0,0,1,1.159.193,12.392,12.392,0,0,0,.377,4.836.587.587,0,0,1-.4.727.594.594,0,0,1-.162.022A.588.588,0,0,1,28.741,30.658Zm-2.343.025a13.3,13.3,0,0,1-.416-5.363.588.588,0,0,1,1.164.166,12.3,12.3,0,0,0,.367,4.826.587.587,0,0,1-.373.743.548.548,0,0,1-.185.03A.586.586,0,0,1,26.4,30.683Zm-2.339.031a13.159,13.159,0,0,1-.429-5.385.588.588,0,0,1,1.166.146,12.2,12.2,0,0,0,.354,4.8.587.587,0,0,1-1.091.436ZM34.465,30.2c-1.437-.958-1.437-2.791-1.437-4.407a.588.588,0,1,1,1.175,0c0,1.45,0,2.82.914,3.429a.588.588,0,1,1-.653.978Zm-19.79-1.011c-.852-1.7-.132-5.1-.048-5.483a.588.588,0,1,1,1.148.254c-.205.925-.614,3.574-.049,4.7a.587.587,0,0,1-.263.787.58.58,0,0,1-.262.062A.587.587,0,0,1,14.675,29.192Zm28.94-2.516c-.361-2.164-2.588-4.782-2.609-4.807A.588.588,0,1,1,41.9,21.1c.1.116,2.463,2.894,2.877,5.378a.587.587,0,0,1-.483.676.522.522,0,0,1-.1.008A.587.587,0,0,1,43.615,26.675Zm-30.938-.328a19.466,19.466,0,0,1-.8-4.3,23.163,23.163,0,0,1-2.992-6.106,7.7,7.7,0,0,1-.707.37,3.257,3.257,0,0,1,.138,2.227A.588.588,0,1,1,7.2,18.165a2.446,2.446,0,0,0-.324-1.841.588.588,0,0,1,.324-.887,5.967,5.967,0,0,0,1.407-.709,1.7,1.7,0,0,0,.54-1.719.588.588,0,1,1,1.14-.285A3.147,3.147,0,0,1,9.9,15.087l0,.024a20.719,20.719,0,0,0,3.163,6.605.586.586,0,0,1,.01.634,20.247,20.247,0,0,0,.732,3.674.587.587,0,0,1-.4.727.6.6,0,0,1-.162.023A.589.589,0,0,1,12.677,26.347ZM44.467,24.02a.59.59,0,0,1-.456-.7c.27-1.3-.659-2.366-1.557-3.4-.25-.287-.485-.559-.688-.83a.588.588,0,1,1,.941-.7c.178.237.4.493.634.763.986,1.132,2.21,2.541,1.822,4.411a.589.589,0,0,1-.575.468A.682.682,0,0,1,44.467,24.02ZM2.824,21.242a.587.587,0,0,1-.31-.772,7.416,7.416,0,0,0,.6-3,5.091,5.091,0,0,1-.889.08,4.158,4.158,0,0,1-1.317-.2,1.189,1.189,0,0,1-.7-.737,2.8,2.8,0,0,1-.031-2.042,6.772,6.772,0,0,1,1.238-1.507A10.447,10.447,0,0,0,2.57,11.749c.288-.418.589-.913.878-1.39.86-1.418,1.679-2.767,2.669-3.1a10.277,10.277,0,0,1,7.8-7.12,8.261,8.261,0,0,1,9.695,6.743c.727,4-1.7,6.309-2.417,6.57a.6.6,0,0,1-.2.034.586.586,0,0,1-.538-.823c.078-.182,1.9-4.487-1.656-6.748-3.835-2.441-6.225-.175-6.324-.078a.587.587,0,0,1-.829-.832c.031-.032,3.13-3.043,7.784-.081A5.8,5.8,0,0,1,22.122,10.6a6,6,0,0,0,.337-3.51,7.1,7.1,0,0,0-8.328-5.8c-5.525,1-6.922,6.385-6.98,6.615V7.92l0,.012h0a.581.581,0,0,1-.139.244l0,0,0,0a.584.584,0,0,1-.42.178c-.545,0-1.5,1.57-2.128,2.607-.3.492-.608,1-.915,1.447a11.332,11.332,0,0,1-1.282,1.464,6.17,6.17,0,0,0-1.028,1.208,1.769,1.769,0,0,0,.11,1.157,3.509,3.509,0,0,0,1.667.045,4.119,4.119,0,0,0-.116-.495.588.588,0,0,1,1.115-.373,8.311,8.311,0,0,1-.41,5.512.588.588,0,0,1-.541.356A.58.58,0,0,1,2.824,21.242Zm42.021-.669c-.106-.212-.242-.515-.408-.878a33.737,33.737,0,0,0-1.92-3.78,8.054,8.054,0,0,0-3.062-2.2c-.218-.113-.43-.224-.634-.333-3.083-1.661-8.086-1.251-12.5-.889-.828.067-1.636.133-2.413.184a.588.588,0,1,1-.076-1.173c.77-.051,1.573-.117,2.395-.184,4.576-.375,9.763-.8,13.153,1.026.2.107.406.215.619.326A8.755,8.755,0,0,1,43.52,15.3a34.945,34.945,0,0,1,1.989,3.911c.157.347.285.634.386.835a.589.589,0,0,1-.263.789.579.579,0,0,1-.262.061A.587.587,0,0,1,44.845,20.573Zm-39.7.263a.59.59,0,0,1-.263-.789c.564-1.126.159-3.483-.044-4.3a.588.588,0,0,1,1.14-.286c.085.343.812,3.395-.044,5.108a.591.591,0,0,1-.789.263Zm14.291-8.171A17.28,17.28,0,0,1,11.165,8.8a2.737,2.737,0,0,1-.127.384.588.588,0,0,1-1.079-.467,7.53,7.53,0,0,0,.292-1.677A1.564,1.564,0,0,0,9.128,8.555a.588.588,0,1,1-1.175,0c0-1.013.485-2.344,2.8-2.92a.587.587,0,0,1,.73.57c0,.163-.026.666-.086,1.23a16.7,16.7,0,0,0,8.2,4.063.588.588,0,0,1-.076,1.172A.763.763,0,0,1,19.434,12.665Zm-14.162-1.5a.588.588,0,0,1,.263-.788l.784-.391a.587.587,0,0,1,.525,1.05l-.783.392a.587.587,0,0,1-.788-.263Z" transform="translate(93.751 -106.649)" fill="#004480"/><path d="M46.937,41.38H1.1a1.088,1.088,0,0,1,0-2.176H13.209a2.7,2.7,0,0,1,1.223-2.073,3.786,3.786,0,0,0,.962-1.225c.043-.157.093-.95-.857-4.753a1.09,1.09,0,0,1,.436-1.159,1.08,1.08,0,0,1-.746-.578,5.539,5.539,0,0,1-.463-2.274,1.088,1.088,0,0,1-1.569-.655,20.572,20.572,0,0,1-.813-4.281,28.879,28.879,0,0,1-2.43-4.512,3.257,3.257,0,0,1-.165,1,1.087,1.087,0,0,1-1.96.222,4.973,4.973,0,0,1-.449,1.88,1.088,1.088,0,0,1-2.055-.374q-.117.349-.269.707a1.087,1.087,0,0,1-1,.659,1.087,1.087,0,0,1-1-1.516A6.881,6.881,0,0,0,2.6,18.032q-.187.013-.373.013a4.649,4.649,0,0,1-1.475-.229,1.668,1.668,0,0,1-1-1.02,3.259,3.259,0,0,1-.017-2.457,7.042,7.042,0,0,1,1.321-1.626L1.06,12.7a10.172,10.172,0,0,0,1.1-1.24c.283-.412.591-.919.863-1.366.847-1.4,1.651-2.722,2.695-3.215A10.71,10.71,0,0,1,13.832-.352,9.216,9.216,0,0,1,15.471-.5a8.747,8.747,0,0,1,5.6,2.024,8.955,8.955,0,0,1,3.033,5.27,7.7,7.7,0,0,1-.348,4.216l.041,0c.729-.049,1.479-.109,2.273-.174l.113-.009c1.978-.162,4.024-.33,6.033-.33a15.46,15.46,0,0,1,7.4,1.414c.2.108.41.217.612.322a9.087,9.087,0,0,1,3.718,2.81,35.246,35.246,0,0,1,2.019,3.967l.052.116c.129.285.24.531.324.7a1.09,1.09,0,0,1-.485,1.461,1.078,1.078,0,0,1-.4.111,3.952,3.952,0,0,1,.2,2.272,1.1,1.1,0,0,1-.977.863,7.849,7.849,0,0,1,.594,1.871,1.087,1.087,0,0,1-.889,1.25,1.009,1.009,0,0,1-.186.016h-.045a6.493,6.493,0,0,1,.72,1.835,1.086,1.086,0,0,1-.85,1.279,1.069,1.069,0,0,1-.425,0,1.067,1.067,0,0,1,.119.438l.392,6.658a1.1,1.1,0,0,1-.261.772c-.157.183-.306.374-.437.554h3.53a1.088,1.088,0,0,1,0,2.176ZM1.1,40.2a.088.088,0,0,0,0,.176H46.937a.088.088,0,0,0,0-.176H41.708l.344-.716A8.124,8.124,0,0,1,43.085,38a.088.088,0,0,0,.022-.061l-.392-6.662a.078.078,0,0,0-.017-.047,3.714,3.714,0,0,1-.665-3.21l.335-1.026.566.919a5.748,5.748,0,0,1,.784,1.819.088.088,0,0,0,.085.071l.014,0h.005a.084.084,0,0,0,.055-.036.086.086,0,0,0,.013-.066,10.824,10.824,0,0,0-2.767-4.355.086.086,0,0,0-.062-.026A.084.084,0,0,0,41,25.34a.087.087,0,0,0-.027.063.084.084,0,0,0,.025.061l.008.008a16.389,16.389,0,0,1,1.117,1.284l.212.27-.176.295a3.635,3.635,0,0,0,.3,3.882l.079.115.388,6.59-.125.151a4.772,4.772,0,0,0-1.038,1.734l-.075.409H38.723l.105-.588a3.834,3.834,0,0,1,1.119-2,5.646,5.646,0,0,0,.389-3.009,6.425,6.425,0,0,0-1.172-3.774c-.166-.177-.337-.357-.528-.558l-.007-.007c-1.415-1.486-3.02-3.17-3.361-4.879a.091.091,0,0,0-.105-.068.087.087,0,0,0-.067.1c.351,1.759,1.976,3.465,3.41,4.97l.136.143c.135.141.267.279.394.416a6.013,6.013,0,0,1,1.107,3.532,7.724,7.724,0,0,1-.257,2.912l-.035.066-.052.053a3.913,3.913,0,0,0-1.168,2.25l-.051.443H36.373l.105-.588a3.835,3.835,0,0,1,1.118-2,5.646,5.646,0,0,0,.39-3.009,6.419,6.419,0,0,0-1.171-3.774.087.087,0,0,0-.065-.028.084.084,0,0,0-.058.023.086.086,0,0,0-.028.062.083.083,0,0,0,.023.061,6.017,6.017,0,0,1,1.108,3.533,7.713,7.713,0,0,1-.258,2.913l-.035.066-.052.053a3.919,3.919,0,0,0-1.168,2.25l-.051.443H20.668l.153-.62a4.537,4.537,0,0,1,1.1-1.973.085.085,0,0,0,.026-.066,36.451,36.451,0,0,1,.391-8.6.1.1,0,0,0,0-.041h0c-.107-.366-.392-1.549-.4-1.563a5.787,5.787,0,0,1,0-2.312h0a.088.088,0,0,0-.171-.04,6.013,6.013,0,0,0,0,2.393c.135.558.29,1.168.36,1.441l.028.108-.021.11a36.376,36.376,0,0,0-.381,8.265l.009.2-.132.151a4.655,4.655,0,0,0-1.031,2.112l-.058.434H17.022l.058-.552c.059-.558.214-1.265.62-1.469a3.717,3.717,0,0,0,1.044-.936,1.685,1.685,0,0,0,.461-.891c-.018-.084-.045-.247-.1-.579l-.012-.072c-.528-3.22-1.338-7.594-2.268-8.408a.084.084,0,0,0-.057-.022.088.088,0,0,0-.067.03.085.085,0,0,0-.021.063.087.087,0,0,0,.03.061c.245.214.99.867,2.209,8.3l.036.213c.023.137.041.248.056.33l.029.16-.071.147a3.966,3.966,0,0,1-1.348,1.443c-.388.194-.659.835-.727,1.717l-.036.462H14.28l.058-.552c.058-.558.213-1.266.622-1.469a4.671,4.671,0,0,0,1.493-1.764l0-.005c.357-.714-.162-3.087-.777-5.546a.089.089,0,0,0-.086-.067l-.024,0a.084.084,0,0,0-.051.039.087.087,0,0,0-.01.067c.372,1.489.631,2.679.772,3.539.2,1.255.133,1.643.025,1.874l-.006.012a4.586,4.586,0,0,1-1.419,1.691c-.387.193-.659.835-.727,1.717l-.036.461Zm38.914-1H40.9a6.687,6.687,0,0,1,1.006-1.626l-.349-5.926a4.63,4.63,0,0,1-.429-4.533c-.417-.509-.765-.87-.84-.946l0,0a1.087,1.087,0,0,1,1.54-1.535c.1.1.516.523,1.009,1.13a14.916,14.916,0,0,0-2.212-3.57,1.088,1.088,0,1,1,1.652-1.415,17.748,17.748,0,0,1,1.225,1.65,5.881,5.881,0,0,0-1.426-2.176c-.265-.3-.5-.579-.711-.858a1.088,1.088,0,1,1,1.74-1.305l.086.112c-.32-.652-.689-1.354-1.1-2.026a7.792,7.792,0,0,0-2.858-2.012l-.009,0c-.241-.125-.441-.23-.639-.336a13.646,13.646,0,0,0-6.356-1.155c-1.923,0-3.928.164-5.868.323l-.276.022c-.746.06-1.451.117-2.145.163l-.074,0a1.088,1.088,0,0,1-.971-.6,3.99,3.99,0,0,1-1.527,1.345,1.094,1.094,0,0,1-1.165-.279,1.081,1.081,0,0,1-.279-.557,1.074,1.074,0,0,1-.414.083,1.221,1.221,0,0,1-.13-.008l-.014,0a17.266,17.266,0,0,1-8-3.559,1.088,1.088,0,0,1-1.881-.253,1.1,1.1,0,0,1-.053-.174,1.088,1.088,0,0,1-1.982-.618q0-.069,0-.136a1.074,1.074,0,0,1-.085.1l-.011.011a1.075,1.075,0,0,1-.744.328,2.589,2.589,0,0,0-.711.778l.191-.1a1.1,1.1,0,0,1,.486-.114,1.087,1.087,0,0,1,.485,2.06l-.781.392a1.087,1.087,0,0,1-1.46-.487l-.019-.04c-.278.457-.565.927-.855,1.347a11.618,11.618,0,0,1-1.326,1.52l-.01.011a6.5,6.5,0,0,0-.929,1.065,1.7,1.7,0,0,0,.028.528,2.717,2.717,0,0,0,.512.046c.057,0,.112,0,.165,0a1.088,1.088,0,0,1,2.037-.73q.021-.043.046-.085a1.08,1.08,0,0,1,.669-.5,1.087,1.087,0,0,1,1.319.791l.01.039a1.1,1.1,0,0,1,.586-.426h0a5.571,5.571,0,0,0,1.272-.646c.51-.339.34-1.144.331-1.187A1.087,1.087,0,0,1,9.45,11.81a1.089,1.089,0,0,1,1.321.792,3.7,3.7,0,0,1-.345,2.586,20.97,20.97,0,0,0,3.055,6.252,1.088,1.088,0,0,1,.1,1,18.008,18.008,0,0,0,.368,2.15c.073-.465.147-.821.185-.992a1.088,1.088,0,0,1,2.124.469,14.652,14.652,0,0,0-.32,2.583l.006-.007a1.087,1.087,0,0,1,1.535-.1c.94.823,1.668,3.346,2.6,9l.012.072c.043.26.076.466.09.53a2.333,2.333,0,0,1-.651,1.718,4.833,4.833,0,0,1-1.294,1.166,1.387,1.387,0,0,0-.06.175h1.531a5.9,5.9,0,0,1,1.048-2.047,37.219,37.219,0,0,1,.385-8.19c-.079-.309-.216-.85-.337-1.35a6.969,6.969,0,0,1,0-2.838l0-.009a1.081,1.081,0,0,1,1.059-.846,1.089,1.089,0,0,1,1.063,1.328h0a4.8,4.8,0,0,0,0,1.857c.036.149.073.3.11.45a16.942,16.942,0,0,1,.1-2.292,1.088,1.088,0,0,1,1.076-.951,1.109,1.109,0,0,1,.137.009,1.088,1.088,0,0,1,.946,1.213v.007a11.726,11.726,0,0,0,.323,4.55,1.087,1.087,0,0,1-2.02.806,7.031,7.031,0,0,1-.361-1.271,37.407,37.407,0,0,0-.285,7.869,1.086,1.086,0,0,1-.319.822,3.253,3.253,0,0,0-.6.884H35.367a5.1,5.1,0,0,1,1.3-2.325,8.513,8.513,0,0,0,.124-2.373,5.009,5.009,0,0,0-.836-2.875,1.087,1.087,0,0,1,.644-1.82,13.59,13.59,0,0,1-1.852-2.51,1.948,1.948,0,0,0,.646,1.507,1.088,1.088,0,1,1-1.207,1.81c-1.66-1.107-1.66-3.168-1.66-4.823a1.087,1.087,0,0,1,1.694-.9q.025-.048.056-.093a1.088,1.088,0,0,1,1.972.389c.284,1.425,1.783,3,3.1,4.385l.007.007c.193.2.366.384.534.564,1.139,1.214,1.386,3.481,1.44,4.4.079,1.348-.052,3.146-.68,3.774A3.275,3.275,0,0,0,40.01,39.2Zm-24.575,0h.517a4.671,4.671,0,0,1,.142-.624,3.1,3.1,0,0,1-.6.449A1.377,1.377,0,0,0,15.435,39.2Zm1.914-2.344c-.015.03-.061.12-.135.249A3.3,3.3,0,0,0,18,36.273l-.027-.164-.036-.214c-1.02-6.223-1.681-7.453-1.847-7.675a1.478,1.478,0,0,0,.088.223,1.087,1.087,0,0,1-.355,1.381,1.086,1.086,0,0,1,.829.8c.844,3.377,1.184,5.268.7,6.235ZM38.512,31.9a10.865,10.865,0,0,1,.473,2.639,10.369,10.369,0,0,1-.14,2.528q.084-.1.177-.193a8.524,8.524,0,0,0,.124-2.372A6.025,6.025,0,0,0,38.512,31.9Zm-14.3-6.589a.084.084,0,0,0-.084.076,12.782,12.782,0,0,0,.4,5.137.088.088,0,0,0,.082.055.085.085,0,0,0,.08-.052.083.083,0,0,0,0-.065,12.46,12.46,0,0,1-.386-5.052h0a.086.086,0,0,0-.018-.065.085.085,0,0,0-.058-.033Zm9.406.392a.089.089,0,0,0-.088.088c0,1.564,0,3.181,1.215,3.991a.085.085,0,0,0,.047.015.089.089,0,0,0,.075-.042.087.087,0,0,0-.025-.12C33.7,28.882,33.7,27.313,33.7,25.795A.088.088,0,0,0,33.616,25.707ZM15.2,23.748a.09.09,0,0,0-.087.069c-.294,1.322-.623,3.893.007,5.151a.088.088,0,0,0,.079.049.08.08,0,0,0,.036-.008.087.087,0,0,0,.046-.051.085.085,0,0,0,0-.067c-.76-1.519,0-5,.008-5.036a.09.09,0,0,0-.067-.1ZM41.45,21.4a.081.081,0,0,0-.055.02.09.09,0,0,0-.009.127c.094.11,2.338,2.749,2.721,5.049a.088.088,0,0,0,.088.073h.014a.085.085,0,0,0,.057-.035.086.086,0,0,0,.015-.066,13.031,13.031,0,0,0-2.762-5.132A.09.09,0,0,0,41.45,21.4ZM9.2,15.172l.167.641a22.9,22.9,0,0,0,2.927,5.96l.074.114.006.136a19.1,19.1,0,0,0,.782,4.187.089.089,0,0,0,.084.065.1.1,0,0,0,.026,0,.085.085,0,0,0,.052-.041.086.086,0,0,0,.007-.067,20.819,20.819,0,0,1-.75-3.767l-.015-.166.088-.142a.086.086,0,0,0,0-.094A21.175,21.175,0,0,1,9.41,15.2l-.048-.216.126-.186A2.683,2.683,0,0,0,9.8,12.842a.089.089,0,0,0-.085-.065l-.022,0a.087.087,0,0,0-.062.106l0,.009a2.137,2.137,0,0,1-.75,2.248,6.485,6.485,0,0,1-1.541.771h0a.088.088,0,0,0-.049.133l.015.025a2.9,2.9,0,0,1,.365,2.25.088.088,0,0,0,.055.111.084.084,0,0,0,.028,0,.087.087,0,0,0,.082-.057A2.767,2.767,0,0,0,7.713,16.5l-.178-.443.434-.2a7.2,7.2,0,0,0,.661-.346ZM44.565,23.53l.022,0a.089.089,0,0,0,.086-.071c.338-1.627-.75-2.877-1.71-3.979-.25-.287-.472-.545-.657-.791a.089.089,0,0,0-.125-.018.089.089,0,0,0-.017.121c.19.253.414.513.666.8.933,1.073,1.99,2.289,1.67,3.83A.089.089,0,0,0,44.565,23.53ZM3.61,16.869l.006.591a7.878,7.878,0,0,1-.642,3.207.087.087,0,0,0,0,.067.087.087,0,0,0,.081.054.088.088,0,0,0,.081-.053,7.87,7.87,0,0,0,.395-5.157.089.089,0,0,0-.083-.059.087.087,0,0,0-.028,0,.085.085,0,0,0-.051.043.086.086,0,0,0,0,.067h0A4.547,4.547,0,0,1,3.5,16.2l.088.482-.48.1a4.491,4.491,0,0,1-.881.09,3.53,3.53,0,0,1-1.032-.146l-.164-.05-.1-.14a2.175,2.175,0,0,1-.148-1.668A6.364,6.364,0,0,1,1.9,13.528l.01-.01a10.879,10.879,0,0,0,1.216-1.387c.283-.41.571-.884.85-1.341l.05-.083C5.2,8.778,5.879,7.86,6.582,7.86A.089.089,0,0,0,6.664,7.8l0-.011A10.493,10.493,0,0,1,8.181,4.61a9,9,0,0,1,5.861-3.8,7.976,7.976,0,0,1,1.42-.129,7.582,7.582,0,0,1,4.859,1.756A7.765,7.765,0,0,1,22.951,7a6.491,6.491,0,0,1-.37,3.8l-.542,1.255a5.532,5.532,0,0,0,.471-.725,6.509,6.509,0,0,0,.614-4.359,7.846,7.846,0,0,0-2.69-4.682A7.745,7.745,0,0,0,15.471.5,8.212,8.212,0,0,0,14.01.632a9.772,9.772,0,0,0-7.416,6.78l-.077.242-.241.08c-.817.273-1.622,1.6-2.4,2.883-.279.459-.595.979-.894,1.414a10.874,10.874,0,0,1-1.209,1.373l-.007.007a6.445,6.445,0,0,0-1.14,1.373,2.32,2.32,0,0,0,.046,1.628.747.747,0,0,0,.4.454,3.654,3.654,0,0,0,1.159.178,4.568,4.568,0,0,0,.8-.072Zm28.62-5.2a14.36,14.36,0,0,1,6.829,1.274c.192.1.389.206.627.33l.009,0a8.313,8.313,0,0,1,3.248,2.377,34.069,34.069,0,0,1,1.949,3.836l.068.15c.131.288.244.536.331.71a.088.088,0,0,0,.078.048.083.083,0,0,0,.036-.007.089.089,0,0,0,.041-.119c-.093-.186-.209-.441-.342-.736l-.053-.117a34.4,34.4,0,0,0-1.96-3.855,8.424,8.424,0,0,0-3.326-2.444c-.2-.1-.42-.218-.626-.33a14.548,14.548,0,0,0-6.922-1.294c-1.967,0-3.993.166-5.952.327l-.114.009c-.8.065-1.551.126-2.289.175a.087.087,0,0,0-.061.03.084.084,0,0,0-.021.062.089.089,0,0,0,.085.083h.006c.689-.045,1.39-.1,2.132-.162L26.281,12C28.24,11.835,30.266,11.669,32.23,11.669ZM5.407,15.52l-.022,0a.086.086,0,0,0-.054.04.085.085,0,0,0-.01.066c.008.032.768,3.122.006,4.642a.089.089,0,0,0,.041.119.085.085,0,0,0,.038.008.091.091,0,0,0,.08-.05c.627-1.256.3-3.584,0-4.761A.086.086,0,0,0,5.407,15.52ZM15.364,4.288a6.928,6.928,0,0,1,3.708,1.206,5.084,5.084,0,0,1,2.421,4.583,7.935,7.935,0,0,1-.575,2.785.087.087,0,0,0,.014.1.089.089,0,0,0,.065.028.1.1,0,0,0,.033-.005,1.676,1.676,0,0,0,.421-.292l.172-2.126a6.135,6.135,0,0,0-.342-2.706,5.14,5.14,0,0,0-2.116-2.511A7.037,7.037,0,0,0,15.4,4.122,5.21,5.21,0,0,0,12,5.362a.085.085,0,0,0,0,.12.087.087,0,0,0,.062.025.085.085,0,0,0,.061-.025A4.754,4.754,0,0,1,15.364,4.288Zm4.13,7.88.019,0a.088.088,0,0,0,.008-.176A17.152,17.152,0,0,1,11.055,7.8l-.187-.171.027-.252c.059-.548.084-1.037.084-1.177a.087.087,0,0,0-.033-.069.085.085,0,0,0-.075-.015c-1.6.4-2.418,1.22-2.418,2.435a.088.088,0,0,0,.089.088.087.087,0,0,0,.087-.088,2.09,2.09,0,0,1,1.419-1.975l.782-.35-.08.853a7.668,7.668,0,0,1-.331,1.83.088.088,0,0,0,.046.114.09.09,0,0,0,.116-.045,2.249,2.249,0,0,0,.1-.313l.2-.759.6.5A16.93,16.93,0,0,0,19.494,12.168ZM11.915,7.232A15.95,15.95,0,0,0,19.653,11a1.086,1.086,0,0,1,.682.371,6.6,6.6,0,0,0,.158-1.311,4.078,4.078,0,0,0-1.958-3.725,5.954,5.954,0,0,0-3.171-1.05A3.835,3.835,0,0,0,12.83,6.2a1.08,1.08,0,0,1-.762.312q-.05,0-.1,0C11.959,6.7,11.941,6.953,11.915,7.232Zm-5.334,3.2a.089.089,0,0,0-.04.01l-.783.391a.087.087,0,0,0-.044.051.084.084,0,0,0,0,.065.087.087,0,0,0,.079.05.083.083,0,0,0,.039-.009l.783-.392a.086.086,0,0,0,.045-.05.084.084,0,0,0,0-.065A.087.087,0,0,0,6.581,10.427ZM15.4,3.122A8.014,8.014,0,0,1,19.7,4.5a6.241,6.241,0,0,1,2.176,2.264,6.579,6.579,0,0,0-6.417-5.09,6.973,6.973,0,0,0-1.242.113A8.26,8.26,0,0,0,8.272,6.409,4.681,4.681,0,0,1,10.628,5.15a1.09,1.09,0,0,1,.393-.025,1.072,1.072,0,0,1,.277-.473A6.185,6.185,0,0,1,15.4,3.122ZM31.657,31.583a1.084,1.084,0,0,1-.905-.483c-.933-1.4-.671-4.8-.568-5.806a1.081,1.081,0,0,1,1.079-.979,1.09,1.09,0,0,1,1.085,1.2c-.17,1.706-.125,3.874.215,4.383a1.086,1.086,0,0,1-.906,1.69Zm-.394-6.268a.085.085,0,0,0-.084.078c-.149,1.465-.232,4.2.405,5.153a.088.088,0,0,0,.073.037.082.082,0,0,0,.048-.013.089.089,0,0,0,.025-.122c-.757-1.136-.393-4.877-.378-5.036a.089.089,0,0,0-.079-.1Zm-1.957,6.268a1.092,1.092,0,0,1-1.046-.788,13.832,13.832,0,0,1-.418-5.572,1.083,1.083,0,0,1,1.072-.907,1.108,1.108,0,0,1,.177.014,1.086,1.086,0,0,1,.9,1.244h0a11.865,11.865,0,0,0,.364,4.621,1.087,1.087,0,0,1-.747,1.345A1.1,1.1,0,0,1,29.306,31.583Zm-.392-6.267a.086.086,0,0,0-.086.072,12.722,12.722,0,0,0,.393,5.132.088.088,0,0,0,.084.063.1.1,0,0,0,.026,0,.087.087,0,0,0,.059-.108A12.963,12.963,0,0,1,29,25.432l0-.014a.086.086,0,0,0-.072-.1Zm-1.959,6.267a1.085,1.085,0,0,1-1.031-.742,13.775,13.775,0,0,1-.436-5.593,1.09,1.09,0,0,1,1.072-.933,1.089,1.089,0,0,1,1.082,1.239,11.876,11.876,0,0,0,.346,4.6,1.087,1.087,0,0,1-.685,1.374A1.049,1.049,0,0,1,26.955,31.583Zm-.4-6.268a.087.087,0,0,0-.082.075,12.928,12.928,0,0,0,.4,5.134.087.087,0,0,0,.083.059h.02l.009,0a.084.084,0,0,0,.05-.043.087.087,0,0,0,0-.068,12.736,12.736,0,0,1-.388-5.051.088.088,0,0,0-.074-.1h-.017Z" transform="translate(93.751 -106.649)" fill="rgba(0,0,0,0)"/></g></svg>