<svg xmlns="http://www.w3.org/2000/svg" width="49.763" height="32.737" viewBox="0 0 49.763 32.737"><g transform="translate(-10.5 98.006)"><path d="M1.409,31.737a.588.588,0,1,1,0-1.175H7.826L6.871,29.6a.515.515,0,0,1-.084-.1,35.124,35.124,0,0,1-2.409-4.435,1.736,1.736,0,0,1,.364-1.546,1.832,1.832,0,0,0,.39-.991c0-.877-1.024-1.52-1.634-1.825A6.614,6.614,0,0,1,.041,15.15,7.609,7.609,0,0,1,2.168,9.184.588.588,0,1,1,3,10.015a6.381,6.381,0,0,0-1.79,5,5.5,5.5,0,0,0,2.813,4.633c1.472.735,2.284,1.758,2.284,2.875a2.908,2.908,0,0,1-.574,1.622c-.187.3-.273.445-.239.544a32.561,32.561,0,0,0,2.255,4.127l1.52,1.52a.585.585,0,0,1,.139.22h2.562a3.078,3.078,0,0,0-1.344-1.205c-.306-.1-.77-.257-.793-3.3a.585.585,0,0,1,.211-.455c.614-.512,2.267-2.087,2.55-3.218a6.323,6.323,0,0,0-.684-4.989.588.588,0,0,1,.941-.707,7.367,7.367,0,0,1,.949,5.695h0c5.315,2.448,9.279,1.489,11.736.17a9.98,9.98,0,0,1-1.2-3.481.588.588,0,0,1,1.166-.147c0,.029.391,2.921,2.135,4.317,2.181,1.744,2.181,3.9,2.18,5.475V28.8a4.971,4.971,0,0,0,1.228,1.763H34.1c-.1-.477-.492-.875-1.218-1.237a.585.585,0,0,1-.263-.263c-.517-1.034-1.643-5.977.894-8.515a6.7,6.7,0,0,1,1.775-1.183A7.2,7.2,0,0,0,37.394,17.9a3.146,3.146,0,0,1-2.459-1.854.588.588,0,0,1,1.117-.367c.028.076.563,1.383,3.317,1.169a7.413,7.413,0,0,0,5.114-2.18c.206-.206.454-.482.717-.78a10.946,10.946,0,0,1-2.429.28,7.186,7.186,0,0,1-1.1-.072.587.587,0,0,1,.194-1.158,9.53,9.53,0,0,0,4.765-.744.588.588,0,0,1,.25-.047,2.517,2.517,0,0,1,.518-.338c.212-.113.257-1.2.11-1.562-.026-.05-.068-.113-.1-.119a.832.832,0,0,0-.522.279.6.6,0,0,1-.439.172,15.026,15.026,0,0,1-3.767-.639,4.33,4.33,0,0,1-2.4-2.322c-.048.042-.085.072-.1.088a.578.578,0,0,1-.368.131.588.588,0,0,1-.369-1.046c.4-.32,1.157-1.164.984-1.716A13.9,13.9,0,0,1,40,3.247c-.016-.1-.034-.2-.054-.293a7.887,7.887,0,0,0-1.2,1.467,5.739,5.739,0,0,0-.7,2.454.573.573,0,0,1-.6.569.586.586,0,0,1-.569-.6,6.388,6.388,0,0,1,.081-.767c-3.022.682-10.2-.358-11.729-.593a52.281,52.281,0,0,0-12.39-.388A31.981,31.981,0,0,0,6.31,6.626a.571.571,0,0,1-.185.035,1.507,1.507,0,0,1-.774.183A1.4,1.4,0,0,1,3.963,5.775a.588.588,0,0,1,1.161-.187.5.5,0,0,0,.336.076c.225-.038.328-.3.376-.515A.67.67,0,0,0,5.344,4.3a1.609,1.609,0,0,0-1.859.5,1.82,1.82,0,0,0-.221,1.483A4.209,4.209,0,0,0,5.2,8.291.588.588,0,0,1,4.934,9.4a.583.583,0,0,1-.262-.062A5.338,5.338,0,0,1,2.14,6.624a2.976,2.976,0,0,1,.325-2.41,2.286,2.286,0,0,1,1.1-.957A3.655,3.655,0,0,1,5.892.042a.588.588,0,0,1,.437,1.092A2.47,2.47,0,0,0,4.775,3.02a2.857,2.857,0,0,1,.992.183,1.823,1.823,0,0,1,1.255,1.95,30.685,30.685,0,0,1,5.69-1.232,53.488,53.488,0,0,1,12.686.4C31.11,5.2,35.96,5.38,37.192,4.764a.6.6,0,0,1,.105-.04,5.244,5.244,0,0,1,.439-.917,9.69,9.69,0,0,1,2-2.249.59.59,0,0,1,.523-.105c.64.18.756.832.89,1.589a12.746,12.746,0,0,0,.389,1.681,2.263,2.263,0,0,1-.4,1.927l.006.017a5.187,5.187,0,0,0,.438.884c.5-.178,1.44-.675,1.475-1.231a13.869,13.869,0,0,1,.258-1.858c.018-.095.039-.2.055-.293-.167.072-.355.158-.554.26a.588.588,0,0,1-.535-1.047,9.857,9.857,0,0,1,1.4-.589.6.6,0,0,1,.527.09c.532.4.406,1.049.261,1.8a12.815,12.815,0,0,0-.239,1.709c-.071,1.114-1.162,1.784-1.839,2.094a1.931,1.931,0,0,0,.621.326,13.939,13.939,0,0,0,3.244.58,1.772,1.772,0,0,1,1.336-.426,1.294,1.294,0,0,1,.966.76,3.694,3.694,0,0,1,.048,2.288,1.4,1.4,0,0,1-.718.86,9.452,9.452,0,0,0-1.7,1.667c-.316.359-.616.7-.877.957a8.518,8.518,0,0,1-5.856,2.522c-.229.017-.446.025-.653.025h-.021a.592.592,0,0,1-.087.149,7.879,7.879,0,0,1-2.87,2.214c-.225.116-.437.225-.638.341-1.08,2.34.641,6.411,1.142,7.373a2.852,2.852,0,0,1,1.913,2.2.585.585,0,0,1-.019.233h9.026a.588.588,0,1,1,0,1.175Zm35.685-1.175a.592.592,0,0,1-.019-.093c-.069-.57-.5-.992-1.37-1.329a.586.586,0,0,1-.286-.239,14.8,14.8,0,0,1-1.743-6.593c-1.057,2.078-.423,5.144-.075,6.062a2.907,2.907,0,0,1,1.688,2.191Zm-7.6,0a3.407,3.407,0,0,1-.85-1.763V28.72c0-1.483,0-3.165-1.739-4.557a5.26,5.26,0,0,1-.671-.646,12.476,12.476,0,0,1-6.09,1.563,14.716,14.716,0,0,1-3.9-.545,14.628,14.628,0,0,1-1.7,1.785,11,11,0,0,0,.182,2,4.974,4.974,0,0,1,2.1,2.179.6.6,0,0,1,.029.067Zm-13.994,0a3.084,3.084,0,0,0-1.343-1.205c-.307-.1-.77-.257-.794-3.3a.585.585,0,0,1,.211-.455,14.2,14.2,0,0,0,1.461-1.449q-.793-.28-1.627-.657a11.478,11.478,0,0,1-2.392,2.822,11.131,11.131,0,0,0,.183,1.994,4.98,4.98,0,0,1,2.1,2.179.6.6,0,0,1,.029.067ZM39.61,10.775a.588.588,0,1,1,.588.588A.588.588,0,0,1,39.61,10.775Z" transform="translate(11 -97.506)" fill="#004480"/><path d="M47.249,32.237H1.409a1.088,1.088,0,1,1,0-2.175H6.62l-.1-.1a1.017,1.017,0,0,1-.159-.2l-.006-.009A34.05,34.05,0,0,1,3.9,25.224a2.2,2.2,0,0,1,.415-1.97,1.417,1.417,0,0,0,.313-.725c0-.438-.508-.953-1.358-1.378A7.089,7.089,0,0,1-.456,15.205,8.13,8.13,0,0,1,1.814,8.83a1.081,1.081,0,0,1,.769-.319,1.1,1.1,0,0,1,.166.012A4.379,4.379,0,0,1,1.662,6.769a3.457,3.457,0,0,1,.369-2.8A2.742,2.742,0,0,1,3.095,2.931,4.134,4.134,0,0,1,5.707-.422,1.086,1.086,0,0,1,7.12.185a1.09,1.09,0,0,1-.6,1.412,1.96,1.96,0,0,0-1.08.991,3.149,3.149,0,0,1,.512.148A2.361,2.361,0,0,1,7.492,4.489a29.665,29.665,0,0,1,5.17-1.066c1.412-.141,2.949-.213,4.567-.213a55.125,55.125,0,0,1,8.245.612,62.2,62.2,0,0,0,8.731.8,7.924,7.924,0,0,0,2.7-.283,5.593,5.593,0,0,1,.4-.8,10.178,10.178,0,0,1,2.118-2.379,1.092,1.092,0,0,1,.966-.2c.946.266,1.108,1.178,1.25,1.983.016.088.032.18.05.276a1.085,1.085,0,0,1,.358-.293,10.322,10.322,0,0,1,1.481-.622,1.1,1.1,0,0,1,.322-.048,1.086,1.086,0,0,1,.65.214c.784.588.61,1.495.456,2.295a12.393,12.393,0,0,0-.232,1.65A2.713,2.713,0,0,1,43.488,8.43a13.332,13.332,0,0,0,2.619.452,2.189,2.189,0,0,1,1.566-.409,1.809,1.809,0,0,1,1.333,1.031,4.164,4.164,0,0,1,.072,2.676,1.888,1.888,0,0,1-.98,1.149,10.973,10.973,0,0,0-1.522,1.532l-.011.013c-.317.36-.625.707-.9.979A8.981,8.981,0,0,1,39.5,18.52c-.148.011-.294.019-.437.023a8.431,8.431,0,0,1-3,2.31c-.166.086-.325.167-.475.25-.792,2.018.571,5.512,1.115,6.635a3.212,3.212,0,0,1,2.01,2.323h8.543a1.088,1.088,0,1,1,0,2.175ZM1.409,31.061a.088.088,0,1,0,0,.175H47.249a.088.088,0,0,0,.089-.088.087.087,0,0,0-.089-.088H34.836l-.045-.45a2.35,2.35,0,0,0-1.425-1.8l-.166-.088-.067-.176c-.288-.76-1.116-4.083.1-6.467l.563-1.107a6.234,6.234,0,0,0-1.372,4.384,9.825,9.825,0,0,0,.646,3.479.086.086,0,0,0,.039.039,2.425,2.425,0,0,1,1.484,1.583l.125.6H30.827l-.148-.156c-.228-.24-1.365-1.472-1.365-2.107v-.077c0-1.555,0-3.489-1.992-5.084-1.909-1.528-2.315-4.615-2.319-4.646a.087.087,0,0,0-.089-.075H24.9a.087.087,0,0,0-.072.1A9.433,9.433,0,0,0,25.967,22.3l.267.449L25.773,23a11.792,11.792,0,0,1-5.637,1.4,15.677,15.677,0,0,1-6.542-1.557l-.368-.167.082-.392a6.865,6.865,0,0,0-.86-5.292.087.087,0,0,0-.07-.034.088.088,0,0,0-.071.14,6.839,6.839,0,0,1,.769,5.41c-.379,1.519-2.691,3.462-2.714,3.481a.086.086,0,0,0-.031.066,9.126,9.126,0,0,0,.26,2.582c.075.206.109.217.192.245a3.509,3.509,0,0,1,1.6,1.4l.531.781H9.053l-.118-.334a.085.085,0,0,0-.021-.032L7.354,29.135l-.03-.049a34.719,34.719,0,0,1-2.305-4.233c-.113-.332.075-.627.291-.969a2.454,2.454,0,0,0,.5-1.354c0-.919-.713-1.782-2.008-2.428A5.971,5.971,0,0,1,.713,15.075,6.9,6.9,0,0,1,2.646,9.662a.09.09,0,0,0,0-.126.088.088,0,0,0-.123,0A7.091,7.091,0,0,0,.537,15.095,6.139,6.139,0,0,0,3.72,20.256c1.232.616,1.911,1.423,1.911,2.272a2.278,2.278,0,0,1-.468,1.26c-.271.427-.439.735-.311,1.119a31.009,31.009,0,0,0,2.354,4.32l.006.01,0,0,.009.009,1.808,1.81Zm32.83-10.49-.064,1.755a14.32,14.32,0,0,0,1.668,6.311.088.088,0,0,0,.043.036c1.04.406,1.591.973,1.684,1.735a.1.1,0,0,0,0,.015l.084.292.085-.293a.084.084,0,0,0,0-.034,2.3,2.3,0,0,0-1.609-1.8l-.167-.07-.084-.161a16.569,16.569,0,0,1-1.2-3.279,6.961,6.961,0,0,1,.053-4.534L34.8,20.4l.137-.079c.212-.122.429-.234.66-.353a7.359,7.359,0,0,0,2.709-2.082.091.091,0,0,0,.013-.023l.127-.314H38.8c.2,0,.4-.008.616-.024a8.04,8.04,0,0,0,5.54-2.376c.252-.251.548-.585.855-.934l.013-.014a8.442,8.442,0,0,1,1.85-1.776.917.917,0,0,0,.456-.572,3.256,3.256,0,0,0-.023-1.9.806.806,0,0,0-.6-.491,1.293,1.293,0,0,0-.945.325l-.149.118-.19-.011a14.409,14.409,0,0,1-3.359-.6,2.43,2.43,0,0,1-.782-.409l-.658-.505.754-.346c.555-.254,1.493-.809,1.548-1.671a13.219,13.219,0,0,1,.247-1.772c.127-.66.172-1,.028-1.207l-.143.868c-.013.079-.028.155-.042.23l-.015.076a13.332,13.332,0,0,0-.25,1.8c-.064,1.023-1.628,1.608-1.807,1.671l-.38.135-.212-.343a5.754,5.754,0,0,1-.478-.965l-.007-.02-.091-.24.141-.217a1.752,1.752,0,0,0,.342-1.5,13.167,13.167,0,0,1-.4-1.743c-.117-.66-.2-1-.4-1.136l.175.861c.018.09.036.188.057.309A13.334,13.334,0,0,0,40.9,4.925c.328,1.044-1.131,2.242-1.146,2.254a.088.088,0,0,0-.014.125.086.086,0,0,0,.068.032.077.077,0,0,0,.052-.018l0,0c.017-.014.048-.039.089-.075l.49-.426.287.582A3.865,3.865,0,0,0,42.818,9.46a14.537,14.537,0,0,0,3.639.618.106.106,0,0,0,.069-.024,1.349,1.349,0,0,1,.857-.428.652.652,0,0,1,.088.006l.014,0a.647.647,0,0,1,.463.382l.019.04a2.953,2.953,0,0,1,.116,1.091c-.036.613-.175.953-.453,1.1l-.025.013a2.027,2.027,0,0,0-.413.272l-.145.118-.187-.006a.091.091,0,0,0-.038.007,10.412,10.412,0,0,1-4.065.837,7.148,7.148,0,0,1-.965-.057h-.025a.089.089,0,0,0-.09.07.088.088,0,0,0,.071.1,6.674,6.674,0,0,0,1.022.065,10.392,10.392,0,0,0,2.317-.267l1.518-.348L45.575,14.22c-.3.334-.533.6-.738.8a7.883,7.883,0,0,1-5.43,2.325c-.213.017-.424.025-.624.025-2.571,0-3.143-1.366-3.2-1.521l0-.011a.088.088,0,0,0-.082-.06.083.083,0,0,0-.026,0,.087.087,0,0,0-.054.044.084.084,0,0,0-.006.066A2.669,2.669,0,0,0,37.5,17.413l.862.195-.611.639a7.713,7.713,0,0,1-2.234,1.559l-.01.005A8,8,0,0,0,34.239,20.572Zm1.465,9.49h.62a2.441,2.441,0,0,0-.781-.448A2.842,2.842,0,0,1,35.7,30.061Zm-4.444,0h1.887a3.448,3.448,0,0,0-.489-.29,1.092,1.092,0,0,1-.487-.488,10.6,10.6,0,0,1-.75-3.907,7.112,7.112,0,0,1,1.738-5.184,7.185,7.185,0,0,1,1.893-1.27l.011-.006a8.669,8.669,0,0,0,1.35-.806A3.361,3.361,0,0,1,34.459,16.2a1.088,1.088,0,0,1,2.062-.694c.03.068.423.867,2.262.867.175,0,.359-.007.548-.022a7.152,7.152,0,0,0,4.483-1.731q-.523.05-1.042.05a7.594,7.594,0,0,1-1.19-.079,1.087,1.087,0,0,1,.187-2.158,1.109,1.109,0,0,1,.166.013h0a6.183,6.183,0,0,0,.823.047,9.4,9.4,0,0,0,3.672-.756,1.092,1.092,0,0,1,.258-.074,3.028,3.028,0,0,1,.356-.233,2.617,2.617,0,0,0,.046-.545,1.11,1.11,0,0,1-.632.2h-.035a15.521,15.521,0,0,1-3.891-.66A4.513,4.513,0,0,1,40.08,8.3a1.088,1.088,0,0,1-.958-1.9c.479-.389.876-1,.821-1.177-.138-.441-.236-.847-.309-1.2a6.072,6.072,0,0,0-.468.655,5.281,5.281,0,0,0-.625,2.213,1.069,1.069,0,0,1-1.058,1.051l-.074,0a1.086,1.086,0,0,1-1.041-1.119c0-.012,0-.063.007-.145a17,17,0,0,1-2.19.121,69.3,69.3,0,0,1-9.041-.827,52.978,52.978,0,0,0-7.913-.587c-1.545,0-3.01.068-4.352.2A31.7,31.7,0,0,0,6.481,7.1h0a1.06,1.06,0,0,1-.213.054,2.011,2.011,0,0,1-.862.195H5.333a2.091,2.091,0,0,1-.959-.263,4.785,4.785,0,0,0,1.053.766A1.088,1.088,0,0,1,4.934,9.9a1.076,1.076,0,0,1-.486-.115l0,0a6.593,6.593,0,0,1-.824-.515,1.09,1.09,0,0,1-.266,1.1,5.86,5.86,0,0,0-1.647,4.6,5.025,5.025,0,0,0,2.539,4.242c1.651.824,2.56,2,2.56,3.323a3.38,3.38,0,0,1-.652,1.89c-.031.049-.1.158-.144.236a34.554,34.554,0,0,0,2.132,3.854l1.479,1.479q.035.035.067.073h1.174a1.328,1.328,0,0,0-.395-.231c-.721-.244-1.113-.916-1.135-3.767a1.08,1.08,0,0,1,.391-.843,8.508,8.508,0,0,0,2.385-2.955,5.9,5.9,0,0,0-.6-4.567,1.088,1.088,0,0,1,.871-1.741,1.093,1.093,0,0,1,.869.433,7.723,7.723,0,0,1,1.112,5.7A14.469,14.469,0,0,0,20.137,23.4a10.821,10.821,0,0,0,4.713-1.054,10.726,10.726,0,0,1-1.012-3.208,1.09,1.09,0,0,1,.944-1.213,1.133,1.133,0,0,1,.133-.008A1.092,1.092,0,0,1,26,18.865c0,.027.377,2.731,1.951,3.991,2.37,1.9,2.368,4.284,2.367,5.865v.042A5.662,5.662,0,0,0,31.26,30.061Zm2.75-2.035a4.591,4.591,0,0,1,.622.429,18,18,0,0,1-1.027-2.849A10.088,10.088,0,0,0,34.01,28.026ZM6.11.5a.083.083,0,0,0-.032.006A3.166,3.166,0,0,0,4.065,3.281l-.015.311-.286.123a1.8,1.8,0,0,0-.864.747,2.494,2.494,0,0,0-.28,2.017A4.893,4.893,0,0,0,4.9,8.9a.08.08,0,0,0,.035.008.089.089,0,0,0,.079-.049.09.09,0,0,0-.04-.118l-.009,0A4.641,4.641,0,0,1,2.785,6.425a2.324,2.324,0,0,1,.267-1.876,1.916,1.916,0,0,1,1.7-.853,2.171,2.171,0,0,1,.777.138,1.18,1.18,0,0,1,.8,1.414l0,.01c-.154.692-.553.86-.779.9a.888.888,0,0,1-.153.013,1.006,1.006,0,0,1-.568-.181l-.161-.121-.032-.2a.087.087,0,0,0-.085-.075H4.529a.088.088,0,0,0-.073.1.912.912,0,0,0,.909.647H5.4a1.007,1.007,0,0,0,.481-.123l.106-.058.121,0a.073.073,0,0,0,.024,0l.008,0a32.113,32.113,0,0,1,6.636-1.56c1.375-.137,2.872-.207,4.451-.207a54,54,0,0,1,8.065.6,68.27,68.27,0,0,0,8.889.815,12.736,12.736,0,0,0,2.654-.216l.721-.163-.117.73a5.92,5.92,0,0,0-.075.7.088.088,0,0,0,.024.065.083.083,0,0,0,.059.027l.028,0c.03,0,.061-.038.063-.086V6.848a6.251,6.251,0,0,1,.771-2.688A8.426,8.426,0,0,1,39.592,2.6l.636-.62a.451.451,0,0,0-.1-.042l-.023,0a.085.085,0,0,0-.053.017,9.264,9.264,0,0,0-1.889,2.12,4.747,4.747,0,0,0-.4.829l-.089.24-.247.068-.017.007a8.133,8.133,0,0,1-3.207.414,62.284,62.284,0,0,1-8.883-.814,54.107,54.107,0,0,0-8.093-.6c-1.586,0-3.089.07-4.468.208A30.487,30.487,0,0,0,7.171,5.631l-.725.225.08-.755A1.329,1.329,0,0,0,5.587,3.67,2.362,2.362,0,0,0,4.77,3.52l-.6-.006.109-.585A2.994,2.994,0,0,1,6.143.67.088.088,0,0,0,6.11.5ZM41.7,6.7c.028.063.062.136.1.218.442-.224.751-.5.758-.626a12.721,12.721,0,0,1,.154-1.308,1.1,1.1,0,0,1-.618-.086A2.744,2.744,0,0,1,41.7,6.7Zm2.159-3.43a.1.1,0,0,0-.028,0,9.436,9.436,0,0,0-1.321.557.087.087,0,0,0-.038.118.088.088,0,0,0,.079.048.091.091,0,0,0,.042-.01c.182-.093.372-.182.582-.273l.816-.353a.453.453,0,0,0-.079-.074A.091.091,0,0,0,43.856,3.267ZM30.512,31.061H16.5l-.118-.333,0-.011a4.476,4.476,0,0,0-1.852-1.942L14.3,28.68l-.064-.232a11.515,11.515,0,0,1-.2-2.117l-.005-.231.173-.154a14.029,14.029,0,0,0,1.642-1.72l.205-.261.32.088a14.289,14.289,0,0,0,3.765.528,11.945,11.945,0,0,0,5.848-1.5l.353-.2.265.3a4.779,4.779,0,0,0,.607.584c1.928,1.542,1.927,3.43,1.926,4.947V28.8a2.725,2.725,0,0,0,.745,1.456Zm-13.354-1H28.544a2.6,2.6,0,0,1-.405-1.263V28.72c0-1.438,0-2.925-1.551-4.166a5.61,5.61,0,0,1-.462-.414,12.932,12.932,0,0,1-5.988,1.441,15.151,15.151,0,0,1-3.712-.479,15.337,15.337,0,0,1-1.381,1.435,13.051,13.051,0,0,0,.116,1.436A5.455,5.455,0,0,1,17.158,30.061Zm-.718,1H12.972l-.118-.333,0-.011A4.478,4.478,0,0,0,11,28.775l-.222-.1-.063-.233a11.679,11.679,0,0,1-.2-2.114l-.005-.233.175-.154a11,11,0,0,0,2.28-2.681l.22-.416.429.195c.53.241,1.063.456,1.586.641l.691.244-.478.555a14.412,14.412,0,0,1-1.519,1.506h0a.086.086,0,0,0-.031.066,9.119,9.119,0,0,0,.26,2.582c.075.206.109.217.193.245a3.514,3.514,0,0,1,1.6,1.4Zm-2.808-1h.757a1.328,1.328,0,0,0-.394-.231c-.737-.249-1.114-.9-1.136-3.767a1.08,1.08,0,0,1,.391-.843l.014-.012c.063-.053.448-.384.9-.845q-.274-.109-.549-.227a12.633,12.633,0,0,1-2.092,2.4,13.169,13.169,0,0,0,.117,1.434A5.457,5.457,0,0,1,13.632,30.061ZM40.2,11.863a1.088,1.088,0,1,1,1.088-1.088A1.089,1.089,0,0,1,40.2,11.863Z" transform="translate(11 -97.506)" fill="rgba(0,0,0,0)"/></g></svg>