<svg xmlns="http://www.w3.org/2000/svg" width="48.057" height="36.766" viewBox="0 0 48.057 36.766"><g transform="translate(-567.849 102.035)"><path d="M10.817,35.766H1.022a.588.588,0,0,1,0-1.176H4.386a.588.588,0,0,1,.084-.157l.6-.8a2.971,2.971,0,0,1,1.9-1.155l1.166-.194.558-.768a2.428,2.428,0,0,1-.55-1.727A2.546,2.546,0,0,1,6.9,27.538.584.584,0,0,1,6.43,27.3a4.2,4.2,0,0,1-.442-4.118,5.479,5.479,0,0,1-.655.043c-3.588,0-4.841-1.5-5.26-2.753C-.419,19,1.68,13.314,2.957,12.038a8.362,8.362,0,0,1,2.794-1.88,7,7,0,0,1,.818-4C7.21,4.8,9.806.358,11.156.027a.808.808,0,0,1,.7.132c.554.42.744,1.751.806,2.793a.589.589,0,0,1-.553.622.58.58,0,0,1-.62-.552,7.248,7.248,0,0,0-.267-1.706A22.524,22.524,0,0,0,7.635,6.66,6.223,6.223,0,0,0,6.9,9.847a3.208,3.208,0,0,1,1.083.017,12.05,12.05,0,0,1,3.251-4.529C12.463,4.35,17.16,1.249,18.6,1.568A.827.827,0,0,1,19.179,2c.615,1.23-1.595,6.066-4.064,8.157-.656.555-1.285,1.033-1.859,1.438a5.309,5.309,0,0,1,1.606,2.865c.153.553.256.895.451.959.637.212,2.128-.252,3.855-.79,3.292-1.026,7.8-2.434,12.9-1.582,9.02,1.5,12.187,7.521,12.279,11.778a2.456,2.456,0,0,1,1.4.142,2.076,2.076,0,0,1,1.306,1.981c0,2.718-2.61,5.2-5.517,5.287a.588.588,0,0,1-.555.395.72.72,0,0,1-.1-.008.588.588,0,0,1-.483-.676,2.935,2.935,0,0,0-1.292-2.928.588.588,0,0,1,.607-1.007,4.2,4.2,0,0,1,1.89,3.044,4.548,4.548,0,0,0,4.274-4.107.9.9,0,0,0-.581-.895,1.138,1.138,0,0,0-1.154.13.588.588,0,0,1-1.005-.468h0c.381-3.808-2.3-10.013-11.266-11.507-4.824-.8-9.18.554-12.361,1.545-2.077.647-3.578,1.116-4.576.783-.8-.265-1.009-1.027-1.211-1.761a4.056,4.056,0,0,0-1.5-2.493,17.508,17.508,0,0,1-1.957,1.1.588.588,0,0,1-.486-1.07,22.218,22.218,0,0,0,4.566-3.048,13.23,13.23,0,0,0,3.765-6.526,23.688,23.688,0,0,0-6.152,3.515,12.118,12.118,0,0,0-3.331,5.2.588.588,0,0,1-1.125-.34c0-.014.017-.055.038-.12a5.514,5.514,0,0,0-3.762,1.881c-.921.921-2.291,4.686-2.577,6.441h.007a3.11,3.11,0,0,0,1.394-.471c.355-.167.456.2.173.471-.38.364-.734,1.082-1.417,1.2.573,1.023,1.9,1.54,3.964,1.54a8.829,8.829,0,0,0,3.2-.822A.588.588,0,1,1,9,22.3a12.563,12.563,0,0,1-1.568.574.592.592,0,0,1-.041.076,3.573,3.573,0,0,0-.29,3.215,5.359,5.359,0,0,1,.459-1.079.587.587,0,1,1,1.021.581c-.047.084-1.034,1.861-.163,2.841a4.631,4.631,0,0,1,.324-.691.587.587,0,0,1,1.008.6A2.736,2.736,0,0,0,9.43,30.5l1.7-2.331a.588.588,0,0,1,.951.691l-3.135,4.31a.589.589,0,0,1-.378.234l-1.4.233a1.8,1.8,0,0,0-1.152.7l-.187.249h4.815a52.444,52.444,0,0,0,5.943-4.413c1.416-2.478.351-5.751.339-5.784a.588.588,0,0,1,1.115-.372c.051.155,1.24,3.81-.439,6.746A8.1,8.1,0,0,1,16,32.218a8.6,8.6,0,0,0,3.441.8.588.588,0,0,1,0,1.175,9.907,9.907,0,0,1-4.492-1.191c-.73.535-1.516,1.089-2.227,1.583H25.544a.592.592,0,0,1,.09-.164l.84-1.086a3.471,3.471,0,0,1,2.2-1.233c1.055-.147,1.68-.269,2.045-.359a9.085,9.085,0,0,1-1.29-4.014.588.588,0,0,1,1.175,0,9.129,9.129,0,0,0,1.469,3.984.587.587,0,0,1-.074.741c-.162.162-.433.433-3.164.813a2.283,2.283,0,0,0-1.444.8l-.4.514h8.346a.582.582,0,0,1,.138-.219l2.743-2.743.017-.016a2.683,2.683,0,0,0-.69-.633.588.588,0,0,1,.608-1.007,3.165,3.165,0,0,1,1.418,3.857.588.588,0,0,1-1.092-.437,1.954,1.954,0,0,0,.129-.494l-1.69,1.691h9.16a.588.588,0,0,1,0,1.176Zm31.248-6.278a.588.588,0,0,1-.482-.677,3.092,3.092,0,0,0-.95-2.959.588.588,0,0,1,.707-.941,4.255,4.255,0,0,1,1.4,4.094.587.587,0,0,1-.579.49A.6.6,0,0,1,42.065,29.489ZM8.442,20.7a.588.588,0,0,1,.825-.838,1.963,1.963,0,0,0,1.8.244.588.588,0,0,1,.286,1.14,4.071,4.071,0,0,1-.985.127A2.8,2.8,0,0,1,8.442,20.7Zm1.721-1.456a.588.588,0,0,1,.518-1.056,2.179,2.179,0,0,0,1.517-.028.588.588,0,1,1,.372,1.115,3.848,3.848,0,0,1-1.218.205A2.793,2.793,0,0,1,10.163,19.248ZM5.136,15.587a.588.588,0,1,1,.588.588A.588.588,0,0,1,5.136,15.587Z" transform="translate(568.347 -101.535)" fill="#004480"/><path d="M46.08,36.266H1.022a1.088,1.088,0,0,1,0-2.176H4.1l.566-.754a3.467,3.467,0,0,1,2.216-1.348l.964-.161.224-.308a2.881,2.881,0,0,1-.433-1.462,2.977,2.977,0,0,1-1.219-2.13,1.081,1.081,0,0,1-.393-.326,4.522,4.522,0,0,1-.73-3.873,7.415,7.415,0,0,1-4.058-.987A3.968,3.968,0,0,1-.4,20.633c-.371-1.115.423-3.6.782-4.618A14.178,14.178,0,0,1,2.6,11.684a9.007,9.007,0,0,1,2.61-1.842,7.978,7.978,0,0,1,.9-3.893A30.678,30.678,0,0,1,8.183,2.425C9.964-.2,10.771-.393,11.036-.459A1.426,1.426,0,0,1,11.374-.5a1.273,1.273,0,0,1,.782.263c.572.434.9,1.468,1,3.16a1.082,1.082,0,0,1-.11.543c1.764-1.13,4.09-2.42,5.318-2.42a1.576,1.576,0,0,1,.34.035,1.332,1.332,0,0,1,.92.7c.53,1.061-.433,3.289-.872,4.2a14.535,14.535,0,0,1-3.315,4.565c-.457.387-.93.761-1.41,1.116a6.084,6.084,0,0,1,1.316,2.673,5.317,5.317,0,0,0,.2.634,1.115,1.115,0,0,0,.162.01,15.3,15.3,0,0,0,3.311-.82l.009,0a32.206,32.206,0,0,1,9.831-1.864,20.071,20.071,0,0,1,3.294.269,18.934,18.934,0,0,1,5.865,1.928,13.8,13.8,0,0,1,3.918,3.093,11.807,11.807,0,0,1,2.888,6.705,2.983,2.983,0,0,1,1.12.224,2.564,2.564,0,0,1,1.615,2.443,6.187,6.187,0,0,1-5.721,5.771,1.088,1.088,0,0,1-.851.411,1.215,1.215,0,0,1-.166-.013l-.013,0a1.08,1.08,0,0,1-.514-.233,3.57,3.57,0,0,1-.257,1.132q-.015.038-.033.075H46.08a1.088,1.088,0,0,1,0,2.176ZM1.022,35.09a.087.087,0,0,0-.088.089.089.089,0,0,0,.088.088H46.08a.088.088,0,0,0,0-.176H35.714l3.364-3.365A3.137,3.137,0,0,0,37.9,30.4a.082.082,0,0,0-.043-.012.088.088,0,0,0-.045.165,3.186,3.186,0,0,1,.826.757l.271.36-.333.311-2.743,2.743a.083.083,0,0,0-.021.032l-.118.333H25.974l1.031-1.333a2.781,2.781,0,0,1,1.76-.98,8.145,8.145,0,0,0,2.88-.671.088.088,0,0,0,.011-.111h0A9.563,9.563,0,0,1,30.1,27.734a.088.088,0,0,0-.089-.088.087.087,0,0,0-.087.088A8.633,8.633,0,0,0,31.154,31.5l.322.573-.638.158c-.476.118-1.182.242-2.1.369a2.986,2.986,0,0,0-1.879,1.051l-.834,1.079a.092.092,0,0,0-.014.026l-.118.332H11.119l1.314-.911c.834-.578,1.58-1.108,2.217-1.575l.257-.189.28.154A9.363,9.363,0,0,0,19.437,33.7a.088.088,0,0,0,0-.175,9.172,9.172,0,0,1-3.649-.85l-.753-.344.655-.507a7.091,7.091,0,0,0,1.471-1.3c1.565-2.737.447-6.2.4-6.342a.086.086,0,0,0-.081-.059.087.087,0,0,0-.028,0,.086.086,0,0,0-.052.044.088.088,0,0,0,0,.068h0c.065.2,1.121,3.563-.38,6.189l-.02.032c-.531.784-5.85,4.393-6.077,4.546l-.127.086H4.821l.788-1.05a2.3,2.3,0,0,1,1.47-.893l1.4-.233a.088.088,0,0,0,.055-.034l3.135-4.311a.088.088,0,0,0-.019-.122.084.084,0,0,0-.052-.018.088.088,0,0,0-.072.037L9.326,31.5l-.353-.788a3.159,3.159,0,0,1,.348-2.532l0-.007a.083.083,0,0,0,.01-.064.085.085,0,0,0-.04-.053.084.084,0,0,0-.045-.013.089.089,0,0,0-.077.043,4.188,4.188,0,0,0-.285.61l-.293.773-.549-.618c-1.085-1.221-.023-3.2.1-3.418a.087.087,0,0,0-.031-.122.084.084,0,0,0-.042-.011A.089.089,0,0,0,8,25.339a4.891,4.891,0,0,0-.415.976l-.22.725h.026l.007.49A2.054,2.054,0,0,0,8.4,29.365l.252.154-.013.3A1.934,1.934,0,0,0,9.073,31.2l.253.3-.909,1.25-1.367.228a2.472,2.472,0,0,0-1.58.961l-.6.8a.088.088,0,0,0-.013.024l-.118.333Zm27.078-1h6.957q.032-.038.067-.073L37.542,31.6a2.064,2.064,0,0,0-.257-.194,1.088,1.088,0,0,1,1.126-1.862A4.213,4.213,0,0,1,39.9,31.136l.033.065a2.471,2.471,0,0,0-1.083-1.754,1.091,1.091,0,0,1-.362-1.494,1.077,1.077,0,0,1,.929-.523,1.089,1.089,0,0,1,.556.153A4.732,4.732,0,0,1,41.109,28.6a2.572,2.572,0,0,0-.782-2.349,1.087,1.087,0,0,1-.211-1.518,1.1,1.1,0,0,1,.871-.435,1.08,1.08,0,0,1,.651.217,4.25,4.25,0,0,1,1.006,1.176v-.025c.362-3.616-2.23-9.524-10.851-10.961a17.812,17.812,0,0,0-2.921-.237,30.414,30.414,0,0,0-9.208,1.767l-.012,0a15.082,15.082,0,0,1-3.952.912,2.871,2.871,0,0,1-.92-.136,2.6,2.6,0,0,1-1.535-2.1A3.809,3.809,0,0,0,12.194,12.9a17.1,17.1,0,0,1-1.711.939,1.078,1.078,0,0,1-.449.1,1.089,1.089,0,0,1-1.018-1.471,1.077,1.077,0,0,1,.569-.607A21.763,21.763,0,0,0,14.033,8.88a13.261,13.261,0,0,0,3.391-5.368A27.933,27.933,0,0,0,12.28,6.641a11.592,11.592,0,0,0-3.164,4.951,1.081,1.081,0,0,1-1.042.773,1.085,1.085,0,0,1-1.059-.842,5.938,5.938,0,0,0-2.874,1.7c-.691.691-1.811,3.525-2.277,5.406.135-.057.307-.136.535-.243a.882.882,0,0,1,.375-.089.657.657,0,0,1,.624.415.891.891,0,0,1-.267.959,3.635,3.635,0,0,0-.274.316,3.661,3.661,0,0,1-.707.719,4.679,4.679,0,0,0,3.181.846,7.975,7.975,0,0,0,2.64-.631A1.088,1.088,0,0,1,9.6,19.5a.756.756,0,0,0,.172.1,1.087,1.087,0,0,1,.651-1.959,1.078,1.078,0,0,1,.462.1,1.325,1.325,0,0,0,.463.072,2.19,2.19,0,0,0,.689-.119,1.088,1.088,0,1,1,.688,2.064,4.587,4.587,0,0,1-.728.179,1.09,1.09,0,0,1-.526,1.8,4.589,4.589,0,0,1-1.108.142,3.931,3.931,0,0,1-.516-.033,1.09,1.09,0,0,1-.071.317,1.078,1.078,0,0,1-.575.6,13.088,13.088,0,0,1-1.432.537,3.777,3.777,0,0,0-.424,1.273,1.089,1.089,0,0,1,1.265-.136,1.087,1.087,0,0,1,.405,1.484,3.842,3.842,0,0,0-.443,1.352,1.084,1.084,0,0,1,1.235-.08,1.086,1.086,0,0,1,.464,1.3l.446-.614a1.092,1.092,0,0,1,.881-.449,1.076,1.076,0,0,1,.642.211,1.088,1.088,0,0,1,.238,1.517l-3.135,4.31a1.083,1.083,0,0,1-.7.433l-1.142.19h2.978A55.787,55.787,0,0,0,16.16,29.9c1.267-2.251.314-5.266.286-5.351v0a1.088,1.088,0,0,1,2.064-.686,10.882,10.882,0,0,1,.454,2.451,8.248,8.248,0,0,1-.933,4.7,4.413,4.413,0,0,1-1.051,1.058,7.616,7.616,0,0,0,2.458.449,1.088,1.088,0,0,1,.976,1.567h4.849l.828-1.07A3.984,3.984,0,0,1,28.6,31.611c.587-.082,1.029-.154,1.361-.216a8.778,8.778,0,0,1-1.037-3.662,1.088,1.088,0,0,1,2.175,0,8.655,8.655,0,0,0,1.381,3.7l0,.006a1.091,1.091,0,0,1-.137,1.371c-.246.246-.551.551-3.449.954A1.781,1.781,0,0,0,28.1,34.09Zm-13.8,0h1.849a10.854,10.854,0,0,1-1.161-.5Q14.661,33.833,14.3,34.09Zm24.912-2-.1.868a2.465,2.465,0,0,1-.161.62.087.087,0,0,0,.048.113.088.088,0,0,0,.034.007.087.087,0,0,0,.081-.055A2.38,2.38,0,0,0,39.212,32.091Zm1.756.038.021,0a.088.088,0,0,0,.081-.059l.113-.325.344-.011a5.427,5.427,0,0,0,3.519-1.52,4.619,4.619,0,0,0,1.514-3.267,1.572,1.572,0,0,0-1-1.519,1.977,1.977,0,0,0-1.114-.113l-.583.115-.013-.594a10.668,10.668,0,0,0-2.669-6.6,12.8,12.8,0,0,0-3.636-2.868,17.941,17.941,0,0,0-5.556-1.823,19.069,19.069,0,0,0-3.129-.255,31.377,31.377,0,0,0-9.534,1.819l-.009,0a15.116,15.116,0,0,1-3.608.865,1.738,1.738,0,0,1-.553-.078c-.457-.151-.6-.658-.775-1.3a4.834,4.834,0,0,0-1.453-2.622l-.479-.419.52-.366c.623-.439,1.236-.914,1.824-1.411a13.5,13.5,0,0,0,3.061-4.237c.907-1.88,1.02-3.031.878-3.315a.287.287,0,0,0-.052-.073l-.061.631a10.756,10.756,0,0,1-1.166,3.178,12.5,12.5,0,0,1-2.773,3.682,22.9,22.9,0,0,1-4.687,3.124.08.08,0,0,0-.04.045.089.089,0,0,0,.082.12.081.081,0,0,0,.035-.007,17.025,17.025,0,0,0,1.9-1.065l.29-.184.276.2a4.532,4.532,0,0,1,1.68,2.759c.213.771.369,1.25.888,1.423a1.9,1.9,0,0,0,.6.085,14.694,14.694,0,0,0,3.655-.867l.011,0a31.239,31.239,0,0,1,9.506-1.812,18.816,18.816,0,0,1,3.086.251c9.294,1.55,12.078,8.049,11.682,12.044v.011a.087.087,0,0,0,.026.067.086.086,0,0,0,.061.025.084.084,0,0,0,.054-.019l.009-.008.009-.009a1.45,1.45,0,0,1,1.011-.368,1.793,1.793,0,0,1,.684.134,1.4,1.4,0,0,1,.889,1.356,4.435,4.435,0,0,1-1.456,3.134,5.294,5.294,0,0,1-3.289,1.473l-.483.028-.044-.482a3.7,3.7,0,0,0-1.651-2.662.084.084,0,0,0-.041-.01.086.086,0,0,0-.074.042.089.089,0,0,0,.03.123A3.435,3.435,0,0,1,40.9,32.029a.088.088,0,0,0,.068.1Zm.914-2.17a4.3,4.3,0,0,1,.152.544,4.368,4.368,0,0,0,2.2-1.143,3.437,3.437,0,0,0,1.147-2.411.407.407,0,0,0-.271-.432.787.787,0,0,0-.3-.059.508.508,0,0,0-.312.082,1.089,1.089,0,0,1-.771.321,1.08,1.08,0,0,1-.652-.217,5.161,5.161,0,0,1,.157,2.443,1.082,1.082,0,0,1-1.249.894Q41.932,29.973,41.881,29.959Zm-.893-4.664a.09.09,0,0,0-.072.036.087.087,0,0,0,.018.122l.012.01a3.572,3.572,0,0,1,1.13,3.432.088.088,0,0,0,.073.1h.014a.088.088,0,0,0,.085-.072,3.76,3.76,0,0,0-1.21-3.614A.084.084,0,0,0,40.988,25.295ZM6.748,22.59l-.293.773A3.692,3.692,0,0,0,6.83,27a.086.086,0,0,0,.069.035h.08l-.322-.646a4.086,4.086,0,0,1,.315-3.706l.007-.012.094-.212L7.3,22.4a12.012,12.012,0,0,0,1.5-.551.085.085,0,0,0,.047-.048.086.086,0,0,0,0-.067.09.09,0,0,0-.081-.052.087.087,0,0,0-.036.008,9.343,9.343,0,0,1-3.4.864c-2.252,0-3.733-.6-4.4-1.8l-.345-.615.695-.122a.93.93,0,0,0,.476-.288,2.215,2.215,0,0,1-.395.066l-.09.009-.022,0-.633.047.1-.626c.293-1.8,1.684-5.681,2.717-6.714a6.356,6.356,0,0,1,3.973-2.033c.061,0,.122,0,.18.006l.637.047-.2.607c-.019.058-.03.095-.034.107a.087.087,0,0,0,.057.11.09.09,0,0,0,.11-.057h0a12.526,12.526,0,0,1,3.5-5.443,23.8,23.8,0,0,1,6.364-3.614l.619-.128a.4.4,0,0,0-.146-.062.579.579,0,0,0-.126-.012c-1.386,0-5.417,2.556-6.819,3.68a11.47,11.47,0,0,0-3.105,4.338l-.161.371-.4-.08a2.727,2.727,0,0,0-.914-.012l-.516.073L6.4,9.9a6.724,6.724,0,0,1,.779-3.448A22.65,22.65,0,0,1,10.895.935L11.4.5a.4.4,0,0,0-.13.011c-.337.083-1.11.777-2.264,2.475A29.54,29.54,0,0,0,7.022,6.373a6.523,6.523,0,0,0-.776,3.707l.062.4-.375.146a7.91,7.91,0,0,0-2.622,1.768,13.219,13.219,0,0,0-1.987,3.957C.578,18.461.4,19.864.547,20.317c.526,1.577,2.18,2.411,4.785,2.411a4.993,4.993,0,0,0,.6-.039Zm2.046-2.24a2.338,2.338,0,0,0,1.573.528,3.588,3.588,0,0,0,.865-.112.088.088,0,0,0-.022-.173l-.023,0a3.411,3.411,0,0,1-.824.107,2.149,2.149,0,0,1-1.43-.465l-.011-.011a.089.089,0,0,0-.063-.026.088.088,0,0,0-.064.148Zm1.632-1.715a.088.088,0,0,0-.039.167,2.312,2.312,0,0,0,.965.183,3.361,3.361,0,0,0,1.06-.18.089.089,0,0,0,.055-.112.086.086,0,0,0-.082-.059.089.089,0,0,0-.028,0,3.188,3.188,0,0,1-1.006.17,2.183,2.183,0,0,1-.88-.163l-.007,0A.085.085,0,0,0,10.427,18.634ZM7.416,9.309q.134,0,.264.01a12.173,12.173,0,0,1,3.243-4.375c.232-.186.66-.5,1.2-.87H12.07a1.074,1.074,0,0,1-1.083-1.024c-.016-.26-.038-.487-.062-.681a26,26,0,0,0-2.837,4.5,6.7,6.7,0,0,0-.7,2.437ZM11.487.521l.207.641a7.56,7.56,0,0,1,.291,1.83.081.081,0,0,0,.085.083h.008a.088.088,0,0,0,.082-.094c-.09-1.514-.374-2.245-.609-2.423A.275.275,0,0,0,11.487.521ZM5.724,16.675a1.088,1.088,0,1,1,1.088-1.088A1.089,1.089,0,0,1,5.724,16.675Z" transform="translate(568.347 -101.535)" fill="rgba(0,0,0,0)"/></g></svg>