<svg xmlns="http://www.w3.org/2000/svg" width="44.49" height="40.458" viewBox="0 0 44.49 40.458"><g transform="translate(-813.906 105.727)"><path d="M.587,39.458a.588.588,0,0,1,0-1.176h18.22V34.651c-1.87-.467-2.39-2.673-2.39-3.9a.6.6,0,0,1,0-.068,12.73,12.73,0,0,1-3.2-2.038A19.242,19.242,0,0,1,6.666,12.5a2.4,2.4,0,0,1-.864-.567,2.231,2.231,0,0,1-.743-1.592,2.2,2.2,0,0,1,.463-1.286A4.672,4.672,0,0,1,2.933,7.719a.591.591,0,0,1-.069-.634A3.776,3.776,0,0,1,5.018,5.607,4.533,4.533,0,0,1,6.913,2.752a1.737,1.737,0,0,1,.263-1.29A2.368,2.368,0,0,1,9.192.474a1.656,1.656,0,0,1,.414.078,2.1,2.1,0,0,1,1.83-.521,1.787,1.787,0,0,1,1.354.852,1.711,1.711,0,0,1,.989.992A1.5,1.5,0,0,1,13.59,3.51a.588.588,0,0,1-.831-.832.842.842,0,0,0-.135-.482.407.407,0,0,0-.3-.215.588.588,0,0,1-.588-.587,1.1,1.1,0,0,0-.785-.215.643.643,0,0,0-.622.4.59.59,0,0,1-.517.4.583.583,0,0,1-.568-.323,1.164,1.164,0,0,0-.932.281.656.656,0,0,0-.143.894.588.588,0,0,1-.383.833C6.5,3.987,6.1,6.148,6.1,6.169a.59.59,0,0,1-.436.474A4.475,4.475,0,0,0,4.2,7.3a5.478,5.478,0,0,0,2.59.74A.588.588,0,0,1,7,9.175l-.019.02-.077.076c-.251.246-.67.658-.671,1.079a1.12,1.12,0,0,0,.4.755.8.8,0,0,0,.978.256,1.091,1.091,0,0,0,.428-1.228.588.588,0,1,1,1.14-.29,2.256,2.256,0,0,1-.987,2.54,1.831,1.831,0,0,1-.348.153,18.02,18.02,0,0,0,6.139,15.212c2.767,2.372,5.422,2.816,9.467,3.266a.585.585,0,0,1,.5.422,3.174,3.174,0,0,0,2.84,2.552,2.861,2.861,0,0,0,2.822-2.472.589.589,0,0,1,.363-.464c5.924-2.369,8.66-6.963,8.357-14.041-.48-.05-.87-.123-1.02-.153a.587.587,0,1,1,.229-1.152,5.9,5.9,0,0,0,2.6.05c.5-.251.526-1.169.526-1.178a.588.588,0,0,1,1.175,0,2.619,2.619,0,0,1-1.176,2.228,2.961,2.961,0,0,1-1.154.246c.15,3.126.22,11.182-8.8,14.965a3.921,3.921,0,0,1-3.289,3.087v3.174H42.9a.588.588,0,0,1,0,1.176Zm25.664-1.176v-3.17a4.4,4.4,0,0,1-3.308-2.972,26.832,26.832,0,0,1-5.326-1c.081.775.43,2.428,1.94,2.428a2.687,2.687,0,0,0,1.712-.679.587.587,0,1,1,.831.831,3.89,3.89,0,0,1-2.117,1v3.569Zm-2.13-14.616c-2.8-.559-5.709-3.441-5.831-3.562a.588.588,0,0,1,.832-.833c.027.027,2.782,2.753,5.23,3.243,1.226.245,1.721.026,2.044-.264a.587.587,0,0,1,.579-.993,7.491,7.491,0,0,0,3.458.426c1.089-.363,1.595-.655,1.7-1-.224.011-.447.015-.665.015a.588.588,0,0,1,0-1.176,6.42,6.42,0,0,0,2.381-.355c-.181-.791-2.536-2.3-3.656-2.3a.588.588,0,0,1,0-1.175c1.482,0,4.843,1.828,4.843,3.566,0,.738-.747,1.114-1.7,1.293-.013,1.4-1.588,1.928-2.529,2.243a3.483,3.483,0,0,1-1.083.148,9.442,9.442,0,0,1-2.1-.286c-.042.042-.084.088-.127.138a2.67,2.67,0,0,1-2.217,1A5.914,5.914,0,0,1,24.121,23.666Zm-13.969-4.9c-1.406-1.876-.982-4.984-.963-5.117a.588.588,0,0,1,1.164.167c0,.027-.373,2.76.739,4.244a.588.588,0,1,1-.94.706Zm3.1-1.584c-1.914-1.436-1.936-4.591-1.936-4.725a.587.587,0,1,1,1.175,0c0,.056.032,2.709,1.467,3.784a.588.588,0,0,1-.706.941Zm7.323-2.5a14.2,14.2,0,0,1-6.232-6.669c-1.506-3.389-3.634-3.478-3.722-3.48a.591.591,0,0,1-.579-.595.585.585,0,0,1,.584-.58c.121,0,2.957.047,4.792,4.177A12.953,12.953,0,0,0,21.1,13.63c2.2,1.1,6.9,1.483,9.988-1.194,6.41-5.556,8.921-6.272,9.025-6.3a.586.586,0,0,1,.671.293,2.923,2.923,0,0,1,.148,2.46,15.8,15.8,0,0,1-2.237,2.705.587.587,0,0,1-.831-.831,15.064,15.064,0,0,0,2.017-2.4,1.325,1.325,0,0,0,.041-.885c-.983.464-3.489,1.882-8.065,5.846a10.448,10.448,0,0,1-6.8,2.31A10.244,10.244,0,0,1,20.57,14.682Zm17.606-.263a.588.588,0,0,1,.262-.788,5.163,5.163,0,0,0,1.865-1.44,1.479,1.479,0,0,0,0-1.18.588.588,0,0,1,1.054-.521,2.657,2.657,0,0,1,0,2.227,6.216,6.216,0,0,1-2.39,1.965.586.586,0,0,1-.787-.263Zm-22.8.207a4.606,4.606,0,0,1-1.937-3.448.588.588,0,0,1,1.175,0,3.439,3.439,0,0,0,1.467,2.513.588.588,0,1,1-.706.94ZM7.694,5.434a.588.588,0,1,1,.588.588A.588.588,0,0,1,7.694,5.434Z" transform="translate(814.406 -105.227)" fill="#004480"/><path d="M42.9,39.958H.587a1.088,1.088,0,0,1,0-2.176h17.72V35.016A3.451,3.451,0,0,1,16.459,33.2a5.9,5.9,0,0,1-.536-2.2,13.354,13.354,0,0,1-3.031-1.981,19.685,19.685,0,0,1-5.368-7.537A19.034,19.034,0,0,1,6.136,12.81a3.023,3.023,0,0,1-.687-.52,2.709,2.709,0,0,1-.89-1.948,2.463,2.463,0,0,1,.206-.966,4.637,4.637,0,0,1-2.22-1.341,1.093,1.093,0,0,1-.129-1.172A3.957,3.957,0,0,1,4.606,5.221,5.009,5.009,0,0,1,6.384,2.49a2.223,2.223,0,0,1,.374-1.3A2.875,2.875,0,0,1,9.08-.029c.047,0,.094,0,.14,0A2.376,2.376,0,0,1,9.47,0a2.538,2.538,0,0,1,1.57-.5h0a2.989,2.989,0,0,1,.475.038,2.348,2.348,0,0,1,1.619.948,2.264,2.264,0,0,1,1.105,1.2,1.99,1.99,0,0,1-.3,2.179,1.082,1.082,0,0,1-.379.247,8.713,8.713,0,0,1,2.307,3.222,12.426,12.426,0,0,0,5.448,5.851,9.034,9.034,0,0,0,3.829.784,8.519,8.519,0,0,0,5.608-1.909c6.388-5.537,8.952-6.333,9.223-6.405a1.086,1.086,0,0,1,1.243.543,3.381,3.381,0,0,1,.152,2.916,4.559,4.559,0,0,1-.353.573,1.076,1.076,0,0,1,.779.583,3.132,3.132,0,0,1,0,2.674,2.776,2.776,0,0,1-.389.567,1.09,1.09,0,0,1,.929,1.074,3.071,3.071,0,0,1-1.453,2.675,2.845,2.845,0,0,1-.858.252,17.886,17.886,0,0,1-1.012,6.961,13.91,13.91,0,0,1-7.876,7.913,4.379,4.379,0,0,1-3.215,3.126v2.274H42.9a1.088,1.088,0,0,1,0,2.176ZM.587,38.782a.088.088,0,0,0,0,.176H42.9a.088.088,0,0,0,0-.176H26.926v-4.1l.415-.072a3.422,3.422,0,0,0,2.885-2.7l.055-.255.24-.1a13.016,13.016,0,0,0,7.562-7.445,17.525,17.525,0,0,0,.929-7.035l-.024-.5.5-.024a2.494,2.494,0,0,0,.953-.194c.89-.444.9-1.767.9-1.781a.087.087,0,0,0-.09-.086.089.089,0,0,0-.086.089c0,.1-.027,1.233-.8,1.62a2.543,2.543,0,0,1-1.1.18,10.147,10.147,0,0,1-1.82-.188l-.021,0a.085.085,0,0,0-.083.07.086.086,0,0,0,.013.067.085.085,0,0,0,.055.037c.141.028.513.1.975.146l.43.044.018.432a16.161,16.161,0,0,1-1.913,9.063,13.314,13.314,0,0,1-6.758,5.463.088.088,0,0,0-.053.068,3.156,3.156,0,0,1-1.781,2.526,3.882,3.882,0,0,1-1.531.378,3.683,3.683,0,0,1-3.325-2.914.085.085,0,0,0-.074-.062c-4.141-.461-6.863-.918-9.738-3.384A18.547,18.547,0,0,1,7.347,12.482l.035-.323.309-.1a1.337,1.337,0,0,0,.253-.111,1.755,1.755,0,0,0,.75-1.982A.089.089,0,0,0,8.609,9.9l-.024,0a.089.089,0,0,0-.061.107A1.6,1.6,0,0,1,7.858,11.8a1.106,1.106,0,0,1-.553.148,1.449,1.449,0,0,1-1.025-.485,1.588,1.588,0,0,1-.546-1.111,2.229,2.229,0,0,1,.822-1.435l.073-.072.08-.088.115-.046a.089.089,0,0,0,.057-.083.088.088,0,0,0-.088-.088,5.94,5.94,0,0,1-2.871-.826L3.35,7.322,3.9,6.9a4.976,4.976,0,0,1,1.64-.743.089.089,0,0,0,.064-.07l0-.021c.084-.428.565-2.514,2.059-2.888a.088.088,0,0,0,.058-.125,1.148,1.148,0,0,1,.266-1.5,1.816,1.816,0,0,1,1.126-.421.733.733,0,0,1,.39.093l.122.074.064.127a.088.088,0,0,0,.083.05.091.091,0,0,0,.082-.061A1.118,1.118,0,0,1,10.92.679c.038,0,.079,0,.12,0a1.405,1.405,0,0,1,1.121.455l.075.121v.142a.087.087,0,0,0,.088.087.864.864,0,0,1,.722.445,1.249,1.249,0,0,1,.193.894l-.036.121-.089.09a.089.089,0,0,0,0,.127.089.089,0,0,0,.123,0,1.026,1.026,0,0,0,.08-1.09,1.209,1.209,0,0,0-.692-.711l-.189-.066-.091-.179a1.314,1.314,0,0,0-.988-.585A1.984,1.984,0,0,0,11.04.5,1.509,1.509,0,0,0,9.964.9l-.219.225-.3-.1A1.162,1.162,0,0,0,9.158.973l-.079,0a1.863,1.863,0,0,0-1.487.767,1.235,1.235,0,0,0-.188.926l.064.357-.319.172A4.086,4.086,0,0,0,5.5,5.73L5.435,6l-.262.085A3.4,3.4,0,0,0,3.311,7.31a.091.091,0,0,0,.011.1A4.293,4.293,0,0,0,5.628,8.569l.75.163-.452.621a1.686,1.686,0,0,0-.367.994,1.753,1.753,0,0,0,.6,1.236,1.891,1.891,0,0,0,.682.451l.366.134-.04.387a18.762,18.762,0,0,0,6.379,15.707,12.272,12.272,0,0,0,3.078,1.96l.338.148-.042.367a.093.093,0,0,0,0,.011c0,1.008.42,3.02,2.012,3.418l.379.095v4.521Zm7.725-25.9a17.552,17.552,0,0,0,6,14.483c2.657,2.278,5.247,2.709,9.2,3.149a1.081,1.081,0,0,1,.925.783,2.686,2.686,0,0,0,2.361,2.187,2.911,2.911,0,0,0,1.1-.278,2.177,2.177,0,0,0,1.227-1.765,1.089,1.089,0,0,1,.671-.857,12.18,12.18,0,0,0,6.271-5.047,14.694,14.694,0,0,0,1.788-8.086c-.3-.042-.528-.086-.634-.107a1.088,1.088,0,0,1,.21-2.154,1.1,1.1,0,0,1,.217.022,9.15,9.15,0,0,0,1.624.168,1.689,1.689,0,0,0,.654-.075c.131-.065.241-.451.25-.74,0,0,0-.008,0-.012a9.547,9.547,0,0,1-.98.571,1.088,1.088,0,0,1-.972-1.946,4.892,4.892,0,0,0,1.642-1.217.976.976,0,0,0-.01-.748q-.018-.038-.033-.077c-.352.383-.652.687-.769.8a1.087,1.087,0,1,1-1.538-1.538,18.629,18.629,0,0,0,1.777-2.031,47.75,47.75,0,0,0-7.1,5.324,10.969,10.969,0,0,1-7.125,2.432,10.743,10.743,0,0,1-4.708-1.005,14.727,14.727,0,0,1-6.465-6.913,5.926,5.926,0,0,0-2.2-2.786,2.482,2.482,0,0,0-1.085-.4,1.087,1.087,0,0,1,.021-2.174,4.073,4.073,0,0,1,1.472.348,1.093,1.093,0,0,1,.145-.666.4.4,0,0,0-.03-.066,1.09,1.09,0,0,1-.925-.762.838.838,0,0,0-.3-.035c-.009,0-.165.011-.181.06a1.087,1.087,0,0,1-.955.741c-.026,0-.054,0-.082,0a1.076,1.076,0,0,1-.777-.33.807.807,0,0,0-.352.166c-.082.07-.116.1-.021.289a1.088,1.088,0,0,1-.709,1.543c-.757.189-1.194,1.462-1.32,2.11a1.091,1.091,0,0,1-.8.868,4.338,4.338,0,0,0-.457.144,5.359,5.359,0,0,0,1.464.266,1.088,1.088,0,0,1,.5,2.055l-.038.037c-.142.139-.52.509-.521.724a.72.72,0,0,0,.252.4.553.553,0,0,0,.319.193.111.111,0,0,0,.059-.017.606.606,0,0,0,.191-.67A1.09,1.09,0,0,1,8.34,8.934,1.107,1.107,0,0,1,8.609,8.9a1.088,1.088,0,0,1,1.055.82,2.756,2.756,0,0,1-1.225,3.1Q8.376,12.854,8.312,12.886Zm2.31-9.028a.085.085,0,0,0-.084.087.091.091,0,0,0,.09.088c.262.008,2.571.181,4.168,3.777a13.681,13.681,0,0,0,6,6.425,9.732,9.732,0,0,0,4.261.9,9.961,9.961,0,0,0,6.47-2.188c4.541-3.935,7.074-5.4,8.179-5.921l.554-.262.145.6a1.763,1.763,0,0,1-.079,1.227,15.961,15.961,0,0,1-2.11,2.529.087.087,0,0,0-.026.063.084.084,0,0,0,.025.061.087.087,0,0,0,.063.027.083.083,0,0,0,.06-.025,14.642,14.642,0,0,0,2.145-2.576,2.468,2.468,0,0,0-.143-2,.085.085,0,0,0-.076-.046.093.093,0,0,0-.024,0c-.025.007-2.517.726-8.827,6.195a9.515,9.515,0,0,1-6.263,2.153,9.925,9.925,0,0,1-4.276-.89,13.471,13.471,0,0,1-5.915-6.339,7.025,7.025,0,0,0-2.821-3.4A3.489,3.489,0,0,0,10.622,3.858ZM40.758,10.81a1.953,1.953,0,0,1-.008,1.6,5.92,5.92,0,0,1-2.088,1.663.088.088,0,0,0-.039.118.087.087,0,0,0,.078.049.08.08,0,0,0,.036-.008,5.563,5.563,0,0,0,2.169-1.742,2.178,2.178,0,0,0,0-1.78.083.083,0,0,0-.075-.046.094.094,0,0,0-.041.01.09.09,0,0,0-.039.118ZM26.751,38.782H19.482V34.271l.439-.054a3.411,3.411,0,0,0,1.822-.852.09.09,0,0,0,.028-.065.084.084,0,0,0-.025-.06.086.086,0,0,0-.062-.027.085.085,0,0,0-.061.026l-.019.019a3.159,3.159,0,0,1-2.047.807c-1.339,0-2.25-1.075-2.437-2.876l-.08-.767.733.24A26.093,26.093,0,0,0,23,31.643l.309.035.105.293a3.909,3.909,0,0,0,2.929,2.649l.409.076Zm-6.269-1h5.269V35.5a4.9,4.9,0,0,1-3.165-2.9l-.077-.009a1.088,1.088,0,0,1-.057,1.476,4.378,4.378,0,0,1-1.971,1.061Zm-2.22-5.931a2.681,2.681,0,0,0,.224.546,1.149,1.149,0,0,0,1.07.668,2.189,2.189,0,0,0,1.366-.54,1.1,1.1,0,0,1,.143-.118A23.612,23.612,0,0,1,18.262,31.85Zm7.02-7.556a6.459,6.459,0,0,1-1.26-.139c-2.871-.573-5.764-3.379-6.085-3.7a1.088,1.088,0,0,1,1.536-1.542c.027.027,2.686,2.649,4.976,3.107a4.347,4.347,0,0,0,.831.1,1.576,1.576,0,0,0,.45-.055,1.085,1.085,0,0,1,1.4-1.282,9.686,9.686,0,0,0,2.608.487,1.737,1.737,0,0,0,.531-.062c.224-.075.412-.143.569-.205a1.088,1.088,0,0,1,.623-1.978,9.138,9.138,0,0,0,1.6-.137,5.6,5.6,0,0,0-.957-.741,4.516,4.516,0,0,0-1.912-.775,1.088,1.088,0,0,1,0-2.175,6.861,6.861,0,0,1,3.252,1.213c.781.513,2.091,1.567,2.091,2.852,0,.586-.313,1.335-1.741,1.7-.272,1.452-1.912,2-2.828,2.306l0,0a6.328,6.328,0,0,1-3.164-.061A3.123,3.123,0,0,1,25.282,24.294ZM18.706,19.6a.087.087,0,0,0-.062.026.089.089,0,0,0,0,.125c.117.116,2.945,2.9,5.575,3.425a5.469,5.469,0,0,0,1.063.119,2.188,2.188,0,0,0,1.844-.831c.055-.063.1-.113.145-.157l.2-.2.273.065a8.845,8.845,0,0,0,1.979.272,2.989,2.989,0,0,0,.925-.122c1.1-.369,2.178-.808,2.187-1.773l0-.411.4-.076c.59-.111,1.294-.34,1.294-.8,0-.588-.613-1.342-1.64-2.017a6.03,6.03,0,0,0-2.7-1.049.088.088,0,0,0-.088.088.089.089,0,0,0,.088.088,5.64,5.64,0,0,1,2.447.93c.565.358,1.537,1.062,1.7,1.757l.079.347-.3.188a6.755,6.755,0,0,1-2.645.43.089.089,0,0,0-.087.089.088.088,0,0,0,.089.087c.222,0,.438,0,.641-.015l.717-.034-.216.684c-.19.6-.914.952-2.021,1.321a2.7,2.7,0,0,1-.847.113,10.619,10.619,0,0,1-2.926-.538.089.089,0,0,0-.03-.006.087.087,0,0,0-.081.06.088.088,0,0,0,.024.094l.411.371-.412.371a2.038,2.038,0,0,1-1.45.5A5.256,5.256,0,0,1,24.253,23c-2.6-.52-5.457-3.351-5.485-3.379A.087.087,0,0,0,18.706,19.6Zm-8.083-.1a1.093,1.093,0,0,1-.871-.435c-1.529-2.04-1.078-5.347-1.058-5.487a1.081,1.081,0,0,1,1.077-.933,1.11,1.11,0,0,1,.152.011,1.087,1.087,0,0,1,.925,1.229c0,.023-.331,2.574.644,3.875a1.087,1.087,0,0,1-.217,1.522A1.092,1.092,0,0,1,10.623,19.5Zm-.852-5.855a.087.087,0,0,0-.087.076c0,.029-.415,3.032.868,4.744a.086.086,0,0,0,.071.035.085.085,0,0,0,.051-.017.086.086,0,0,0,.035-.058.085.085,0,0,0-.016-.064c-1.2-1.6-.876-4.308-.835-4.611a.091.091,0,0,0-.016-.07.083.083,0,0,0-.056-.033ZM13.6,17.8a1.088,1.088,0,0,1-.65-.215c-2.115-1.587-2.139-4.984-2.139-5.127a1.087,1.087,0,0,1,2.174,0c.014.857.3,2.66,1.267,3.388A1.088,1.088,0,0,1,13.6,17.8Zm-1.7-5.431a.088.088,0,0,0-.088.089c0,.03.02,3.037,1.736,4.325a.09.09,0,0,0,.053.017.085.085,0,0,0,.068-.033.089.089,0,0,0-.016-.126c-1.576-1.18-1.661-3.871-1.666-4.174v-.009A.089.089,0,0,0,11.9,12.366Zm3.828,2.878a1.081,1.081,0,0,1-.651-.217,5.134,5.134,0,0,1-2.138-3.849,1.088,1.088,0,0,1,2.175-.009,2.936,2.936,0,0,0,1.267,2.117,1.088,1.088,0,0,1,.219,1.521A1.1,1.1,0,0,1,15.727,15.244Zm-1.7-4.154a.088.088,0,0,0-.088.089,4.083,4.083,0,0,0,1.737,3.048.086.086,0,0,0,.052.018.092.092,0,0,0,.073-.037.087.087,0,0,0,.014-.064.082.082,0,0,0-.032-.055,3.957,3.957,0,0,1-1.669-2.907A.089.089,0,0,0,14.026,11.089ZM8.282,6.522A1.088,1.088,0,1,1,9.37,5.434,1.089,1.089,0,0,1,8.282,6.522Z" transform="translate(814.406 -105.227)" fill="rgba(0,0,0,0)"/></g></svg>