<svg xmlns="http://www.w3.org/2000/svg" width="43.707" height="44.099" viewBox="0 0 43.707 44.099"><g transform="translate(-419.708 109.368)"><path d="M5.682,43.1a.588.588,0,1,1,0-1.176H25.86V36.839a2.261,2.261,0,0,1-1-.573,12.411,12.411,0,0,1-1.679-2.9A11.6,11.6,0,0,1,19.2,30.124l0-.006c-.785.049-1.31.051-1.371.051a.588.588,0,0,1-.218-1.133,10.227,10.227,0,0,0,3.34-2.579,5.208,5.208,0,0,1-1.97-1.163.587.587,0,0,1,.152-.941,20.569,20.569,0,0,0,2.59-1.457.587.587,0,0,1,.831.831A12.252,12.252,0,0,1,20.5,24.974a3.276,3.276,0,0,0,1.638.493.588.588,0,0,1,.415,1c-.13.131-.285.3-.46.485a19.56,19.56,0,0,1-1.969,1.906,18.042,18.042,0,0,0,4.669-1c3.971-1.588,6.316-3.648,7.168-6.295a.588.588,0,0,1,1.12.36c-.967,3-3.534,5.3-7.852,7.026a18.4,18.4,0,0,1-4.586,1.041c1.455,1.577,3.065,2.528,3.847,2.528a.588.588,0,0,1,.13,1.161,8.221,8.221,0,0,0,1.069,1.754,1.214,1.214,0,0,0,.956.309.678.678,0,0,0,.491-.22,18.308,18.308,0,0,0,1.281-3.758,14.75,14.75,0,0,1,.642-2.056.588.588,0,0,1,1.052.526,17.027,17.027,0,0,0-.56,1.84c-.2.729-.41,1.5-.635,2.2a4.485,4.485,0,0,0,.693,1.157.7.7,0,0,0,.566.16,1.306,1.306,0,0,0,.879-.464A19.522,19.522,0,0,0,32.3,31.243c.048-.187.093-.36.135-.518q-.568.393-1.167.788l-.189.124a.578.578,0,0,1-.325.1.587.587,0,0,1-.328-1.076l.194-.129c5.805-3.828,9.407-7.556,10.142-10.5,1.078-4.31-2.164-7.637-2.2-7.67a.588.588,0,0,1-.142-.231,3.329,3.329,0,0,1-.467-.2,4,4,0,0,1-2.3-4,.588.588,0,1,1,1.159.194,2.5,2.5,0,0,0,.79,2.1,2.761,2.761,0,0,0,1.415.847c.527-.567,1.2-1.752.326-2.628a.588.588,0,0,1,.416-1h1.271c-.237-.376-.506-.815-.728-1.211a.585.585,0,0,1-.059-.418,3.233,3.233,0,0,0-.87-2.833l-.373.373a.589.589,0,0,1-.967-.212A3.779,3.779,0,0,0,36.047,1.38V2.547a.59.59,0,0,1-.851.526,6.048,6.048,0,0,0-1.853-.338l.572.572a.588.588,0,0,1-.832.832L31.516,2.569a.588.588,0,0,1,.347-1,11.135,11.135,0,0,1,3.007.178V.588a.59.59,0,0,1,.21-.451.6.6,0,0,1,.482-.128,5.544,5.544,0,0,1,3.161,1.968l.239-.238a.587.587,0,0,1,.782-.043,4.708,4.708,0,0,1,1.7,4.149c.491.85,1.158,1.85,1.166,1.861a.589.589,0,0,1-.49.914h-1.3a3.387,3.387,0,0,1-1.026,3.353h0A9.635,9.635,0,0,1,41.9,20.321c-.69,2.756-3.406,5.936-7.911,9.289l0,0a19.842,19.842,0,0,0-.55,1.924,18.478,18.478,0,0,1-1.412,4.247,2.313,2.313,0,0,1-1.078.819q0,.015,0,.03v5.289H41.728a.588.588,0,0,1,0,1.176Zm24.1-1.176V36.756a1.74,1.74,0,0,1-1-.49,3.126,3.126,0,0,1-.413-.538,3.764,3.764,0,0,1-.25.448,1.723,1.723,0,0,1-1.077.694v5.054ZM17.46,27.689a4.394,4.394,0,0,1-1.4-2.538c-.054-.2-.105-.394-.165-.574a1.518,1.518,0,0,0-.848-.917.886.886,0,0,0-.815.141.587.587,0,1,1-.652-.977,2.033,2.033,0,0,1,1.849-.275A2.673,2.673,0,0,1,17.014,24.2c.067.2.126.42.185.645a3.317,3.317,0,0,0,1,1.922.587.587,0,1,1-.734.917Zm-.974-4.973a4.28,4.28,0,0,0-4.078-2.737c-1.4.161-1.828,1.832-1.846,1.9a.587.587,0,0,1-1.143-.272c.024-.1.625-2.545,2.856-2.8A5.392,5.392,0,0,1,17.6,22.343a.588.588,0,0,1-.372.743.58.58,0,0,1-.186.03A.587.587,0,0,1,16.486,22.715Zm-11-.536c-.015-.2-.328-5.037,2.634-6.815,4.289-2.575,9.536,3.39,9.758,3.645a.588.588,0,0,1-.888.771c-.047-.055-4.816-5.477-8.265-3.408-2.351,1.411-2.07,5.68-2.067,5.722a.588.588,0,0,1-.544.629l-.043,0A.587.587,0,0,1,5.487,22.179Zm24.525-1.531a.588.588,0,0,1-.118-.823A11.771,11.771,0,0,0,31.35,15.4a.587.587,0,0,1,1.166.146,12.733,12.733,0,0,1-1.68,4.982.587.587,0,0,1-.823.117Zm5.967-.336a.589.589,0,0,1-.263-.789c1.042-2.084-.4-5.751-.412-5.788A.588.588,0,0,1,36.4,13.3c.068.17,1.651,4.193.372,6.75a.587.587,0,0,1-.788.264Zm-2.274-.36a.59.59,0,0,1-.372-.744,7.664,7.664,0,0,0,0-4.329.588.588,0,1,1,1.115-.372,8.809,8.809,0,0,1,0,5.072.587.587,0,0,1-.557.4A.61.61,0,0,1,33.705,19.952Zm-6.63-.324a.586.586,0,0,1,.067-.828c1.259-1.073,2.348-4.016,2.661-5.06a.587.587,0,1,1,1.125.338c-.05.167-1.246,4.1-3.024,5.616a.586.586,0,0,1-.829-.066Zm11.692-.08a.587.587,0,0,1-.328-.764c.556-1.391-.352-3.5-.749-4.192a.588.588,0,0,1,1.021-.583c.069.122,1.7,3.015.819,5.212a.59.59,0,0,1-.764.328ZM1.175,19c0-.324.067-7.934,5.95-9.194,6.692-1.439,10.411,6.121,10.448,6.2a.588.588,0,0,1-1.059.51c-.032-.068-3.353-6.8-9.143-5.558C2.421,12.019,2.352,18.933,2.352,19a.588.588,0,0,1-1.176,0Zm21.748-.51a3.373,3.373,0,0,1-2.1-1.969c-.112-.227-.247-.515-.405-.85C18.994,12.625,15.647,5.485,9.991,5.485c-5.515,0-8.836,7.033-8.87,7.1A.588.588,0,0,1,.054,12.1C.2,11.777,3.721,4.31,9.991,4.31c6.4,0,9.971,7.613,11.5,10.864.153.325.283.6.392.823.275.549.672,1.2,1.314,1.351a2.747,2.747,0,0,0,2.124-.76c.9-.672,1.8-2.431,2.75-4.294,1.786-3.488,3.811-7.44,7.3-7.977a.587.587,0,1,1,.179,1.161c-2.9.445-4.777,4.115-6.434,7.351-1.062,2.074-1.979,3.864-3.092,4.7a4.357,4.357,0,0,1-2.534,1.03A2.514,2.514,0,0,1,22.923,18.492ZM37.809,5.877a.588.588,0,1,1,.588.588A.588.588,0,0,1,37.809,5.877Z" transform="translate(420.208 -108.868)" fill="#004480"/><path d="M41.728,43.6H5.682a1.088,1.088,0,1,1,0-2.176H25.36v-4.23a2.71,2.71,0,0,1-.857-.574A11.529,11.529,0,0,1,22.8,33.746a12.2,12.2,0,0,1-3.823-3.114c-.662.036-1.094.037-1.147.037a1.088,1.088,0,0,1-.4-2.1,5,5,0,0,0,.554-.264,1.1,1.1,0,0,1-.152.01,1.086,1.086,0,0,1-.681-.241,4.873,4.873,0,0,1-1.566-2.8l-.009-.034c-.049-.183-.1-.355-.147-.511a1.029,1.029,0,0,0-.536-.6.31.31,0,0,0-.1-.019.52.52,0,0,0-.273.1,1.085,1.085,0,0,1-1.508-.3,1.09,1.09,0,0,1,.3-1.507,2.63,2.63,0,0,1,1.475-.47,2.5,2.5,0,0,1,.814.137l.019.007a3.954,3.954,0,0,0-2.981-1.615,1.573,1.573,0,0,0-.17.009c-1.047.12-1.4,1.472-1.416,1.529A1.087,1.087,0,0,1,8.933,21.5c.027-.117.7-2.888,3.286-3.183a3.873,3.873,0,0,1,.433-.024A5.909,5.909,0,0,1,15.83,19.31c-1.144-1.088-3.359-2.908-5.371-2.908a2.789,2.789,0,0,0-1.476.4c-2.059,1.236-1.828,5.221-1.826,5.261a1.088,1.088,0,0,1-1.007,1.16H6.145l-.072,0a1.09,1.09,0,0,1-1.084-1.012c-.016-.214-.362-5.335,2.876-7.278a4.963,4.963,0,0,1,2.59-.715,9.046,9.046,0,0,1,5.318,2.168l.186.144c-.538-.984-3.1-5.226-7.177-5.226a6.258,6.258,0,0,0-1.306.141C2.941,12.418,2.852,18.938,2.852,19A1.088,1.088,0,0,1,.675,19c0-.34.072-8.34,6.345-9.683A8.493,8.493,0,0,1,8.8,9.126a9.42,9.42,0,0,1,6.851,3.322,15.14,15.14,0,0,1,2.37,3.338,1.087,1.087,0,0,1-1.1,1.554,16.748,16.748,0,0,1,1.339,1.341,1.088,1.088,0,0,1-1.174,1.743,5.352,5.352,0,0,1,.992,1.761,1.09,1.09,0,0,1-.689,1.376q-.046.016-.094.027a3.1,3.1,0,0,1,.2.458c.073.219.133.445.194.676a2.9,2.9,0,0,0,.825,1.66,1.088,1.088,0,0,1,.242,1.427,12.089,12.089,0,0,0,1.322-1.163,5.619,5.619,0,0,1-1.446-1,1.087,1.087,0,0,1,.284-1.742,22.681,22.681,0,0,0,2.463-1.367,1.087,1.087,0,0,1,1.532,1.543,5.529,5.529,0,0,1-1.246.831,2.212,2.212,0,0,0,.478.054,1.088,1.088,0,0,1,.768,1.857c-.129.13-.292.3-.447.472-.237.255-.516.553-.829.868a14.381,14.381,0,0,0,2.977-.768c3.825-1.529,6.074-3.486,6.877-5.984a1.088,1.088,0,0,1,2.072.666c-1.015,3.153-3.678,5.553-8.142,7.338a16.829,16.829,0,0,1-3.7.941,5.782,5.782,0,0,0,2.776,1.664,1.09,1.09,0,0,1,.784,1.843,6.157,6.157,0,0,0,.768,1.218.733.733,0,0,0,.55.165H26.6a.482.482,0,0,0,.144-.034,19.8,19.8,0,0,0,1.192-3.578,14.253,14.253,0,0,1,.677-2.148,1.082,1.082,0,0,1,.974-.6A1.087,1.087,0,0,1,30.667,29.9a40.413,40.413,0,0,0,6.569-5.3,11.263,11.263,0,0,0,3.044-4.69,7.313,7.313,0,0,0-.556-4.9,6.276,6.276,0,0,1,.27,4.392,1.088,1.088,0,1,1-2.02-.807,4.8,4.8,0,0,0-.462-3.242,7.871,7.871,0,0,1-.3,4.916,1.081,1.081,0,0,1-.974.6,1.088,1.088,0,0,1-.972-1.574c.783-1.566-.044-4.413-.428-5.378a1.091,1.091,0,0,1,.606-1.415,1.087,1.087,0,0,1,1.413.6c.019.047.147.37.3.871a1.087,1.087,0,0,1,1.577-.628,6.868,6.868,0,0,0-.525-.638,1.088,1.088,0,0,1-.146-.183c-.111-.045-.223-.1-.336-.154a4.506,4.506,0,0,1-2.562-4.526,1.084,1.084,0,0,1,1.073-.909,1.1,1.1,0,0,1,.179.015,1.09,1.09,0,0,1,.894,1.253,2.016,2.016,0,0,0,.654,1.666,2.927,2.927,0,0,0,.88.627c.283-.382.71-1.143.149-1.7a1.088,1.088,0,0,1,.77-1.856h.377q-.15-.252-.271-.467a1.085,1.085,0,0,1-.11-.777,2.522,2.522,0,0,0-.431-1.965,1.1,1.1,0,0,1-.74.29,1.09,1.09,0,0,1-1.021-.711,2.689,2.689,0,0,0-1.025-1.1v.329a1.092,1.092,0,0,1-.515.923,1.079,1.079,0,0,1-.574.165,1.091,1.091,0,0,1-.485-.115,2.04,2.04,0,0,0-.439-.131,1.1,1.1,0,0,1,.02.6,5.732,5.732,0,0,1,.74-.164,1.1,1.1,0,0,1,.168-.013,1.088,1.088,0,0,1,.163,2.162c-2.646.407-4.463,3.955-6.065,7.085-1.09,2.128-2.031,3.966-3.237,4.87a4.84,4.84,0,0,1-2.834,1.13,3.022,3.022,0,0,1-.677-.078,3.827,3.827,0,0,1-2.431-2.233c-.113-.229-.247-.513-.4-.841l-.01-.021c-1.389-2.963-4.64-9.9-9.978-9.9-5.175,0-8.384,6.747-8.416,6.815a1.091,1.091,0,0,1-.987.63,1.078,1.078,0,0,1-.458-.1A1.089,1.089,0,0,1-.4,11.886,18.714,18.714,0,0,1,2.352,7.752a13.139,13.139,0,0,1,3.211-2.7A8.741,8.741,0,0,1,9.991,3.81c6.718,0,10.382,7.812,11.947,11.149l.07.148c.122.26.228.485.319.666.227.452.544.985.981,1.088a.813.813,0,0,0,.187.021,2.732,2.732,0,0,0,1.523-.694c.806-.6,1.721-2.392,2.605-4.122,1.428-2.788,3-5.865,5.386-7.373a1.09,1.09,0,0,1-.277-.2L31.163,2.923A1.088,1.088,0,0,1,31.8,1.074a7.253,7.253,0,0,1,.822-.04,12.921,12.921,0,0,1,1.745.12V.588a1.088,1.088,0,0,1,.387-.833l0,0a1.1,1.1,0,0,1,.885-.235,6.074,6.074,0,0,1,3.118,1.739,1.087,1.087,0,0,1,1.292.052,5.27,5.27,0,0,1,1.906,4.437c.469.795,1.055,1.675,1.061,1.685a1.089,1.089,0,0,1-.906,1.692h-.687A4,4,0,0,1,40.448,12a9.991,9.991,0,0,1,1.942,8.446,11.834,11.834,0,0,1-2.629,4.624A33.2,33.2,0,0,1,34.4,29.928c-.113.325-.345,1.224-.477,1.733l0,.015a18.085,18.085,0,0,1-1.476,4.385,2.668,2.668,0,0,1-.993.863v4.5H41.728a1.088,1.088,0,0,1,0,2.176ZM5.682,42.423a.088.088,0,0,0-.089.088.09.09,0,0,0,.089.089H41.728a.089.089,0,0,0,.088-.089.088.088,0,0,0-.088-.088H30.452V36.628l-.018-.36.336-.131a1.809,1.809,0,0,0,.844-.63,18.825,18.825,0,0,0,1.341-4.081l0-.014a16.034,16.034,0,0,1,.586-2.02l.024-.049.074-.093.054-.04c4.4-3.272,7.069-6.388,7.725-9.009a9.115,9.115,0,0,0-2.013-7.907l-.291-.351.329-.329a2.883,2.883,0,0,0,.9-2.833l-.223-.66h2a.09.09,0,0,0,.078-.048.089.089,0,0,0,0-.089c-.027-.041-.686-1.031-1.182-1.888l-.09-.156.03-.178a4.178,4.178,0,0,0-1.519-3.675.082.082,0,0,0-.054-.02.09.09,0,0,0-.064.026l-.646.646-.346-.463A5.016,5.016,0,0,0,35.474.5H35.46a.1.1,0,0,0-.06.02.09.09,0,0,0-.03.067V2.367l-.6-.129a10.934,10.934,0,0,0-2.14-.2,6.364,6.364,0,0,0-.7.033.088.088,0,0,0-.072.057.085.085,0,0,0,.018.091l1.569,1.57a.086.086,0,0,0,.062.025.087.087,0,0,0,.062-.15L32.049,2.15l1.326.086a6.736,6.736,0,0,1,2.043.389.086.086,0,0,0,.039.009.081.081,0,0,0,.043-.012l0,0a.085.085,0,0,0,.041-.072V.623l.7.3A4.262,4.262,0,0,1,38.51,2.969a.087.087,0,0,0,.062.054l.02,0A.09.09,0,0,0,38.656,3l.746-.748.353.4a3.727,3.727,0,0,1,.984,3.277.087.087,0,0,0,.009.064c.182.325.423.725.714,1.188l.482.766H39.768A.087.087,0,0,0,39.688,8a.085.085,0,0,0,.017.093A1.9,1.9,0,0,1,40.2,10a3.507,3.507,0,0,1-.806,1.412l-.164.176-.239-.018a3.187,3.187,0,0,1-1.735-1,2.984,2.984,0,0,1-.927-2.531.088.088,0,0,0-.073-.1h-.014a.087.087,0,0,0-.086.073,3.455,3.455,0,0,0,2.033,3.473,2.839,2.839,0,0,0,.4.169l.238.08.078.239a.087.087,0,0,0,.022.035c.033.033,3.478,3.543,2.327,8.143a12.193,12.193,0,0,1-3.3,5.142A42.12,42.12,0,0,1,30.9,30.949l-.192.128a.084.084,0,0,0-.037.054.085.085,0,0,0,.013.065.089.089,0,0,0,.074.039.079.079,0,0,0,.045-.013l.005,0L31,31.095c.393-.259.782-.522,1.157-.781l1.11-.768-.342,1.306c-.041.158-.086.33-.134.516l0,.008a18.057,18.057,0,0,1-1.319,4.034,1.781,1.781,0,0,1-1.246.683q-.079.008-.153.008a1.125,1.125,0,0,1-.815-.311,5.192,5.192,0,0,1-.791-1.3l-.086-.179.061-.189c.224-.7.439-1.487.629-2.182l0-.009a14.982,14.982,0,0,1,.593-1.923.088.088,0,0,0-.041-.118.084.084,0,0,0-.038-.009.088.088,0,0,0-.08.048A15.584,15.584,0,0,0,28.9,31.9a17.171,17.171,0,0,1-1.347,3.9,1.134,1.134,0,0,1-.856.44,1.736,1.736,0,0,1-.18.009,1.693,1.693,0,0,1-1.18-.462A8.54,8.54,0,0,1,24.17,33.9l-.281-.569.619-.14a.088.088,0,0,0-.02-.173c-1.021,0-2.753-1.106-4.214-2.689l-.67-.726.981-.11a17.481,17.481,0,0,0,4.457-1.008c4.17-1.667,6.643-3.864,7.561-6.715A.087.087,0,0,0,32.6,21.7a.084.084,0,0,0-.05-.043.093.093,0,0,0-.113.058c-.9,2.8-3.339,4.957-7.457,6.6a17.976,17.976,0,0,1-4.806,1.036l-1.656.164,1.292-1.049a18.991,18.991,0,0,0,1.919-1.859c.161-.173.33-.354.471-.5a.089.089,0,0,0,.021-.1.087.087,0,0,0-.081-.054,3.756,3.756,0,0,1-1.893-.563l-.77-.457.793-.416A10,10,0,0,0,22.2,23.375a.086.086,0,0,0,0-.124.082.082,0,0,0-.06-.024.092.092,0,0,0-.065.026A22.863,22.863,0,0,1,19.355,24.8a.087.087,0,0,0-.025.137l.006.006A4.717,4.717,0,0,0,21.1,25.98l.764.238-.549.583A10.571,10.571,0,0,1,17.8,29.5a.086.086,0,0,0-.054.1.088.088,0,0,0,.086.073c.056,0,.565,0,1.339-.05l.26-.016.166.208a11.217,11.217,0,0,0,3.784,3.1l.179.078.079.179a11.356,11.356,0,0,0,1.575,2.743,1.761,1.761,0,0,0,.782.444l.368.1v5.966ZM29.45,34.238a3.619,3.619,0,0,0,.509.843.214.214,0,0,0,.109.019l.056,0a.855.855,0,0,0,.511-.242,15.209,15.209,0,0,0,.986-2.973l-.073.048-.187.123a1.076,1.076,0,0,1-.6.183A1.089,1.089,0,0,1,30.086,32l-.053.195,0,.008C29.855,32.849,29.658,33.57,29.45,34.238ZM14.785,23.113a1.309,1.309,0,0,1,.43.074,2.017,2.017,0,0,1,1.158,1.231c.061.184.111.37.164.567l.01.036A3.933,3.933,0,0,0,17.772,27.3a.086.086,0,0,0,.054.02.088.088,0,0,0,.07-.033.087.087,0,0,0,.018-.065.085.085,0,0,0-.032-.058,3.748,3.748,0,0,1-1.167-2.185c-.057-.216-.113-.425-.177-.616a2.187,2.187,0,0,0-1.269-1.341,1.555,1.555,0,0,0-1.409.218.088.088,0,0,0,.048.161.082.082,0,0,0,.047-.015A1.491,1.491,0,0,1,14.785,23.113Zm-2.152-3.647a4.813,4.813,0,0,1,4.328,3.09.09.09,0,0,0,.109.055.089.089,0,0,0,.057-.113,4.594,4.594,0,0,0-1.937-2.416,4.991,4.991,0,0,0-2.538-.793,2.867,2.867,0,0,0-.321.017,2.569,2.569,0,0,0-1.894,1.235,4.114,4.114,0,0,0-.531,1.182.087.087,0,0,0,.064.106l.02,0a.091.091,0,0,0,.085-.068c.055-.217.576-2.087,2.275-2.282A2.582,2.582,0,0,1,12.633,19.467ZM10.454,15.22a3.977,3.977,0,0,0-2.075.572c-2.715,1.629-2.4,6.3-2.393,6.349a.088.088,0,0,0,.085.084h.011a.084.084,0,0,0,.057-.03.087.087,0,0,0,.021-.064,11.188,11.188,0,0,1,.16-2.483,5.169,5.169,0,0,1,2.149-3.7,3.814,3.814,0,0,1,1.99-.541c3.31,0,6.769,3.89,6.908,4.049h0a.089.089,0,0,0,.068.031.083.083,0,0,0,.056-.021.088.088,0,0,0,.032-.061.085.085,0,0,0-.021-.063C17.356,19.169,13.884,15.22,10.454,15.22Zm25.315-1.67c.074.186,1.527,3.931.395,6.2a.089.089,0,0,0,.04.119.09.09,0,0,0,.038.009.088.088,0,0,0,.079-.049c1.185-2.368-.372-6.3-.388-6.341a.089.089,0,0,0-.082-.055.083.083,0,0,0-.032.006.089.089,0,0,0-.05.115Zm2.431.663a.09.09,0,0,0-.045.012.087.087,0,0,0-.031.118c.016.028,1.538,2.729.779,4.627a.087.087,0,0,0,0,.068.084.084,0,0,0,.047.046.086.086,0,0,0,.033.006.089.089,0,0,0,.082-.056c.784-1.96-.726-4.665-.79-4.779A.088.088,0,0,0,38.2,14.213ZM8.8,10.126A7.493,7.493,0,0,0,7.23,10.3C1.739,11.473,1.675,18.7,1.675,19a.087.087,0,0,0,.088.087A.09.09,0,0,0,1.852,19c0-.071.062-7.384,5.414-8.531a7.26,7.26,0,0,1,1.515-.163A8.326,8.326,0,0,1,14.847,13.3a13.817,13.817,0,0,1,2.119,3,.088.088,0,0,0,.078.046.079.079,0,0,0,.035-.008.088.088,0,0,0,.047-.051.084.084,0,0,0,0-.065,14.337,14.337,0,0,0-2.2-3.094A8.341,8.341,0,0,0,8.8,10.126ZM9.991,4.985c5.974,0,9.414,7.341,10.884,10.476l.01.02c.152.324.283.6.391.82a2.922,2.922,0,0,0,1.763,1.7,2.015,2.015,0,0,0,.45.051,3.9,3.9,0,0,0,2.235-.93c1.02-.765,1.913-2.508,2.946-4.526,1.712-3.343,3.652-7.133,6.8-7.617a.089.089,0,0,0,.073-.1.085.085,0,0,0-.084-.072h-.015c-3.241.5-5.2,4.33-6.934,7.711-.979,1.914-1.9,3.723-2.9,4.466a3.672,3.672,0,0,1-2.123.893,1.812,1.812,0,0,1-.416-.047,2.721,2.721,0,0,1-1.646-1.613c-.1-.192-.2-.422-.329-.688l-.069-.146C19.549,12.219,16.074,4.81,9.991,4.81,4.048,4.81.649,12,.508,12.305a.088.088,0,0,0,.043.115.085.085,0,0,0,.037.009.088.088,0,0,0,.08-.05,17.93,17.93,0,0,1,2.454-3.7,12.379,12.379,0,0,1,2.9-2.526A7.585,7.585,0,0,1,9.991,4.985ZM30.277,42.423H26.534V36.469l.391-.088A1.229,1.229,0,0,0,27.7,35.9a3.281,3.281,0,0,0,.215-.388L28.3,34.7l.482.761a2.665,2.665,0,0,0,.344.452,1.249,1.249,0,0,0,.719.349l.43.061Zm-2.743-1h1.743V37.149a2.2,2.2,0,0,1-.857-.531l-.009-.009a2.172,2.172,0,0,1-.877.628Zm2.83-20.157a1.088,1.088,0,0,1-.87-1.74,9.348,9.348,0,0,0,1.233-3.42,11.029,11.029,0,0,1-2.5,3.969,1.088,1.088,0,0,1-1.79-.917,1.077,1.077,0,0,1,.381-.739c1.035-.882,2.086-3.426,2.5-4.821a1.087,1.087,0,1,1,2.083.625c-.019.062-.059.195-.121.381a1.087,1.087,0,0,1,1.505.205l.023.03a1.088,1.088,0,0,1,2.11-.489,9.226,9.226,0,0,1,0,5.389,1.083,1.083,0,0,1-1.031.744,1.112,1.112,0,0,1-.338-.053l-.007,0a1.092,1.092,0,0,1-.687-1.375,6.894,6.894,0,0,0,.149-3.411,12.924,12.924,0,0,1-1.773,5.191A1.092,1.092,0,0,1,30.364,21.266Zm1.569-5.877a.088.088,0,0,0-.088.075l0,.012a11.8,11.8,0,0,1-1.55,4.65.088.088,0,0,0,.018.123.084.084,0,0,0,.052.018.086.086,0,0,0,.07-.035,12.287,12.287,0,0,0,1.585-4.746.087.087,0,0,0-.075-.1Zm1.927,4.088a.108.108,0,0,0,.03,0,.087.087,0,0,0,.082-.058,8.307,8.307,0,0,0,0-4.755l0,0a.087.087,0,0,0-.083-.06.088.088,0,0,0-.083.118h0a8.163,8.163,0,0,1,0,4.644A.09.09,0,0,0,33.861,19.477Zm-3.495-5.655a.088.088,0,0,0-.085.061c-.012.04-1.187,3.909-2.816,5.3a.084.084,0,0,0-.031.059.089.089,0,0,0,.088.1.084.084,0,0,0,.057-.021c1.662-1.415,2.822-5.219,2.87-5.38a.088.088,0,0,0-.06-.109A.081.081,0,0,0,30.366,13.822ZM38.4,6.965a1.088,1.088,0,1,1,1.088-1.088A1.089,1.089,0,0,1,38.4,6.965Z" transform="translate(420.208 -108.868)" fill="rgba(0,0,0,0)"/></g></svg>