<svg xmlns="http://www.w3.org/2000/svg" width="38.459" height="48.23" viewBox="0 0 38.459 48.23"><g transform="translate(-496.401 113.5)"><path d="M.588,47.23a.588.588,0,1,1,0-1.175h14.3V40.2a16.209,16.209,0,0,1-4.764-3.363A14.043,14.043,0,0,1,6.011,26.655a11.064,11.064,0,0,1,2.416-6.471,10.617,10.617,0,0,0,.78-1.221c.838-1.677,2.529-7.348,2.167-10.884l-.133,0A3.457,3.457,0,0,1,8.217,6.49C6.154,6.469,3.764,6.251,3.33,5.384a.918.918,0,0,1,.062-.905C3.9,3.66,5.9,2.928,6.883,2.67A3.219,3.219,0,0,1,8.344.706,6.374,6.374,0,0,1,13.053.253a6.4,6.4,0,0,1,3.6,4.109c.832,2.761-.125,9.727-.471,11.453l-.1.5c-.912,4.441-.76,5.634-.474,5.854,4.413,0,7.928,2.522,10.5,4.365a13.83,13.83,0,0,0,3.05,1.872c3.143,1.019,7.82,2.279,7.867,2.291a.59.59,0,0,1,.376.825c-.05.1-5.088,10.232-15.521,10.232q-.558,0-1.113-.038v4.339h13.91a.588.588,0,1,1,0,1.175Zm19-1.175V41.594a16.638,16.638,0,0,1-3.526-.9v5.358Zm2.289-5.477c8.215,0,12.864-6.813,14.117-8.942-1.449-.4-4.775-1.326-7.2-2.112a14.345,14.345,0,0,1-3.371-2.035c-2.578-1.85-5.785-4.149-9.813-4.149a1.155,1.155,0,0,1-.922-.44c-.853-1.046-.371-3.823.245-6.821l.1-.5c.416-2.074,1.2-8.562.5-10.881a5.318,5.318,0,0,0-2.849-3.335,5.286,5.286,0,0,0-3.721.338,2.012,2.012,0,0,0-.9,1.135l1.156.579a.586.586,0,0,1,.313.64l-.35,1.749c.39.638,1.424,1.639,3.877.719a.588.588,0,0,1,.412,1.1,7.843,7.843,0,0,1-.927.287c.4,3.824-1.366,9.745-2.279,11.572a11.681,11.681,0,0,1-.868,1.368,9.92,9.92,0,0,0-2.2,5.827,12.88,12.88,0,0,0,3.78,9.337,15.27,15.27,0,0,0,8.625,4.386v-.817a.588.588,0,0,1,1.175,0v.948Q21.32,40.578,21.879,40.578ZM4.574,4.915a14.736,14.736,0,0,0,3.5.4L8.285,4.27l-1.006-.5A10.408,10.408,0,0,0,4.574,4.915ZM20.215,33.909c-4.587-.764-7-6.381-7.1-6.62a.587.587,0,1,1,1.082-.457c.023.052,2.27,5.26,6.216,5.918a8.874,8.874,0,0,0,5.967-1.278.588.588,0,0,1,.6,1.009,10.451,10.451,0,0,1-5.3,1.55A8.831,8.831,0,0,1,20.215,33.909ZM10.32,2.769a.588.588,0,1,1,.588.588A.588.588,0,0,1,10.32,2.769Z" transform="translate(496.901 -113)" fill="#004480"/><path d="M34.675,47.73H.588a1.088,1.088,0,1,1,0-2.175h13.8V40.519a16.611,16.611,0,0,1-4.621-3.33A14.539,14.539,0,0,1,5.511,26.643a11.493,11.493,0,0,1,2.5-6.74l0,0A10.329,10.329,0,0,0,8.76,18.74,27.366,27.366,0,0,0,10.91,8.57,3.917,3.917,0,0,1,7.954,6.986a18.431,18.431,0,0,1-2.881-.24c-1.216-.221-1.912-.583-2.19-1.138a1.41,1.41,0,0,1,.083-1.391C3.6,3.2,5.72,2.491,6.484,2.264A3.719,3.719,0,0,1,8.082.28a6.031,6.031,0,0,1,3.11-.78,6.885,6.885,0,0,1,2.018.278,6.937,6.937,0,0,1,3.925,4.439c.923,3.064-.212,10.462-.459,11.7l-.1.5a35.213,35.213,0,0,0-.66,4.152,4.841,4.841,0,0,0,.008,1.106c4.425.114,7.913,2.616,10.476,4.455a13.677,13.677,0,0,0,2.913,1.8c3.154,1.022,7.8,2.271,7.837,2.282l.006,0a1.09,1.09,0,0,1,.7,1.523l0,.007a22.021,22.021,0,0,1-3.963,5.287,18.94,18.94,0,0,1-4.966,3.587,15.861,15.861,0,0,1-7.04,1.636c-.2,0-.408,0-.613-.011v3.312h13.41a1.088,1.088,0,1,1,0,2.175ZM.588,46.555a.088.088,0,1,0,0,.175H34.675a.089.089,0,0,0,.088-.088.088.088,0,0,0-.088-.088H20.266V41.181l.534.036c.359.024.722.037,1.079.037a14.869,14.869,0,0,0,6.6-1.533,17.943,17.943,0,0,0,4.7-3.4A20.945,20.945,0,0,0,36.95,31.3a.1.1,0,0,0,0-.078.091.091,0,0,0-.057-.047h0c-.24-.064-4.806-1.3-7.89-2.3a14.007,14.007,0,0,1-3.187-1.941c-2.513-1.8-5.954-4.271-10.206-4.271h-.17l-.135-.1c-.424-.326-.787-1.112.289-6.351l.1-.5c.326-1.628,1.276-8.572.482-11.209A6.038,6.038,0,0,0,12.895.727,5.92,5.92,0,0,0,11.192.5a5.043,5.043,0,0,0-2.586.631A2.706,2.706,0,0,0,7.367,2.8l-.074.283-.283.074c-1.269.333-2.851,1.035-3.193,1.587a.545.545,0,0,0-.071.173l.525-.4a10.827,10.827,0,0,1,2.9-1.238l.172-.038,1.505.753L8.485,5.82l-.418-.008a14.969,14.969,0,0,1-3.656-.424l-.628-.216c.07.117.637.781,4.439.819l.269,0,.146.226a2.943,2.943,0,0,0,2.6,1.363l.121,0,.461-.009.05.458c.377,3.681-1.384,9.49-2.217,11.158a10.914,10.914,0,0,1-.818,1.284l0,0c-2.252,3.235-2.293,4.944-2.323,6.193a13.547,13.547,0,0,0,3.972,9.824A15.642,15.642,0,0,0,15.1,39.75l.289.134v6.67ZM6.117,4.689c.451.049.978.089,1.553.11l.051-.254-.5-.249A11.639,11.639,0,0,0,6.117,4.689ZM20.09,46.555H15.564v-6.58l.675.253a16.158,16.158,0,0,0,3.42.87l.431.06Zm-3.526-1H19.09V42.023a17.174,17.174,0,0,1-2.526-.621Zm5.315-4.477c-.381,0-.768-.014-1.15-.042L20.266,41V39.589a.088.088,0,0,0-.175,0v1.4l-.575-.087a15.805,15.805,0,0,1-8.908-4.531,13.376,13.376,0,0,1-3.922-9.7,10.346,10.346,0,0,1,2.295-6.1,11.39,11.39,0,0,0,.832-1.307A26,26,0,0,0,11.4,14.339a21.079,21.079,0,0,0,.636-6.37l-.046-.436.426-.1a7.382,7.382,0,0,0,.868-.269.085.085,0,0,0,.05-.045.087.087,0,0,0,0-.068.089.089,0,0,0-.082-.057A.081.081,0,0,0,13.229,7a5.679,5.679,0,0,1-1.967.4A2.8,2.8,0,0,1,8.749,6.07l-.1-.167.388-1.941a.086.086,0,0,0-.046-.094L7.45,3.1l.13-.408A2.519,2.519,0,0,1,8.7,1.281a4.945,4.945,0,0,1,2.521-.6,5.532,5.532,0,0,1,1.62.215,5.77,5.77,0,0,1,3.17,3.665c.736,2.442-.049,8.947-.485,11.124l-.1.5C15,18.22,14.3,21.636,15.075,22.584a.653.653,0,0,0,.534.256c4.191,0,7.47,2.352,10.1,4.243l.015.011a14.028,14.028,0,0,0,3.219,1.955c2.311.749,5.491,1.641,7.181,2.106l.629.173-.331.563a21.462,21.462,0,0,1-4.558,5.4A15.241,15.241,0,0,1,21.879,41.078Zm-.613-1.013c.2.009.41.013.613.013,7.327,0,11.755-5.655,13.343-8.138C33.442,31.446,30.7,30.667,28.64,30a14.518,14.518,0,0,1-3.493-2.093l-.016-.011c-2.518-1.807-5.652-4.055-9.521-4.055a1.662,1.662,0,0,1-1.309-.624c-.993-1.217-.523-4,.143-7.238l.1-.494c.444-2.212,1.152-8.5.508-10.637a4.85,4.85,0,0,0-2.529-3,4.564,4.564,0,0,0-1.3-.163q-.122,0-.241,0A1.087,1.087,0,1,1,10.7,1.7a3.465,3.465,0,0,0-1.474.43,1.588,1.588,0,0,0-.509.478l.724.362a1.087,1.087,0,0,1,.58,1.186L9.707,5.7a1.84,1.84,0,0,0,1.555.7,4.7,4.7,0,0,0,1.615-.339,1.078,1.078,0,0,1,.381-.069,1.091,1.091,0,0,1,1.019.707,1.086,1.086,0,0,1-.638,1.4c-.191.072-.381.136-.568.192a28.835,28.835,0,0,1-2.364,11.422A12.074,12.074,0,0,1,9.8,21.143,9.492,9.492,0,0,0,7.685,26.7a12.384,12.384,0,0,0,3.638,8.975,14.781,14.781,0,0,0,7.767,4.143v-.224a1.088,1.088,0,0,1,2.175,0Zm.416-5.534a9.374,9.374,0,0,1-1.55-.129c-4.872-.812-7.379-6.67-7.483-6.919a1.087,1.087,0,1,1,2-.845,13.908,13.908,0,0,0,1.574,2.624,7.308,7.308,0,0,0,4.264,3,7.258,7.258,0,0,0,1.187.1,8.831,8.831,0,0,0,4.441-1.312,1.082,1.082,0,0,1,.556-.154,1.094,1.094,0,0,1,.935.53,1.086,1.086,0,0,1-.376,1.491A11.007,11.007,0,0,1,21.682,34.532Zm-8.031-7.559a.084.084,0,0,0-.033.007.086.086,0,0,0-.047.114,14.6,14.6,0,0,0,1.8,3A8.059,8.059,0,0,0,20.3,33.416a8.373,8.373,0,0,0,1.385.116,10.008,10.008,0,0,0,5.04-1.479.085.085,0,0,0,.04-.054.084.084,0,0,0-.01-.065.09.09,0,0,0-.077-.045.081.081,0,0,0-.043.012,9.83,9.83,0,0,1-4.955,1.454,8.262,8.262,0,0,1-1.351-.111c-4.17-.7-6.5-5.989-6.593-6.214A.089.089,0,0,0,13.651,26.973Z" transform="translate(496.901 -113)" fill="rgba(0,0,0,0)"/></g></svg>