<svg xmlns="http://www.w3.org/2000/svg" width="45.068" height="35.096" viewBox="0 0 45.068 35.096"><g transform="translate(-1051.433 100.365)"><path d="M.588,34.1a.588.588,0,0,1,0-1.176H6.25a1.3,1.3,0,0,1,.173-.68A1.38,1.38,0,0,1,7.15,31.6a11.34,11.34,0,0,0,.815-2.59l.8-4.962c-.305-.684-.567-1.382-.785-1.994a1.632,1.632,0,0,1-.409.6,1.66,1.66,0,0,1-1.208.509H6.35a3.4,3.4,0,0,1-.409-.043,2.23,2.23,0,0,1-.713-.365,1.747,1.747,0,0,1,.495-2.969c-.015,0-.029-.014-.044-.014-2.314-.349-3.434-1.776-3.521-3.012A.7.7,0,0,1,2.7,15.49,2.616,2.616,0,0,1,3,15.2a1.552,1.552,0,0,0,.262-.262c.086-1.834,1.775-3.216,2.386-3.653.058-.233.218-.873.247-1.12a1.223,1.223,0,0,1,.612-.946,1.094,1.094,0,0,1,1.135.029A10.831,10.831,0,0,1,10.832,12.3c.19.263.349.465.494.641a1.645,1.645,0,0,1,.277-.03,2.047,2.047,0,0,1,1.441.728.731.731,0,0,1,.13.232c2.489.612,6.461.291,10.3-.029,4-.32,8.134-.655,10.87.014a2.159,2.159,0,0,0,1.615-.568A6.3,6.3,0,0,0,38.131,8.78c.013-.684-.03-1.339-.059-1.993l.219-.073-.219.014c-.1-1.629-.189-3.172.611-4.438C39.921.327,41.638-.227,42.714.078a1.881,1.881,0,0,1,1.354,1.936c0,.873-.743,1.411-1.4,1.877a3.154,3.154,0,0,0-1,.946,5.8,5.8,0,0,0-.189,2.779,12.157,12.157,0,0,1,0,2.809,10.06,10.06,0,0,1-4.8,7,19.558,19.558,0,0,1-.35,5.836,7.106,7.106,0,0,0,.262,3.347,13.082,13.082,0,0,1,.262,1.309c.063.781-1.292,3.721-2.1,5h6.586a.588.588,0,0,1,0,1.176Zm30.648-1.176a.853.853,0,0,1,0-.229,1.4,1.4,0,0,1,.554-.932l.625-3.216c-.189-.175-.611-.538-.873-.771-.146.67-.319,1.426-.465,1.848a11.9,11.9,0,0,1-1.427,2.606c-.2.282-.362.51-.5.7Zm-5.629,0a1.008,1.008,0,0,1,0-.157,1.6,1.6,0,0,1,.682-1.048,7.628,7.628,0,0,0,.655-3.042A10.723,10.723,0,0,0,25.427,26.5a.261.261,0,0,0-.044-.072c-2.357.189-4.714.291-6.505.291-.669,0-1.264-.014-1.774-.043a14.289,14.289,0,0,1,.465,5.035,3.488,3.488,0,0,1-.509,1.205Zm-11.919,0A1.215,1.215,0,0,1,14,32.078a7.165,7.165,0,0,0-1.426-2.633,19.8,19.8,0,0,1-2.785,3.475Zm15.07-10.155a.622.622,0,0,1,.277.364c.32,1.282,2.2,2.852,3.318,3.8a5.287,5.287,0,0,1,1.207,1.165.605.605,0,0,1,.059.392l-.715,3.725a.7.7,0,0,1-.174.321h.873A19.092,19.092,0,0,0,35.671,28a10.053,10.053,0,0,0-.218-1.077,8.353,8.353,0,0,1-.275-3.943c.261-1.076.669-4.409.261-5.69a.569.569,0,0,1,.32-.7,8.877,8.877,0,0,0,4.554-6.33A11.605,11.605,0,0,0,40.3,7.7,6.562,6.562,0,0,1,40.6,4.343a3.85,3.85,0,0,1,1.382-1.4c.422-.306.917-.67.917-.932a.777.777,0,0,0-.51-.8c-.669-.174-1.848.35-2.706,1.7-.6.946-.524,2.241-.437,3.754.029.684.073,1.4.058,2.138a7.391,7.391,0,0,1-2.619,5.4,3.191,3.191,0,0,1-2.59.8c-2.576-.625-6.607-.305-10.492.015-4.118.335-7.989.64-10.652.014a15.593,15.593,0,0,1-4.219,5.689,3.814,3.814,0,0,1,.189.466,20.427,20.427,0,0,0,1.527,3.565,18.765,18.765,0,0,0,2.256,3.012,9.753,9.753,0,0,1,2.546,4.366.655.655,0,0,1-.029.378h.655a2.2,2.2,0,0,0,.537-1.019,14.738,14.738,0,0,0-.64-5.267,9.076,9.076,0,0,0-.64-1.63.578.578,0,0,1,.189-.8.591.591,0,0,1,.815.189,7.222,7.222,0,0,1,.625,1.484,75.742,75.742,0,0,0,11.874-.553,4.86,4.86,0,0,1-.757-1.5.591.591,0,0,1,.574-.733A.621.621,0,0,1,28.759,22.765Zm-1.979,3.55a9.2,9.2,0,0,1,1.3,2.066c.306,1.165-.567,3.478-.756,3.929a.45.45,0,0,1-.146.22h.757a12.848,12.848,0,0,0,2.022-3.3,21.549,21.549,0,0,0,.554-2.328c-.365-.335-.686-.64-.976-.931C28.992,26.069,28,26.2,26.78,26.315ZM9.129,29.167A11.885,11.885,0,0,1,8.11,32.325a.77.77,0,0,1-.174.2h.553a18.062,18.062,0,0,0,3.3-4.031c-.16-.2-.335-.422-.524-.67-.495-.625-1.076-1.367-1.586-2.111ZM5.52,21.4a.859.859,0,0,0,1.717,0,.859.859,0,1,0-1.717,0Zm6.054-7.407c-.029.029-1.805,3.74-3.944,5.224a.339.339,0,0,0,.392.554c2.285-1.572,4.09-5.326,4.163-5.486a.325.325,0,0,0-.16-.451.342.342,0,0,0-.155-.038A.318.318,0,0,0,11.574,13.991ZM6.757,11.75a.647.647,0,0,1-.262.378c-.2.13-1.994,1.339-2.066,2.9a1.554,1.554,0,0,1-.655,1.062c-.306.262-.436.408-.436.625.044.727.843,1.644,2.518,1.893a4.241,4.241,0,0,1,.872.231,17.425,17.425,0,0,0,3.842-4.991A6.655,6.655,0,0,1,9.886,13a9.865,9.865,0,0,0-2.822-2.735A8.023,8.023,0,0,0,6.757,11.75ZM5.7,14.543a.677.677,0,0,1,1.354,0,.677.677,0,1,1-1.354,0Z" transform="translate(1051.933 -99.865)" fill="#004480"/><path d="M41.336,34.6H.588a1.088,1.088,0,0,1,0-2.176H5.811A1.764,1.764,0,0,1,5.982,32a1.817,1.817,0,0,1,.785-.774,10.766,10.766,0,0,0,.691-2.237l.015-.074.775-4.8c-.138-.315-.275-.65-.416-1.018a2.15,2.15,0,0,1-1.468.564H6.35a3.033,3.033,0,0,1-.413-.039l-.061-.009-.032,0L5.812,23.6a2.694,2.694,0,0,1-.9-.463l0,0a2.245,2.245,0,0,1-.32-3.106A3.943,3.943,0,0,1,1.683,17a1.206,1.206,0,0,1-.33-.829,1.22,1.22,0,0,1,1.145-1.2c.063-.059.124-.111.18-.159.039-.033.073-.063.1-.089a5.908,5.908,0,0,1,2.43-3.741c.065-.264.173-.715.192-.883l0-.012a1.714,1.714,0,0,1,.872-1.318,1.671,1.671,0,0,1,.788-.2,1.563,1.563,0,0,1,.854.254,11.368,11.368,0,0,1,3.319,3.181c.1.145.2.277.306.406h.076a2.544,2.544,0,0,1,1.821.921q.041.051.075.1a16.508,16.508,0,0,0,3.394.281c2.034,0,4.421-.2,6.526-.374l.055,0c2.276-.182,4.629-.371,6.73-.371a18.254,18.254,0,0,1,4.232.4.637.637,0,0,0,.109.009,1.983,1.983,0,0,0,1.092-.48,5.776,5.776,0,0,0,1.979-4.131c.01-.538-.016-1.071-.041-1.587q-.009-.185-.018-.37l-.01-.216a7.433,7.433,0,0,1,.7-4.571A4.691,4.691,0,0,1,42.121-.5a2.677,2.677,0,0,1,.73.1,2.391,2.391,0,0,1,1.717,2.417A2.96,2.96,0,0,1,42.961,4.3a3.242,3.242,0,0,0-.838.745,2.594,2.594,0,0,0-.2.946l.156-.01-.159.053a12.75,12.75,0,0,0,.06,1.544,12.639,12.639,0,0,1,0,2.918,9.617,9.617,0,0,1-2.08,4.751,11.149,11.149,0,0,1-2.674,2.433,21.411,21.411,0,0,1-.406,5.692v.006a6.789,6.789,0,0,0,.26,3.107l0,.012.035.153a11.591,11.591,0,0,1,.236,1.21l0,.018c.068.841-.97,3.133-1.733,4.543h5.721a1.088,1.088,0,0,1,0,2.176ZM.588,33.419a.088.088,0,0,0-.088.088.089.089,0,0,0,.088.089H41.336a.089.089,0,0,0,.088-.089.088.088,0,0,0-.088-.088H33.845l.482-.766a16.556,16.556,0,0,0,2.025-4.689c-.037-.311-.12-.673-.216-1.092l-.034-.148a7.591,7.591,0,0,1-.263-3.578,18.931,18.931,0,0,0,.345-5.634l-.061-.346.3-.175a9.869,9.869,0,0,0,2.684-2.368,8.63,8.63,0,0,0,1.872-4.263v-.007a11.662,11.662,0,0,0,0-2.7c-.037-.469-.067-.9-.069-1.289l-.179.06c.005.39.034.8.064,1.211l0,.025a12.012,12.012,0,0,1,.01,2.669,9.331,9.331,0,0,1-4.836,6.714l-.02.009a.07.07,0,0,0-.037.087c.473,1.487-.028,5.035-.252,5.958a7.843,7.843,0,0,0,.271,3.689l.026.111a9.341,9.341,0,0,1,.208,1.05v.016a9.577,9.577,0,0,1-.841,2.379,16.388,16.388,0,0,1-1.334,2.5l-.15.187H31.757l.058.39h-3.69l.621-.805c.141-.183.3-.4.49-.676A11.158,11.158,0,0,0,30.6,29.451c.143-.413.324-1.218.448-1.787l.182-.836.639.569c.1.091.228.2.356.313.2.174.4.354.524.465l.2.189-.713,3.665-.138.114a.947.947,0,0,0-.373.583l0,.025a.351.351,0,0,0,0,.082l.648-.655a.193.193,0,0,0,.041-.08l.714-3.723a.154.154,0,0,0-.016-.056,5.54,5.54,0,0,0-1.028-.964l-.1-.081c-1.224-1.032-3.071-2.59-3.437-4.009a.121.121,0,0,0-.046-.067.108.108,0,0,0-.074-.009l-.012,0a.094.094,0,0,0-.052.109,4.39,4.39,0,0,0,.68,1.329l.473.673-.815.11a92.441,92.441,0,0,1-9.836.639c-.88,0-1.6-.028-2.154-.083l-.327-.033-.1-.313a6.881,6.881,0,0,0-.573-1.371.1.1,0,0,0-.08-.045.079.079,0,0,0-.043.013l-.028.016a.021.021,0,0,0-.01.013l-.005.029-.007.023a.061.061,0,0,0,.009.021l.009.014a9.528,9.528,0,0,1,.694,1.75,15.179,15.179,0,0,1,.652,5.5v.006a2.639,2.639,0,0,1-.656,1.257l-.149.165H14.5l.257-.678a.158.158,0,0,0,.01-.084A9.287,9.287,0,0,0,12.334,28.1l-.068-.078a18.784,18.784,0,0,1-2.244-3.011,20.771,20.771,0,0,1-1.569-3.655l-.007-.021a3.523,3.523,0,0,0-.165-.4l-.158-.347.292-.244a15.165,15.165,0,0,0,4.077-5.5l.153-.371-.01.021c-.1.221-1.916,4.017-4.323,5.677a.854.854,0,0,1-1.175-.2l0-.007a.822.822,0,0,1-.084-.153l-.6.227a1.36,1.36,0,0,1,1.285,1.283l.275-.681.442,1.242c.277.777.521,1.4.77,1.957l.061.136-.829,5.135c0,.017-.008.041-.015.072A11.682,11.682,0,0,1,7.6,31.806l-.08.173-.175.076a.892.892,0,0,0-.48.407l-.015.028a.785.785,0,0,0-.1.361l.87-.709a.258.258,0,0,0,.051-.058,11.415,11.415,0,0,0,.957-2.958l.008-.042L9.387,24.4l.708,1.033c.494.721,1.067,1.453,1.565,2.083l.005.007c.131.172.255.329.375.48l.145.184.213.272-.178.3a18.472,18.472,0,0,1-3.4,4.147l-.142.126H6.752l.007.39Zm29.532-1h.65a1.871,1.871,0,0,1,.558-.923l.539-2.772-.026-.023c-.1.41-.2.8-.3,1.08A11.771,11.771,0,0,1,30.12,32.419ZM9.4,21.04a19.858,19.858,0,0,0,1.483,3.466,17.935,17.935,0,0,0,2.135,2.859l.067.077a10.253,10.253,0,0,1,2.627,4.473,1.49,1.49,0,0,0,.214-.514,14.354,14.354,0,0,0-.629-5.034,8.827,8.827,0,0,0-.582-1.5,1.078,1.078,0,0,1,.357-1.5,1.079,1.079,0,0,1,.566-.16,1.092,1.092,0,0,1,.927.512l0,.008A6.933,6.933,0,0,1,17.139,25c.47.034,1.052.051,1.734.051,2.855,0,6.741-.29,8.928-.535a4.468,4.468,0,0,1-.4-.965l-.005-.021a1.093,1.093,0,0,1,.788-1.31,1.119,1.119,0,0,1,.814.106l.016.009a1.12,1.12,0,0,1,.5.647l.007.024c.277,1.11,2.124,2.667,3.116,3.5l.095.08A5.023,5.023,0,0,1,34,27.859l0,.006a1.11,1.11,0,0,1,.1.718L33.5,31.788a22.82,22.82,0,0,0,1.673-3.771c-.028-.224-.1-.533-.182-.889l-.024-.1a8.765,8.765,0,0,1-.272-4.156c.257-1.061.634-4.286.271-5.425a1.065,1.065,0,0,1,.591-1.306,8.392,8.392,0,0,0,4.264-5.94A11.182,11.182,0,0,0,39.8,7.746l0-.035,0-.063c.014.38.023.77.015,1.171A7.9,7.9,0,0,1,37,14.6a4.016,4.016,0,0,1-2.431.958,2.7,2.7,0,0,1-.577-.062l-.011,0a16.382,16.382,0,0,0-3.759-.343c-2.077,0-4.466.2-6.574.371-2.289.186-4.655.378-6.744.378a19.469,19.469,0,0,1-3.653-.288,16.158,16.158,0,0,1-3.911,5.254C9.363,20.924,9.384,20.982,9.4,21.04Zm.216,8.234,0,.022a12.253,12.253,0,0,1-.5,1.921,18.313,18.313,0,0,0,2.072-2.683c-.1-.125-.2-.256-.309-.4-.281-.356-.586-.743-.889-1.145ZM6.379,21.039a.359.359,0,0,0-.359.359.359.359,0,0,0,.717,0A.359.359,0,0,0,6.379,21.039ZM5.8,19.281H6.49a3.575,3.575,0,0,0-.7-.182,4.229,4.229,0,0,1-2.125-.881,2.152,2.152,0,0,1-.823-1.477v-.03a1.334,1.334,0,0,1,.607-1l.009-.008c.278-.249.461-.433.477-.706.085-1.811,2.039-3.124,2.291-3.286a.131.131,0,0,0,.046-.066,8,8,0,0,1,.342-1.585L6.8,9.631l-.055.027-.007,0a.731.731,0,0,0-.346.567c-.029.235-.135.684-.247,1.134l-.054.219-.15.107c-.491.352-2.1,1.627-2.177,3.27l-.005.11-.051.1a1.365,1.365,0,0,1-.383.412,2.164,2.164,0,0,0-.25.236l-.192.223-.288-.06a.17.17,0,0,0-.035,0,.2.2,0,0,0-.117.368l.2.137.017.24c.074,1.047,1.056,2.241,3.084,2.551A.537.537,0,0,1,5.8,19.281ZM3.839,16.716c.054.456.642,1.179,2.089,1.393a4.175,4.175,0,0,1,.679.157,17.215,17.215,0,0,0,3.365-4.332c-.163-.191-.321-.4-.492-.641a9.355,9.355,0,0,0-2.112-2.2c-.043.218-.085.469-.115.718l0,.037-.01.036a1.145,1.145,0,0,1-.466.661l-.009.006c-.018.011-1.773,1.148-1.836,2.5a2,2,0,0,1-.808,1.4l-.021.019A1.664,1.664,0,0,0,3.839,16.716Zm5.086.536c-.207.248-.414.484-.614.7Q8.615,17.637,8.926,17.252Zm3.73-2.8.414.1a17.1,17.1,0,0,0,3.835.349c2.048,0,4.394-.191,6.662-.375,2.127-.175,4.538-.374,6.656-.374a17.347,17.347,0,0,1,3.989.37,1.7,1.7,0,0,0,.358.037,3.041,3.041,0,0,0,1.812-.744A6.859,6.859,0,0,0,38.81,8.8c.011-.58-.015-1.154-.041-1.71v0l-.179.06c.026.531.053,1.079.042,1.648V8.8a6.83,6.83,0,0,1-2.356,4.886l-.007.005a2.884,2.884,0,0,1-1.708.692,1.627,1.627,0,0,1-.309-.029l-.024-.005a17.257,17.257,0,0,0-4.008-.373c-2.061,0-4.394.187-6.65.367l-.054,0c-2.123.177-4.532.377-6.608.377a16.514,16.514,0,0,1-3.854-.361l-.266-.065-.068-.2A.846.846,0,0,1,12.656,14.454ZM6.941,9.586l.4.262a10.3,10.3,0,0,1,2.951,2.857l0,0a6.163,6.163,0,0,0,.631.781l.227.227a.819.819,0,0,1,.255-.282l-.283.046-.183-.221c-.177-.214-.34-.426-.514-.666A10.338,10.338,0,0,0,7.374,9.667.57.57,0,0,0,6.941,9.586ZM42.121.5a3.85,3.85,0,0,0-3.015,2.057A6.063,6.063,0,0,0,38.541,6.2l.182-.011a5.924,5.924,0,0,1,.541-3.537A3.792,3.792,0,0,1,42.125.681a1.57,1.57,0,0,1,.394.048l.027.008A1.258,1.258,0,0,1,43.4,2.014c0,.484-.466.859-1.124,1.336l-.074.054A3.258,3.258,0,0,0,41.06,4.548l-.006.012a3.684,3.684,0,0,0-.319,1.5l.18-.011a3.639,3.639,0,0,1,.3-1.424,3.451,3.451,0,0,1,1.165-1.142c.7-.5,1.19-.892,1.19-1.472A1.391,1.391,0,0,0,42.575.559,1.676,1.676,0,0,0,42.121.5Zm0,1.181a2.857,2.857,0,0,0-2.016,1.5,5.2,5.2,0,0,0-.388,2.941h.01a4.69,4.69,0,0,1,.421-1.995A4.109,4.109,0,0,1,41.618,2.6l.074-.054a4.569,4.569,0,0,0,.71-.587c-.014-.2-.1-.243-.147-.26A.6.6,0,0,0,42.125,1.681ZM26.164,33.419H16.133l.51-.775a2.986,2.986,0,0,0,.435-1.022,14.022,14.022,0,0,0-.46-4.825l-.16-.656.674.038c.5.028,1.085.042,1.746.042,1.817,0,4.174-.105,6.465-.289l.221-.018.162.152a.653.653,0,0,1,.125.166c1.45,1.848,1.536,2.171,1.572,2.31a7.925,7.925,0,0,1-.671,3.349l-.05.13-.11.086a1.187,1.187,0,0,0-.486.646l.738-.6.013-.036a8.112,8.112,0,0,0,.734-3.608,8.2,8.2,0,0,0-1.209-1.89l-.547-.716.9-.085c1.119-.105,2.13-.233,2.7-.342l.26-.049.187.187c.273.273.587.573.961.916l.2.188L31,26.991a23.229,23.229,0,0,1-.576,2.406,13.359,13.359,0,0,1-2.115,3.462l-.149.172H26.122Zm-8.285-1h7.278a2.171,2.171,0,0,1,.706-1.007,7.465,7.465,0,0,0,.594-2.606,11.688,11.688,0,0,0-1.315-1.854c-2.228.172-4.5.27-6.265.27-.408,0-.79-.005-1.141-.016a13.486,13.486,0,0,1,.324,4.6A3.384,3.384,0,0,1,17.88,32.419Zm9.821-5.7a5.824,5.824,0,0,1,.857,1.527,6.537,6.537,0,0,1-.373,3.127,10.6,10.6,0,0,0,1.3-2.317,18.7,18.7,0,0,0,.482-1.984c-.219-.2-.418-.393-.6-.571C28.929,26.576,28.35,26.652,27.7,26.724Zm-13.5,6.7H8.575l.867-.856a19.289,19.289,0,0,0,2.714-3.386l.372-.589.439.542a7.706,7.706,0,0,1,1.516,2.8l.079.264-.182.208a.717.717,0,0,0-.192.5Zm-3.244-1h2.3a1.714,1.714,0,0,1,.2-.434,6.305,6.305,0,0,0-.843-1.676A20.588,20.588,0,0,1,10.958,32.419ZM6.371,15.727a1.177,1.177,0,0,1,0-2.354,1.164,1.164,0,0,1,1.184,1.17A1.185,1.185,0,0,1,6.371,15.727Zm0-1.354a.168.168,0,0,0-.17.17.182.182,0,0,0,.17.184.184.184,0,0,0,.184-.184A.172.172,0,0,0,6.371,14.374Z" transform="translate(1051.933 -99.865)" fill="rgba(0,0,0,0)"/></g></svg>