<svg xmlns="http://www.w3.org/2000/svg" width="14.001" height="14.04" viewBox="0 0 14.001 14.04"><g transform="translate(234.459 35.5)"><path d="M4.55,13.04c-.08-.007-.16-.018-.24-.02a7.191,7.191,0,0,1-1.552-.159A3.336,3.336,0,0,1,.414,10.984,4.658,4.658,0,0,1,.023,9C.007,7.6,0,6.2,0,4.792A9.023,9.023,0,0,1,.149,2.88,3.352,3.352,0,0,1,2.045.433,4.749,4.749,0,0,1,4,.037c1.8-.042,3.6-.064,5.393.023A4.148,4.148,0,0,1,10.906.4a3.4,3.4,0,0,1,2.016,2.768c.035.225.052.453.078.68V9.1c-.007.045-.016.09-.022.136-.028.256-.04.515-.084.769a3.457,3.457,0,0,1-1.115,2.084,3.847,3.847,0,0,1-2.387.905c-.308.021-.616.034-.924.05ZM4.919,1.2a11.745,11.745,0,0,0-1.736.113,2.108,2.108,0,0,0-1.85,1.718A6.822,6.822,0,0,0,1.2,4.386Q1.16,5.969,1.177,7.554c.007.725.028,1.452.1,2.172a2.159,2.159,0,0,0,1.039,1.707,2.77,2.77,0,0,0,1.382.383c.936.034,1.873.05,2.81.073v-.02c.343,0,.688.01,1.031,0,.741-.026,1.488-.017,2.22-.11a2.123,2.123,0,0,0,1.925-1.7,5.608,5.608,0,0,0,.139-1.234q.032-1.972.019-3.945A12.938,12.938,0,0,0,11.747,3.3,2.17,2.17,0,0,0,9.923,1.333a7.513,7.513,0,0,0-1.364-.122Q7.5,1.2,6.441,1.195,5.68,1.195,4.919,1.2ZM6.5,9.873a3.332,3.332,0,1,1,.023,0ZM4.339,6.526A2.169,2.169,0,1,0,6.5,4.355,2.163,2.163,0,0,0,4.339,6.526Zm5.639-2.7a.781.781,0,1,1,.008,0Z" transform="translate(-233.959 -35)" fill="#fff"/><path d="M8.482,13.54l-3.977,0-.075-.007c-.049,0-.095-.01-.132-.011a7.59,7.59,0,0,1-1.66-.174A3.825,3.825,0,0,1-.038,11.2a5.086,5.086,0,0,1-.439-2.19C-.49,7.848-.5,6.321-.5,4.79A9.476,9.476,0,0,1-.34,2.773,3.842,3.842,0,0,1,1.83-.019,5.323,5.323,0,0,1,3.986-.463C4.719-.48,5.687-.5,6.676-.5s1.9.02,2.739.061a4.6,4.6,0,0,1,1.7.388,3.887,3.887,0,0,1,2.3,3.147c.025.163.042.324.058.479.007.073.015.147.023.22l0,.028V9.135l-.006.039-.008.05c0,.022-.008.043-.01.065-.009.078-.016.161-.023.243-.016.178-.032.362-.064.551a3.96,3.96,0,0,1-1.276,2.375,4.326,4.326,0,0,1-2.685,1.03c-.228.015-.457.027-.679.038l-.253.013Zm-3.908-1H8.456l.242-.012c.218-.011.443-.022.662-.037a3.325,3.325,0,0,0,2.089-.781A2.947,2.947,0,0,0,12.4,9.917c.026-.15.039-.307.054-.472.008-.089.016-.179.026-.267.005-.044.012-.084.019-.123h0V3.879c-.008-.068-.015-.136-.021-.2-.015-.149-.029-.29-.051-.427A2.905,2.905,0,0,0,10.7.86,3.624,3.624,0,0,0,9.366.56C8.539.52,7.659.5,6.676.5S4.737.52,4.01.537a4.192,4.192,0,0,0-1.75.348,2.851,2.851,0,0,0-1.622,2.1A8.7,8.7,0,0,0,.5,4.794C.5,6.318.51,7.841.522,9A4.137,4.137,0,0,0,.866,10.77a2.832,2.832,0,0,0,2.012,1.606,6.76,6.76,0,0,0,1.445.145c.076,0,.148.009.211.016Zm2.41-.139-.49-.012-.841-.02c-.647-.014-1.315-.029-1.974-.054a3.234,3.234,0,0,1-1.628-.458A2.654,2.654,0,0,1,.777,9.773C.7,8.982.684,8.21.677,7.559.666,6.5.672,5.431.7,4.374A7.3,7.3,0,0,1,.845,2.925,2.607,2.607,0,0,1,3.1.824,12.137,12.137,0,0,1,4.913.7C5.406.7,5.92.695,6.441.695c.681,0,1.376.005,2.124.016a8.094,8.094,0,0,1,1.456.132,2.661,2.661,0,0,1,2.221,2.4,13.363,13.363,0,0,1,.1,1.633c.008,1.352,0,2.683-.019,3.955a5.988,5.988,0,0,1-.154,1.345A2.619,2.619,0,0,1,9.82,12.253a16.56,16.56,0,0,1-1.7.1c-.186,0-.378.009-.565.015-.124,0-.257.007-.418.007H6.985ZM6.441,1.695c-.517,0-1.027,0-1.515.009a11.318,11.318,0,0,0-1.662.107A1.6,1.6,0,0,0,1.821,3.145,6.394,6.394,0,0,0,1.7,4.4c-.024,1.046-.03,2.106-.019,3.152.006.631.022,1.376.095,2.129a1.667,1.667,0,0,0,.8,1.33,2.267,2.267,0,0,0,1.138.309c.652.024,1.317.039,1.96.053l.354.008v-.008h.478c.21,0,.42,0,.63,0,.148,0,.27,0,.382-.006.194-.007.389-.011.578-.016a15.575,15.575,0,0,0,1.6-.09,1.636,1.636,0,0,0,1.5-1.326,5.1,5.1,0,0,0,.125-1.123c.021-1.265.027-2.588.019-3.933a12.388,12.388,0,0,0-.09-1.513q0-.034-.009-.067A1.285,1.285,0,0,1,9.987,4.325H9.973a1.262,1.262,0,0,1-.342-.05,3.775,3.775,0,0,1,.723,2.273A3.865,3.865,0,0,1,9.219,9.254a3.79,3.79,0,0,1-2.7,1.119H6.5A3.844,3.844,0,0,1,3.765,9.222,3.8,3.8,0,0,1,2.66,6.511,3.857,3.857,0,0,1,6.493,2.678h.034a3.856,3.856,0,0,1,2.233.729A1.277,1.277,0,0,1,9.695,1.8,7.668,7.668,0,0,0,8.55,1.71C7.807,1.7,7.117,1.695,6.441,1.695Zm.052,1.983A2.854,2.854,0,0,0,3.66,6.518a2.8,2.8,0,0,0,.817,2A2.851,2.851,0,0,0,6.5,9.373h.02A2.86,2.86,0,0,0,9.354,6.537a2.791,2.791,0,0,0-.806-2,2.86,2.86,0,0,0-2.031-.862Zm.015,5.516h0a2.669,2.669,0,0,1,0-5.339h0a2.669,2.669,0,1,1,0,5.339Zm0-4.839v.5a1.664,1.664,0,1,0,1.187.49A1.672,1.672,0,0,0,6.5,4.855Z" transform="translate(-233.959 -35)" fill="rgba(0,0,0,0)"/></g></svg>