<svg xmlns="http://www.w3.org/2000/svg" width="17" height="17" viewBox="0 0 17 17"><g transform="translate(62 -1325)"><rect width="17" height="17" transform="translate(-62 1325)" fill="rgba(255,255,255,0)"/><path d="M10.13,11.344l-.273-.352a7.516,7.516,0,0,0,1.8-.87l.021.024a.977.977,0,1,1-1.543,1.2Zm-6.712.173a.977.977,0,0,1-.173-1.371l.029-.038a7.529,7.529,0,0,0,1.795.877l-.28.359a.977.977,0,0,1-1.371.173Zm9.633-1.6-.772-.771-.729-.73q-.248.207-.518.389a6.337,6.337,0,0,1-1.814.846A6.368,6.368,0,0,1,3.9,8.789a6.1,6.1,0,0,1-.5-.376l-1.5,1.5A1.111,1.111,0,0,1,.326,8.343L1.169,7.5l.792-.792a6.327,6.327,0,0,1-.85-3.179q0-.285.025-.562a8.253,8.253,0,0,1,12.674,0q.026.278.025.563a6.333,6.333,0,0,1-.85,3.178l.794.794.842.843a1.111,1.111,0,1,1-1.571,1.571Z" transform="translate(-61 1328)" fill="#fff"/><path d="M10.9,12.222a1.465,1.465,0,0,1-1.168-.573l-.706-.911.673-.221A7.016,7.016,0,0,0,11.378,9.7l.369-.244.322.379A1.477,1.477,0,0,1,10.9,12.222Zm-.17-1.031a.481.481,0,0,0,.17.031.467.467,0,0,0,.29-.1.474.474,0,0,0,.166-.24Q11.052,11.051,10.733,11.191ZM4.017,12.222a1.487,1.487,0,0,1-.9-.31A1.477,1.477,0,0,1,2.85,9.84l.311-.408.391.26a7.026,7.026,0,0,0,1.675.818l.671.224-.715.917A1.47,1.47,0,0,1,4.017,12.222Zm-.461-1.358a.477.477,0,0,0,.461.358.477.477,0,0,0,.185-.037Q3.871,11.039,3.555,10.864Zm10.28-.124a1.6,1.6,0,0,1-1.138-.472l-1.19-1.189q-.1.07-.195.137a6.824,6.824,0,0,1-1.958.913,6.891,6.891,0,0,1-3.786-.008A6.829,6.829,0,0,1,3.614,9.2q-.088-.06-.175-.123L2.251,10.268a1.61,1.61,0,0,1-2.278,0,1.61,1.61,0,0,1,0-2.279L1.344,6.617A6.865,6.865,0,0,1,.611,3.528c0-.207.009-.412.027-.608l.014-.155.1-.12a8.753,8.753,0,0,1,13.441,0l.1.12.014.155c.018.2.027.4.027.608A6.869,6.869,0,0,1,13.6,6.616L14.975,7.99a1.612,1.612,0,0,1-1.14,2.75Zm-2.255-3L13.4,9.561a.611.611,0,1,0,.864-.863L12.361,6.788l.192-.332a5.861,5.861,0,0,0,.783-2.928c0-.123,0-.244-.011-.362a7.753,7.753,0,0,0-11.7,0c-.007.118-.011.239-.011.362a5.854,5.854,0,0,0,.782,2.928l.192.332L.68,8.7a.611.611,0,1,0,.864.864L3.369,7.735l.351.3a5.631,5.631,0,0,0,.456.345,5.858,5.858,0,0,0,3.3,1.014,5.881,5.881,0,0,0,1.608-.223,5.823,5.823,0,0,0,1.671-.779c.166-.113.327-.234.478-.359Z" transform="translate(-61 1328)" fill="rgba(0,0,0,0)"/></g></svg>