<svg xmlns="http://www.w3.org/2000/svg" width="29.958" height="30" viewBox="0 0 29.958 30"><path d="M815.3,3510.6a15.023,15.023,0,0,1-3.929-.922,27.527,27.527,0,0,1-7.885-4.665,33.93,33.93,0,0,1-8.259-9.73,19.724,19.724,0,0,1-2.322-6.291,2.488,2.488,0,0,1,.3-1.85,24.692,24.692,0,0,1,4.949-5.875c.128-.106.267-.2.4-.293a1.7,1.7,0,0,1,2.322.2,1.454,1.454,0,0,1,.255.271,38.493,38.493,0,0,1,3.709,6.1,8.492,8.492,0,0,1,.357,1,1.478,1.478,0,0,1-.321,1.517c-.491.52-1.03,1-1.568,1.47-.678.595-.7.588-.343,1.422a13.68,13.68,0,0,0,7.888,7.649.551.551,0,0,0,.756-.191c.418-.534.876-1.035,1.328-1.538a1.883,1.883,0,0,1,2.367-.536c.995.468,2,.933,2.941,1.5,1.231.735,2.41,1.563,3.6,2.36a2.23,2.23,0,0,1,.9,1.31,1.167,1.167,0,0,1-.113.964,6.78,6.78,0,0,1-.666.975,23.66,23.66,0,0,1-5.941,4.864A4.323,4.323,0,0,1,815.3,3510.6Z" transform="translate(-792.851 -3480.602)" fill="#fff"/></svg>