<svg xmlns="http://www.w3.org/2000/svg" width="40" height="40" viewBox="0 0 40 40"><path d="M220.254,77.417c.764-1.054,1.391-1.954,1.78-2.521a18.951,18.951,0,0,0-.568-2.5c-.809,1.01-1.673,2.117-2.588,3.228-.948-1.2-1.934-2.386-2.853-3.354-3.307-3.484-7.263-4.665-10.749-.945-1.336,1.427-3,3.575-4.811,5.658-.2-.215-.4-.429-.614-.654-1.5-1.571-2.585-2.864-3.475-3.9v-.114h-.1c-1.787-2.077-2.754-3.069-4.556-3.069-1.248,0-2.975,1.375-4.63,3.069-.1.107-.207.212-.31.321-.96,1.011-1.883,2.107-2.662,3.082a19.325,19.325,0,0,0-.124,2.153c0,.349.011.694.029,1.038.832-1.094,1.7-2.164,2.54-3.089l-.358,5.274c-.741-.515-1.463-1.083-2.142-1.66a19.032,19.032,0,0,0,1.284,5.5,9.679,9.679,0,0,0,5.814,1.86c4.571-.287,5.106-1.9,9.31-6.39,1.4,1.737,2.684,3.408,3.748,4.544,3.484,3.72,7.44,2.539,10.748-.946a57.584,57.584,0,0,0,3.862-4.659c.988,1.136,1.924,2.31,2.8,3.416a19.1,19.1,0,0,0,.51-2.745C221.612,79.266,220.965,78.368,220.254,77.417Zm-33.027-2.3a14.582,14.582,0,0,1,1.379-1.256l-.236,8.527a15.824,15.824,0,0,1-1.575-.9Zm2.007-1.693a3.329,3.329,0,0,1,.872-.4,3.586,3.586,0,0,1,.389-.073v10.2a8.2,8.2,0,0,1-1.517-.485Zm1.928,9.829-.051-.006V72.912a4.43,4.43,0,0,1,1.139.194V83.2A4.437,4.437,0,0,1,191.162,83.25Zm1.7-9.925A8.145,8.145,0,0,1,194,73.93v8.693a7.077,7.077,0,0,1-1.139.436Zm1.755,1.021q.569.412,1.138.908v6.287a12.525,12.525,0,0,1-1.138.751Zm1.754,6.722v-5.25a36.864,36.864,0,0,1,2.612,2.792A27.5,27.5,0,0,1,196.375,81.067Zm5.677-2.354c.845-.92,1.577-1.743,2.233-2.455v4.858C203.621,80.453,202.9,79.651,202.052,78.714ZM204.9,75.6a15.725,15.725,0,0,1,1.6-1.5v8.746a7.215,7.215,0,0,1-1.6-1.145Zm2.214,7.491V73.668a4.2,4.2,0,0,1,1.6-.616V83.239A3.954,3.954,0,0,1,207.114,83.092Zm2.214-10.084a4.74,4.74,0,0,1,.907.085c.076.015.153.035.229.053v9.659a8.321,8.321,0,0,1-1.136.336Zm1.751.3a9.507,9.507,0,0,1,1.549.649v7.725a11.93,11.93,0,0,1-1.549.862Zm2.164.993a14.72,14.72,0,0,1,1.342.913v4.967c-.44.384-.887.746-1.342,1.076Zm1.957,5.323V75.708a25.57,25.57,0,0,1,2,1.863C216.557,78.29,215.888,78.985,215.2,79.629Z" transform="translate(-183.13 -57.867)" fill="#004480"/><path d="M203.11,97.614a20,20,0,1,1,20-20A20.022,20.022,0,0,1,203.11,97.614Zm0-38.269a18.269,18.269,0,1,0,18.269,18.269A18.29,18.29,0,0,0,203.11,59.345Z" transform="translate(-183.11 -57.614)" fill="#004480"/></svg>