<svg xmlns="http://www.w3.org/2000/svg" width="51" height="51.118" viewBox="0 0 51 51.118"><g transform="translate(-1155.5 -870.5)"><path d="M3.927,45.628A13.644,13.644,0,0,1,3.191,27.3c3.336-3.866,7.346-7.15,11.127-10.758L33.956,36.207c-3.994,3.8-7.777,8.031-12.2,11.435a12.157,12.157,0,0,1-7.477,2.476A14.387,14.387,0,0,1,3.927,45.628ZM16.017,13.961c4.1-3.854,7.952-8.173,12.5-11.563C34.06-1.739,41.738-.3,46.448,4.976c4.475,5.006,4.854,12.888.381,17.96-3.385,3.837-7.332,7.175-11.044,10.75Zm9.734-4.009c-.346.455-.132,1.336-.176,2.02.75-.18,1.783-.107,2.206-.58,3.286-3.663,6.865-5.95,11.946-3.483.418.2,1.192-.33,1.8-.523-.246-.577-.34-1.471-.765-1.67a40.887,40.887,0,0,0-4.038-1.535A13.454,13.454,0,0,0,25.752,9.951Z" transform="translate(1156 871)" fill="#d1e8ff"/><path d="M14.28,50.618A14.865,14.865,0,0,1-.483,36.583a13.613,13.613,0,0,1,3.295-9.611,90.135,90.135,0,0,1,7.634-7.53c1.163-1.059,2.365-2.154,3.526-3.262l.354-.337L34.672,36.216l-.371.353c-1.216,1.157-2.437,2.378-3.618,3.56a90.835,90.835,0,0,1-8.62,7.909A12.622,12.622,0,0,1,14.28,50.618Zm.028-33.378c-1.058,1-2.139,1.986-3.189,2.942a89.391,89.391,0,0,0-7.55,7.444A12.618,12.618,0,0,0,.516,36.534,13.872,13.872,0,0,0,14.28,49.618v0a11.631,11.631,0,0,0,7.172-2.373,90.087,90.087,0,0,0,8.522-7.823c1.066-1.066,2.165-2.165,3.266-3.223ZM35.779,34.385,15.3,13.95l.376-.354c1.248-1.173,2.5-2.414,3.707-3.614A84.979,84.979,0,0,1,28.217,2,12.54,12.54,0,0,1,35.773-.5,14.252,14.252,0,0,1,41.712.839a15.634,15.634,0,0,1,5.109,3.8,14.564,14.564,0,0,1,3.673,9.274,13.453,13.453,0,0,1-3.29,9.35,106.284,106.284,0,0,1-7.6,7.522c-1.146,1.06-2.331,2.157-3.473,3.257ZM16.735,13.971,35.792,32.986c1.038-.992,2.1-1.976,3.134-2.931a105.533,105.533,0,0,0,7.528-7.45,12.457,12.457,0,0,0,3.04-8.659,13.563,13.563,0,0,0-3.419-8.637,14.844,14.844,0,0,0-4.784-3.563A13.246,13.246,0,0,0,35.773.5a11.547,11.547,0,0,0-6.959,2.3,84.229,84.229,0,0,0-8.729,7.894C18.993,11.777,17.867,12.9,16.735,13.971Zm8.3-1.354.044-.677a5.8,5.8,0,0,0-.01-.629,2.478,2.478,0,0,1,.287-1.661,15.2,15.2,0,0,1,4.621-4.188,14.572,14.572,0,0,1,6.731-1.78l.1,0,.092.034c.2.071.437.153.716.248a31.314,31.314,0,0,1,3.366,1.3c.494.232.664.814.829,1.376a5.272,5.272,0,0,0,.182.55L42.2,7.7l-.525.166a5.389,5.389,0,0,0-.555.229,3.066,3.066,0,0,1-1.179.362.992.992,0,0,1-.437-.1,8.725,8.725,0,0,0-3.842-.979c-2.5,0-4.817,1.34-7.513,4.346a2.667,2.667,0,0,1-1.75.623,6.452,6.452,0,0,0-.711.11ZM36.649,4.684a12.957,12.957,0,0,0-10.5,5.569,2.09,2.09,0,0,0-.085,1.007q0,.06.006.12l.214-.026a2.3,2.3,0,0,0,1.123-.3c1.955-2.179,4.659-4.679,8.258-4.679a9.823,9.823,0,0,1,4.267,1.074h.011a2.729,2.729,0,0,0,.766-.273L40.9,7.1c-.018-.059-.035-.117-.052-.175a2.444,2.444,0,0,0-.3-.755,30.527,30.527,0,0,0-3.256-1.26C37.048,4.823,36.834,4.75,36.649,4.684Z" transform="translate(1156 871)" fill="rgba(0,0,0,0)"/></g></svg>