<svg xmlns="http://www.w3.org/2000/svg" width="12.421" height="12.416" viewBox="0 0 12.421 12.416"><g transform="translate(178.397 -1327.686)"><path d="M4.6,11.346A5.485,5.485,0,0,1,1.156,2.564a.246.246,0,0,1,.365-.018L8.87,9.894a.248.248,0,0,1-.018.366,5.455,5.455,0,0,1-3.366,1.156A5.711,5.711,0,0,1,4.6,11.346ZM9.935,8.6,2.813,1.481a.353.353,0,0,1,.04-.538,5.491,5.491,0,0,1,6.14-.01,5.308,5.308,0,0,1,.87.73,5.473,5.473,0,0,1,.611,6.9.34.34,0,0,1-.282.145A.361.361,0,0,1,9.935,8.6Z" transform="translate(-177.896 1328.186)" fill="#fff"/><path d="M5.485,11.916a6.237,6.237,0,0,1-.964-.076A5.985,5.985,0,0,1,.761,2.257a.731.731,0,0,1,.583-.283.753.753,0,0,1,.532.221L9.223,9.54a.75.75,0,0,1,.217.575.74.74,0,0,1-.28.538A5.92,5.92,0,0,1,5.485,11.916ZM1.376,3.108a4.985,4.985,0,0,0,3.3,7.744,5.231,5.231,0,0,0,.808.064v0a4.924,4.924,0,0,0,2.823-.877Zm8.815,6.1h0a.856.856,0,0,1-.609-.252L2.459,1.835a.86.86,0,0,1-.248-.692A.833.833,0,0,1,2.571.529a5.991,5.991,0,0,1,6.7-.01,5.814,5.814,0,0,1,.951.8,5.973,5.973,0,0,1,.663,7.53A.843.843,0,0,1,10.191,9.209Zm-6.9-7.956,6.872,6.872A4.975,4.975,0,0,0,9.5,2.012a4.825,4.825,0,0,0-.791-.664,4.994,4.994,0,0,0-5.422-.1Z" transform="translate(-177.896 1328.186)" fill="rgba(0,0,0,0)"/></g></svg>