<svg xmlns="http://www.w3.org/2000/svg" width="17.125" height="18" viewBox="0 0 17.125 18"><g transform="translate(140.062 -1324.5)"><rect width="17" height="17" transform="translate(-140 1325)" fill="rgba(255,255,255,0)"/><path d="M.268,13.273A3.727,3.727,0,1,1,4,17,3.732,3.732,0,0,1,.268,13.273Zm1.493,0c0,.287.14.521.311.521h1.4v1.4c0,.172.234.31.522.31s.522-.139.522-.31v-1.4h1.4c.171,0,.31-.234.31-.521s-.14-.524-.31-.524h-1.4v-1.4c0-.171-.234-.31-.522-.31s-.522.14-.522.31v1.4h-1.4C1.9,12.75,1.761,12.984,1.761,13.274ZM8.67,8.288A3.727,3.727,0,1,1,12.4,12.015,3.731,3.731,0,0,1,8.67,8.288Zm1.493,0c0,.287.139.522.31.522h1.4v1.4c0,.171.235.31.523.31s.522-.14.522-.31V8.81h1.4c.171,0,.31-.235.31-.522s-.14-.523-.31-.523h-1.4v-1.4c0-.172-.234-.31-.522-.31s-.523.139-.523.31v1.4h-1.4C10.3,7.765,10.163,8,10.163,8.288ZM0,3.727A3.727,3.727,0,1,1,3.727,7.455,3.732,3.732,0,0,1,0,3.727Zm1.493,0c0,.288.14.522.31.522H3.2v1.4c0,.171.234.31.522.31s.523-.14.523-.31v-1.4h1.4c.171,0,.31-.234.31-.522s-.14-.522-.31-.522h-1.4V1.8c0-.171-.235-.31-.523-.31s-.522.14-.522.31v1.4H1.8C1.633,3.205,1.493,3.439,1.493,3.727Z" transform="translate(-139.562 1325)" fill="#fff"/><path d="M4,17.5a4.227,4.227,0,1,1,4.227-4.227A4.232,4.232,0,0,1,4,17.5Zm0-7.455a3.227,3.227,0,1,0,3.227,3.227A3.231,3.231,0,0,0,4,10.045Zm0,5.962a.914.914,0,0,1-1.022-.81v-.9h-.9a.913.913,0,0,1-.811-1.021.915.915,0,0,1,.811-1.024h.9v-.9A.914.914,0,0,1,4,10.538a.914.914,0,0,1,1.022.81v.9h.9a.915.915,0,0,1,.81,1.024.913.913,0,0,1-.81,1.021h-.9v.9A.914.914,0,0,1,4,16.007Zm-.022-1h.044V13.295H5.728c0-.007,0-.014,0-.021s0-.016,0-.024H4.017V11.539H3.973V13.25H2.262c0,.008,0,.016,0,.024s0,.014,0,.021H3.973ZM12.4,12.515a4.227,4.227,0,1,1,4.227-4.227A4.232,4.232,0,0,1,12.4,12.515Zm0-7.455a3.227,3.227,0,1,0,3.227,3.227A3.231,3.231,0,0,0,12.4,5.061Zm0,5.961a.914.914,0,0,1-1.023-.81v-.9h-.9a.914.914,0,0,1-.81-1.022.914.914,0,0,1,.81-1.023h.9v-.9a.914.914,0,0,1,1.023-.81.914.914,0,0,1,1.022.81v.9h.9a.914.914,0,0,1,.81,1.023.914.914,0,0,1-.81,1.022h-.9v.9A.914.914,0,0,1,12.4,11.021Zm-.023-1h.045V8.31H14.13c0-.007,0-.014,0-.022s0-.016,0-.023H12.419V6.554h-.045V8.265H10.664c0,.007,0,.015,0,.023s0,.015,0,.022h1.711ZM3.727,7.955A4.227,4.227,0,1,1,7.955,3.727,4.232,4.232,0,0,1,3.727,7.955ZM3.727.5A3.227,3.227,0,1,0,6.955,3.727,3.231,3.231,0,0,0,3.727.5Zm0,5.962A.914.914,0,0,1,2.7,5.651v-.9H1.8a.914.914,0,0,1-.81-1.022A.914.914,0,0,1,1.8,2.705h.9V1.8A.914.914,0,0,1,3.726.993a.914.914,0,0,1,1.023.81v.9h.9a.914.914,0,0,1,.81,1.022.914.914,0,0,1-.81,1.022h-.9v.9A.914.914,0,0,1,3.726,6.462Zm-.022-1h.045V3.749H5.461c0-.007,0-.014,0-.022s0-.015,0-.022H3.749V1.994H3.7V3.705H1.994c0,.007,0,.014,0,.022s0,.015,0,.022H3.7Z" transform="translate(-139.562 1325)" fill="rgba(0,0,0,0)"/></g></svg>