<svg xmlns="http://www.w3.org/2000/svg" width="17" height="17.564" viewBox="0 0 17 17.564"><g transform="translate(96 -1283.718)"><rect width="17" height="17" transform="translate(-96 1284)" fill="rgba(255,255,255,0)"/><path d="M4.084,12.222a4.342,4.342,0,1,1,4.343,4.343A4.342,4.342,0,0,1,4.084,12.222ZM0,2.845A2.845,2.845,0,1,1,2.845,5.691,2.845,2.845,0,0,1,0,2.845ZM8.079,3.913a1.6,1.6,0,1,1,1.6,1.6A1.6,1.6,0,0,1,8.079,3.913Z" transform="translate(-94 1284.218)" fill="#fff"/><path d="M8.427,17.065a4.842,4.842,0,1,1,4.842-4.843A4.848,4.848,0,0,1,8.427,17.065Zm0-8.684a3.842,3.842,0,1,0,3.842,3.842A3.846,3.846,0,0,0,8.427,8.38ZM2.845,6.191A3.345,3.345,0,1,1,6.191,2.845,3.349,3.349,0,0,1,2.845,6.191ZM2.845.5A2.345,2.345,0,1,0,5.191,2.845,2.348,2.348,0,0,0,2.845.5ZM9.682,6.015a2.1,2.1,0,1,1,2.1-2.1A2.1,2.1,0,0,1,9.682,6.015Zm0-3.2a1.1,1.1,0,1,0,1.1,1.1A1.1,1.1,0,0,0,9.682,2.811Z" transform="translate(-94 1284.218)" fill="rgba(0,0,0,0)"/></g></svg>