<svg xmlns="http://www.w3.org/2000/svg" width="15.959" height="16.771" viewBox="0 0 15.959 16.771"><g transform="translate(139.473 -1325.508)"><path d="M.248,12.313a3.458,3.458,0,1,1,3.458,3.458A3.462,3.462,0,0,1,.248,12.313Zm1.385,0c0,.266.13.483.289.483h1.3v1.3c0,.159.217.288.484.288s.484-.129.484-.288V12.8h1.3c.158,0,.288-.217.288-.483s-.13-.486-.288-.486H4.19v-1.3c0-.158-.217-.288-.484-.288s-.484.13-.484.288v1.3h-1.3C1.763,11.828,1.634,12.046,1.634,12.314Zm6.41-4.625A3.458,3.458,0,1,1,11.5,11.147,3.461,3.461,0,0,1,8.043,7.689Zm1.385,0c0,.266.129.484.288.484h1.3v1.3c0,.158.218.288.485.288s.484-.13.484-.288v-1.3h1.3c.158,0,.288-.218.288-.484s-.13-.485-.288-.485h-1.3V5.9c0-.159-.217-.288-.484-.288s-.485.129-.485.288V7.2h-1.3C9.557,7.2,9.428,7.421,9.428,7.689ZM0,3.458A3.458,3.458,0,1,1,3.458,6.916,3.462,3.462,0,0,1,0,3.458Zm1.385,0c0,.267.13.484.288.484h1.3v1.3c0,.158.217.288.484.288s.485-.13.485-.288v-1.3h1.3c.158,0,.288-.217.288-.484s-.13-.484-.288-.484h-1.3v-1.3c0-.158-.218-.288-.485-.288s-.484.13-.484.288v1.3h-1.3C1.515,2.974,1.385,3.191,1.385,3.458Z" transform="translate(-138.973 1326.008)" fill="#fff"/><path d="M3.706,16.271a3.958,3.958,0,1,1,3.958-3.958A3.962,3.962,0,0,1,3.706,16.271Zm0-6.916a2.958,2.958,0,1,0,2.958,2.958A2.961,2.961,0,0,0,3.706,9.355Zm0,5.53a.882.882,0,0,1-.984-.788v-.8h-.8a.882.882,0,0,1-.789-.983.884.884,0,0,1,.789-.986h.8v-.8a.882.882,0,0,1,.984-.788.882.882,0,0,1,.984.788v.8h.8a.884.884,0,0,1,.788.986.882.882,0,0,1-.788.983h-.8v.8A.882.882,0,0,1,3.706,14.886ZM11.5,11.647a3.958,3.958,0,1,1,3.958-3.958A3.962,3.962,0,0,1,11.5,11.647Zm0-6.916a2.958,2.958,0,1,0,2.958,2.958A2.961,2.961,0,0,0,11.5,4.731Zm0,5.53a.883.883,0,0,1-.985-.788v-.8h-.8a.882.882,0,0,1-.788-.984A.883.883,0,0,1,9.716,6.7h.8V5.9a.883.883,0,0,1,.985-.788.882.882,0,0,1,.984.788v.8h.8a.883.883,0,0,1,.788.985.882.882,0,0,1-.788.984h-.8v.8A.882.882,0,0,1,11.5,10.26ZM3.458,7.416A3.958,3.958,0,1,1,7.416,3.458,3.962,3.962,0,0,1,3.458,7.416ZM3.458.5A2.958,2.958,0,1,0,6.416,3.458,2.961,2.961,0,0,0,3.458.5Zm0,5.531a.882.882,0,0,1-.984-.788v-.8h-.8a.882.882,0,0,1-.788-.984.882.882,0,0,1,.788-.984h.8v-.8A.882.882,0,0,1,3.457.885a.883.883,0,0,1,.985.788v.8h.8a.882.882,0,0,1,.788.984.882.882,0,0,1-.788.984h-.8v.8A.883.883,0,0,1,3.457,6.031Z" transform="translate(-138.973 1326.008)" fill="rgba(0,0,0,0)"/></g></svg>