<svg xmlns="http://www.w3.org/2000/svg" width="43.962" height="50" viewBox="0 0 43.962 50"><path d="M681.213,3155.679c-2.318-1.111-4.429-2.543-4.314-5.407a9.506,9.506,0,0,1,1.418-4.5c3.547-5.6,7.322-11.051,10.905-16.627a7.13,7.13,0,0,0,1.011-3.406c.139-3.039.048-6.086.048-9.265-2.533,0-3.008-1.464-2.871-3.506.112-1.683.014-3.38.036-5.069a1.991,1.991,0,0,1,2.186-2.2q9.172-.038,18.346,0a1.989,1.989,0,0,1,2.186,2.2c.02,2.08-.01,4.161.01,6.24.019,1.826-1.282,2.186-2.837,2.347,0,3.622-.044,7.122.041,10.62a4.131,4.131,0,0,0,.872,1.9q5.309,8.061,10.661,16.089c3.215,4.844,2.5,7.853-2.515,10.593Zm13-39.24c0,3.62.086,7.053-.047,10.476a7.222,7.222,0,0,1-1.031,3.431c-2.739,4.337-5.621,8.587-8.456,12.864-.811,1.219-1.467,2.516.136,3.525,1.516.957,2.369-.183,3.125-1.328q2.472-3.739,4.963-7.466c1.226-1.836,2.084-4.382,3.805-5.3,1.787-.951,4.417-.326,6.679-.382.656-.015,1.314,0,2.335,0-4.212-5.026-1.314-10.686-2.62-15.823Zm-2.788-4.165h14.68v-2.542h-14.68Z" transform="translate(-676.894 -3105.679)" fill="#d1e8ff"/></svg>