<svg xmlns="http://www.w3.org/2000/svg" width="51" height="51.001" viewBox="0 0 51 51.001"><g transform="translate(-1022.5 -870.5)"><path d="M21.184,50a1.465,1.465,0,0,1-1.553-1.565c-.006-.878-.022-1.757.009-2.635.012-.372-.1-.518-.462-.64-1.031-.342-2.048-.728-3.054-1.141-.58-.238-1.123-.563-1.712-.862-.687.7-1.356,1.382-2.035,2.062a1.533,1.533,0,0,1-2.518,0q-2.541-2.535-5.073-5.075a1.532,1.532,0,0,1,0-2.516c.689-.687,1.379-1.372,2.037-2.025-.41-.853-.824-1.628-1.158-2.437s-.585-1.687-.9-2.518a.544.544,0,0,0-.418-.257c-.593-.015-1.187-.014-1.78-.014-.318,0-.635,0-.953,0A1.478,1.478,0,0,1,0,28.76Q0,25,0,21.244a1.479,1.479,0,0,1,1.6-1.615c.912,0,1.822-.012,2.733.005a.394.394,0,0,0,.465-.356,9.924,9.924,0,0,1,.452-1.389c.489-1.164,1.006-2.315,1.525-3.5.014.018,0-.012-.022-.035L4.794,12.384a1.536,1.536,0,0,1-.013-2.519Q7.334,7.311,9.889,4.757a1.515,1.515,0,0,1,2.448-.013c.7.7,1.4,1.4,2.1,2.111a22.024,22.024,0,0,1,4.958-2.1c.107-.03.22-.256.223-.4.022-.8.05-1.6,0-2.389A1.806,1.806,0,0,1,20.7,0H29.3a1.808,1.808,0,0,1,1.084,1.966c-.049.779,0,1.562-.017,2.342-.006.291.092.392.372.5,1.42.549,2.825,1.139,4.234,1.721.2.085.393.205.614.32.7-.714,1.388-1.41,2.076-2.1a1.514,1.514,0,0,1,2.447,0q2.557,2.55,5.107,5.1a1.537,1.537,0,0,1,0,2.518c-.686.688-1.378,1.372-2.041,2.032.4.845.82,1.618,1.153,2.426.338.823.585,1.686.905,2.516a.548.548,0,0,0,.41.267c.8.027,1.6.051,2.389,0A1.807,1.807,0,0,1,50,20.7V29.3a1.808,1.808,0,0,1-1.966,1.085c-.793-.05-1.593-.022-2.389,0-.139,0-.367.117-.4.221a22.025,22.025,0,0,1-2.109,4.973c.25.238.495.473.739.708,2.671,2.579,2.691,2.588.022,5.181-1.237,1.2-2.442,2.437-3.662,3.655-1,1-1.7,1.007-2.692.015-.663-.665-1.325-1.332-1.98-1.992a20.567,20.567,0,0,1-4.893,2.067c-.274.073-.305.22-.3.454q.012,1.368,0,2.733A1.472,1.472,0,0,1,28.8,50q-1.9,0-3.808,0T21.184,50ZM11.329,24.989A13.671,13.671,0,1,0,25,11.326,13.7,13.7,0,0,0,11.329,24.989Zm7.906,7.331a1.466,1.466,0,0,1-1.557-1.562q-.005-5.758,0-11.517a1.465,1.465,0,0,1,1.555-1.563c1.413-.008,2.827,0,4.3,0,0,.974,0,1.884,0,2.792a1.471,1.471,0,1,0,2.929-.014c.005-.908,0-1.816,0-2.778h2.707c.5,0,1.008,0,1.513,0A1.485,1.485,0,0,1,32.323,19.3q.005,5.416,0,10.833c0,.211,0,.423,0,.634a1.472,1.472,0,0,1-1.571,1.548q-4.71.008-9.42,0l-1.224,0C19.817,32.325,19.526,32.324,19.235,32.32Z" transform="translate(1023 871)" fill="#d1e8ff"/><path d="M24.992,50.5c-1.265,0-2.547,0-3.809,0a1.96,1.96,0,0,1-2.052-2.061q0-.216,0-.431c-.006-.727-.013-1.48.013-2.225a.685.685,0,0,0,0-.1.8.8,0,0,0-.118-.048c-.977-.324-1.987-.7-3.085-1.153a13.27,13.27,0,0,1-1.2-.591l-.224-.12-.343.348c-.469.477-.955.971-1.435,1.453a2.293,2.293,0,0,1-1.61.8,2.305,2.305,0,0,1-1.616-.806c-1.623-1.619-3.33-3.327-5.074-5.076a2.021,2.021,0,0,1,0-3.223c.581-.579,1.162-1.156,1.724-1.715l.061-.06c-.075-.153-.15-.3-.223-.452-.285-.575-.555-1.118-.791-1.692-.195-.474-.36-.961-.52-1.432-.115-.34-.234-.69-.362-1.028l-.013-.006c-.463-.012-.929-.013-1.326-.013H1.608A1.982,1.982,0,0,1-.5,28.761c0-2.5,0-5.025,0-7.518a1.964,1.964,0,0,1,2.1-2.115h.274c.384,0,.767,0,1.151,0,.494,0,.907,0,1.3.01a10.326,10.326,0,0,1,.47-1.438c.348-.828.717-1.666,1.075-2.477l.32-.727-.767-.769-.982-.984a2.027,2.027,0,0,1-.014-3.225l.852-.852Q7.406,6.531,9.536,4.4a2.271,2.271,0,0,1,1.586-.774,2.243,2.243,0,0,1,1.568.762c.581.579,1.17,1.173,1.74,1.748l.094.095a22.3,22.3,0,0,1,4.6-1.923l0-.119c.021-.724.042-1.473,0-2.193A2.3,2.3,0,0,1,20.5-.455L20.6-.5h8.812l.1.046A2.3,2.3,0,0,1,30.88,2c-.027.432-.022.863-.016,1.32,0,.327.008.665,0,1l.052.021c1.17.452,2.346.939,3.484,1.41l.761.315a3.5,3.5,0,0,1,.332.163l.344-.349c.5-.511.98-.994,1.469-1.485a2,2,0,0,1,3.155,0c1.577,1.573,3.248,3.243,5.107,5.105a2.023,2.023,0,0,1,0,3.225c-.451.453-.908.907-1.351,1.346l-.439.436c.075.154.151.306.225.455.283.57.55,1.108.785,1.678.194.471.358.954.517,1.422.118.346.239.7.37,1.046l.014.007c.47.016.9.029,1.331.029.36,0,.68-.009.98-.028.082-.005.164-.008.241-.008a2.25,2.25,0,0,1,2.209,1.384l.046.1V29.4l-.045.1a2.25,2.25,0,0,1-2.211,1.384c-.078,0-.159,0-.242-.008-.287-.018-.6-.027-.95-.027-.4,0-.817.011-1.217.023l-.148,0a22.293,22.293,0,0,1-1.924,4.6l.453.435.023.022c1.431,1.382,2.149,2.075,2.151,2.936s-.716,1.562-2.144,2.949c-.817.794-1.636,1.619-2.428,2.416-.4.405-.818.824-1.23,1.234a2.377,2.377,0,0,1-1.711.9,2.536,2.536,0,0,1-1.688-.887q-.805-.807-1.6-1.613l-.109-.109a20.788,20.788,0,0,1-4.61,1.91c.008.879.008,1.771,0,2.727A1.961,1.961,0,0,1,28.8,50.5C27.539,50.5,26.257,50.5,24.992,50.5Zm-10.679-7.96.326.165c.194.1.384.2.567.3a12.335,12.335,0,0,0,1.109.548c1.076.442,2.065.812,3.021,1.129a1.032,1.032,0,0,1,.8,1.13c-.025.725-.019,1.466-.012,2.183q0,.216,0,.433A.972.972,0,0,0,21.185,49.5c1.262,0,2.543,0,3.807,0s2.545,0,3.807,0a.98.98,0,0,0,1.071-1.1c.007-.956.006-1.847,0-2.726a.867.867,0,0,1,.675-.942,20.049,20.049,0,0,0,4.774-2.018l.333-.191.647.652q.8.8,1.6,1.611a1.6,1.6,0,0,0,.98.593,1.651,1.651,0,0,0,1-.609c.41-.409.825-.827,1.226-1.231.795-.8,1.617-1.628,2.44-2.428,1.109-1.077,1.841-1.788,1.84-2.23s-.695-1.107-1.845-2.218l-.022-.021c-.237-.229-.483-.465-.729-.7l-.284-.27.194-.34a21.461,21.461,0,0,0,2.062-4.86.958.958,0,0,1,.865-.586l.177,0c.407-.011.828-.023,1.245-.023.373,0,.7.009,1.012.029a1.312,1.312,0,0,0,1.435-.7V20.817a1.252,1.252,0,0,0-1.255-.707c-.057,0-.117,0-.179.006-.32.02-.662.03-1.043.03-.458,0-.9-.014-1.395-.03a1.028,1.028,0,0,1-.86-.588c-.146-.379-.278-.767-.406-1.142-.154-.453-.314-.921-.5-1.363-.221-.537-.481-1.06-.756-1.614-.126-.254-.257-.517-.386-.786l-.153-.32.251-.25.692-.688c.441-.438.9-.891,1.347-1.343.675-.676.674-1.133,0-1.812C43,8.347,41.331,6.677,39.754,5.1a1.033,1.033,0,0,0-1.74,0c-.487.488-.962.97-1.465,1.48l-.609.618-.26.263-.328-.171c-.081-.042-.156-.084-.228-.124a3.517,3.517,0,0,0-.346-.178l-.76-.315c-1.132-.469-2.3-.954-3.462-1.4a.938.938,0,0,1-.691-.978c.008-.32,0-.649,0-.966-.006-.455-.012-.925.018-1.4A1.317,1.317,0,0,0,29.182.5H20.82a1.317,1.317,0,0,0-.7,1.435c.049.766.027,1.538.005,2.285l0,.15a.949.949,0,0,1-.589.863,21.415,21.415,0,0,0-4.843,2.056l-.333.191-.633-.638c-.569-.574-1.157-1.167-1.736-1.744a1.311,1.311,0,0,0-.862-.47,1.341,1.341,0,0,0-.879.482Q8.112,7.238,5.985,9.367l-.851.851c-.677.681-.674,1.122.014,1.813l.982.984.49.491.046-.1.46.612a.529.529,0,0,1,.118.58l-.131.3H7.105l-.32.727c-.372.844-.723,1.641-1.068,2.461A9.4,9.4,0,0,0,5.289,19.4a.879.879,0,0,1-.926.733H4.329c-.39-.007-.8-.011-1.3-.011-.382,0-.763,0-1.145,0H1.608A.989.989,0,0,0,.5,21.244c0,2.492,0,5.021,0,7.515a.987.987,0,0,0,1.111,1.109c.318,0,.633,0,.949,0h.421c.409,0,.892,0,1.374.014a1.019,1.019,0,0,1,.874.581c.143.373.274.758.4,1.13.155.457.315.929.5,1.373.223.541.485,1.069.763,1.628.125.253.255.514.384.783l.154.321-.566.563c-.562.558-1.142,1.134-1.722,1.712-.685.686-.685,1.126,0,1.809,1.744,1.748,3.45,3.455,5.073,5.075a1.4,1.4,0,0,0,.909.514,1.385,1.385,0,0,0,.9-.51c.478-.479.962-.971,1.43-1.447l.6-.612ZM25,39.171a14.172,14.172,0,0,1,0-28.345h0a14.172,14.172,0,0,1,.03,28.345Zm0-27.345a13.172,13.172,0,0,0,0,26.345h.025A13.172,13.172,0,0,0,25,11.827Zm-4.89,21c-.342,0-.621,0-.88,0a1.962,1.962,0,0,1-2.051-2.061c0-3.822,0-7.7,0-11.519a1.958,1.958,0,0,1,2.052-2.063c.493,0,1.022,0,1.666,0l2.64,0h.5v.5c0,.33,0,.652,0,.97,0,.628,0,1.221,0,1.821a.988.988,0,0,0,.962,1.1h.007c.58,0,.956-.441.959-1.116,0-.6,0-1.191,0-1.817,0-.315,0-.634,0-.959v-.5h3.207l1.008,0,.508,0A1.985,1.985,0,0,1,32.823,19.3c0,2.708,0,5.462,0,8.125v2.709c0,.07,0,.139,0,.209,0,.141,0,.288,0,.434a1.97,1.97,0,0,1-2.071,2.039c-1.357,0-2.81,0-4.711,0h-4.71ZM20.9,18.173c-.641,0-1.169,0-1.66,0a.971.971,0,0,0-1.058,1.064c0,3.82,0,7.7,0,11.516A.974.974,0,0,0,19.24,31.82c.256,0,.531,0,.869,0l1.224,0h4.71c1.9,0,3.352,0,4.709,0a.98.98,0,0,0,1.072-1.057c0-.135,0-.269,0-.412,0-.071,0-.143,0-.214V27.429c0-2.663,0-5.416,0-8.124,0-.767-.362-1.125-1.141-1.13-.337,0-.67,0-1,0H26.965q0,.23,0,.457c0,.628,0,1.221,0,1.824a1.982,1.982,0,0,1-1.954,2.111H25a1.974,1.974,0,0,1-1.962-2.1c0-.6,0-1.2,0-1.826q0-.233,0-.469Z" transform="translate(1023 871)" fill="rgba(0,0,0,0)"/></g></svg>