<svg xmlns="http://www.w3.org/2000/svg" width="31" height="30.908" viewBox="0 0 31 30.908"><g transform="translate(-1018.499 -937.5)"><path d="M15,29.908v-11.9H3.047v11.9H0V11.856H12.006V4.477h6.033V11.82h2.986V0h6V11.86H30V29.908Zm3.463-6a2.066,2.066,0,0,0-.387.122c-.018.333-.045.673-.052,1.012-.007.572,0,1.145,0,1.841h2.828c.475-2.412.332-3.026-1.352-3.026C19.2,23.862,18.858,23.881,18.462,23.913ZM24.1,26.805h2.8v-2.8c-.9-.06-1.539-.126-1.98-.126C23.722,23.881,23.943,24.37,24.1,26.805Zm1.046-8.876c-.342.005-.682.034-1.006.05-.529,2.8-.171,3.2,2.524,2.9.072-.007.137-.068.256-.13V17.928l-1.084,0C25.6,17.926,25.372,17.927,25.144,17.929ZM18.061,20.8c3.038.4,3.506-.1,2.768-2.792H18.061Zm-11.966,9.1V21h5.859v8.906Z" transform="translate(1018.999 938)" fill="#fff"/><path d="M30.5,30.408h-16v-11.9H3.547v11.9H-.5V11.356H11.506V3.977h7.033V11.32h1.986V-.5h7V11.36H30.5Zm-15-1h14V12.36H26.521V.5h-5V12.32H17.539V4.977H12.506v7.38H.5V29.408H2.547v-11.9H15.5Zm-3.046,1H5.595V20.5h6.859Zm-5.859-1h4.859V21.5H6.595Zm14.665-2.02H17.521v-.5c0-.217,0-.422,0-.619,0-.428,0-.832,0-1.229.005-.25.02-.5.035-.732.006-.1.012-.2.018-.3l.018-.342.326-.106c.048-.016.092-.032.135-.049a1.286,1.286,0,0,1,.367-.1c.447-.036.788-.052,1.075-.052v0a2.156,2.156,0,0,1,1.743.573c.477.581.408,1.483.1,3.05Zm6.137-.083H23.629l-.03-.468c-.021-.323-.042-.614-.062-.87-.091-1.2-.136-1.808.248-2.223a1.473,1.473,0,0,1,1.132-.362h0c.308,0,.689.029,1.172.066.249.019.53.041.841.061l.467.031Zm-2.832-1H26.4V24.474l-.384-.029c-.462-.035-.827-.063-1.1-.063a1.025,1.025,0,0,0-.4.045,5.338,5.338,0,0,0,.017,1.465Q24.549,26.085,24.565,26.305Zm.89-4.84a2.069,2.069,0,0,1-1.662-.571c-.49-.591-.429-1.513-.146-3.008l.073-.387.393-.02.32-.019c.228-.014.463-.029.7-.032.206,0,.427,0,.7,0l1.084,0h.5v3.631l-.271.14c-.026.013-.05.028-.077.045a.809.809,0,0,1-.354.137A11.711,11.711,0,0,1,25.454,21.466Zm-.9-3.01c-.13.758-.211,1.543,0,1.8.116.14.408.209.892.209.255,0,.564-.019.962-.059V18.427h-.584c-.265,0-.482,0-.682,0S24.755,18.444,24.559,18.456Zm-5.011,2.968A12.514,12.514,0,0,1,18,21.3l-.435-.057V17.512h3.65l.1.368c.365,1.33.495,2.28.015,2.91A2.167,2.167,0,0,1,19.548,21.424Zm-.987-1.063a9.036,9.036,0,0,0,.987.063c.531,0,.861-.081.983-.24.217-.285.05-1.124-.087-1.672H18.561Z" transform="translate(1018.999 938)" fill="rgba(0,0,0,0)"/></g></svg>