<svg xmlns="http://www.w3.org/2000/svg" width="12.246" height="12.246" viewBox="0 0 12.246 12.246"><g transform="translate(-1100.128 -2344.94)"><path d="M1108.86,2346a2.457,2.457,0,0,1,1.738,4.194l-5.218,5.219a2.458,2.458,0,0,1-3.476-3.476l5.219-5.218a2.439,2.439,0,0,1,1.737-.719m0-1.057a3.5,3.5,0,0,0-2.485,1.029l-5.218,5.218a3.515,3.515,0,0,0,0,4.97h0a3.515,3.515,0,0,0,4.97,0l5.218-5.218a3.515,3.515,0,0,0,0-4.97h0a3.5,3.5,0,0,0-2.485-1.029Z" fill="#fff"/><path d="M1103.6,2348.744l2.774-2.775a3.515,3.515,0,0,1,4.97,0h0a3.515,3.515,0,0,1,0,4.97l-2.775,2.774" fill="#fff"/></g></svg>