<svg xmlns="http://www.w3.org/2000/svg" width="17.583" height="17.584" viewBox="0 0 17.583 17.584"><g transform="translate(100.571 -1362.257)"><path d="M4.282,16.584h0A4.33,4.33,0,0,1,1.411,15.5,4.234,4.234,0,0,1,.028,12.777a4.6,4.6,0,0,1,.71-3.005A4.666,4.666,0,0,1,4.282,7.909c.531-.086,1-.187,1.445-.285l.24-.052A2.054,2.054,0,0,0,7.573,5.967c.021-.1.042-.2.064-.3.094-.433.191-.88.273-1.389A4.666,4.666,0,0,1,9.772.737,4.577,4.577,0,0,1,12.274,0,4.29,4.29,0,0,1,15.5,1.411a4.341,4.341,0,0,1-.184,5.937A5.236,5.236,0,0,1,12.247,8.62c-.474.073-.938.174-1.386.271l-.308.067a2.046,2.046,0,0,0-1.6,1.6l-.065.3c-.1.452-.2.917-.272,1.392a5.241,5.241,0,0,1-1.271,3.067A4.312,4.312,0,0,1,4.282,16.584Zm-.007-5.836a1.506,1.506,0,1,0,1.506,1.506A1.508,1.508,0,0,0,4.275,10.749Zm8.241-8.241a1.506,1.506,0,1,0,1.506,1.506A1.508,1.508,0,0,0,12.516,2.507Z" transform="translate(-100.071 1362.757)" fill="#fff"/><path d="M4.282,17.084h0a4.829,4.829,0,0,1-3.2-1.211A4.733,4.733,0,0,1-.469,12.832,5.1,5.1,0,0,1,.318,9.5,5.158,5.158,0,0,1,4.2,7.416c.517-.083.975-.183,1.417-.279l.24-.052A1.554,1.554,0,0,0,7.084,5.862q.032-.148.064-.3c.093-.426.188-.866.268-1.362A5.159,5.159,0,0,1,9.5.318,5.076,5.076,0,0,1,12.274-.5a4.79,4.79,0,0,1,3.6,1.58A4.842,4.842,0,0,1,15.668,7.7a5.666,5.666,0,0,1-3.345,1.412c-.459.07-.915.17-1.356.265l-.309.067a1.547,1.547,0,0,0-1.211,1.211q-.033.153-.066.3c-.1.443-.2.9-.267,1.361A5.67,5.67,0,0,1,7.7,15.668,4.81,4.81,0,0,1,4.282,17.084ZM12.274.5a4.079,4.079,0,0,0-2.229.656A4.19,4.19,0,0,0,8.4,4.361c-.084.523-.182.977-.278,1.416-.021.1-.043.2-.064.294a2.631,2.631,0,0,1-.692,1.29l-.008.008a2.631,2.631,0,0,1-1.29.692l-.239.052c-.455.1-.926.2-1.471.29a4.191,4.191,0,0,0-3.205,1.642,4.1,4.1,0,0,0-.632,2.678,3.735,3.735,0,0,0,1.218,2.4,3.83,3.83,0,0,0,2.539.96v0A3.816,3.816,0,0,0,7,14.961a4.816,4.816,0,0,0,1.13-2.789c.075-.49.178-.964.278-1.422l.065-.3a2.614,2.614,0,0,1,.689-1.283l.009-.009a2.621,2.621,0,0,1,1.282-.689l.306-.066c.456-.1.927-.2,1.416-.277a4.812,4.812,0,0,0,2.79-1.131,3.84,3.84,0,0,0,.164-5.252A3.79,3.79,0,0,0,12.274.5Zm-8,13.761a2.006,2.006,0,1,1,2.006-2.007A2.009,2.009,0,0,1,4.275,14.261Zm0-3.012a1.006,1.006,0,1,0,1.006,1.006A1.007,1.007,0,0,0,4.275,11.249ZM12.516,6.02a2.006,2.006,0,1,1,2.006-2.007A2.009,2.009,0,0,1,12.516,6.02Zm0-3.012a1.006,1.006,0,1,0,1.006,1.006A1.007,1.007,0,0,0,12.516,3.007Z" transform="translate(-100.071 1362.757)" fill="rgba(0,0,0,0)"/></g></svg>