<svg xmlns="http://www.w3.org/2000/svg" width="14" height="11.614" viewBox="0 0 14 11.614"><path d="M247.073,25.076a3.093,3.093,0,0,1-2.65-2l1.22-.081a3.089,3.089,0,0,1-2.253-2.87l1.045.261a3.253,3.253,0,0,1-.638-3.849,8.443,8.443,0,0,0,6.039,3.022A2.974,2.974,0,0,1,250.8,16.7a2.744,2.744,0,0,1,3.5-.188,1.325,1.325,0,0,0,1.469.126c.272-.094.528-.234.792-.353l.114.115-1.018,1.373,1.361-.336c-.177.225-.271.436-.433.534-.938.57-.921,1.506-1.065,2.44a8.231,8.231,0,0,1-12.382,6.035c-.029-.017-.047-.053-.12-.138A6.09,6.09,0,0,0,247.073,25.076Z" transform="translate(-243.016 -15.968)" fill="#fff"/></svg>