<svg xmlns="http://www.w3.org/2000/svg" width="17" height="17" viewBox="0 0 17 17"><g transform="translate(179 -1285)"><rect width="17" height="17" transform="translate(-179 1285)" fill="rgba(255,255,255,0)"/><path d="M256.479,2352.639l-4.759,4.759a1.769,1.769,0,0,1-2.484.168l-1.383-1.384-1.276,1.276,1.527,1.526a.74.74,0,0,1-1.047,1.047l-4.1-4.1a.74.74,0,0,1,1.046-1.047l1.527,1.527,1.275-1.275-1.383-1.384a1.766,1.766,0,0,1,.167-2.484l.747-.747,1.441,1.441a.74.74,0,1,0,1.046-1.046l-1.441-1.441,1.295-1.3,1.441,1.441a.74.74,0,0,0,1.047-1.047l-1.441-1.441.624-.624a2.018,2.018,0,0,1,1.357-.6l4.428-.1,1.132-1.133a.74.74,0,0,1,1.047,1.047l-1.134,1.134-.1,4.424A2,2,0,0,1,256.479,2352.639Z" transform="translate(-420.74 -1058.458)" fill="#fff"/></g></svg>