<svg xmlns="http://www.w3.org/2000/svg" width="14.999" height="11.32" viewBox="0 0 14.999 11.32"><g transform="translate(180.331 33.402)"><path d="M2.1,10.315A2.042,2.042,0,0,1,.049,8.673,2,2,0,0,1,0,8.24Q0,5.629,0,3.018c0-.027,0-.054,0-.1L.152,3q3.166,1.932,6.33,3.868a.891.891,0,0,0,1.021,0q3.181-1.947,6.368-3.882c.041-.025.086-.049.129-.074V8.5c-.034.136-.062.272-.107.4a2.046,2.046,0,0,1-2,1.415q-2.529,0-5.058.005Q4.47,10.32,2.1,10.315Zm4.8-4.523Q3.541,3.738.176,1.691a.145.145,0,0,1-.077-.2A2.063,2.063,0,0,1,2.147,0Q4.575,0,7,0h4.853a2.018,2.018,0,0,1,1.791.941,3.946,3.946,0,0,1,.253.54c.049.1.013.158-.084.216q-2.5,1.523-5,3.053c-.568.346-1.137.691-1.7,1.041a.191.191,0,0,1-.1.035A.2.2,0,0,1,6.906,5.792Z" transform="translate(-179.831 -32.902)" fill="#fff"/><path d="M6.837,10.82c-1.619,0-3.211,0-4.734-.005A2.553,2.553,0,0,1-.44,8.78,2.481,2.481,0,0,1-.5,8.24c0-1.561,0-3.27,0-5.222,0-.039,0-.073,0-.117l.049-.822.766.444.086.05.006,0L1.5,3.242C3.222,4.291,5,5.375,6.743,6.445a.4.4,0,0,0,.5,0C9.159,5.272,11.112,4.084,13,2.935l.611-.372.09-.052.046-.026.752-.439V8.557l-.015.06c-.008.034-.017.068-.025.1-.026.109-.053.222-.094.342a2.537,2.537,0,0,1-2.471,1.755C10.153,10.818,8.451,10.82,6.837,10.82ZM.5,3.8c0,1.63,0,3.089,0,4.437a1.507,1.507,0,0,0,.035.325A1.536,1.536,0,0,0,2.105,9.815c1.522,0,3.114.005,4.732.005s3.315,0,5.057-.005A1.544,1.544,0,0,0,13.419,8.74c.026-.076.047-.163.068-.254l.012-.051V3.8C11.618,4.947,9.673,6.13,7.763,7.3a1.393,1.393,0,0,1-1.543,0C4.477,6.228,2.7,5.144.983,4.1ZM7.01,6.328a.689.689,0,0,1-.361-.107c-1.837-1.122-4.26-2.6-6.733-4.1a.636.636,0,0,1-.3-.761A2.547,2.547,0,0,1,2.147-.5q1.618,0,3.236,0h6.47A2.527,2.527,0,0,1,14.062.667a2.444,2.444,0,0,1,.221.445c.023.057.045.111.068.159a.64.64,0,0,1-.28.856c-1.287.783-2.6,1.584-3.865,2.359l-1.514.924c-.433.264-.88.536-1.316.807A.683.683,0,0,1,7.01,6.328ZM.663,1.4C2.986,2.814,5.25,4.2,7.008,5.269c.389-.241.782-.48,1.164-.712l1.512-.924c1.193-.729,2.423-1.481,3.64-2.222a1.19,1.19,0,0,0-.1-.191A1.513,1.513,0,0,0,11.853.5H2.148A1.585,1.585,0,0,0,.663,1.4Z" transform="translate(-179.831 -32.902)" fill="rgba(0,0,0,0)"/></g></svg>