<svg xmlns="http://www.w3.org/2000/svg" width="17" height="17.486" viewBox="0 0 17 17.486"><g transform="translate(143 -1284.757)"><rect width="17" height="17" transform="translate(-143 1285)" fill="rgba(255,255,255,0)"/><path d="M2.232,16.486a.6.6,0,0,1-.6-.561l-.239-2.89-.32-4.019L.842,6.226a.6.6,0,0,1,.6-.661h10.5a.608.608,0,0,1,.61.661l-.23,2.79L12,13.036l-.24,2.89a.6.6,0,0,1-.61.561ZM3.4,13.036h6.59l.33-4.019H3.072ZM.588,4.181A.587.587,0,0,1,0,3.593V1.748A1.886,1.886,0,0,1,2,0h9.4a1.886,1.886,0,0,1,2,1.748V3.593a.587.587,0,0,1-.588.588Z" transform="translate(-141 1285.257)" fill="#fff"/><path d="M11.152,16.986H2.232a1.1,1.1,0,0,1-1.1-1.024L.894,13.077.573,9.056.344,6.267a1.114,1.114,0,0,1,.288-.845,1.1,1.1,0,0,1,.81-.356h10.5a1.108,1.108,0,0,1,1.109,1.2l-.23,2.79L12.5,13.075l-.24,2.887A1.107,1.107,0,0,1,11.152,16.986ZM1.442,6.066a.1.1,0,0,0-.073.033.109.109,0,0,0-.028.086l.23,2.791L1.891,13l.24,2.9a.1.1,0,0,0,.1.093h8.92a.105.105,0,0,0,.111-.092v-.011l.24-2.89.319-4.018.231-2.792a.107.107,0,0,0-.027-.084.111.111,0,0,0-.085-.035Zm9.011,7.47H2.941L2.529,8.516h8.336Zm-6.59-1H9.531l.248-3.019H3.614Zm8.944-7.855H.588A1.089,1.089,0,0,1-.5,3.593V1.748A2.386,2.386,0,0,1,2-.5h9.4a2.386,2.386,0,0,1,2.5,2.248V3.593A1.089,1.089,0,0,1,12.806,4.681ZM2,.5A1.392,1.392,0,0,0,.5,1.748V3.593a.088.088,0,0,0,.088.088H12.806a.088.088,0,0,0,.088-.088V1.748A1.392,1.392,0,0,0,11.395.5Z" transform="translate(-141 1285.257)" fill="rgba(0,0,0,0)"/></g></svg>