<svg xmlns="http://www.w3.org/2000/svg" width="31" height="23.116" viewBox="0 0 31 23.116"><g transform="translate(-1138.481 -941.764)"><path d="M4.51,22.106A4.382,4.382,0,0,1,.1,18.587a4.458,4.458,0,0,1-.1-.928Q0,12.063,0,6.467c0-.056,0-.114.01-.211.122.071.22.125.316.183q6.784,4.139,13.562,8.289a1.909,1.909,0,0,0,2.188,0q6.813-4.17,13.646-8.317c.092-.056.186-.107.278-.161V18.205c-.077.29-.135.586-.232.868a4.389,4.389,0,0,1-4.283,3.035q-5.243.008-10.487.009T4.51,22.106ZM14.8,12.413Q7.592,8.01.378,3.623a.308.308,0,0,1-.171-.418A4.428,4.428,0,0,1,4.6,0Q9.8,0,15,0H25.4a4.335,4.335,0,0,1,3.839,2.017,8.969,8.969,0,0,1,.543,1.159c.1.222.023.339-.181.464Q24.234,6.9,18.882,10.181c-1.215.744-2.434,1.483-3.643,2.232a.409.409,0,0,1-.219.076A.439.439,0,0,1,14.8,12.413Z" transform="translate(1138.981 942.264)" fill="#fff"/><path d="M15,22.616c-3.625,0-7.154,0-10.489-.01a5.029,5.029,0,0,1-3.174-1.08A5.027,5.027,0,0,1-.5,17.662c0-2.8,0-5.646,0-8.4q0-1.4,0-2.8c0-.057,0-.111.007-.178l.049-.875.7.409L.394,5.9c.067.039.129.074.19.11L2.609,7.245c3.785,2.309,7.7,4.7,11.542,7.056a1.415,1.415,0,0,0,1.665,0c3.6-2.2,7.271-4.438,10.82-6.6l2.827-1.721c.058-.035.117-.069.176-.1l.108-.062.754-.443v12.9l-.017.063c-.024.09-.046.182-.07.278-.049.2-.1.413-.173.624a4.888,4.888,0,0,1-4.754,3.372C21.762,22.613,18.331,22.616,15,22.616ZM.5,7.131Q.5,8.2.5,9.265c0,2.751,0,5.6,0,8.394a3.974,3.974,0,0,0,.087.82,3.889,3.889,0,0,0,3.921,3.127c3.334.007,6.862.01,10.487.01,3.333,0,6.763,0,10.487-.009a4.085,4.085,0,0,0,2.379-.73,3.932,3.932,0,0,0,1.432-1.965c.058-.169.1-.347.147-.536.019-.077.038-.156.058-.236V7.131L27.155,8.559c-3.548,2.159-7.216,4.391-10.817,6.6a2.4,2.4,0,0,1-2.71,0C9.785,12.794,5.872,10.407,2.088,8.1ZM15.02,12.989a.93.93,0,0,1-.481-.147C10.234,10.211,5.654,7.419.12,4.051a.8.8,0,0,1-.394-.98A4.788,4.788,0,0,1,1.518.478,5.188,5.188,0,0,1,4.6-.5c1.5,0,3.1,0,5.2,0H25.4a4.763,4.763,0,0,1,4.675,3.091c.054.131.1.255.16.373a.8.8,0,0,1-.373,1.1c-2.678,1.627-5.395,3.287-8.022,4.892l-2.7,1.647-1.205.737c-.8.488-1.627.993-2.435,1.494A.892.892,0,0,1,15.02,12.989ZM.717,3.244c5.483,3.336,10.03,6.109,14.3,8.718.8-.5,1.613-.991,2.4-1.472l1.2-.736,2.7-1.647c2.6-1.591,5.3-3.236,7.951-4.849-.042-.1-.081-.191-.12-.285a4.047,4.047,0,0,0-.328-.679A3.823,3.823,0,0,0,25.4.5H9.8C7.7.5,6.1.5,4.6.5A3.932,3.932,0,0,0,.717,3.244Z" transform="translate(1138.981 942.264)" fill="rgba(0,0,0,0)"/></g></svg>