<svg xmlns="http://www.w3.org/2000/svg" width="17" height="17.174" viewBox="0 0 17 17.174"><g transform="translate(22 -1326.913)"><rect width="17" height="17" transform="translate(-22 1327)" fill="rgba(255,255,255,0)"/><path d="M9.312,16.036l-.992-1.812a1.152,1.152,0,0,0-.456-.458l-1.811-.989a.266.266,0,0,1,0-.466l1.811-.99a1.152,1.152,0,0,0,.456-.458l.992-1.811a.265.265,0,0,1,.465,0l.99,1.811a1.166,1.166,0,0,0,.457.458l1.811.99a.266.266,0,0,1,0,.466l-1.811.989a1.166,1.166,0,0,0-.457.458l-.99,1.812a.265.265,0,0,1-.465,0ZM3.4,10.415,2.406,8.6a1.138,1.138,0,0,0-.456-.457L.138,7.157a.267.267,0,0,1,0-.467L1.949,5.7a1.144,1.144,0,0,0,.456-.457L3.4,3.432a.266.266,0,0,1,.466,0l.99,1.811A1.163,1.163,0,0,0,5.31,5.7l1.811.99a.266.266,0,0,1,0,.467l-1.811.99a1.158,1.158,0,0,0-.457.457l-.99,1.811a.266.266,0,0,1-.466,0Zm7.835-3.293-.991-1.811a1.152,1.152,0,0,0-.457-.457L7.973,3.863a.266.266,0,0,1,0-.466l1.811-.99a1.154,1.154,0,0,0,.457-.458l.991-1.81a.266.266,0,0,1,.466,0l.99,1.81a1.151,1.151,0,0,0,.458.458l1.81.99a.266.266,0,0,1,0,.466l-1.81.991a1.148,1.148,0,0,0-.458.457L11.7,7.122a.266.266,0,0,1-.466,0Z" transform="translate(-21 1327.413)" fill="#fff"/><path d="M9.545,16.674a.764.764,0,0,1-.672-.4l-.991-1.811a.65.65,0,0,0-.259-.26l-1.809-.988a.766.766,0,0,1,0-1.344l1.811-.99a.647.647,0,0,0,.257-.258l.993-1.813a.765.765,0,0,1,1.343,0l.99,1.811a.663.663,0,0,0,.26.26l1.809.989a.766.766,0,0,1,0,1.343l-1.812.99a.662.662,0,0,0-.259.261l-.989,1.81A.766.766,0,0,1,9.545,16.674ZM6.67,12.544l1.434.783a1.648,1.648,0,0,1,.656.659l.785,1.433.784-1.435a1.664,1.664,0,0,1,.655-.656l1.436-.784-1.435-.784a1.664,1.664,0,0,1-.655-.655L9.545,9.669,8.759,11.1a1.645,1.645,0,0,1-.653.656ZM3.63,11.053a.767.767,0,0,1-.671-.4L1.967,8.844a.639.639,0,0,0-.258-.259L-.1,7.6a.767.767,0,0,1,0-1.344l1.813-.99a.642.642,0,0,0,.256-.256l.992-1.813a.766.766,0,0,1,1.343,0L5.292,5a.662.662,0,0,0,.261.26l1.808.989a.766.766,0,0,1,0,1.345l-1.81.989a.655.655,0,0,0-.259.259l-.99,1.81A.765.765,0,0,1,3.63,11.053ZM.753,6.923l1.436.785a1.634,1.634,0,0,1,.657.659L3.63,9.8l.784-1.435a1.655,1.655,0,0,1,.655-.656l1.436-.785L5.07,6.138a1.664,1.664,0,0,1-.656-.655L3.63,4.047,2.844,5.483a1.639,1.639,0,0,1-.653.655Zm10.712.837a.765.765,0,0,1-.672-.4L9.8,5.551a.649.649,0,0,0-.258-.259L7.733,4.3a.766.766,0,0,1,0-1.344l1.811-.99A.651.651,0,0,0,9.8,1.71L10.793-.1a.766.766,0,0,1,1.343,0l.991,1.811a.651.651,0,0,0,.26.26l1.809.99a.766.766,0,0,1,0,1.344l-1.81.991a.647.647,0,0,0-.259.258l-.99,1.811A.768.768,0,0,1,11.465,7.76ZM8.589,3.63l1.435.785a1.646,1.646,0,0,1,.656.656l.785,1.435.784-1.435a1.644,1.644,0,0,1,.658-.657l1.433-.785-1.434-.785a1.649,1.649,0,0,1-.657-.658L11.465.754,10.68,2.189a1.65,1.65,0,0,1-.654.656Z" transform="translate(-21 1327.413)" fill="rgba(0,0,0,0)"/></g></svg>