<svg xmlns="http://www.w3.org/2000/svg" width="14" height="14.019" viewBox="0 0 14 14.019"><path d="M1106.02,29.786a7.009,7.009,0,0,1-1.835-.429,12.9,12.9,0,0,1-3.687-2.181,15.9,15.9,0,0,1-3.859-4.547,9.247,9.247,0,0,1-1.085-2.94,1.163,1.163,0,0,1,.142-.865,11.475,11.475,0,0,1,2.313-2.745c.059-.05.125-.093.188-.139a.8.8,0,0,1,1.086.1.68.68,0,0,1,.119.127,18,18,0,0,1,1.734,2.85,3.6,3.6,0,0,1,.166.466.691.691,0,0,1-.149.709c-.23.243-.482.467-.733.687-.317.278-.327.275-.16.665a6.388,6.388,0,0,0,3.686,3.574.257.257,0,0,0,.354-.09c.195-.249.408-.482.621-.718a.877.877,0,0,1,1.1-.251c.465.218.934.436,1.375.7.575.344,1.126.73,1.682,1.1a1.039,1.039,0,0,1,.421.611.543.543,0,0,1-.052.45,3.252,3.252,0,0,1-.312.456,11.069,11.069,0,0,1-2.777,2.274A1.994,1.994,0,0,1,1106.02,29.786Z" transform="translate(-1095.528 -15.767)" fill="#fff"/></svg>