<svg xmlns="http://www.w3.org/2000/svg" width="17.586" height="17.587" viewBox="0 0 17.586 17.587"><g transform="translate(63.171 -1362.256)"><path d="M0,8.293a8.293,8.293,0,1,1,8.293,8.293A8.3,8.3,0,0,1,0,8.293Zm1.845,0A6.449,6.449,0,1,0,8.293,1.845,6.456,6.456,0,0,0,1.845,8.293ZM5.12,12.074a4.936,4.936,0,1,1,3.173,1.155A4.928,4.928,0,0,1,5.12,12.074ZM6.85,5.558A3.093,3.093,0,1,0,8.293,5.2,3.089,3.089,0,0,0,6.85,5.558Zm.365,2.735A1.078,1.078,0,1,1,8.293,9.372,1.078,1.078,0,0,1,7.215,8.293Z" transform="translate(-62.671 1362.756)" fill="#fff"/><path d="M8.293-.5A8.793,8.793,0,1,1-.5,8.293,8.8,8.8,0,0,1,8.293-.5Zm0,16.587A7.793,7.793,0,1,0,.5,8.293,7.8,7.8,0,0,0,8.293,16.087Zm0-14.742A6.948,6.948,0,1,1,1.345,8.293,6.957,6.957,0,0,1,8.293,1.345Zm0,12.9A5.948,5.948,0,1,0,2.345,8.293,5.956,5.956,0,0,0,8.293,14.242Zm0-11.384a5.435,5.435,0,1,1-2.54.63A5.442,5.442,0,0,1,8.293,2.858Zm0,9.871a4.436,4.436,0,1,0-2.851-1.038A4.441,4.441,0,0,0,8.293,12.729Zm0-8.027a3.588,3.588,0,1,1-1.677.415A3.559,3.559,0,0,1,8.293,4.7Zm0,6.183a2.592,2.592,0,1,0,0-5.183A2.592,2.592,0,0,0,6.628,10.28,2.6,2.6,0,0,0,8.293,10.885Zm0-4.17A1.578,1.578,0,1,1,6.715,8.293,1.58,1.58,0,0,1,8.293,6.715Zm0,2.156a.578.578,0,1,0-.578-.578A.579.579,0,0,0,8.293,8.872Z" transform="translate(-62.671 1362.756)" fill="rgba(0,0,0,0)"/></g></svg>