<svg xmlns="http://www.w3.org/2000/svg" width="17" height="17.04" viewBox="0 0 17 17.04"><g transform="translate(56 -1284.96)"><rect width="17" height="17" transform="translate(-56 1285)" fill="rgba(255,255,255,0)"/><path d="M4.456,14.785V12.764a.966.966,0,0,1,.921-1,.966.966,0,0,1,.923,1v2.021a.966.966,0,0,1-.923,1A.966.966,0,0,1,4.456,14.785Zm4.11-3.19V9.573a.925.925,0,1,1,1.844,0V11.6a.925.925,0,1,1-1.844,0ZM0,11.6V9.573a.965.965,0,0,1,.922-1,.965.965,0,0,1,.923,1V11.6a.966.966,0,0,1-.923,1A.966.966,0,0,1,0,11.6ZM4.456,8.906V6.884a.965.965,0,0,1,.921-1,.966.966,0,0,1,.923,1V8.906a.966.966,0,0,1-.923,1A.965.965,0,0,1,4.456,8.906Zm4.11-3.191V3.693a.925.925,0,1,1,1.844,0V5.715a.925.925,0,1,1-1.844,0ZM0,5.715V3.693a.966.966,0,0,1,.922-1,.966.966,0,0,1,.923,1V5.715a.966.966,0,0,1-.923,1A.966.966,0,0,1,0,5.715ZM4.456,3.026V1a.966.966,0,0,1,.921-1A.966.966,0,0,1,6.3,1V3.026a.965.965,0,0,1-.923,1A.965.965,0,0,1,4.456,3.026Z" transform="translate(-53 1285.46)" fill="#fff"/><path d="M5.377,16.29a1.467,1.467,0,0,1-1.421-1.5V12.764a1.466,1.466,0,0,1,1.421-1.5,1.467,1.467,0,0,1,1.423,1.5v2.021A1.467,1.467,0,0,1,5.377,16.29Zm0-4.03a.469.469,0,0,0-.421.5v2.021a.469.469,0,0,0,.421.5.47.47,0,0,0,.423-.5V12.764A.469.469,0,0,0,5.377,12.26Zm4.112.839a1.467,1.467,0,0,1-1.423-1.5V9.573a1.424,1.424,0,1,1,2.844,0V11.6A1.466,1.466,0,0,1,9.489,13.1Zm0-4.03a.469.469,0,0,0-.423.5V11.6a.429.429,0,1,0,.844,0V9.573A.468.468,0,0,0,9.489,9.07ZM.922,13.1A1.467,1.467,0,0,1-.5,11.6V9.573A1.466,1.466,0,0,1,.922,8.07a1.466,1.466,0,0,1,1.423,1.5V11.6A1.467,1.467,0,0,1,.922,13.1Zm0-4.03a.469.469,0,0,0-.422.5V11.6a.469.469,0,0,0,.422.5.469.469,0,0,0,.423-.5V9.573A.469.469,0,0,0,.922,9.07Zm4.455,1.34a1.466,1.466,0,0,1-1.421-1.5V6.884a1.466,1.466,0,0,1,1.421-1.5A1.466,1.466,0,0,1,6.8,6.884V8.906A1.466,1.466,0,0,1,5.377,10.409Zm0-4.029a.468.468,0,0,0-.421.5V8.906a.468.468,0,0,0,.421.5.469.469,0,0,0,.423-.5V6.884A.469.469,0,0,0,5.377,6.381Zm4.112.838a1.467,1.467,0,0,1-1.423-1.5V3.693a1.424,1.424,0,1,1,2.844,0V5.715A1.466,1.466,0,0,1,9.489,7.219Zm0-4.03a.469.469,0,0,0-.423.5V5.715a.429.429,0,1,0,.844,0V3.693A.469.469,0,0,0,9.489,3.189ZM.922,7.219A1.467,1.467,0,0,1-.5,5.715V3.693a1.467,1.467,0,0,1,1.422-1.5,1.467,1.467,0,0,1,1.423,1.5V5.715A1.467,1.467,0,0,1,.922,7.219Zm0-4.03a.469.469,0,0,0-.422.5V5.715a.469.469,0,0,0,.422.5.469.469,0,0,0,.423-.5V3.693A.469.469,0,0,0,.922,3.189ZM5.377,4.53a1.466,1.466,0,0,1-1.421-1.5V1A1.467,1.467,0,0,1,5.377-.5,1.467,1.467,0,0,1,6.8,1V3.026A1.467,1.467,0,0,1,5.377,4.53Zm0-4.03a.469.469,0,0,0-.421.5V3.026a.469.469,0,0,0,.421.5.469.469,0,0,0,.423-.5V1A.47.47,0,0,0,5.377.5Z" transform="translate(-53 1285.46)" fill="rgba(0,0,0,0)"/></g></svg>