<svg xmlns="http://www.w3.org/2000/svg" width="200" height="44.304" viewBox="0 0 200 44.304"><g transform="translate(-183.11 -57.328)"><g transform="translate(183.11 57.328)"><g transform="translate(48.409)"><path d="M256.923,65.653H252.3l-6.462,18.3-6.462-18.3h-7.7v24.1H236.8V71.66l6.21,18.09h5.635l6.717-19.566V89.75H260.5v-24.1Z" transform="translate(-231.673 -57.354)" fill="#fff"/><rect width="5.132" height="24.097" transform="translate(82.547 8.299)" fill="#fff"/><rect width="5.132" height="4.912" transform="translate(82.547)" fill="#fff"/><path d="M338.15,65.653h-7.274l-9.919,11.775,9.588,12.322h7.132L327.428,77.381Z" transform="translate(-231.957 -57.354)" fill="#fff"/><path d="M300.957,67.091H274.4a10.4,10.4,0,0,0-10.395,10.4v1.872A10.4,10.4,0,0,0,274.4,89.754h26.556a10.4,10.4,0,0,0,10.4-10.395V77.487A10.4,10.4,0,0,0,300.957,67.091Zm-12.4,18.981H274.846c-3.29,0-5.434-2.416-5.912-5.624h15.312V76.4H268.934c.478-3.208,2.623-5.624,5.912-5.624h13.707Zm18.511-7.018c0,3.876-2.374,7.018-6.25,7.018h-7.733v-15.3h7.733c3.876,0,6.25,3.142,6.25,7.018Z" transform="translate(-231.776 -57.359)" fill="#fff"/><path d="M383.6,89.754c0-10.149-4.523-10.1-4.523-10.1,4-1.525,4-4.786,4-4.786V72.03c0-5.259-6.417-4.939-6.417-4.939H347.967a10.4,10.4,0,0,0-10.4,10.4v1.872a10.4,10.4,0,0,0,10.4,10.395h18.722V80.76h5.763c5.995,0,5.574,8.993,5.574,8.993Zm-21.482-3.682H348.411c-3.29,0-5.434-2.416-5.912-5.624h15.313V76.4H342.5c.478-3.208,2.623-5.624,5.912-5.624h13.707Zm15.862-11.96a3.038,3.038,0,0,1-3.038,3.038h-8.463V70.773h8.463a3.038,3.038,0,0,1,3.038,3.038Z" transform="translate(-232.009 -57.359)" fill="#fff"/></g><g transform="translate(0 0.285)"><path d="M220.957,77.58c.779-1.075,1.417-1.992,1.814-2.57a19.317,19.317,0,0,0-.579-2.553c-.824,1.03-1.706,2.158-2.639,3.291-.966-1.226-1.972-2.432-2.909-3.419-3.371-3.552-7.4-4.756-10.957-.963-1.362,1.454-3.053,3.644-4.9,5.768-.2-.219-.409-.438-.626-.667-1.524-1.6-2.636-2.92-3.543-3.975v-.117h-.1c-1.821-2.117-2.807-3.129-4.644-3.129-1.272,0-3.032,1.4-4.72,3.129-.106.109-.211.216-.316.327-.979,1.031-1.92,2.148-2.713,3.142a19.7,19.7,0,0,0-.127,2.2c0,.356.011.708.03,1.059.848-1.115,1.731-2.206,2.59-3.149l-.365,5.376c-.756-.525-1.491-1.1-2.184-1.693a19.4,19.4,0,0,0,1.309,5.611,9.867,9.867,0,0,0,5.927,1.9c4.66-.292,5.205-1.936,9.491-6.514,1.43,1.77,2.736,3.474,3.821,4.632,3.552,3.792,7.585,2.588,10.956-.964a58.7,58.7,0,0,0,3.936-4.75c1.007,1.158,1.962,2.355,2.856,3.482a19.462,19.462,0,0,0,.52-2.8C222.342,79.465,221.682,78.549,220.957,77.58ZM187.29,75.231a14.866,14.866,0,0,1,1.406-1.28l-.24,8.692a16.128,16.128,0,0,1-1.606-.917Zm2.045-1.726a3.394,3.394,0,0,1,.889-.411,3.657,3.657,0,0,1,.4-.075v10.4a8.354,8.354,0,0,1-1.546-.494Zm1.966,10.02-.052-.006V72.987a4.516,4.516,0,0,1,1.161.2V83.473A4.523,4.523,0,0,1,191.3,83.526Zm1.736-10.118a8.3,8.3,0,0,1,1.161.617v8.862a7.215,7.215,0,0,1-1.161.445Zm1.789,1.041q.58.42,1.16.926v6.409a12.765,12.765,0,0,1-1.16.766Zm1.788,6.852V75.949a37.578,37.578,0,0,1,2.663,2.846A28.032,28.032,0,0,1,196.615,81.3Zm5.788-2.4c.861-.938,1.608-1.776,2.277-2.5v4.952C204,80.675,203.266,79.857,202.4,78.9Zm2.9-3.174a16.027,16.027,0,0,1,1.63-1.526v8.916a7.354,7.354,0,0,1-1.63-1.167Zm2.257,7.637V73.758a4.278,4.278,0,0,1,1.63-.628V83.515A4.031,4.031,0,0,1,207.563,83.364Zm2.257-10.279a4.833,4.833,0,0,1,.925.087c.078.015.155.036.233.054v9.847a8.482,8.482,0,0,1-1.158.343Zm1.785.31a9.692,9.692,0,0,1,1.579.662v7.875a12.16,12.16,0,0,1-1.579.879Zm2.206,1.013a15.005,15.005,0,0,1,1.368.931V80.4c-.449.392-.9.761-1.368,1.1Zm1.995,5.427v-4a26.062,26.062,0,0,1,2.044,1.9C217.189,78.47,216.506,79.178,215.806,79.835Z" transform="translate(-183.113 -57.65)" fill="#fff"/><path d="M203.5,98.39A20.388,20.388,0,1,1,223.886,78,20.411,20.411,0,0,1,203.5,98.39Zm0-39.012A18.624,18.624,0,1,0,222.122,78,18.645,18.645,0,0,0,203.5,59.378Z" transform="translate(-183.11 -57.614)" fill="#fff"/></g><g transform="translate(48.278 38.99)"><path d="M231.542,96.568h2.821c.856,0,2.263,0,2.263,1.553s-1.407,1.546-2.263,1.546h-1.832v1.964h-.989Zm3.036,2.25c.564,0,1.06-.049,1.06-.7s-.5-.7-1.06-.7h-2.047v1.4Z" transform="translate(-231.542 -96.442)" fill="#fff"/><path d="M238.481,96.568h3.043c1.2,0,2.062.272,2.062,1.511a1.434,1.434,0,0,1-1.414,1.49l1.553,2.061h-1.219l-1.469-1.992H239.47v1.992h-.989Zm2.9,2.25c.807,0,1.218-.119,1.218-.718s-.411-.71-1.218-.71H239.47v1.427Z" transform="translate(-231.564 -96.442)" fill="#fff"/><path d="M248.5,96.442c2.229,0,3.015,1.31,3.015,2.7,0,1.052-.619,2.619-3.015,2.619s-3.015-1.567-3.015-2.619C245.483,97.752,246.269,96.442,248.5,96.442Zm2.027,2.64c0-1.218-.87-1.789-2.027-1.789s-2.027.571-2.027,1.789c0,1.435,1.08,1.825,2.027,1.825S250.525,100.517,250.525,99.082Z" transform="translate(-231.586 -96.442)" fill="#fff"/><path d="M253.526,96.568h4.659v.849h-3.67v1.177h3.155v.85h-3.155v2.186h-.989Z" transform="translate(-231.612 -96.442)" fill="#fff"/><path d="M260.081,96.568h4.541v.849H261.07v1.177h3.057v.85H261.07v1.337h3.635v.849h-4.624Z" transform="translate(-231.633 -96.442)" fill="#fff"/><path d="M270.575,98.107c-.16-.453-.57-.842-1.775-.842-.669,0-1.345.166-1.345.634,0,.215.126.446,1.135.57l1.2.181c1.135.174,1.8.613,1.8,1.462,0,1.2-1.141,1.644-2.493,1.644-2.173,0-2.7-1.073-2.82-1.455l.954-.3c.18.369.557.905,1.894.905.807,0,1.476-.265,1.476-.7,0-.327-.376-.543-1.1-.634l-1.211-.166c-1.17-.16-1.825-.669-1.825-1.442,0-1.518,1.972-1.518,2.361-1.518,2.179,0,2.556,1.01,2.681,1.359Z" transform="translate(-231.652 -96.442)" fill="#fff"/><path d="M277.514,98.107c-.16-.453-.571-.842-1.775-.842-.669,0-1.345.166-1.345.634,0,.215.126.446,1.135.57l1.2.181c1.135.174,1.8.613,1.8,1.462,0,1.2-1.141,1.644-2.493,1.644-2.173,0-2.7-1.073-2.821-1.455l.955-.3c.18.369.557.905,1.894.905.808,0,1.476-.265,1.476-.7,0-.327-.376-.543-1.1-.634l-1.211-.166c-1.17-.16-1.825-.669-1.825-1.442,0-1.518,1.971-1.518,2.361-1.518,2.179,0,2.556,1.01,2.681,1.359Z" transform="translate(-231.674 -96.442)" fill="#fff"/><path d="M280.576,96.568h.989v5.063h-.989Z" transform="translate(-231.698 -96.442)" fill="#fff"/><path d="M286.638,96.442c2.228,0,3.015,1.31,3.015,2.7,0,1.052-.62,2.619-3.015,2.619s-3.016-1.567-3.016-2.619C283.622,97.752,284.409,96.442,286.638,96.442Zm2.027,2.64c0-1.218-.871-1.789-2.027-1.789s-2.028.571-2.028,1.789c0,1.435,1.08,1.825,2.028,1.825S288.665,100.517,288.665,99.082Z" transform="translate(-231.707 -96.442)" fill="#fff"/><path d="M291.665,96.568h1.045l3.385,3.656V96.568h.947v5.063h-.905l-3.525-3.788v3.788h-.947Z" transform="translate(-231.733 -96.442)" fill="#fff"/><path d="M301.328,96.568h1.128l2.458,5.063H303.87l-.529-1.162h-2.918l-.536,1.162h-1.052Zm1.623,3.05-1.059-2.257-1.059,2.257Z" transform="translate(-231.756 -96.442)" fill="#fff"/><path d="M306.71,96.568h.989v4.186h3.67v.877H306.71Z" transform="translate(-231.781 -96.442)" fill="#fff"/><path d="M316.9,96.568h.989v2.006h3.4V96.568h.989v5.063h-.989v-2.18h-3.4v2.18H316.9Z" transform="translate(-231.813 -96.442)" fill="#fff"/><path d="M324.62,96.568h4.541v.849h-3.552v1.177h3.057v.85h-3.057v1.337h3.635v.849H324.62Z" transform="translate(-231.837 -96.442)" fill="#fff"/><path d="M333.123,96.568h1.128l2.458,5.063h-1.045l-.529-1.162h-2.919l-.536,1.162h-1.052Zm1.622,3.05-1.058-2.257-1.06,2.257Z" transform="translate(-231.857 -96.442)" fill="#fff"/><path d="M338.5,96.568h.989v4.186h3.671v.877H338.5Z" transform="translate(-231.882 -96.442)" fill="#fff"/><path d="M345.464,97.417H343.2v-.849h5.516v.849h-2.264v4.214h-.989Z" transform="translate(-231.896 -96.442)" fill="#fff"/><path d="M350.593,96.568h.989v2.006h3.4V96.568h.989v5.063h-.989v-2.18h-3.4v2.18h-.989Z" transform="translate(-231.92 -96.442)" fill="#fff"/></g></g></g></svg>