<svg xmlns="http://www.w3.org/2000/svg" width="49.383" height="39.736" viewBox="0 0 49.383 39.736"><g transform="translate(-648.629 105.006)"><path d="M1.037,38.736a.588.588,0,1,1,0-1.175H3.195a1.941,1.941,0,0,0,.023-.288l.021-.573c0-.34.021-.691.031-1.148a8.492,8.492,0,0,1,.139-1.264,3.157,3.157,0,0,0,.011-.457l-.053-1.488a.049.049,0,0,0-.053.032l-.139.129c-.116.094-.233.2-.361.3-.149.106-.319.192-.478.286l-.2.117a1.668,1.668,0,0,1-.393.192,4.977,4.977,0,0,1-.753.181.764.764,0,0,1-.882-.34C-.151,32.8.051,32.257.837,31.3c.414-.531.839-1.052,1.232-1.594a10.439,10.439,0,0,0,1.7-3.431c.064-.234.107-.479.181-.819l.021-.159c.043-.266.1-.521.139-.786.022-.2.042-.415.064-.616l.043-.393c.138-1.147.382-2.284.626-3.389.085-.467.2-.935.286-1.392a5.353,5.353,0,0,1,.3-1.1c.892-2.146,4.1-3.294,5.822-3.92a13.9,13.9,0,0,1,4.9-.521c.8.011,4.4.319,5.26.287h.021a13.836,13.836,0,0,0,1.711-.223l.18-.043a21.168,21.168,0,0,0,5.812-1.688,8.041,8.041,0,0,0,3.082-2.975,15.95,15.95,0,0,1,2.071-2.338c.16-.148.319-.275.48-.425a5.065,5.065,0,0,0,1.062-1.137A15.962,15.962,0,0,1,37.015,2.9c.17-.246.361-.5.542-.755L37.94,1.6c.2-.3.425-.583.637-.9a.768.768,0,0,1,.818-.435,1.356,1.356,0,0,1,.266.074A.832.832,0,0,1,40.755.117a.887.887,0,0,1,.329,1.138,4.817,4.817,0,0,0-.074,2.23c.032.012.106.065.181.1a7.744,7.744,0,0,1,1.7,1.105,2.655,2.655,0,0,1,.7.913,2.2,2.2,0,0,0,.743,1.063c.329.2.67.382,1,.563.415.212.819.414,1.222.637l1.243.649a.579.579,0,0,1,.319.531v.7a.657.657,0,0,1-.362.521c-.064.074-.138.148-.191.222A2.269,2.269,0,0,1,45.9,11.5a4.546,4.546,0,0,1-.638.042,2.55,2.55,0,0,1,.446,1.891,1.159,1.159,0,0,1-.256.5.686.686,0,0,1-.913.149,1.109,1.109,0,0,1-.319-.266c-.085-.116-.159-.223-.245-.329-.031-.041-.053-.064-.085-.105a1.806,1.806,0,0,1-1.71-.106c-.139-.085-.287-.181-.426-.256.011.116.042.256.042.372a7.594,7.594,0,0,1-.212,2.326c-.053.213-.1.437-.129.638a24.342,24.342,0,0,1-.722,3.219,13.48,13.48,0,0,1-3.39,4.973c-.074.945-.148,2.571-.2,3.718l-.128,2.721c-.021.224-.032.436-.042.67a6.406,6.406,0,0,0,.053,1.85c.1.031.2.041.3.074.149.021.3.053.446.074l.17.043a1.876,1.876,0,0,1,1.169.637,4.623,4.623,0,0,1,.456.754,1.173,1.173,0,0,1-.021.945,1.218,1.218,0,0,1-.075.925,1.682,1.682,0,0,1-.632.607h2.947a.588.588,0,0,1,0,1.175Zm35.456-1.175v0a1.273,1.273,0,0,1,0-.9c0-.01.022-.01.022-.032a3.9,3.9,0,0,0-.245-.393,1.183,1.183,0,0,0-.488-.18l-.2-.043c-.085-.032-.182-.042-.256-.074-.032,0-.064-.011-.085-.011-.139-.012-.256-.042-.383-.064a1.229,1.229,0,0,1-1-1.168c-.021-.3-.041-.595-.041-.872,0-.372.031-.734.052-1.083.022-.213.032-.436.043-.638l.139-2.869c.031-.807.063-1.615.138-2.433a2.131,2.131,0,0,1,.542-1.211c.425-.5.892-.988,1.349-1.466a13.774,13.774,0,0,0,3.485-4.93,19.528,19.528,0,0,0,.691-3.038c.042-.223.085-.446.117-.68a7.069,7.069,0,0,0,.223-1.976c-.032-.246-.076-.468-.107-.713-.031-.159-.053-.339-.085-.509a.781.781,0,0,1,.51-.882.928.928,0,0,1,.734.106c.191.105.382.234.552.351l.606.382a.684.684,0,0,0,.723-.01.975.975,0,0,1,.637-.117c-.032-.021-.042-.053-.075-.064-.094-.106-.2-.212-.3-.329a3.691,3.691,0,0,1-.351-.351.825.825,0,0,1-.211-.457.6.6,0,0,1,.117-.552.669.669,0,0,1,.531-.255,1.231,1.231,0,0,1,.349.053,1.544,1.544,0,0,1,.351.149,7.4,7.4,0,0,0,1.191,0,1.1,1.1,0,0,0,.807-.521,2.516,2.516,0,0,1,.319-.361V9.4L46,8.946c-.4-.222-.829-.425-1.233-.637-.361-.2-.712-.4-1.074-.626a3.279,3.279,0,0,1-1.221-1.594,1.877,1.877,0,0,0-.414-.5,6.329,6.329,0,0,0-1.456-.935,1.9,1.9,0,0,1-.457-.319,1.233,1.233,0,0,1-.382-.691,8.742,8.742,0,0,1-.043-1.763h-.212a.458.458,0,0,1-.212-.075c-.127.16-.244.34-.372.5l-.372.541-.574.765A19.522,19.522,0,0,0,36.866,5.25a5.711,5.711,0,0,1-1.307,1.434c-.148.138-.3.255-.435.4A13.635,13.635,0,0,0,33.2,9.255a9.162,9.162,0,0,1-3.517,3.336,22.5,22.5,0,0,1-6.141,1.8l-.16.042a6.419,6.419,0,0,1-.988.148c-.308.054-3.889-.074-3.92-.1-.787-.042-1.593-.075-2.434-.1a12.815,12.815,0,0,0-4.388.468c-1.434.509-4.409,1.571-5.1,3.24a4.722,4.722,0,0,0-.234.85c-.085.478-.2.946-.3,1.424-.223,1.084-.468,2.19-.595,3.273l-.031.371c-.032.234-.053.447-.086.67-.042.275-.1.563-.148.829l-.042.275c-.053.256-.1.531-.16.787a11.574,11.574,0,0,1-1.9,3.836c-.372.531-.776,1.03-1.19,1.551.074-.053.158-.1.233-.148a1.58,1.58,0,0,0,.245-.212l.17-.149a.833.833,0,0,1,.158-.117A14.189,14.189,0,0,0,5.31,28.018a.95.95,0,0,0,.117-.255c.032-.085.064-.17.086-.244a2.105,2.105,0,0,1,.148-.287l.085-.191c.105-.245.212-.5.361-.861a2.2,2.2,0,0,1,.1-.234,1.973,1.973,0,0,0,.106-.616l.2-2.157a.652.652,0,0,1,.542-.542.624.624,0,0,1,.689.509l.043.256a6.086,6.086,0,0,1,.106.638c.011.212.011.425.032.648,0,.149.01.3.021.445a3.125,3.125,0,0,1-.191,1.243l-.542,1.786a4.649,4.649,0,0,1-.159.5c-.14.414-.3.818-.468,1.221a8.861,8.861,0,0,1-.478.776l-.1.159a4.965,4.965,0,0,1-.467.649,5.559,5.559,0,0,1-.967.839l.041,1.445a2.434,2.434,0,0,1-.01.786,7.665,7.665,0,0,0-.128,1.2c-.021.329-.021.67-.021.988l-.011.595c-.01.08-.017.163-.026.246H7.5a2.243,2.243,0,0,1-.449-.363l-.107-.1a.872.872,0,0,1-.212-.573v-.266c0-.382,0-.743.01-1.1a2.55,2.55,0,0,1,.3-1.116l.053-.116a1.423,1.423,0,0,1,.286-.5,3.729,3.729,0,0,0,.361-.552,3.928,3.928,0,0,1,.553-.84,12.7,12.7,0,0,1,1.678-1.477c.266-.212.553-.415.829-.617a14.1,14.1,0,0,0,2.635-2.3,2.224,2.224,0,0,0,.266-.351,1.61,1.61,0,0,0,.127-.213A.2.2,0,0,1,13.853,27a.112.112,0,0,1,.011-.053,6.722,6.722,0,0,0,.222-5.216.6.6,0,1,1,1.105-.49,7.862,7.862,0,0,1,.5,3.645,5.562,5.562,0,0,1,1.328-.022c.457.054.914.117,1.382.2.169.043.328.086.509.139.011,0,.011.011.032,0a7.931,7.931,0,0,1,1.741.479c.277.094.543.191.808.255a33.877,33.877,0,0,0,3.782.786,21.4,21.4,0,0,0,3.38.2c.2,0,.425.01.627.021l-.426-1.711A.618.618,0,0,1,29.3,24.5a.609.609,0,0,1,.743.445l.6,2.519.021.042c.031.074.064.158.1.255l.466,2.093c.043.169.1.361.129.553l.032.276c.149.946.3,1.891.425,2.837a6.381,6.381,0,0,1,0,1.105c-.011.265.011.287.1.339a1.592,1.592,0,0,1,.606.7A9.477,9.477,0,0,0,33.7,37.454a.788.788,0,0,0,.1.107Zm-4.245,0a8.732,8.732,0,0,1-.832-1.35c-.064-.139-.1-.182-.1-.192a1.49,1.49,0,0,1-.733-1.508,3.226,3.226,0,0,0,0-.839c-.117-.935-.256-1.87-.4-2.805l-.042-.266a3.533,3.533,0,0,0-.107-.457l-.053-.266-.041-.18-.039-.17-.324-1.318-.084-.021c-.265-.021-.542-.053-.819-.053a21.588,21.588,0,0,1-3.591-.212,33.108,33.108,0,0,1-3.92-.807c-.3-.085-.6-.191-.894-.3a5.1,5.1,0,0,0-.521-.18,3.6,3.6,0,0,0-1.147-.245c-.106-.022-.223-.063-.329-.1a.7.7,0,0,1-.149-.043c-.4-.074-.818-.127-1.233-.17a3.4,3.4,0,0,0-1.222.053,1.54,1.54,0,0,1-.138.3l-.106.182a2.171,2.171,0,0,0-.244.4c-.075.149-.138.309-.2.457-.021.011-.021.032-.031.043a2.68,2.68,0,0,1-.223.425c-.117.17-.223.318-.34.467a15.937,15.937,0,0,1-2.868,2.508c-.256.191-.531.392-.8.595a13.072,13.072,0,0,0-1.53,1.327,3.361,3.361,0,0,0-.372.606,4.087,4.087,0,0,1-.531.787,1.561,1.561,0,0,1-.064.148,2.057,2.057,0,0,1-.1.213,1.841,1.841,0,0,0-.17.595c-.011.361-.011.722-.011,1.073v.106c.053.053.127.107.149.128a2.623,2.623,0,0,1,1.168.9,1.479,1.479,0,0,1,.081.16Zm3.4-11.178a.948.948,0,0,0-.245.509c-.064.8-.105,1.594-.138,2.39l-.138,2.869c0,.222-.022.436-.032.67a6.4,6.4,0,0,0,.053,1.848c.1.023.2.043.308.064.149.032.287.053.437.1l.159.042a1.772,1.772,0,0,1,1.18.616,4.381,4.381,0,0,1,.455.776.725.725,0,0,1,.085.34.95.95,0,0,1,.393-.085.224.224,0,0,0,.212-.117,1.285,1.285,0,0,1,.032-.935,3.663,3.663,0,0,0-.266-.393c-.063-.1-.223-.138-.467-.191l-.213-.043c-.117-.031-.232-.053-.349-.074s-.246-.043-.373-.074a1.228,1.228,0,0,1-1-1.159,12,12,0,0,1,.012-1.965c.021-.213.031-.426.041-.627l.139-2.752c.022-.659.064-1.487.1-2.231C35.889,26.1,35.772,26.233,35.645,26.383ZM40.661,6.969a.629.629,0,0,1,1.257,0,.629.629,0,1,1-1.257,0Z" transform="translate(649.393 -104.506)" fill="#004480"/><path d="M41.785,39.236H1.037a1.088,1.088,0,1,1,0-2.175H2.725l.013-.37c0-.209.008-.424.016-.65.005-.154.011-.319.016-.5v-.014A9.047,9.047,0,0,1,2.917,34.2a2.139,2.139,0,0,0,0-.233c0-.041,0-.083,0-.124l-.018-.5c-.055.033-.109.063-.163.094s-.1.056-.147.084l-.006,0-.189.109a2.192,2.192,0,0,1-.5.241,5.4,5.4,0,0,1-.823.2,1.69,1.69,0,0,1-.312.03,1.251,1.251,0,0,1-.718-.21l-.809.582.6-.759a1.234,1.234,0,0,1-.167-.227c-.464-.8.1-1.67.776-2.5q.173-.222.347-.442c.291-.368.592-.749.868-1.13a9.947,9.947,0,0,0,1.622-3.261l0-.011c.039-.144.07-.295.11-.487.018-.088.038-.183.06-.286l.02-.154c.022-.134.046-.265.069-.392s.047-.254.067-.38c.01-.094.02-.19.03-.286s.022-.214.033-.318l.044-.4c.138-1.151.378-2.279.633-3.429.045-.243.1-.486.148-.721s.1-.447.137-.663l.02-.1a5.33,5.33,0,0,1,.309-1.106c.967-2.324,4.276-3.528,6.054-4.175l.058-.021a12.263,12.263,0,0,1,4.2-.556c.229,0,.46,0,.691,0h.181c.343,0,1.127.058,2.034.12,1.164.079,2.484.169,3.074.169l.13,0h.025a13.206,13.206,0,0,0,1.622-.212l.192-.045A21.079,21.079,0,0,0,28.9,11.063a7.575,7.575,0,0,0,2.9-2.821,16.305,16.305,0,0,1,2.133-2.41l0,0c.085-.079.168-.15.248-.219s.156-.135.231-.2l.012-.011A4.719,4.719,0,0,0,35.4,4.376a16.523,16.523,0,0,1,1.215-1.769c.1-.146.21-.3.315-.441.075-.1.15-.206.223-.309l.379-.538c.094-.138.193-.275.289-.407.111-.154.226-.313.335-.476a1.271,1.271,0,0,1,1.3-.666c.029,0,.058.008.086.014A1.374,1.374,0,0,1,40.358-.5a1.243,1.243,0,0,1,.665.195l0,0a1.393,1.393,0,0,1,.535,1.7,3.986,3.986,0,0,0-.094,1.761,8.081,8.081,0,0,1,1.758,1.153A3.141,3.141,0,0,1,44.053,5.4a1.753,1.753,0,0,0,.551.836c.249.153.512.3.767.435l.2.108L45.8,6.9c.325.166.661.337.992.52l1.229.642a1.082,1.082,0,0,1,.6.978v.7a1.129,1.129,0,0,1-.538.909l-.016.018c-.035.039-.072.079-.091.106a2.784,2.784,0,0,1-1.92,1.205,3,3,0,0,1,.181.882l.245.161-.242-.043a3.134,3.134,0,0,1-.038.526l0,.02a1.634,1.634,0,0,1-.338.692,1.106,1.106,0,0,1-.934.467,1.216,1.216,0,0,1-.642-.179,1.614,1.614,0,0,1-.448-.376l-.02-.025-.058-.08-.044-.061a2.275,2.275,0,0,1-1.392-.069,9.734,9.734,0,0,1-.246,1.916l-.005.023c-.045.18-.086.387-.12.6v.006a24.9,24.9,0,0,1-.738,3.285l0,.008a13.711,13.711,0,0,1-3.379,5.029c-.065.909-.131,2.32-.179,3.367l-.137,2.9c-.022.235-.033.458-.041.645v.014a6.966,6.966,0,0,0-.007,1.4l.171.029c.071.013.138.025.2.034l.027,0,.215.054a2.312,2.312,0,0,1,1.42.808,4.231,4.231,0,0,1,.438.7l.065.123.007.014a1.607,1.607,0,0,1,.052,1.206,1.648,1.648,0,0,1-.085.995h1.806a1.088,1.088,0,0,1,0,2.175ZM1.037,38.061a.088.088,0,0,0-.088.088.089.089,0,0,0,.088.088H41.785a.088.088,0,0,0,0-.175H36.837l1.766-.941a1.188,1.188,0,0,0,.443-.431.706.706,0,0,0,.015-.531l-.042-.172.066-.153a.7.7,0,0,0,.036-.519l-.064-.121a3.326,3.326,0,0,0-.335-.547l-.01-.013a1.383,1.383,0,0,0-.864-.448l-.175-.044c-.073-.011-.143-.023-.212-.036s-.14-.025-.206-.034l-.048-.007-.046-.016c-.02-.007-.058-.015-.095-.022a1.844,1.844,0,0,1-.193-.048l-.278-.089-.059-.286a6.872,6.872,0,0,1-.063-1.979c.008-.195.02-.426.043-.676l.135-2.867c.052-1.125.123-2.666.194-3.576l.014-.178.123-.129a12.985,12.985,0,0,0,3.276-4.782,24.057,24.057,0,0,0,.7-3.146c.037-.232.084-.462.134-.666a7.152,7.152,0,0,0,.2-2.166l0-.026v-.026a1.407,1.407,0,0,0-.018-.158c-.008-.054-.016-.11-.022-.168l-.086-.929.822.443c.124.067.247.144.367.218l.084.052a1.315,1.315,0,0,0,1.251.072l.359-.154.236.31.025.031c.018.022.036.044.057.071.072.09.136.178.2.264l.045.063a.6.6,0,0,0,.164.135l.037.022a.214.214,0,0,0,.11.026.18.18,0,0,0,.106-.026l.026-.038a.7.7,0,0,0,.158-.281,2.092,2.092,0,0,0,.013-.54l-1.15-.206a.351.351,0,0,0-.063-.006.564.564,0,0,0-.255.074l-.013.006a1.19,1.19,0,0,1-1.21-.018l-.62-.391c-.156-.107-.337-.229-.51-.325l-.041-.025a.452.452,0,0,0-.326-.035l-.01,0c-.124.03-.134.257-.13.329s.028.163.04.241.026.166.04.238l.005.033c.015.118.033.23.052.349s.038.235.055.362l0,.025a7.38,7.38,0,0,1-.226,2.087l0,.015c-.034.239-.076.465-.118.684a20.137,20.137,0,0,1-.71,3.112A13.969,13.969,0,0,1,36.5,24.407l-.052.055c-.426.445-.906.947-1.332,1.447l-.016.018a1.63,1.63,0,0,0-.409.918c-.073.8-.105,1.618-.136,2.4l-.142,2.932c-.01.184-.021.393-.041.6,0,.08-.01.161-.016.243-.017.262-.035.533-.035.8s.019.532.039.825a.732.732,0,0,0,.6.726l.115.022a1.99,1.99,0,0,0,.2.033.674.674,0,0,1,.08.01h.074l.09.038.055.014c.041.01.089.021.142.039l.188.04a1.472,1.472,0,0,1,.721.312l.025.025.021.028a3.467,3.467,0,0,1,.236.371l.041.07.068.117v.135a.519.519,0,0,1-.078.276.809.809,0,0,0,.031.5l.065.2-.1.2-.137.269H33.619l-.14-.12a1.293,1.293,0,0,1-.169-.175l0,0a10.066,10.066,0,0,1-1.244-1.868,1.152,1.152,0,0,0-.395-.486l-.027-.015a.762.762,0,0,1-.332-.785l0-.033a5.861,5.861,0,0,0,0-.989c-.126-.934-.272-1.868-.423-2.821l0-.021-.03-.262c-.024-.135-.06-.276-.1-.413l-.026-.1-.46-2.067c-.022-.065-.046-.126-.069-.182l-.039-.08-.609-2.574a.11.11,0,0,0-.131-.076.119.119,0,0,0-.085.135l.587,2.359-.675-.036c-.175-.009-.4-.02-.6-.02h-.262a21.1,21.1,0,0,1-3.193-.209h-.005a34.94,34.94,0,0,1-3.829-.8c-.245-.06-.485-.142-.718-.222l-.136-.047a7.781,7.781,0,0,0-1.568-.444.519.519,0,0,1-.088,0h-.018l-.034-.01-.043-.013c-.178-.052-.33-.092-.467-.127-.4-.071-.816-.132-1.317-.192l-.159-.009c-.179-.01-.349-.019-.517-.019a2.727,2.727,0,0,0-.516.042l-.653.124.062-.662a7.5,7.5,0,0,0-.452-3.378l-.007-.016a.112.112,0,0,0-.1-.069.121.121,0,0,0-.04.007.112.112,0,0,0-.049.144h0a7.216,7.216,0,0,1-.193,5.565l-.017.053v.048l-.054.107a2.141,2.141,0,0,1-.154.26,2.7,2.7,0,0,1-.305.4,13.8,13.8,0,0,1-2.589,2.286l-.128.1-.2.145c-.207.15-.421.306-.616.461l-.006,0a12.147,12.147,0,0,0-1.613,1.418,3.5,3.5,0,0,0-.48.735l-.01.019a4.129,4.129,0,0,1-.415.628l-.012.014a.925.925,0,0,0-.181.325l-.017.043-.063.137a2.045,2.045,0,0,0-.243.9c-.01.352-.01.71-.01,1.089l0,.313a.5.5,0,0,0,.073.177l.09.08.058.055a1.482,1.482,0,0,0,.292.236l1.137.63a.969.969,0,0,0-.045-.089,2.172,2.172,0,0,0-.951-.713l-.077-.035-.053-.051-.016-.013a1.87,1.87,0,0,1-.147-.129l-.146-.146v-.313c0-.354,0-.719.011-1.088l0-.036a2.329,2.329,0,0,1,.212-.75l.009-.02a1.568,1.568,0,0,0,.074-.164l.011-.028.014-.026c.009-.017.03-.067.037-.086l.034-.094.068-.074a3.483,3.483,0,0,0,.446-.663l.015-.027a3.758,3.758,0,0,1,.425-.683l.02-.022a13.562,13.562,0,0,1,1.588-1.38l0,0c.179-.136.361-.271.537-.4l.264-.2.095-.071A15.116,15.116,0,0,0,13.995,28.1c.1-.125.194-.257.311-.426a2.134,2.134,0,0,0,.175-.331l.038-.1.03-.03.025-.06c.048-.113.1-.23.156-.348a2.638,2.638,0,0,1,.278-.463l.109-.185a1.263,1.263,0,0,0,.082-.188l.09-.249.257-.065a3.215,3.215,0,0,1,.812-.1c.21,0,.42.017.579.032h.006c.492.051.9.107,1.271.176l.054.01.051.022a.222.222,0,0,0,.051.013l.048.012.088.028c.054.017.109.035.155.047a4.073,4.073,0,0,1,1.243.269l.057.018a4.951,4.951,0,0,1,.491.172c.264.095.562.2.846.282a32.149,32.149,0,0,0,3.857.794,20.493,20.493,0,0,0,3.059.211c.147,0,.3,0,.451,0h.008c.23,0,.45.019.663.038l.195.017.042,0,.416.105.4,1.618.083.363.049.245a3.9,3.9,0,0,1,.115.5l.042.263c.171,1.077.3,1.972.405,2.813a3.637,3.637,0,0,1,0,.945.988.988,0,0,0,.476,1.035l.258.143V35.9c.014.028.03.061.048.1a8.378,8.378,0,0,0,.784,1.269l.578.794H3.866l.061-.554c0-.032.007-.064.01-.1s.009-.087.014-.13l.01-.566c0-.315,0-.672.022-1.015.006-.083.011-.159.015-.234a6.3,6.3,0,0,1,.122-1.037,1.945,1.945,0,0,0,0-.619l0-.026-.05-1.75.233-.153a5.012,5.012,0,0,0,.872-.758,4.565,4.565,0,0,0,.411-.575l.1-.167.134-.206a5.689,5.689,0,0,0,.311-.509c.181-.43.328-.813.448-1.171l.015-.039a2.125,2.125,0,0,0,.09-.277c.016-.057.032-.114.05-.173l.548-1.8a2.6,2.6,0,0,0,.163-1.042c-.01-.142-.021-.3-.022-.454s-.019-.3-.024-.44c0-.066,0-.131-.008-.2a5.074,5.074,0,0,0-.084-.507l-.016-.083-.043-.256a.125.125,0,0,0-.131-.1.164.164,0,0,0-.11.1l-.2,2.139a2.4,2.4,0,0,1-.14.765l-.017.038a1.389,1.389,0,0,0-.061.148l-.021.056c-.144.349-.255.615-.364.868l0,.007-.107.233-.03.053a1.43,1.43,0,0,0-.081.153c-.026.083-.058.171-.087.248a1.42,1.42,0,0,1-.153.334l-.015.023A14.554,14.554,0,0,1,3,31.716l-.027.023-.03.019c-.046.029-.064.042-.07.047l-.025.023-.149.13a2.1,2.1,0,0,1-.286.248l-.019.014c-.052.037-.1.068-.147.094s-.063.038-.084.053l-.9.644c.112-.027.215-.056.317-.09a1.165,1.165,0,0,0,.272-.132l.029-.018.2-.115c.054-.032.109-.063.164-.095.1-.056.193-.109.272-.165s.134-.107.2-.167l.122-.1.089-.083a.547.547,0,0,1,.431-.2h.482l.071,1.988c0,.04,0,.08,0,.119a2.27,2.27,0,0,1-.02.425l0,.012a7.9,7.9,0,0,0-.129,1.183c0,.184-.01.35-.016.506-.008.23-.015.429-.015.624v.018l-.02.565a2.436,2.436,0,0,1-.028.352l-.064.426Zm32.991-1H35.91a1.652,1.652,0,0,1,.054-.391l-.04-.063c-.068-.023-.185-.052-.253-.068l-.229-.049-.033-.012c-.013,0-.044-.012-.068-.018s-.081-.02-.128-.035l-.021,0a2.815,2.815,0,0,1-.308-.048l-.109-.02-.036-.007a1.729,1.729,0,0,1-1.376-1.595l0-.024c-.021-.3-.043-.613-.043-.907s.019-.588.037-.866c.005-.083.011-.165.016-.247l0-.021c.018-.182.029-.373.038-.558l0-.056.138-2.867c.031-.8.063-1.623.139-2.454v-.005a2.628,2.628,0,0,1,.666-1.493c.443-.519.931-1.029,1.361-1.479l.05-.053a13.235,13.235,0,0,0,3.322-4.69,19.114,19.114,0,0,0,.673-2.965l0-.008c.042-.223.082-.434.113-.656l.012-.063a6.6,6.6,0,0,0,.209-1.791c-.014-.108-.031-.212-.049-.321s-.038-.237-.055-.364c-.017-.087-.031-.176-.044-.262s-.025-.16-.039-.234l-.006-.041a1.269,1.269,0,0,1,.886-1.42,1.492,1.492,0,0,1,.372-.047,1.374,1.374,0,0,1,.744.21c.2.114.4.245.567.361l.6.38a.078.078,0,0,0,.049.015.246.246,0,0,0,.057-.008c-.039-.041-.078-.084-.116-.129a1.3,1.3,0,0,1-.324-.672,1.109,1.109,0,0,1,.205-.969,1.166,1.166,0,0,1,.93-.453,1.739,1.739,0,0,1,.473.069,1.61,1.61,0,0,1,.358.14c.167.009.353.018.54.018a4.5,4.5,0,0,0,.46-.021.573.573,0,0,0,.4-.235l-.351-.18c-.234-.129-.482-.254-.723-.376-.165-.083-.336-.17-.5-.257l-.011-.006c-.433-.242-.77-.439-1.092-.637a3.089,3.089,0,0,1-1.021-1.043,1.128,1.128,0,0,1-2.253-.1,1.134,1.134,0,0,1,1.513-1.056,6.2,6.2,0,0,0-1.3-.813l-.011-.006a2.387,2.387,0,0,1-.572-.4,1.724,1.724,0,0,1-.523-.975l0-.02c-.03-.3-.057-.6-.069-.9l-.245.356-.578.771A19.02,19.02,0,0,0,37.3,5.5a6.126,6.126,0,0,1-1.4,1.553c-.052.048-.1.094-.155.139a3.293,3.293,0,0,0-.246.231l-.027.027a13.2,13.2,0,0,0-1.854,2.088l0,0a9.594,9.594,0,0,1-3.7,3.491,23.022,23.022,0,0,1-6.257,1.838l-.163.043a6.944,6.944,0,0,1-1.043.158,3.965,3.965,0,0,1-.467.016c-.444,0-1.245-.018-2.142-.048-.827-.028-1.2-.04-1.391-.062h0c-.812-.044-1.6-.075-2.415-.095h-.008l-.629,0a10.753,10.753,0,0,0-3.574.441c-1.258.447-4.2,1.492-4.808,2.961a4.261,4.261,0,0,0-.2.753c-.053.3-.117.59-.18.874-.04.182-.081.37-.118.554l-.09.435c-.192.922-.39,1.875-.5,2.79l-.034.389c-.015.106-.027.208-.039.309-.014.118-.029.24-.047.365-.046.3-.1.607-.151.843l-.045.291c-.018.089-.036.18-.053.271l-.016.083.1-.245.01-.028a2.394,2.394,0,0,1,.091-.222,1.558,1.558,0,0,0,.066-.439l0-.025.2-2.166a1.151,1.151,0,0,1,.959-.98l.031,0c.038,0,.077-.006.115-.006a1.117,1.117,0,0,1,1.117.934l.053.3a5.82,5.82,0,0,1,.1.621v.021c0,.074.006.149.009.224,0,.138.009.269.022.4l0,.048c0,.132.009.269.019.409a3.59,3.59,0,0,1-.214,1.435L7.691,28.3c-.016.053-.03.1-.043.148a3.11,3.11,0,0,1-.127.385c-.129.381-.284.786-.475,1.237l-.013.029a6.222,6.222,0,0,1-.374.622l-.126.195-.1.161a5.428,5.428,0,0,1-.516.714l-.009.01a6.5,6.5,0,0,1-.824.75l.033,1.152a2.937,2.937,0,0,1-.017.916l0,.023a5.442,5.442,0,0,0-.1.885c0,.076-.01.155-.015.236-.02.311-.02.638-.02.954v.009l-.006.332H6.34a1.221,1.221,0,0,1-.106-.554v-.244c0-.386,0-.75.01-1.118a3.049,3.049,0,0,1,.349-1.321l.039-.086a1.9,1.9,0,0,1,.376-.644,3.5,3.5,0,0,0,.3-.463,4.341,4.341,0,0,1,.623-.935,12.943,12.943,0,0,1,1.736-1.531c.212-.169.435-.33.65-.486l.193-.14.125-.093a13.019,13.019,0,0,0,2.418-2.124l.016-.019a1.722,1.722,0,0,0,.207-.27l.025-.038a.946.946,0,0,0,.057-.092l.008-.025a.588.588,0,0,1,.052-.155,6.226,6.226,0,0,0,.213-4.789h0a1.113,1.113,0,0,1,.56-1.467l.013-.006a1.113,1.113,0,0,1,1.445.576h0a8.314,8.314,0,0,1,.577,3.3H16.3c.2,0,.388.011.573.021l.171.009.034,0c.537.063.985.129,1.412.206l.035.008c.13.033.285.074.463.125l.016,0a8.338,8.338,0,0,1,1.847.5l.122.042c.224.077.435.15.637.2l.019,0a33.076,33.076,0,0,0,3.723.773,20.147,20.147,0,0,0,3.04.2h.244l-.269-1.081a1.116,1.116,0,0,1,.806-1.325l.007,0a1.11,1.11,0,0,1,1.352.817l.589,2.478c.038.09.076.188.11.292l.008.025.47,2.111.02.076c.04.154.085.328.116.51l0,.027.03.265c.151.957.3,1.9.425,2.837v.009a6.653,6.653,0,0,1,0,1.165v0a2.265,2.265,0,0,1,.64.8l.013.026A8.63,8.63,0,0,0,34.028,37.061Zm-24.393,0H31.311c-.118-.2-.236-.407-.345-.633l0-.008-.022-.046a2,2,0,0,1-.853-1.869l0-.047a2.711,2.711,0,0,0,0-.706l0-.018c-.1-.833-.232-1.719-.4-2.789l-.043-.273a3.159,3.159,0,0,0-.093-.39l-.01-.041-.052-.258-.078-.34-.241-.98c-.166-.014-.335-.027-.5-.028s-.312,0-.463,0a21.478,21.478,0,0,1-3.206-.222,33.146,33.146,0,0,1-3.979-.82c-.325-.092-.646-.207-.929-.309l-.031-.012a4,4,0,0,0-.4-.14l-.084-.026a3.253,3.253,0,0,0-.981-.217h-.05l-.049-.01a2.886,2.886,0,0,1-.3-.083l-.055-.017a1.182,1.182,0,0,1-.16-.045c-.336-.06-.7-.11-1.146-.156-.206-.019-.351-.027-.484-.027a2.4,2.4,0,0,0-.332.021,1.32,1.32,0,0,1-.069.123l-.115.2-.018.024a1.674,1.674,0,0,0-.188.308l-.007.016c-.046.093-.089.193-.134.3l-.058.135-.071.162-.016.008a3.733,3.733,0,0,1-.2.362l-.013.02c-.134.195-.244.346-.359.492l-.009.011a15.853,15.853,0,0,1-2.86,2.519l-.094.07-.266.2c-.173.128-.352.261-.525.392a12.892,12.892,0,0,0-1.459,1.261,3.031,3.031,0,0,0-.3.5l-.03.055a4.671,4.671,0,0,1-.517.776c-.012.027-.025.056-.037.082-.036.092-.07.164-.1.227a1.342,1.342,0,0,0-.122.413c-.009.3-.01.594-.01.885A3,3,0,0,1,9.635,37.061ZM4.253,26.4a10.9,10.9,0,0,1-1.774,3.591l0,.007c-.289.4-.6.788-.895,1.165q-.174.221-.348.442l-.008.01C.585,32.4.489,32.726.5,32.877L1.627,31.46c.362-.454.7-.884,1.021-1.338a11.141,11.141,0,0,0,1.825-3.67c.037-.15.069-.317.1-.478.018-.093.035-.186.054-.277l.044-.283c.045-.228.1-.526.145-.809.016-.109.029-.219.043-.337.012-.1.025-.205.039-.313l.032-.374c.113-.962.316-1.94.513-2.885q.045-.216.089-.431c.038-.191.081-.383.122-.569.063-.289.123-.562.173-.841l0-.014a5.16,5.16,0,0,1,.262-.94c.778-1.879,3.9-2.986,5.394-3.519a11.6,11.6,0,0,1,3.91-.5l.635,0h.022c.824.02,1.624.052,2.448.1l.14.008.006,0c.5.028,2.446.1,3.333.1.243,0,.319-.005.336-.007l.02,0,.028,0a5.9,5.9,0,0,0,.9-.136l.184-.047a22.313,22.313,0,0,0,6.007-1.75,8.659,8.659,0,0,0,3.337-3.18A14.162,14.162,0,0,1,34.77,6.734c.1-.111.207-.2.306-.289.047-.041.094-.083.141-.127l.014-.013a5.269,5.269,0,0,0,1.2-1.31A19.76,19.76,0,0,1,37.57,3.328l.012-.016.568-.757.387-.561c.057-.072.114-.151.174-.235s.127-.176.2-.264l.288-.363.368.249h.713l-.054.549a8.21,8.21,0,0,0,.042,1.652.772.772,0,0,0,.24.4,1.434,1.434,0,0,0,.336.229A6.77,6.77,0,0,1,42.4,5.222l0,0a2.318,2.318,0,0,1,.518.639l.01.022a2.812,2.812,0,0,0,1.026,1.37c.309.191.633.38,1.05.613.157.083.323.166.482.247.246.124.5.253.747.388L47.4,9.1v.55l-.179.15a1.463,1.463,0,0,0-.184.208l-.053.067a1.593,1.593,0,0,1-1.145.719l-.013,0a5.462,5.462,0,0,1-.572.027c-.254,0-.495-.013-.7-.025l-.1-.006-.1-.05a1.635,1.635,0,0,0-.224-.1l-.035-.009a.75.75,0,0,0-.209-.033.188.188,0,0,0-.125.047l-.013.017a.151.151,0,0,0-.035.085l.014.04.006.038a.333.333,0,0,0,.083.195l.02.022a3.2,3.2,0,0,0,.294.293l.037.033.023.028c.05.061.107.122.167.187l.069.074a.6.6,0,0,1,.063.057l.5.332a2.365,2.365,0,0,0-.135-.218l-.549-.786h.959A4.05,4.05,0,0,0,45.829,11l.022,0a1.773,1.773,0,0,0,1.3-.8,2.144,2.144,0,0,1,.169-.2l.055-.061.057-.066.077-.043a.283.283,0,0,0,.106-.1V9.042a.093.093,0,0,0-.031-.078l-.02-.01L46.314,8.3c-.318-.176-.633-.337-.967-.507l-.241-.123-.013-.007-.2-.11c-.268-.146-.545-.3-.818-.465l-.012-.008a2.625,2.625,0,0,1-.93-1.287,2.19,2.19,0,0,0-.578-.738,7.306,7.306,0,0,0-1.578-1.023,1.606,1.606,0,0,1-.158-.084l-.009-.005-.245-.091-.047-.287a5.378,5.378,0,0,1,.09-2.46c.122-.4-.017-.5-.121-.566A.243.243,0,0,0,40.358.5a.567.567,0,0,0-.343.194L39.8.913,39.465.8a1.027,1.027,0,0,0-.128-.039h-.008a.452.452,0,0,0-.059,0c-.056,0-.149,0-.26.193l-.017.027c-.122.184-.246.355-.366.52-.1.133-.188.259-.275.387l0,.007-.382.543c-.076.108-.154.214-.23.319-.109.15-.212.292-.309.432l-.014.019a15.284,15.284,0,0,0-1.154,1.676l-.008.013A5.487,5.487,0,0,1,35.1,6.14c-.087.081-.171.154-.253.224s-.148.128-.22.194a15.34,15.34,0,0,0-2,2.262,8.469,8.469,0,0,1-3.261,3.131,21.806,21.806,0,0,1-5.937,1.733l-.193.046a14.153,14.153,0,0,1-1.773.231h-.04l-.158,0c-.624,0-1.962-.091-3.142-.172-.856-.058-1.664-.114-1.976-.118h-.178c-.229,0-.458,0-.685,0a11.231,11.231,0,0,0-3.859.5l-.056.021c-1.634.595-4.676,1.7-5.474,3.621l0,.005a4.474,4.474,0,0,0-.248.91l-.018.092c-.043.23-.093.463-.142.689s-.1.468-.143.7l0,.018c-.25,1.127-.485,2.231-.618,3.339l-.043.391c-.011.1-.022.206-.032.311s-.021.2-.031.3l0,.026c-.023.142-.048.281-.073.416s-.045.242-.064.363l-.027.193c-.023.108-.044.206-.062.3C4.335,26.059,4.3,26.231,4.253,26.4ZM37.269,37.41V36.6a.229.229,0,0,0-.031-.114l-.005-.011a3.831,3.831,0,0,0-.4-.687,1.286,1.286,0,0,0-.873-.429l-.039-.009-.17-.045c-.081-.023-.162-.039-.255-.058l-.144-.029-.01,0c-.1-.02-.21-.041-.311-.065l-.313-.073-.064-.315a6.873,6.873,0,0,1-.063-1.972v0c0-.084.009-.165.014-.245.009-.138.017-.268.017-.4v-.024l.138-2.869c.038-.934.082-1.7.139-2.406a1.444,1.444,0,0,1,.369-.8l.008-.01c.127-.149.248-.289.393-.436l.909-.915-.055,1.288c-.011.261-.023.532-.036.8-.022.491-.046,1-.059,1.424v.009l-.139,2.752c-.009.184-.02.413-.042.643a11.578,11.578,0,0,0-.013,1.867.738.738,0,0,0,.622.731c.042.01.089.018.144.028s.135.023.213.042c.108.019.232.043.36.076l.206.042a1.173,1.173,0,0,1,.76.377,3.971,3.971,0,0,1,.278.409l.158.254-.117.246a.794.794,0,0,0-.007.572l.057.2-.087.173a.715.715,0,0,1-.636.393l-.033,0a.377.377,0,0,0-.161.03Z" transform="translate(649.393 -104.506)" fill="rgba(0,0,0,0)"/></g></svg>