<svg xmlns="http://www.w3.org/2000/svg" width="33.001" height="22.56" viewBox="0 0 33.001 22.56"><g transform="translate(-584.5 169.499)"><path d="M4.83,21.561v-1H8.973c0-2.277,0-4.555.006-6.832a1.355,1.355,0,0,0-.325-.931q-1.6-1.935-3.165-3.9a.915.915,0,0,0-.8-.375c-.827.016-1.655.008-2.482,0A2.083,2.083,0,0,1,.314,5.344c.361-.664.732-1.322,1.112-2.005A2.666,2.666,0,0,1,0,.682C-.007.265.176.063.59.059A11.593,11.593,0,0,1,2.049.071,8.688,8.688,0,0,1,3.188.383a.521.521,0,0,0,.337,0A2.848,2.848,0,0,1,5.973.2c.027.01.055.019.082.03a1.565,1.565,0,0,0,1.451,0A2.482,2.482,0,0,1,9.632.26a4.1,4.1,0,0,0,1.7.305Q15.612.554,19.894.558q3.164,0,6.331,0a3.436,3.436,0,0,1,3.218,1.787,7.8,7.8,0,0,1,.463,1.274V9.694c-.267.653-.555,1.3-.787,1.964a1.217,1.217,0,0,0,.006.741c.231.666.517,1.314.78,1.969v.292c-.312.991-.626,1.981-.935,2.973-.3.975-.6,1.953-.9,2.93H32v1Zm20.152-1c.289-1.726.582-3.452.862-5.18a.45.45,0,0,0-.1-.327q-.425-.463-.887-.889a.572.572,0,0,0-.352-.143q-5.3-.011-10.6-.005c-.425,0-.57.121-.654.543q-.6,3-1.2,6Zm1.826-.06a.256.256,0,0,0,.305-.22c.562-1.85,1.136-3.7,1.7-5.547a.659.659,0,0,0-.014-.389c-.157-.428-.332-.85-.507-1.273a2.671,2.671,0,0,1,.006-2.125c.146-.35.262-.714.434-1.051a3.6,3.6,0,0,0,.178-1.624c-.1.044-.157.072-.219.1a1.937,1.937,0,0,1-2.555-.981,3.717,3.717,0,0,1-.205-1.247,1.042,1.042,0,0,0-1.1-1.1c-.194,0-.389,0-.584,0H23.44V4.075c.588,0,1.161-.031,1.729.008a1.827,1.827,0,0,1,1.473.97,2.628,2.628,0,0,1,.279,1.41.992.992,0,0,0,.99,1.067,1,1,0,0,0,1-1.067q.011-1.169,0-2.336a2.529,2.529,0,0,0-.514-1.579,2.584,2.584,0,0,0-2.2-.993c-4.769.008-9.539.014-14.309-.01-.522,0-.868.091-1.016.617a.273.273,0,0,1-.04.076A2.472,2.472,0,0,1,7.993,3.5v-.9A7.91,7.91,0,0,0,9.24,2.439c.421-.126.639-.515.855-.936-.3-.118-.581-.231-.862-.334A1.913,1.913,0,0,0,7.35,1.4a.662.662,0,0,1-.659.086c-.394-.14-.792-.266-1.189-.4a1.791,1.791,0,0,0-2.137.814Q2.254,3.874,1.174,5.861a1.079,1.079,0,0,0,1,1.672c.838,0,1.675.018,2.512,0a1.83,1.83,0,0,1,1.584.756q1.589,2,3.219,3.967a2.034,2.034,0,0,1,.482,1.366c-.009,2.171,0,4.342,0,6.512v.354h1.068c.019-.072.042-.145.058-.219q.579-2.9,1.157-5.806a1.551,1.551,0,0,1,1.759-1.439h9.723a3.8,3.8,0,0,1-1.282-3.48h.97c0,.14.005.265,0,.387A2.889,2.889,0,0,0,24.4,12.3c.769.729,1.5,1.5,2.257,2.244a.739.739,0,0,1,.229.709c-.2,1.148-.388,2.3-.578,3.452-.1.59-.192,1.181-.291,1.8.173,0,.333,0,.486,0C26.6,20.494,26.706,20.5,26.808,20.5ZM1.917,2.453,2.66,1.117l-1.6-.086A1.369,1.369,0,0,0,1.917,2.453ZM4,4.016V3.072h.965v.944Z" transform="translate(585 -169)" fill="#004480"/><path d="M32.5,22.061H4.33v-2H8.472v-.024c0-2.068,0-4.206.006-6.31a.858.858,0,0,0-.21-.609c-.96-1.159-1.967-2.4-3.171-3.905a.418.418,0,0,0-.38-.188H4.7c-.343.007-.707.01-1.145.01-.321,0-.642,0-.962,0l-.387,0A2.685,2.685,0,0,1-.145,7.763a2.675,2.675,0,0,1,.02-2.658c.263-.485.526-.955.8-1.454L.752,3.52A3.309,3.309,0,0,1-.5.691,1.115,1.115,0,0,1-.216-.138a1.088,1.088,0,0,1,.8-.3c.116,0,.234,0,.352-.008.165,0,.336-.009.506-.009a5.757,5.757,0,0,1,.663.033,4.19,4.19,0,0,1,.829.209c.132.043.257.084.378.116l.041.009a3.487,3.487,0,0,1,1.6-.4,3.4,3.4,0,0,1,1.2.225l.019.007.072.027.017.007A1.314,1.314,0,0,0,6.794-.1a1.094,1.094,0,0,0,.49-.128A2.976,2.976,0,0,1,9.831-.2a3.585,3.585,0,0,0,1.487.264h.011C14.184.058,17.087.058,19.894.058q3.164,0,6.33,0h.007A3.914,3.914,0,0,1,29.877,2.1a4.545,4.545,0,0,1,.375.964c.041.137.08.266.124.391l.029.081v6.26l-.037.091c-.071.174-.144.348-.217.522-.194.463-.395.942-.56,1.416a.73.73,0,0,0,.007.415c.16.46.353.927.54,1.379.078.188.155.376.231.565l.036.09v.465l-.266.843c-.228.721-.463,1.467-.692,2.2-.2.644-.4,1.3-.6,1.935l-.107.346H32.5Zm-7.095-1h1.982l.155-.5a.731.731,0,0,1-.7.444l-.06,0c-.082,0-.171-.006-.283-.006-.153,0-.313,0-.486,0h-.587l.135-.842.122-.756q-.1.622-.209,1.244Zm-15.932,0h1.969l.116-.581-.019.067c-.006.021-.012.043-.018.064l-.1.373H9.473Zm3.188-1h11.9l.156-.932c.208-1.236.422-2.514.627-3.773-.263-.285-.541-.562-.824-.823a.156.156,0,0,0-.026-.011c-2.034,0-4.21-.006-7.055-.006H13.9a.929.929,0,0,0-.13.007.952.952,0,0,0-.035.134Q13.27,17,12.8,19.349ZM26.6,19.995h.077c.262-.861.529-1.731.787-2.573.285-.928.58-1.888.866-2.833a.185.185,0,0,0-.006-.074c-.142-.387-.3-.782-.462-1.163l-.037-.089a3.171,3.171,0,0,1,.007-2.509c.047-.113.091-.229.138-.352a7.421,7.421,0,0,1,.311-.733,1.488,1.488,0,0,0,.129-.7,2.6,2.6,0,0,1-.526.054A2.385,2.385,0,0,1,25.676,7.59a3.79,3.79,0,0,1-.241-1.317l-.006-.1c-.03-.512-.267-.623-.614-.633-.126,0-.257,0-.387,0H22.94V3.575h.5c.177,0,.358,0,.532-.006s.357-.006.536-.006c.267,0,.488.007.7.021A2.324,2.324,0,0,1,27.071,4.8a3.114,3.114,0,0,1,.35,1.665c0,.275.131.569.49.569.3,0,.492-.224.5-.572.007-.791.008-1.574,0-2.328A2.027,2.027,0,0,0,28,2.855a2.088,2.088,0,0,0-1.792-.8H26.2c-2.157,0-4.454.007-6.747.007-2.826,0-5.3-.006-7.565-.017h-.019c-.441,0-.463.073-.513.25a.724.724,0,0,1-.1.213A2.865,2.865,0,0,1,8.66,4.059,4.948,4.948,0,0,1,7.918,4l-.425-.064V2.167l.438-.055c.144-.018.284-.03.42-.042A3.878,3.878,0,0,0,9.1,1.96a.558.558,0,0,0,.268-.206c-.1-.04-.2-.078-.3-.115a1.74,1.74,0,0,0-.593-.114,1.367,1.367,0,0,0-.824.283,1.161,1.161,0,0,1-1.12.152c-.317-.112-.646-.219-.964-.322l-.213-.069A1.374,1.374,0,0,0,4.922,1.5a1.272,1.272,0,0,0-1.12.653l-.237.419h1.9V4.516H3.5V2.684C2.8,3.936,2.177,5.057,1.613,6.1a.659.659,0,0,0-.043.651.68.68,0,0,0,.609.283l.515,0c.311,0,.633,0,.948,0,.395,0,.723,0,1.034-.012h.08a2.314,2.314,0,0,1,1.909.946c.962,1.212,2.013,2.507,3.213,3.959a2.534,2.534,0,0,1,.6,1.687c-.007,1.577-.005,3.182,0,4.733q0,.815,0,1.629h.172q.478-2.394.955-4.8l.165-.827a2.036,2.036,0,0,1,2.25-1.841h8.616a4.384,4.384,0,0,1-.672-3.033L22,9.04h1.92v.5c0,.043,0,.084,0,.125,0,.093,0,.189,0,.288a2.384,2.384,0,0,0,.818,1.981c.5.475.992.971,1.467,1.451.261.264.531.536.8.8a1.242,1.242,0,0,1,.369,1.151c-.163.926-.318,1.872-.468,2.787l-.109.659C26.732,19.184,26.667,19.585,26.6,19.995Zm2.009-7.583a2.457,2.457,0,0,0,.142.473l.036.087c.161.391.328.8.478,1.2a1.158,1.158,0,0,1,.023.705c-.266.876-.538,1.766-.8,2.63l.008-.027c.229-.736.465-1.483.693-2.205l.22-.7v-.117q-.095-.234-.192-.467c-.192-.465-.391-.946-.561-1.436C28.636,12.513,28.621,12.463,28.609,12.411ZM25.99,14.585l.122.131a.945.945,0,0,1,.228.732l.05-.285a.249.249,0,0,0-.089-.268Zm-2.4-1.065.92,0a1.064,1.064,0,0,1,.689.275q.1.091.2.185l-.459-.462ZM9.141,12.614a1.811,1.811,0,0,1,.332.957A1.514,1.514,0,0,0,9.141,12.614Zm13.84-1.826a3.055,3.055,0,0,0,.585,1.323A3.3,3.3,0,0,1,22.981,10.788Zm6.424-1.572a2.246,2.246,0,0,1-.231.909,6.569,6.569,0,0,0-.268.635c-.047.124-.1.253-.15.381a2.423,2.423,0,0,0-.144.466q.015-.058.034-.114c.175-.5.382-1,.582-1.474q.089-.212.177-.424ZM4.906,8.035a1.361,1.361,0,0,1,.8.368A1.243,1.243,0,0,0,4.906,8.035Zm24.5-1.52a1.552,1.552,0,0,1-.792,1.343l.018-.008.775-.345Zm-28.4-1.4c-.086.156-.171.311-.256.468q-.03.055-.056.11.018-.035.037-.071Zm24.3-.508a1.475,1.475,0,0,1,.607.327A1.215,1.215,0,0,0,25.314,4.607ZM.823,2.154a1.833,1.833,0,0,0,.823.736l.466.228.013-.023-.413-.186A1.928,1.928,0,0,1,.823,2.154Zm7.721.9A1.9,1.9,0,0,0,9.6,2.833a1.424,1.424,0,0,1-.218.085A4.223,4.223,0,0,1,8.544,3.057Zm17.866-2a3.012,3.012,0,0,1,2.231,1A2.918,2.918,0,0,0,26.41,1.06ZM3.347.91l-.44.791.023-.041a2.285,2.285,0,0,1,.751-.8A.846.846,0,0,1,3.347.91ZM.507.566A.529.529,0,0,0,.5.674a4.187,4.187,0,0,0,.1.911,2.358,2.358,0,0,1-.045-.572L.574.559A.441.441,0,0,0,.507.566Zm9.38.318.094.037.295.116.517.2-.127.248a1.255,1.255,0,0,1,.825-.42h-.173A4.987,4.987,0,0,1,9.887.884Zm5.865.175c1.168,0,2.4,0,3.7,0,1.915,0,3.833,0,5.67-.005h-9.37ZM6.415.865c.148.049.3.1.443.152a.321.321,0,0,0,.1.022A.155.155,0,0,0,7.057,1,2.7,2.7,0,0,1,7.319.83,1.92,1.92,0,0,1,6.415.865ZM8.468.525a2.672,2.672,0,0,1,.807.131A2,2,0,0,0,7.919.59,2.3,2.3,0,0,1,8.468.525ZM1.278.543l.834.044C2.072.579,2.031.572,1.991.568A4.791,4.791,0,0,0,1.443.541Z" transform="translate(585 -169)" fill="rgba(0,0,0,0)"/></g></svg>