<svg xmlns="http://www.w3.org/2000/svg" width="49.922" height="38.904" viewBox="0 0 49.922 38.904"><g transform="translate(-730.997 104.174)"><path d="M1.9,37.9a.588.588,0,0,1,0-1.176h8.85a.6.6,0,0,1,.03-.07,8.031,8.031,0,0,1,1.049-1.609,5.031,5.031,0,0,1,.383-.333c.4-.321.657-.555.657-.869,0-.244.031-.61.068-1.074a10.986,10.986,0,0,0-.006-3.113,7.554,7.554,0,0,1-.351-2.323c-.043-.553-.089-1.173-.16-1.779-2.891-2.4-3.153-4.847-3.11-5.884.013-.333.044-.712.077-1.12.148-1.779.349-4.2-.9-5.064-.521.22-2.227.687-3.145.932a1.838,1.838,0,0,1-.582,1A1.572,1.572,0,0,1,3.72,15.8a1.99,1.99,0,0,1-.359-.033,7.6,7.6,0,0,1-2.019-.814c-.113-.059-.218-.114-.312-.161a1.826,1.826,0,0,1-.945-2.209A4.48,4.48,0,0,1,1.5,11.128,28.637,28.637,0,0,0,2.546,8.446,5.7,5.7,0,0,1,3,6.3,8.136,8.136,0,0,1,4.2,4.538l.156-.188C3.014,3.114,3.727.546,3.761.427a.587.587,0,0,1,1.13.321c-.006.021-.491,1.843.178,2.645A2.349,2.349,0,0,1,6.8,2.454a2.566,2.566,0,0,1,1.925.5.588.588,0,0,1-.829.834,1.685,1.685,0,0,0-1.051-.16,1.163,1.163,0,0,0-.833.466A12.65,12.65,0,0,1,5.1,5.291,7.056,7.056,0,0,0,4.055,6.822a4.677,4.677,0,0,0-.337,1.729.6.6,0,0,1-.031.192c-1.1,3.191-1.311,3.274-1.575,3.379a6.093,6.093,0,0,0-.914.847.644.644,0,0,0,.358.774l.332.172a6.7,6.7,0,0,0,1.681.7.468.468,0,0,0,.43-.08.769.769,0,0,0,.221-.561.587.587,0,0,1,.439-.582C6.13,13,7.8,12.527,8.045,12.4c1.574-.788,1.7-1.645,1.666-2.222a.588.588,0,1,1,1.173-.078,3.072,3.072,0,0,1-1.33,2.744c1.378,1.358,1.167,3.9,1.01,5.8-.033.389-.063.752-.076,1.07-.084,2.065,1.447,4.286,4.094,5.94a.587.587,0,0,1-.312,1.085.581.581,0,0,1-.311-.089q-.133-.083-.262-.167c.022.26.041.514.06.755a10.428,10.428,0,0,0,.231,1.886,8.827,8.827,0,0,1,.125,3.733c-.034.421-.063.784-.063.98a2.332,2.332,0,0,1-1.093,1.783c-.108.087-.211.168-.293.25a4.9,4.9,0,0,0-.58.849h2.193a4.09,4.09,0,0,1,.791-1.679,4.72,4.72,0,0,1,.384-.333c.4-.321.657-.555.657-.869,0-.244.03-.61.067-1.074a11.029,11.029,0,0,0,0-3.113,7.488,7.488,0,0,1-.352-2.323,13.012,13.012,0,0,0-.845-4.523.588.588,0,0,1,1.019-.587c.709,1.23.868,3.331,1,5.019a10.242,10.242,0,0,0,.232,1.886,8.858,8.858,0,0,1,.125,3.733c-.034.421-.065.784-.065.98a2.332,2.332,0,0,1-1.093,1.783c-.107.087-.21.168-.292.25a2.583,2.583,0,0,0-.4.849H17.73a2.412,2.412,0,0,1,.807-1.92,22.287,22.287,0,0,1,.434-4.787,28.914,28.914,0,0,0,.78-5.112.588.588,0,0,1,1.173.078c-.005.079-.076,1.112-.231,2.326,1.231-.719,3.964-2.056,6.306-1.388a8.083,8.083,0,0,0,9.887-4.552.588.588,0,0,1,1.051.526,9.92,9.92,0,0,1-4.275,4.6,14.141,14.141,0,0,0,1.358,1.12c1.423,1.067,4.067-.035,4.967-.55a.593.593,0,0,1,.077-.037,15.1,15.1,0,0,0-1.918-4.17.588.588,0,0,1,.958-.683,15.777,15.777,0,0,1,2.533,6.747c.4,3.557-.266,5.028-1.382,6.143A7.817,7.817,0,0,0,39.1,36.728h2.576c0-.017,0-.034,0-.051A3.175,3.175,0,0,1,42.843,34.4c-.114-1.62.932-5.217,1.248-6.256-.175-1.152-1.278-8.811-.378-13.023a.588.588,0,0,1,1.149.246c-.908,4.253.4,12.644.41,12.73a.583.583,0,0,1-.019.264c-.751,2.442-1.431,5.474-1.218,6.113a.588.588,0,0,1-.231.675,2.047,2.047,0,0,0-.952,1.533c0,.017,0,.034,0,.051h5.285a.588.588,0,1,1,0,1.176Zm35.885-1.176q.01-.028.023-.055a10.216,10.216,0,0,1,1.613-2.434c.738-.738,1.426-1.746,1.045-5.182-.032-.287-.074-.569-.126-.845a10.693,10.693,0,0,1-1.021.455v1.987a.588.588,0,1,1-1.176,0V29.04a6.682,6.682,0,0,1-1.571.2,4.591,4.591,0,0,1-.778-.064v1.083a.588.588,0,0,1-1.175,0v-1.5a3.176,3.176,0,0,1-.3-.2,10.188,10.188,0,0,1-1.8-1.576,10.106,10.106,0,0,1-5.84.069c-2.528-.723-5.933,1.612-5.967,1.636a.588.588,0,0,1-.238.1,12.1,12.1,0,0,1-.384,1.605,23.538,23.538,0,0,0-.375,4.667.588.588,0,0,1-.194.437,1.457,1.457,0,0,0-.617,1.131.589.589,0,0,1,0,.1H34.906a16.818,16.818,0,0,1,1.731-2.149,3.587,3.587,0,0,0,1.055-1.869.588.588,0,1,1,1.144.271,4.766,4.766,0,0,1-1.368,2.43,12.9,12.9,0,0,0-1.114,1.318ZM1.593,11.071a.676.676,0,0,1,.082-.04A.534.534,0,0,0,1.593,11.071ZM47.91,32.638c-.085-.089-2.083-2.224-1.782-8.124.432-8.457-.272-10.361-1.237-11.97a6.817,6.817,0,0,0-5.861-3.206c-1.65,0-3.165.088-4.77.182-1.938.113-4.135.241-7.017.241a16.781,16.781,0,0,1-5.689-.744A16.109,16.109,0,0,0,18.2,8.339a33.86,33.86,0,0,1-6.089-1.218l-.023-.008A2.775,2.775,0,0,1,10.058,7.1a.587.587,0,0,1,.479-1.073,1.659,1.659,0,0,0,1.138-.011,4.605,4.605,0,0,0,1.181-.853A4.432,4.432,0,0,0,11.3,4.774a7.156,7.156,0,0,0-1.353.24A3.282,3.282,0,0,1,7.89,6.038a1.422,1.422,0,0,1-.643-.147.588.588,0,1,1,.526-1.052c.345.172,1.322-.522,1.637-.995a5.132,5.132,0,0,0,.7-2.462.588.588,0,0,1,1.176,0,6.749,6.749,0,0,1-.449,2.251,3.994,3.994,0,0,1,.442-.035h.038a7.932,7.932,0,0,1,2.83.843.587.587,0,0,1,.172.921,11.275,11.275,0,0,1-.927.9,33.053,33.053,0,0,0,4.929.91,17.022,17.022,0,0,1,3.568.72,15.829,15.829,0,0,0,5.356.7c2.849,0,5.027-.127,6.949-.238,1.622-.1,3.154-.185,4.838-.185A8,8,0,0,1,45.9,11.939c1.07,1.783,1.853,3.846,1.4,12.635-.272,5.307,1.435,7.228,1.452,7.246a.588.588,0,0,1-.844.818ZM5.387,8.4a.586.586,0,0,1,.28-.782l.715-.338a.588.588,0,1,1,.5,1.063l-.716.337a.577.577,0,0,1-.249.058A.587.587,0,0,1,5.387,8.4Z" transform="translate(731.499 -103.674)" fill="#004480"/><path d="M48.136,38.4H1.9a1.088,1.088,0,0,1,0-2.176h8.541a7.452,7.452,0,0,1,1.036-1.533,5.469,5.469,0,0,1,.423-.368c.141-.114.471-.381.471-.48,0-.256.029-.614.066-1.067l0-.047a9.84,9.84,0,0,0,.043-2.852,7.5,7.5,0,0,1-.4-2.505l0-.047c-.036-.471-.077-1-.133-1.516A9.264,9.264,0,0,1,9.3,22.293a6.367,6.367,0,0,1-.491-2.639c.012-.33.043-.7.075-1.1l0-.043c.121-1.456.3-3.605-.5-4.452-.61.211-1.7.516-2.645.771a2.264,2.264,0,0,1-.658.972,2.073,2.073,0,0,1-1.37.5,2.5,2.5,0,0,1-.449-.041,7.983,7.983,0,0,1-2.16-.862L1,15.34c-.067-.035-.13-.068-.19-.1a2.313,2.313,0,0,1-1.2-2.8,4.526,4.526,0,0,1,1.51-1.655c.18-.381.573-1.4.934-2.436a6.028,6.028,0,0,1,.508-2.279A8.282,8.282,0,0,1,3.694,4.362C2.585,2.889,3.2.569,3.28.289A1.087,1.087,0,0,1,4.623-.458,1.087,1.087,0,0,1,5.373.88a4.55,4.55,0,0,0-.131,1.634,3.015,3.015,0,0,1,1.508-.557c.118-.012.241-.018.362-.018A2.873,2.873,0,0,1,9.076,2.6a1.094,1.094,0,0,1,.232.341,5.213,5.213,0,0,0,.3-1.566,1.088,1.088,0,0,1,2.176,0,7.139,7.139,0,0,1-.248,1.723,8.808,8.808,0,0,1,2.832.888,1.087,1.087,0,0,1,.319,1.7c-.034.037-.136.148-.284.3a31.253,31.253,0,0,0,3.966.676,17.431,17.431,0,0,1,3.652.736l.007,0a15.41,15.41,0,0,0,5.215.675c2.826,0,4.993-.126,6.9-.237h.016c1.549-.091,3.151-.185,4.867-.185a8.5,8.5,0,0,1,7.3,4.019c1.115,1.857,1.931,3.988,1.475,12.918a14.6,14.6,0,0,0,.563,5.336,5.026,5.026,0,0,0,.759,1.547,1.088,1.088,0,0,1-1.571,1.5l0-.005c-.171-.18-1.331-1.5-1.776-4.658a1.117,1.117,0,0,1-.038.177,22,22,0,0,0-1.222,5.811,1.089,1.089,0,0,1-.429,1.248,1.683,1.683,0,0,0-.594.668h4.648a1.088,1.088,0,1,1,0,2.176ZM1.9,37.228a.088.088,0,0,0,0,.176H48.136a.088.088,0,1,0,0-.176h-5.83l.047-.543s0-.006,0-.008a2.539,2.539,0,0,1,1.175-1.949.088.088,0,0,0,.034-.1c-.391-1.173,1.2-6.366,1.214-6.418a.084.084,0,0,0,0-.035c-.014-.089-1.334-8.569-.406-12.915a.087.087,0,0,0-.012-.067.085.085,0,0,0-.054-.037l-.016,0a.091.091,0,0,0-.088.068c-.889,4.16.25,11.967.383,12.844l.017.112-.033.108a23.449,23.449,0,0,0-1.228,6.075l.018.255-.2.164a2.662,2.662,0,0,0-.986,1.9s0,.005,0,.008l.047.543H38.262l.4-.739A8.211,8.211,0,0,1,39.9,34.717c1.013-1.013,1.611-2.376,1.238-5.735A15.217,15.217,0,0,0,38.7,22.47a.088.088,0,0,0-.072-.037.079.079,0,0,0-.047.015.088.088,0,0,0-.023.125h0A15.587,15.587,0,0,1,40.545,26.9l.124.437-.423.166-.012.006a8.3,8.3,0,0,1-3.655,1.064,3.028,3.028,0,0,1-1.859-.549,14.969,14.969,0,0,1-1.408-1.163l-.494-.484.615-.317a9.5,9.5,0,0,0,4.057-4.38.088.088,0,0,0-.04-.118.084.084,0,0,0-.038-.009.088.088,0,0,0-.08.048c-2.14,4.279-5.43,5.177-7.813,5.177a9.811,9.811,0,0,1-2.657-.368,4.482,4.482,0,0,0-1.228-.162,10.117,10.117,0,0,0-4.688,1.5l-.876.511L20.2,27.25c.154-1.211.225-2.253.228-2.3a.088.088,0,0,0-.022-.064.084.084,0,0,0-.059-.029h-.009a.087.087,0,0,0-.085.081l0,.032a27.791,27.791,0,0,1-.8,5.206,20.685,20.685,0,0,0-.408,4.633v.2l-.142.144a1.918,1.918,0,0,0-.666,1.523l.055.546H14.813l.208-.652a2.9,2.9,0,0,1,.525-1.05,3.732,3.732,0,0,1,.288-.251l.041-.033a1.874,1.874,0,0,0,.909-1.4c0-.2.026-.529.06-.941l.006-.08a9.617,9.617,0,0,0-.074-3.47,7.65,7.65,0,0,1-.283-2.071v-.015c-.125-1.632-.281-3.664-.932-4.792a.09.09,0,0,0-.078-.044.079.079,0,0,0-.041.011.088.088,0,0,0-.034.121c.633,1.1.794,3.2.911,4.734a7.907,7.907,0,0,0,.3,2.137,8.754,8.754,0,0,1,.056,3.377l0,.036c-.035.436-.062.78-.062,1a1.711,1.711,0,0,1-.842,1.258,4.3,4.3,0,0,0-.345.3,3.573,3.573,0,0,0-.66,1.446l-.094.38h-3.45l.432-.75a5.315,5.315,0,0,1,.659-.952,3.632,3.632,0,0,1,.293-.254l.04-.033a1.872,1.872,0,0,0,.907-1.394c0-.209.026-.54.065-1.021a9.575,9.575,0,0,0-.074-3.47,7.493,7.493,0,0,1-.281-2.059l0-.065c-.017-.224-.035-.459-.055-.7l-.085-1.019.857.559q.124.081.254.162a.083.083,0,0,0,.046.013.089.089,0,0,0,.075-.04.088.088,0,0,0-.028-.121c-2.8-1.751-4.42-4.138-4.329-6.384.014-.334.045-.707.078-1.093v0c.146-1.776.347-4.209-.863-5.4l-.408-.4.454-.35a2.573,2.573,0,0,0,1.137-2.314.1.1,0,0,0-.084-.083h-.008a.09.09,0,0,0-.082.1c.076,1.126-.559,2.01-1.941,2.7-.438.217-3.451,1.013-3.481,1.021a.087.087,0,0,0-.067.087,1.267,1.267,0,0,1-.4.952.971.971,0,0,1-.848.192,7.11,7.11,0,0,1-1.822-.747l-.078-.041-.246-.127A1.136,1.136,0,0,1,.712,12.85l.024-.1L.8,12.67a6.182,6.182,0,0,1,1.064-.981l.033-.019.035-.014.035-.015A12.606,12.606,0,0,0,3.215,8.579a.1.1,0,0,0,0-.028A5.325,5.325,0,0,1,3.608,6.6a7.548,7.548,0,0,1,1.1-1.624l0,0a12.135,12.135,0,0,0,.878-1.148,1.625,1.625,0,0,1,1.182-.684,2.479,2.479,0,0,1,.339-.023,1.9,1.9,0,0,1,1.1.3l.026.024a.09.09,0,0,0,.064.027.082.082,0,0,0,.059-.025.087.087,0,0,0,0-.126,1.935,1.935,0,0,0-1.258-.373c-.089,0-.178,0-.264.013a1.862,1.862,0,0,0-1.372.732L5.1,4.211l-.415-.5C3.869,2.735,4.35.832,4.408.618l0-.007A.084.084,0,0,0,4.4.545.088.088,0,0,0,4.326.5a.088.088,0,0,0-.084.063c-.007.024-.666,2.389.451,3.418l.348.321-.3.365-.146.176-.012.014a7.622,7.622,0,0,0-1.13,1.663,5.227,5.227,0,0,0-.406,1.94l0,.077-.025.073A29.379,29.379,0,0,1,1.94,11.37l-.06.108-.021.014v0h0l-.021.011h0l-.064.042A4.467,4.467,0,0,0,.564,12.728a1.322,1.322,0,0,0,.69,1.619c.063.031.133.068.207.106l.111.058a7.244,7.244,0,0,0,1.878.766,1.5,1.5,0,0,0,.271.025,1.074,1.074,0,0,0,.72-.258,1.347,1.347,0,0,0,.42-.732l.067-.295.292-.078c1.6-.426,2.72-.758,3.079-.91l.253-.107.226.156c1.486,1.028,1.27,3.622,1.113,5.516l0,.042c-.031.383-.061.744-.073,1.055-.037.888.175,3.195,2.93,5.48l.154.128.023.2c.07.6.117,1.211.159,1.752l0,.047a7.857,7.857,0,0,0,.3,2.138c.21.419.225,1.3.057,3.377l0,.048c-.035.43-.063.771-.063.986A1.711,1.711,0,0,1,12.53,35.1c-.12.1-.245.2-.346.3a7.392,7.392,0,0,0-.956,1.481l0,.011-.118.333Zm38.079-1h1.241a3.706,3.706,0,0,1,1.112-2.049A26.61,26.61,0,0,1,43.58,28.1c-.253-1.7-1.241-8.946-.356-13.09a1.091,1.091,0,0,1,1.289-.837,1.087,1.087,0,0,1,.839,1.291c-.727,3.405,0,9.567.3,11.753a21.651,21.651,0,0,1-.024-2.732c.425-8.317-.246-10.152-1.167-11.687a6.316,6.316,0,0,0-5.432-2.963c-1.639,0-3.146.088-4.741.181-1.939.113-4.136.242-7.046.242A17.191,17.191,0,0,1,21.412,9.5l-.009,0a15.65,15.65,0,0,0-3.251-.657A34.676,34.676,0,0,1,12.1,7.64a3.227,3.227,0,0,1-1,.158,3.182,3.182,0,0,1-1.243-.244A1.088,1.088,0,0,1,9.3,6.12a2.9,2.9,0,0,1-1.413.418,1.924,1.924,0,0,1-.865-.2A1.088,1.088,0,0,1,7.738,4.3a1.1,1.1,0,0,1-.145-.107,1.354,1.354,0,0,0-.479-.081,1.481,1.481,0,0,0-.2.014.685.685,0,0,0-.486.248,13.165,13.165,0,0,1-.944,1.237A6.557,6.557,0,0,0,4.5,7.045a4.225,4.225,0,0,0-.284,1.507,1.094,1.094,0,0,1-.058.35C3.067,12.067,2.8,12.374,2.348,12.565a7.388,7.388,0,0,0-.674.615c.006.042.033.078.1.113l.007,0,.253.131.081.042a6.443,6.443,0,0,0,1.539.65l.031,0a.359.359,0,0,0,.032-.139,1.085,1.085,0,0,1,.812-1.081c1.705-.45,3.1-.862,3.291-.95,1.455-.728,1.408-1.437,1.387-1.74a1.092,1.092,0,0,1,1.01-1.159q.039,0,.078,0a1.1,1.1,0,0,1,1.082,1.017,3.448,3.448,0,0,1-1.124,2.83c1.152,1.563.952,3.98.8,5.787v.006c-.032.375-.062.737-.075,1.05-.076,1.882,1.366,3.937,3.86,5.495a1.081,1.081,0,0,1,.3.284,7.316,7.316,0,0,0-.609-2.459,1.088,1.088,0,0,1,.941-1.631,1.093,1.093,0,0,1,.944.544c.764,1.325.93,3.482,1.063,5.215v.016a14.885,14.885,0,0,0,.187,1.713c.392.8.318,2.159.171,3.985l-.007.08c-.029.358-.057.7-.057.86a2.785,2.785,0,0,1-1.275,2.169l-.044.036c-.079.064-.154.125-.207.177h.984a2.991,2.991,0,0,1,.8-1.62,20.948,20.948,0,0,1,.458-4.746,27.733,27.733,0,0,0,.754-4.964l0-.023a1.087,1.087,0,0,1,1.158-1.012,1.089,1.089,0,0,1,1.012,1.156c-.006.082-.044.638-.123,1.4a10.182,10.182,0,0,1,4.334-1.175,5.48,5.48,0,0,1,1.5.2,8.926,8.926,0,0,0,2.383.33,7.225,7.225,0,0,0,3.537-.875,8.423,8.423,0,0,0,3.382-3.749,1.082,1.082,0,0,1,.974-.6,1.085,1.085,0,0,1,1.069.894,1.09,1.09,0,0,1,1.029.447,16.328,16.328,0,0,1,2.623,6.983,11.513,11.513,0,0,1-.138,4.172,5.054,5.054,0,0,1-1.386,2.38A5.176,5.176,0,0,0,39.981,36.228Zm-26.96,0H13.9a3.929,3.929,0,0,1,.817-1.533,5.162,5.162,0,0,1,.425-.37c.139-.113.47-.38.47-.479,0-.257.029-.619.065-1.077l0-.037a9.908,9.908,0,0,0,.045-2.853,7.423,7.423,0,0,1-.4-2.505c-.018-.237-.038-.494-.061-.764a1.094,1.094,0,0,1-.068.126,1.083,1.083,0,0,1-.935.511,14.587,14.587,0,0,0,.183,1.674c.393.8.318,2.158.17,3.985-.029.354-.061.756-.061.94a2.785,2.785,0,0,1-1.275,2.169l-.046.037C13.149,36.116,13.074,36.177,13.021,36.228ZM48.269,32.29a.092.092,0,0,0,.126,0,.086.086,0,0,0,.025-.06.084.084,0,0,0-.024-.061l0,0c-.019-.02-1.874-2.041-1.589-7.616C47.245,15.9,46.5,13.9,45.469,12.2a7.5,7.5,0,0,0-6.44-3.534c-1.687,0-3.2.089-4.809.184H34.2c-1.925.112-4.107.238-6.962.238a16.247,16.247,0,0,1-5.493-.715l-.011,0a16.573,16.573,0,0,0-3.469-.7,33.29,33.29,0,0,1-5.007-.924L12.34,6.5l.724-.621a10.716,10.716,0,0,0,.883-.854.09.09,0,0,0,.021-.076.088.088,0,0,0-.047-.061,7.234,7.234,0,0,0-2.6-.791h-.032a3.5,3.5,0,0,0-.389.031l-.843.109.315-.79a6.32,6.32,0,0,0,.413-2.066.088.088,0,0,0-.176,0,5.652,5.652,0,0,1-.781,2.737A3.057,3.057,0,0,1,7.9,5.366a.784.784,0,0,1-.353-.079.084.084,0,0,0-.038-.009.092.092,0,0,0-.081.049.089.089,0,0,0,.041.118.918.918,0,0,0,.418.093,2.84,2.84,0,0,0,1.7-.883l.093-.09.125-.034a7.953,7.953,0,0,1,1.467-.257l.08,0a5.13,5.13,0,0,1,1.678.421l.747.29-.589.543a4.8,4.8,0,0,1-1.337.951,2.045,2.045,0,0,1-.757.142,2.229,2.229,0,0,1-.647-.1H10.43l-.1-.044a.083.083,0,0,0-.035-.008.088.088,0,0,0-.035.168A2.2,2.2,0,0,0,11.1,6.8a2.223,2.223,0,0,0,.809-.15l.175-.068.189.068a33.451,33.451,0,0,0,5.979,1.194,16.508,16.508,0,0,1,3.433.693l.01,0a16.348,16.348,0,0,0,5.548.724c2.881,0,5.063-.128,6.988-.24,1.61-.094,3.131-.183,4.8-.183a7.32,7.32,0,0,1,6.29,3.449c1.01,1.683,1.747,3.653,1.308,12.253C46.341,30.128,48.154,32.166,48.269,32.29Zm-13.754-5.7c.2.169.467.377.8.631a2.062,2.062,0,0,0,1.259.349,7.143,7.143,0,0,0,2.886-.788,14.948,14.948,0,0,0-1.687-3.569A10.216,10.216,0,0,1,34.516,26.588ZM10.724,5.56a1.2,1.2,0,0,0,.377.06,1.051,1.051,0,0,0,.389-.072,1.846,1.846,0,0,0,.35-.2,1.9,1.9,0,0,0-.521-.073H11.3a6.257,6.257,0,0,0-1.111.192l-.013.012a1.088,1.088,0,0,1,.449.045h0l.014.005Q10.685,5.543,10.724,5.56ZM38.141,37.228H35.354l.6-.8a13.038,13.038,0,0,1,1.16-1.371,4.242,4.242,0,0,0,1.235-2.191.088.088,0,0,0-.065-.107.087.087,0,0,0-.106.066,4.09,4.09,0,0,1-1.188,2.108,16.416,16.416,0,0,0-1.672,2.078l-.149.217H18.356l.046-.542a.088.088,0,0,0,0-.015,1.912,1.912,0,0,1,.781-1.546.088.088,0,0,0,.028-.065,25.27,25.27,0,0,1,.4-4.826,11.524,11.524,0,0,0,.367-1.536l.063-.347.348-.058a.089.089,0,0,0,.036-.015h0a10.886,10.886,0,0,1,5.2-1.863,4.334,4.334,0,0,1,1.19.158,10.278,10.278,0,0,0,2.752.382,8.68,8.68,0,0,0,2.79-.444l.335-.114.219.278a10.3,10.3,0,0,0,1.706,1.485,2.685,2.685,0,0,0,.256.17l.248.145v1.788a.088.088,0,0,0,.175,0V28.587l.585.1a5.347,5.347,0,0,0,2.146-.134l.619-.151v2.252a.089.089,0,0,0,.089.089.087.087,0,0,0,.088-.089v-2.33l.32-.123a10.18,10.18,0,0,0,.972-.434l.6-.306.123.66c.055.295.1.591.131.881.406,3.657-.364,4.767-1.188,5.591a9.7,9.7,0,0,0-1.514,2.293l0,.009Zm-18.615-1h15.12a16.344,16.344,0,0,1,1.639-2,3.091,3.091,0,0,0,.922-1.631,1.084,1.084,0,0,1,1.058-.838,1.1,1.1,0,0,1,.25.029,1.089,1.089,0,0,1,.809,1.31,6.005,6.005,0,0,1-.236.773c.513-.513,1.267-1.309.884-4.756q-.009-.081-.019-.163l-.13.056v1.649a1.088,1.088,0,1,1-2.176,0v-1a6.333,6.333,0,0,1-1.35.085v.526a1.088,1.088,0,0,1-2.175,0V29.036l-.1-.075a13.909,13.909,0,0,1-1.659-1.4,9.773,9.773,0,0,1-2.79.395,11.144,11.144,0,0,1-3.027-.42,3.336,3.336,0,0,0-.915-.119A9.936,9.936,0,0,0,21,29.1q-.042.029-.085.053a11.493,11.493,0,0,1-.35,1.4,22.81,22.81,0,0,0-.35,4.509,1.091,1.091,0,0,1-.358.807A2.083,2.083,0,0,0,19.526,36.228ZM5.919,9.241a1.092,1.092,0,0,1-.984-.625,1.086,1.086,0,0,1,.52-1.448l.715-.337a1.078,1.078,0,0,1,.465-.1A1.088,1.088,0,0,1,7.1,8.8l-.718.337A1.067,1.067,0,0,1,5.919,9.241Zm.715-1.514a.086.086,0,0,0-.037.009l-.716.338a.084.084,0,0,0-.045.049.086.086,0,0,0,0,.067.088.088,0,0,0,.08.052.079.079,0,0,0,.034-.009l.719-.338a.088.088,0,0,0-.038-.167Z" transform="translate(731.499 -103.674)" fill="rgba(0,0,0,0)"/></g></svg>